<svg xmlns="http://www.w3.org/2000/svg" width="800" height="600" viewBox="0 0 800 600">
    <defs>
      <linearGradient id="bg" x1="0" y1="0" x2="0" y2="1">
        <stop offset="0" stop-color="#0a0e27"/>
        <stop offset="1" stop-color="#1a0b2e"/>
      </linearGradient>
      <filter id="glow-strong" x="-100%" y="-100%" width="300%" height="300%">
        <feGaussianBlur stdDeviation="4" result="blur"/>
        <feMerge>
          <feMergeNode in="blur"/>
          <feMergeNode in="SourceGraphic"/>
        </feMerge>
      </filter>
      <filter id="glow-soft" x="-100%" y="-100%" width="300%" height="300%">
        <feGaussianBlur stdDeviation="3" result="blur"/>
        <feMerge>
          <feMergeNode in="blur"/>
          <feMergeNode in="SourceGraphic"/>
        </feMerge>
      </filter>
    </defs>
    <rect x="0" y="0" width="800" height="600" fill="url(#bg)"/>
    <line x1="60" y1="0" x2="60" y2="600" stroke="#2a2a5a" stroke-width="1" opacity="0.25"/><line x1="120" y1="0" x2="120" y2="600" stroke="#2a2a5a" stroke-width="1" opacity="0.25"/><line x1="180" y1="0" x2="180" y2="600" stroke="#2a2a5a" stroke-width="1" opacity="0.25"/><line x1="240" y1="0" x2="240" y2="600" stroke="#2a2a5a" stroke-width="1" opacity="0.25"/><line x1="300" y1="0" x2="300" y2="600" stroke="#2a2a5a" stroke-width="1" opacity="0.25"/><line x1="360" y1="0" x2="360" y2="600" stroke="#2a2a5a" stroke-width="1" opacity="0.25"/><line x1="420" y1="0" x2="420" y2="600" stroke="#2a2a5a" stroke-width="1" opacity="0.25"/><line x1="480" y1="0" x2="480" y2="600" stroke="#2a2a5a" stroke-width="1" opacity="0.25"/><line x1="540" y1="0" x2="540" y2="600" stroke="#2a2a5a" stroke-width="1" opacity="0.25"/><line x1="600" y1="0" x2="600" y2="600" stroke="#2a2a5a" stroke-width="1" opacity="0.25"/><line x1="660" y1="0" x2="660" y2="600" stroke="#2a2a5a" stroke-width="1" opacity="0.25"/><line x1="720" y1="0" x2="720" y2="600" stroke="#2a2a5a" stroke-width="1" opacity="0.25"/><line x1="780" y1="0" x2="780" y2="600" stroke="#2a2a5a" stroke-width="1" opacity="0.25"/><line x1="0" y1="60" x2="800" y2="60" stroke="#2a2a5a" stroke-width="1" opacity="0.25"/><line x1="0" y1="120" x2="800" y2="120" stroke="#2a2a5a" stroke-width="1" opacity="0.25"/><line x1="0" y1="180" x2="800" y2="180" stroke="#2a2a5a" stroke-width="1" opacity="0.25"/><line x1="0" y1="240" x2="800" y2="240" stroke="#2a2a5a" stroke-width="1" opacity="0.25"/><line x1="0" y1="300" x2="800" y2="300" stroke="#2a2a5a" stroke-width="1" opacity="0.25"/><line x1="0" y1="360" x2="800" y2="360" stroke="#2a2a5a" stroke-width="1" opacity="0.25"/><line x1="0" y1="420" x2="800" y2="420" stroke="#2a2a5a" stroke-width="1" opacity="0.25"/><line x1="0" y1="480" x2="800" y2="480" stroke="#2a2a5a" stroke-width="1" opacity="0.25"/><line x1="0" y1="540" x2="800" y2="540" stroke="#2a2a5a" stroke-width="1" opacity="0.25"/>
    <path d="M 451.36,503.23 Q 499.83,488.24 512.37,504.2 L 524.9,520.15" stroke="#ff2fd0" stroke-width="2.5" fill="none" opacity="0.85"/><path d="M 367.67,465.38 Q 318.37,450.14 308.72,431.9 L 299.06,413.66" stroke="#ff2fd0" stroke-width="2.5" fill="none" opacity="0.85"/><path d="M 325.21,427.54 Q 375.33,412.04 388.02,428.74 L 400.72,445.45" stroke="#ff2fd0" stroke-width="2.5" fill="none" opacity="0.85"/><path d="M 378.13,389.69 Q 427.74,374.35 447.05,382 L 466.36,389.66" stroke="#ff2fd0" stroke-width="2.5" fill="none" opacity="0.85"/><path d="M 458.94,351.85 Q 409.83,336.66 393.06,348.54 L 376.28,360.43" stroke="#ff2fd0" stroke-width="2.5" fill="none" opacity="0.85"/><path d="M 464.58,314 Q 415.98,298.97 401.88,313.64 L 387.78,328.31" stroke="#ff2fd0" stroke-width="2.5" fill="none" opacity="0.85"/><path d="M 387.86,276.15 Q 338.44,260.86 327.21,243.48 L 315.97,226.1" stroke="#ff2fd0" stroke-width="2.5" fill="none" opacity="0.85"/><path d="M 326.62,238.31 Q 376.87,222.76 380.84,202.1 L 384.81,181.44" stroke="#ff2fd0" stroke-width="2.5" fill="none" opacity="0.85"/><path d="M 358.96,200.46 Q 408.7,185.07 420.88,168.17 L 433.05,151.28" stroke="#ff2fd0" stroke-width="2.5" fill="none" opacity="0.85"/><path d="M 443.63,162.62 Q 492.87,147.38 509.95,158.94 L 527.02,170.5" stroke="#ff2fd0" stroke-width="2.5" fill="none" opacity="0.85"/><path d="M 472.67,124.77 Q 521.4,109.69 540.64,116.5 L 559.88,123.3" stroke="#ff2fd0" stroke-width="2.5" fill="none" opacity="0.85"/><path d="M 411.48,86.92 Q 445.15,76.51 445.96,62.43 L 446.76,48.36" stroke="#ff2fd0" stroke-width="2.5" fill="none" opacity="0.85"/>
    <g filter="url(#glow-strong)"><path d="M 400,560 Q 469.55,541.08 471.4,531.62 Q 473.25,522.15 462.3,512.69 Q 451.36,503.23 431.44,493.77 Q 411.53,484.31 389.6,474.85 Q 367.67,465.38 351.39,455.92 Q 335.1,446.46 330.16,437 Q 325.21,427.54 333.33,418.08 Q 341.44,408.62 359.79,399.15 Q 378.13,389.69 400.3,380.23 Q 422.46,370.77 440.7,361.31 Q 458.94,351.85 466.89,342.38 Q 474.83,332.92 469.71,323.46 Q 464.58,314 448.18,304.54 Q 431.77,295.08 409.82,285.62 Q 387.86,276.15 368.03,266.69 Q 348.19,257.23 337.41,247.77 Q 326.62,238.31 328.65,228.85 Q 330.68,219.38 344.82,209.92 Q 358.96,200.46 380.26,191 Q 401.57,181.54 422.6,172.08 Q 443.63,162.62 457.05,153.15 Q 470.46,143.69 471.56,134.23 Q 472.67,124.77 461.08,115.31 Q 449.49,105.85 430.49,96.38 Q 411.48,86.92 403.23,77.46 L 394.98,68" stroke="#00ffc8" stroke-width="3.5" fill="none" stroke-linecap="round"/></g>
    <path d="M 473.25,513.01 L 478.73,522.15 L 473.25,531.3 L 467.76,522.15 Z" fill="#39ff14" opacity="0.85" transform="rotate(170.32 473.25 522.15)"/><path d="M 411.53,475.33 L 416.91,484.31 L 411.53,493.28 L 406.14,484.31 Z" fill="#39ff14" opacity="0.85" transform="rotate(66.66 411.53 484.31)"/><path d="M 299.06,402.02 L 306.04,413.66 L 299.06,425.29 L 292.08,413.66 Z" fill="#39ff14" opacity="0.85" transform="rotate(85.97 299.06 413.66)"/><path d="M 367.67,456.27 L 373.13,465.38 L 367.67,474.5 L 362.2,465.38 Z" fill="#39ff14" opacity="0.85" transform="rotate(209.44 367.67 465.38)"/><path d="M 335.1,437.66 L 340.39,446.46 L 335.1,455.27 L 329.82,446.46 Z" fill="#39ff14" opacity="0.85" transform="rotate(247.56 335.1 446.46)"/><path d="M 466.36,377.89 L 473.42,389.66 L 466.36,401.43 L 459.3,389.66 Z" fill="#39ff14" opacity="0.85" transform="rotate(229.2 466.36 389.66)"/><path d="M 422.46,361.86 L 427.81,370.77 L 422.46,379.68 L 417.11,370.77 Z" fill="#39ff14" opacity="0.85" transform="rotate(108.37 422.46 370.77)"/><path d="M 458.94,342.8 L 464.37,351.85 L 458.94,360.9 L 453.51,351.85 Z" fill="#39ff14" opacity="0.85" transform="rotate(214.39 458.94 351.85)"/><path d="M 474.83,323.74 L 480.35,332.92 L 474.83,342.11 L 469.32,332.92 Z" fill="#39ff14" opacity="0.85" transform="rotate(34.52 474.83 332.92)"/><path d="M 315.97,214.41 L 322.99,226.1 L 315.97,237.8 L 308.96,226.1 Z" fill="#39ff14" opacity="0.85" transform="rotate(5.99 315.97 226.1)"/><path d="M 326.62,228.88 L 332.28,238.31 L 326.62,247.74 L 320.96,238.31 Z" fill="#39ff14" opacity="0.85" transform="rotate(274.84 326.62 238.31)"/><path d="M 433.05,139.45 L 440.15,151.28 L 433.05,163.1 L 425.95,151.28 Z" fill="#39ff14" opacity="0.85" transform="rotate(195.3 433.05 151.28)"/><path d="M 358.96,191.2 L 364.51,200.46 L 358.96,209.72 L 353.4,200.46 Z" fill="#39ff14" opacity="0.85" transform="rotate(125.97 358.96 200.46)"/><path d="M 401.57,172.58 L 406.94,181.54 L 401.57,190.49 L 396.2,181.54 Z" fill="#39ff14" opacity="0.85" transform="rotate(228.65 401.57 181.54)"/><path d="M 527.02,158.88 L 533.99,170.5 L 527.02,182.12 L 520.05,170.5 Z" fill="#39ff14" opacity="0.85" transform="rotate(12.85 527.02 170.5)"/><path d="M 443.63,153.52 L 449.09,162.62 L 443.63,171.71 L 438.18,162.62 Z" fill="#39ff14" opacity="0.85" transform="rotate(34.23 443.63 162.62)"/><path d="M 449.49,96.34 L 455.19,105.85 L 449.49,115.35 L 443.79,105.85 Z" fill="#39ff14" opacity="0.85" transform="rotate(187.79 449.49 105.85)"/><path d="M 446.76,37.15 L 453.49,48.36 L 446.76,59.57 L 440.04,48.36 Z" fill="#39ff14" opacity="0.85" transform="rotate(155.34 446.76 48.36)"/><path d="M 394.98,61 L 399.18,68 L 394.98,75 L 390.78,68 Z" fill="#39ff14" opacity="0.85" transform="rotate(173.47 394.98 68)"/>
    <g filter="url(#glow-soft)"><circle cx="405.64" cy="564.03" r="10" fill="#faff00"/></g><circle cx="405.64" cy="564.03" r="4.5" fill="#ffffff"/><g filter="url(#glow-soft)"><circle cx="484.35" cy="551.65" r="10" fill="#faff00"/></g><circle cx="484.35" cy="551.65" r="4.5" fill="#ffffff"/><g filter="url(#glow-soft)"><circle cx="446.96" cy="503.38" r="10" fill="#00fff2"/></g><circle cx="446.96" cy="503.38" r="4.5" fill="#ffffff"/><g filter="url(#glow-soft)"><circle cx="424.52" cy="484.06" r="10" fill="#ff2fd0"/></g><circle cx="424.52" cy="484.06" r="4.5" fill="#ffffff"/>
    <circle cx="367.67" cy="465.38" r="15" fill="none" stroke="#0d3d33" stroke-width="2.5" stroke-dasharray="4 5" opacity="0.9"/><line x1="384.62" y1="458.5" x2="394.59" y2="454.45" stroke="#00ffc8" stroke-width="1.5" opacity="0.45"/><line x1="352.9" y1="457.47" x2="347.3" y2="454.48" stroke="#00ffc8" stroke-width="1.5" opacity="0.45"/><line x1="378.92" y1="452.96" x2="382.57" y2="448.93" stroke="#00ffc8" stroke-width="1.5" opacity="0.45"/><line x1="353.69" y1="476.05" x2="348.8" y2="479.78" stroke="#00ffc8" stroke-width="1.5" opacity="0.45"/><line x1="357.23" y1="478.75" x2="353.67" y2="483.33" stroke="#00ffc8" stroke-width="1.5" opacity="0.45"/>
    <rect x="394.67" y="367.77" width="44" height="3" fill="#ff003c" opacity="0.75"/><rect x="406.84" y="371.77" width="44" height="3" fill="#00fff2" opacity="0.75"/><line x1="396.46" y1="370.77" x2="448.46" y2="370.77" stroke="#ffffff" stroke-width="1" opacity="0.5"/>
    <rect x="442.36" y="494.23" width="18" height="18" fill="none" stroke="#faff00" stroke-width="2" transform="rotate(45 451.36 503.23)"/><line x1="442.36" y1="503.23" x2="460.36" y2="503.23" stroke="#faff00" stroke-width="1.5"/><line x1="451.36" y1="494.23" x2="451.36" y2="512.23" stroke="#faff00" stroke-width="1.5"/><rect x="326.1" y="437.46" width="18" height="18" fill="none" stroke="#faff00" stroke-width="2" transform="rotate(45 335.1 446.46)"/><line x1="326.1" y1="446.46" x2="344.1" y2="446.46" stroke="#faff00" stroke-width="1.5"/><line x1="335.1" y1="437.46" x2="335.1" y2="455.46" stroke="#faff00" stroke-width="1.5"/><rect x="369.13" y="380.69" width="18" height="18" fill="none" stroke="#faff00" stroke-width="2" transform="rotate(45 378.13 389.69)"/><line x1="369.13" y1="389.69" x2="387.13" y2="389.69" stroke="#faff00" stroke-width="1.5"/><line x1="378.13" y1="380.69" x2="378.13" y2="398.69" stroke="#faff00" stroke-width="1.5"/><rect x="465.83" y="323.92" width="18" height="18" fill="none" stroke="#faff00" stroke-width="2" transform="rotate(45 474.83 332.92)"/><line x1="465.83" y1="332.92" x2="483.83" y2="332.92" stroke="#faff00" stroke-width="1.5"/><line x1="474.83" y1="323.92" x2="474.83" y2="341.92" stroke="#faff00" stroke-width="1.5"/><rect x="378.86" y="267.15" width="18" height="18" fill="none" stroke="#faff00" stroke-width="2" transform="rotate(45 387.86 276.15)"/><line x1="378.86" y1="276.15" x2="396.86" y2="276.15" stroke="#faff00" stroke-width="1.5"/><line x1="387.86" y1="267.15" x2="387.86" y2="285.15" stroke="#faff00" stroke-width="1.5"/><rect x="321.68" y="210.38" width="18" height="18" fill="none" stroke="#faff00" stroke-width="2" transform="rotate(45 330.68 219.38)"/><line x1="321.68" y1="219.38" x2="339.68" y2="219.38" stroke="#faff00" stroke-width="1.5"/><line x1="330.68" y1="210.38" x2="330.68" y2="228.38" stroke="#faff00" stroke-width="1.5"/><rect x="434.63" y="153.62" width="18" height="18" fill="none" stroke="#faff00" stroke-width="2" transform="rotate(45 443.63 162.62)"/><line x1="434.63" y1="162.62" x2="452.63" y2="162.62" stroke="#faff00" stroke-width="1.5"/><line x1="443.63" y1="153.62" x2="443.63" y2="171.62" stroke="#faff00" stroke-width="1.5"/><rect x="440.49" y="96.85" width="18" height="18" fill="none" stroke="#faff00" stroke-width="2" transform="rotate(45 449.49 105.85)"/><line x1="440.49" y1="105.85" x2="458.49" y2="105.85" stroke="#faff00" stroke-width="1.5"/><line x1="449.49" y1="96.85" x2="449.49" y2="114.85" stroke="#faff00" stroke-width="1.5"/>
  </svg>