<svg xmlns="http://www.w3.org/2000/svg" width="800" height="600" viewBox="0 0 800 600">
    <defs>
      <linearGradient id="sky" x1="0" y1="0" x2="0" y2="1">
        <stop offset="0" stop-color="#fdf6e3"/>
        <stop offset="1" stop-color="#f6e2b3"/>
      </linearGradient>
    </defs>
    <rect x="0" y="0" width="800" height="600" fill="url(#sky)"/>
    <ellipse cx="400" cy="534" rx="105" ry="14" fill="#c9a267" opacity="0.6"/>
    <path d="M 330,526 L 342,560 L 458,560 L 470,526 Z" fill="#a85f3c"/>
    <rect x="326" y="520" width="148" height="10" rx="3" fill="#8a4a2e"/>
    <path d="M 409.99,515.47 L 408.78,499.69 L 389.53,500.72 L 390.01,516.53 Z" fill="#5b3a24"/><path d="M 408.71,501.44 L 410.38,485.71 L 391.99,483.33 L 389.6,498.97 Z" fill="#5b3a24"/><path d="M 410.43,485.17 L 411.18,469.36 L 393.41,468.11 L 391.93,483.87 Z" fill="#5b3a24"/><path d="M 410.7,471.69 L 415.6,456.65 L 399.48,450.98 L 393.89,465.78 Z" fill="#5b3a24"/><path d="M 416.08,454.25 L 416.53,438.44 L 400.18,437.6 L 399.01,453.38 Z" fill="#5b3a24"/><path d="M 416.43,439.33 L 418.6,423.65 L 403.16,421.15 L 400.28,436.71 Z" fill="#5b3a24"/><path d="M 418.65,421.5 L 416.45,405.83 L 401.64,407.56 L 403.12,423.31 Z" fill="#5b3a24"/><path d="M 416.28,404.9 L 412.11,389.63 L 398.35,393.05 L 401.81,408.49 Z" fill="#5b3a24"/><path d="M 412.31,390.88 L 410.92,375.12 L 397.49,375.99 L 398.16,391.8 Z" fill="#5b3a24"/><path d="M 410.88,374.73 L 408.58,359.08 L 395.95,360.64 L 397.53,376.38 Z" fill="#5b3a24"/><path d="M 408.59,359.19 L 406.57,343.49 L 394.63,344.76 L 395.94,360.53 Z" fill="#5b3a24"/><path d="M 406.54,343.3 L 403.99,327.68 L 392.83,329.24 L 394.66,344.96 Z" fill="#5b3a24"/><path d="M 404.02,328.98 L 405.11,313.19 L 394.61,312.23 L 392.8,327.94 Z" fill="#5b3a24"/><path d="M 405.12,312.27 L 403.43,296.54 L 393.65,297.36 L 394.61,313.15 Z" fill="#5b3a24"/><path d="M 403.45,296.93 L 403.04,281.12 L 393.95,281.14 L 393.63,296.96 Z" fill="#5b3a24"/><path d="M 402.93,280.12 L 399.06,264.78 L 390.9,266.64 L 394.06,282.14 Z" fill="#5b3a24"/><path d="M 399.13,265.22 L 396.95,249.55 L 389.36,250.43 L 390.83,266.19 Z" fill="#5b3a24"/><path d="M 396.72,248.61 L 390.65,234 L 384.21,236.5 L 389.6,251.37 Z" fill="#5b3a24"/><path d="M 390.82,234.57 L 387.39,219.13 L 381.33,220.33 L 384.04,235.92 Z" fill="#5b3a24"/><path d="M 387.42,219.29 L 384.8,203.68 L 379.4,204.46 L 381.3,220.17 Z" fill="#5b3a24"/><path d="M 384.82,203.9 L 383.48,188.14 L 378.76,188.43 L 379.38,204.24 Z" fill="#5b3a24"/><path d="M 383.48,188.15 L 382.21,172.38 L 378.22,172.61 L 378.76,188.42 Z" fill="#5b3a24"/>
    <path d="M 411.71,457.17 L 452.85,403.38 L 447.13,398.78 L 403.38,450.46 Z" fill="#8a5a34"/><path d="M 453.37,402.51 L 478.25,339.53 L 474.56,337.97 L 446.61,399.65 Z" fill="#8a5a34"/><path d="M 412.23,403.25 L 362.24,358.92 L 357.7,363.84 L 405.86,410.14 Z" fill="#8a5a34"/><path d="M 361.41,358.36 L 300.61,330.68 L 298.88,334.28 L 358.52,364.4 Z" fill="#8a5a34"/><path d="M 404.46,363.24 L 457.38,327.67 L 454.1,322.61 L 400.07,356.47 Z" fill="#5b3a24"/><path d="M 457.53,327.57 L 508.26,288.94 L 505.88,285.72 L 453.95,322.71 Z" fill="#5b3a24"/><path d="M 401.57,309.79 L 350.72,280.74 L 347.99,285.39 L 398.15,315.63 Z" fill="#5b3a24"/><path d="M 350.25,280.53 L 294.82,261.62 L 293.49,265.39 L 348.46,285.6 Z" fill="#5b3a24"/><path d="M 397.05,267.48 L 434.37,223.41 L 430.78,220.33 L 392.91,263.93 Z" fill="#8a5a34"/><path d="M 434.72,222.87 L 458.7,170.33 L 455.07,168.64 L 430.43,220.88 Z" fill="#8a5a34"/><path d="M 385.74,218.18 L 341.42,178.71 L 338.71,181.75 L 382.98,221.28 Z" fill="#8a5a34"/><path d="M 341.5,178.79 L 299.5,136.85 L 296.67,139.68 L 338.62,181.67 Z" fill="#8a5a34"/>
    <ellipse cx="483.45" cy="349.32" rx="55.81" ry="45.83" fill="#4a7c3a"/><ellipse cx="499.75" cy="339.82" rx="38.74" ry="31.77" fill="#8fc76b"/><ellipse cx="481.88" cy="351.56" rx="37.79" ry="30.99" fill="#4a7c3a"/><ellipse cx="469.71" cy="348.13" rx="30.51" ry="25.02" fill="#4a7c3a"/><ellipse cx="455.03" cy="336.47" rx="41.79" ry="34.26" fill="#8fc76b"/><ellipse cx="463.43" cy="321.81" rx="40.31" ry="33.05" fill="#4a7c3a"/><ellipse cx="483.51" cy="326.65" rx="42.3" ry="34.69" fill="#4a7c3a"/><ellipse cx="476.4" cy="338.75" rx="36.43" ry="30.55" fill="#8fc76b"/><ellipse cx="466.05" cy="335.49" rx="17.13" ry="14.56" fill="#dff2c2" opacity="0.85"/><ellipse cx="463.59" cy="323.84" rx="18.07" ry="15.36" fill="#dff2c2" opacity="0.85"/><ellipse cx="462.17" cy="338.25" rx="16.29" ry="13.85" fill="#dff2c2" opacity="0.85"/><ellipse cx="307.09" cy="343.49" rx="58.14" ry="47.73" fill="#4a7c3a"/><ellipse cx="315.49" cy="332.11" rx="34.78" ry="28.52" fill="#4a7c3a"/><ellipse cx="311.69" cy="349.08" rx="43.25" ry="35.46" fill="#8fc76b"/><ellipse cx="281.81" cy="346.54" rx="36.03" ry="29.55" fill="#8fc76b"/><ellipse cx="276.94" cy="330.88" rx="43.1" ry="35.34" fill="#8fc76b"/><ellipse cx="290.1" cy="323.23" rx="37.74" ry="30.95" fill="#8fc76b"/><ellipse cx="313.99" cy="317.92" rx="36.86" ry="30.23" fill="#8fc76b"/><ellipse cx="299.75" cy="332.48" rx="37.94" ry="31.82" fill="#8fc76b"/><ellipse cx="278.26" cy="330.26" rx="15.51" ry="13.18" fill="#dff2c2" opacity="0.85"/><ellipse cx="298.29" cy="317.27" rx="13.92" ry="11.83" fill="#dff2c2" opacity="0.85"/><ellipse cx="289.51" cy="318.56" rx="20.32" ry="17.27" fill="#dff2c2" opacity="0.85"/><ellipse cx="513.58" cy="297.1" rx="51.57" ry="42.34" fill="#4a7c3a"/><ellipse cx="530.61" cy="286.31" rx="38.07" ry="31.22" fill="#4a7c3a"/><ellipse cx="514.36" cy="293.59" rx="27.67" ry="22.69" fill="#8fc76b"/><ellipse cx="494.16" cy="298.16" rx="30.65" ry="25.13" fill="#8fc76b"/><ellipse cx="487.75" cy="290.84" rx="35.42" ry="29.05" fill="#4a7c3a"/><ellipse cx="500.5" cy="280.5" rx="32.07" ry="26.3" fill="#4a7c3a"/><ellipse cx="513.4" cy="276.43" rx="32.58" ry="26.72" fill="#4a7c3a"/><ellipse cx="507.07" cy="287.33" rx="33.66" ry="28.23" fill="#8fc76b"/><ellipse cx="489.44" cy="283.53" rx="13.2" ry="11.22" fill="#dff2c2" opacity="0.85"/><ellipse cx="497.07" cy="276.94" rx="15.05" ry="12.79" fill="#dff2c2" opacity="0.85"/><ellipse cx="492.61" cy="275.25" rx="17.67" ry="15.02" fill="#dff2c2" opacity="0.85"/><ellipse cx="300.49" cy="273" rx="50.11" ry="41.14" fill="#4a7c3a"/><ellipse cx="315.4" cy="264.62" rx="26.68" ry="21.88" fill="#4a7c3a"/><ellipse cx="305.89" cy="278.47" rx="32.88" ry="26.96" fill="#4a7c3a"/><ellipse cx="284.26" cy="275.07" rx="33.96" ry="27.85" fill="#8fc76b"/><ellipse cx="276.19" cy="265.72" rx="27.46" ry="22.52" fill="#4a7c3a"/><ellipse cx="287.51" cy="253.75" rx="28.39" ry="23.28" fill="#8fc76b"/><ellipse cx="308.67" cy="250.03" rx="36.73" ry="30.12" fill="#4a7c3a"/><ellipse cx="294.16" cy="263.5" rx="32.7" ry="27.43" fill="#8fc76b"/><ellipse cx="292.97" cy="253.6" rx="16.14" ry="13.72" fill="#dff2c2" opacity="0.85"/><ellipse cx="291.34" cy="252.3" rx="16.41" ry="13.95" fill="#dff2c2" opacity="0.85"/><ellipse cx="277.67" cy="259.46" rx="18.56" ry="15.78" fill="#dff2c2" opacity="0.85"/><ellipse cx="462.82" cy="178.4" rx="47.02" ry="38.61" fill="#4a7c3a"/><ellipse cx="467.83" cy="168.62" rx="35.39" ry="29.02" fill="#8fc76b"/><ellipse cx="464.99" cy="180.18" rx="31.7" ry="25.99" fill="#8fc76b"/><ellipse cx="449.71" cy="178.07" rx="34.23" ry="28.07" fill="#4a7c3a"/><ellipse cx="443.04" cy="169.84" rx="32.29" ry="26.48" fill="#8fc76b"/><ellipse cx="449.46" cy="154.75" rx="27.54" ry="22.58" fill="#8fc76b"/><ellipse cx="464.93" cy="162.69" rx="33.27" ry="27.28" fill="#4a7c3a"/><ellipse cx="456.88" cy="169.49" rx="30.69" ry="25.74" fill="#8fc76b"/><ellipse cx="439.4" cy="167.1" rx="16.61" ry="14.12" fill="#dff2c2" opacity="0.85"/><ellipse cx="449.22" cy="158.93" rx="11.5" ry="9.78" fill="#dff2c2" opacity="0.85"/><ellipse cx="436.8" cy="167.49" rx="16.01" ry="13.61" fill="#dff2c2" opacity="0.85"/><ellipse cx="304.04" cy="147.2" rx="47.14" ry="38.71" fill="#4a7c3a"/><ellipse cx="312.45" cy="139.65" rx="33.9" ry="27.8" fill="#8fc76b"/><ellipse cx="308.68" cy="148.26" rx="32.87" ry="26.96" fill="#8fc76b"/><ellipse cx="289.85" cy="150.53" rx="31.49" ry="25.82" fill="#4a7c3a"/><ellipse cx="277.01" cy="142.13" rx="29.89" ry="24.51" fill="#8fc76b"/><ellipse cx="287.55" cy="126.88" rx="25.03" ry="20.52" fill="#8fc76b"/><ellipse cx="307.29" cy="125.57" rx="33.03" ry="27.08" fill="#8fc76b"/><ellipse cx="298.09" cy="138.27" rx="30.77" ry="25.8" fill="#8fc76b"/><ellipse cx="296.42" cy="125.71" rx="17.48" ry="14.86" fill="#dff2c2" opacity="0.85"/><ellipse cx="285.53" cy="127.3" rx="13.43" ry="11.41" fill="#dff2c2" opacity="0.85"/><ellipse cx="292.15" cy="134.3" rx="17.25" ry="14.66" fill="#dff2c2" opacity="0.85"/><ellipse cx="385.99" cy="181.15" rx="45.71" ry="37.53" fill="#4a7c3a"/><ellipse cx="402.82" cy="173.59" rx="33.95" ry="27.84" fill="#8fc76b"/><ellipse cx="388.9" cy="183.28" rx="29.16" ry="23.91" fill="#8fc76b"/><ellipse cx="372.76" cy="180.05" rx="34.16" ry="28.01" fill="#4a7c3a"/><ellipse cx="370.32" cy="173.22" rx="31.38" ry="25.73" fill="#4a7c3a"/><ellipse cx="369.42" cy="162.11" rx="34" ry="27.88" fill="#4a7c3a"/><ellipse cx="385.28" cy="159.3" rx="29.7" ry="24.35" fill="#8fc76b"/><ellipse cx="380.22" cy="172.49" rx="29.83" ry="25.02" fill="#8fc76b"/><ellipse cx="371.48" cy="164.17" rx="13.08" ry="11.12" fill="#dff2c2" opacity="0.85"/><ellipse cx="376.04" cy="166.1" rx="13.36" ry="11.35" fill="#dff2c2" opacity="0.85"/><ellipse cx="370.21" cy="159.77" rx="11.07" ry="9.41" fill="#dff2c2" opacity="0.85"/>
    <g><circle cx="443.26" cy="310.32" r="7.6" fill="#ffc94d" opacity="0.9"/><circle cx="436.7" cy="319.35" r="7.6" fill="#ffc94d" opacity="0.9"/><circle cx="426.07" cy="315.9" r="7.6" fill="#ffc94d" opacity="0.9"/><circle cx="426.07" cy="304.73" r="7.6" fill="#ffc94d" opacity="0.9"/><circle cx="436.7" cy="301.28" r="7.6" fill="#ffc94d" opacity="0.9"/><circle cx="433.76" cy="310.32" r="6.65" fill="#ffe9a8"/></g><g><circle cx="448.35" cy="314.32" r="6.87" fill="#ff9ecf" opacity="0.9"/><circle cx="442.42" cy="322.49" r="6.87" fill="#ff9ecf" opacity="0.9"/><circle cx="432.82" cy="319.37" r="6.87" fill="#ff9ecf" opacity="0.9"/><circle cx="432.82" cy="309.27" r="6.87" fill="#ff9ecf" opacity="0.9"/><circle cx="442.42" cy="306.15" r="6.87" fill="#ff9ecf" opacity="0.9"/><circle cx="439.77" cy="314.32" r="6.01" fill="#ffe9a8"/></g>
    
    
    <line x1="409" y1="516" x2="413" y2="516" stroke="#6b4226" stroke-width="2"/><line x1="404.5" y1="523.79" x2="406.5" y2="527.26" stroke="#6b4226" stroke-width="2"/><line x1="395.5" y1="523.79" x2="393.5" y2="527.26" stroke="#6b4226" stroke-width="2"/><line x1="391" y1="516" x2="387" y2="516" stroke="#6b4226" stroke-width="2"/><line x1="395.5" y1="508.21" x2="393.5" y2="504.74" stroke="#6b4226" stroke-width="2"/><line x1="404.5" y1="508.21" x2="406.5" y2="504.74" stroke="#6b4226" stroke-width="2"/><circle cx="400" cy="516" r="8" fill="none" stroke="#6b4226" stroke-width="3"/><circle cx="400" cy="516" r="3" fill="#6b4226"/><line x1="409" y1="516" x2="413" y2="516" stroke="#6b4226" stroke-width="2"/><line x1="404.5" y1="523.79" x2="406.5" y2="527.26" stroke="#6b4226" stroke-width="2"/><line x1="395.5" y1="523.79" x2="393.5" y2="527.26" stroke="#6b4226" stroke-width="2"/><line x1="391" y1="516" x2="387" y2="516" stroke="#6b4226" stroke-width="2"/><line x1="395.5" y1="508.21" x2="393.5" y2="504.74" stroke="#6b4226" stroke-width="2"/><line x1="404.5" y1="508.21" x2="406.5" y2="504.74" stroke="#6b4226" stroke-width="2"/><circle cx="400" cy="516" r="8" fill="none" stroke="#6b4226" stroke-width="3"/><circle cx="400" cy="516" r="3" fill="#6b4226"/><line x1="409" y1="516" x2="413" y2="516" stroke="#6b4226" stroke-width="2"/><line x1="404.5" y1="523.79" x2="406.5" y2="527.26" stroke="#6b4226" stroke-width="2"/><line x1="395.5" y1="523.79" x2="393.5" y2="527.26" stroke="#6b4226" stroke-width="2"/><line x1="391" y1="516" x2="387" y2="516" stroke="#6b4226" stroke-width="2"/><line x1="395.5" y1="508.21" x2="393.5" y2="504.74" stroke="#6b4226" stroke-width="2"/><line x1="404.5" y1="508.21" x2="406.5" y2="504.74" stroke="#6b4226" stroke-width="2"/><circle cx="400" cy="516" r="8" fill="none" stroke="#6b4226" stroke-width="3"/><circle cx="400" cy="516" r="3" fill="#6b4226"/><line x1="409" y1="516" x2="413" y2="516" stroke="#6b4226" stroke-width="2"/><line x1="404.5" y1="523.79" x2="406.5" y2="527.26" stroke="#6b4226" stroke-width="2"/><line x1="395.5" y1="523.79" x2="393.5" y2="527.26" stroke="#6b4226" stroke-width="2"/><line x1="391" y1="516" x2="387" y2="516" stroke="#6b4226" stroke-width="2"/><line x1="395.5" y1="508.21" x2="393.5" y2="504.74" stroke="#6b4226" stroke-width="2"/><line x1="404.5" y1="508.21" x2="406.5" y2="504.74" stroke="#6b4226" stroke-width="2"/><circle cx="400" cy="516" r="8" fill="none" stroke="#6b4226" stroke-width="3"/><circle cx="400" cy="516" r="3" fill="#6b4226"/><line x1="408.16" y1="500.2" x2="412.16" y2="500.2" stroke="#6b4226" stroke-width="2"/><line x1="403.66" y1="508" x2="405.66" y2="511.46" stroke="#6b4226" stroke-width="2"/><line x1="394.66" y1="508" x2="392.66" y2="511.46" stroke="#6b4226" stroke-width="2"/><line x1="390.16" y1="500.2" x2="386.16" y2="500.2" stroke="#6b4226" stroke-width="2"/><line x1="394.66" y1="492.41" x2="392.66" y2="488.95" stroke="#6b4226" stroke-width="2"/><line x1="403.66" y1="492.41" x2="405.66" y2="488.95" stroke="#6b4226" stroke-width="2"/><circle cx="399.16" cy="500.2" r="8" fill="none" stroke="#6b4226" stroke-width="3"/><circle cx="399.16" cy="500.2" r="3" fill="#6b4226"/><line x1="408.16" y1="500.2" x2="412.16" y2="500.2" stroke="#6b4226" stroke-width="2"/><line x1="403.66" y1="508" x2="405.66" y2="511.46" stroke="#6b4226" stroke-width="2"/><line x1="394.66" y1="508" x2="392.66" y2="511.46" stroke="#6b4226" stroke-width="2"/><line x1="390.16" y1="500.2" x2="386.16" y2="500.2" stroke="#6b4226" stroke-width="2"/><line x1="394.66" y1="492.41" x2="392.66" y2="488.95" stroke="#6b4226" stroke-width="2"/><line x1="403.66" y1="492.41" x2="405.66" y2="488.95" stroke="#6b4226" stroke-width="2"/><circle cx="399.16" cy="500.2" r="8" fill="none" stroke="#6b4226" stroke-width="3"/><circle cx="399.16" cy="500.2" r="3" fill="#6b4226"/><line x1="408.16" y1="500.2" x2="412.16" y2="500.2" stroke="#6b4226" stroke-width="2"/><line x1="403.66" y1="508" x2="405.66" y2="511.46" stroke="#6b4226" stroke-width="2"/><line x1="394.66" y1="508" x2="392.66" y2="511.46" stroke="#6b4226" stroke-width="2"/><line x1="390.16" y1="500.2" x2="386.16" y2="500.2" stroke="#6b4226" stroke-width="2"/><line x1="394.66" y1="492.41" x2="392.66" y2="488.95" stroke="#6b4226" stroke-width="2"/><line x1="403.66" y1="492.41" x2="405.66" y2="488.95" stroke="#6b4226" stroke-width="2"/><circle cx="399.16" cy="500.2" r="8" fill="none" stroke="#6b4226" stroke-width="3"/><circle cx="399.16" cy="500.2" r="3" fill="#6b4226"/><line x1="408.16" y1="500.2" x2="412.16" y2="500.2" stroke="#6b4226" stroke-width="2"/><line x1="403.66" y1="508" x2="405.66" y2="511.46" stroke="#6b4226" stroke-width="2"/><line x1="394.66" y1="508" x2="392.66" y2="511.46" stroke="#6b4226" stroke-width="2"/><line x1="390.16" y1="500.2" x2="386.16" y2="500.2" stroke="#6b4226" stroke-width="2"/><line x1="394.66" y1="492.41" x2="392.66" y2="488.95" stroke="#6b4226" stroke-width="2"/><line x1="403.66" y1="492.41" x2="405.66" y2="488.95" stroke="#6b4226" stroke-width="2"/><circle cx="399.16" cy="500.2" r="8" fill="none" stroke="#6b4226" stroke-width="3"/><circle cx="399.16" cy="500.2" r="3" fill="#6b4226"/><line x1="408.16" y1="500.2" x2="412.16" y2="500.2" stroke="#6b4226" stroke-width="2"/><line x1="403.66" y1="508" x2="405.66" y2="511.46" stroke="#6b4226" stroke-width="2"/><line x1="394.66" y1="508" x2="392.66" y2="511.46" stroke="#6b4226" stroke-width="2"/><line x1="390.16" y1="500.2" x2="386.16" y2="500.2" stroke="#6b4226" stroke-width="2"/><line x1="394.66" y1="492.41" x2="392.66" y2="488.95" stroke="#6b4226" stroke-width="2"/><line x1="403.66" y1="492.41" x2="405.66" y2="488.95" stroke="#6b4226" stroke-width="2"/><circle cx="399.16" cy="500.2" r="8" fill="none" stroke="#6b4226" stroke-width="3"/><circle cx="399.16" cy="500.2" r="3" fill="#6b4226"/><line x1="408.16" y1="500.2" x2="412.16" y2="500.2" stroke="#6b4226" stroke-width="2"/><line x1="403.66" y1="508" x2="405.66" y2="511.46" stroke="#6b4226" stroke-width="2"/><line x1="394.66" y1="508" x2="392.66" y2="511.46" stroke="#6b4226" stroke-width="2"/><line x1="390.16" y1="500.2" x2="386.16" y2="500.2" stroke="#6b4226" stroke-width="2"/><line x1="394.66" y1="492.41" x2="392.66" y2="488.95" stroke="#6b4226" stroke-width="2"/><line x1="403.66" y1="492.41" x2="405.66" y2="488.95" stroke="#6b4226" stroke-width="2"/><circle cx="399.16" cy="500.2" r="8" fill="none" stroke="#6b4226" stroke-width="3"/><circle cx="399.16" cy="500.2" r="3" fill="#6b4226"/>
  </svg>