<svg xmlns="http://www.w3.org/2000/svg" width="800" height="600" viewBox="0 0 800 600">
    <defs>
      <linearGradient id="sky" x1="0" y1="0" x2="0" y2="1">
        <stop offset="0" stop-color="#fdf6e3"/>
        <stop offset="1" stop-color="#f6e2b3"/>
      </linearGradient>
    </defs>
    <rect x="0" y="0" width="800" height="600" fill="url(#sky)"/>
    <ellipse cx="400" cy="534" rx="105" ry="14" fill="#c9a267" opacity="0.6"/>
    <path d="M 330,526 L 342,560 L 458,560 L 470,526 Z" fill="#a85f3c"/>
    <rect x="326" y="520" width="148" height="10" rx="3" fill="#8a4a2e"/>
    <path d="M 409.99,515.58 L 408.97,499.79 L 389.71,500.6 L 390.01,516.42 Z" fill="#5b3a24"/><path d="M 408.49,497.18 L 403.2,482.27 L 385.58,488.07 L 390.19,503.21 Z" fill="#5b3a24"/><path d="M 403.45,483.19 L 399.72,467.82 L 382.32,471.62 L 385.33,487.15 Z" fill="#5b3a24"/><path d="M 399.92,469.25 L 398.72,453.47 L 381.66,454.37 L 382.12,470.18 Z" fill="#5b3a24"/><path d="M 398.66,455.04 L 400.38,439.32 L 384.16,437.16 L 381.72,452.79 Z" fill="#5b3a24"/><path d="M 399.95,441.06 L 405.06,426.08 L 390.38,420.7 L 384.59,435.42 Z" fill="#5b3a24"/><path d="M 405.04,426.13 L 410.25,411.19 L 396.29,405.96 L 390.4,420.64 Z" fill="#5b3a24"/><path d="M 410.14,411.48 L 415.96,396.76 L 402.89,391.25 L 396.41,405.68 Z" fill="#5b3a24"/><path d="M 415.65,397.4 L 422.91,383.35 L 411.1,376.9 L 403.2,390.6 Z" fill="#5b3a24"/><path d="M 423.54,381.74 L 426.98,366.3 L 414.63,363.24 L 410.48,378.51 Z" fill="#5b3a24"/><path d="M 426.71,367.15 L 432.29,352.34 L 421.16,347.85 L 414.9,362.39 Z" fill="#5b3a24"/><path d="M 432.72,350.29 L 432.87,334.47 L 421.6,334.1 L 420.73,349.9 Z" fill="#5b3a24"/><path d="M 432.7,335.69 L 436.28,320.28 L 426.07,317.65 L 421.78,332.88 Z" fill="#5b3a24"/><path d="M 436.16,320.69 L 440.97,305.61 L 431.69,302.41 L 426.19,317.25 Z" fill="#5b3a24"/><path d="M 441.1,305.19 L 444.53,289.74 L 435.71,287.57 L 431.57,302.84 Z" fill="#5b3a24"/><path d="M 444.47,289.97 L 448.7,274.73 L 440.7,272.3 L 435.77,287.34 Z" fill="#5b3a24"/><path d="M 448.72,274.67 L 452.75,259.37 L 445.41,257.26 L 440.68,272.36 Z" fill="#5b3a24"/><path d="M 452.86,258.85 L 454.73,243.14 L 447.89,242.17 L 445.3,257.78 Z" fill="#5b3a24"/><path d="M 454.77,242.65 L 454.37,226.83 L 448.19,226.85 L 447.86,242.66 Z" fill="#5b3a24"/><path d="M 454.32,227.39 L 456.79,211.76 L 451.42,210.79 L 448.24,226.29 Z" fill="#5b3a24"/><path d="M 456.83,211.38 L 457.06,195.56 L 452.33,195.38 L 451.38,211.17 Z" fill="#5b3a24"/><path d="M 457.05,195.28 L 455.44,179.54 L 451.45,179.86 L 452.34,195.65 Z" fill="#5b3a24"/>
    <path d="M 394.74,456.73 L 426.99,401.26 L 420.74,397.4 L 385.64,451.11 Z" fill="#8a5a34"/><path d="M 427.44,400.19 L 440.84,337.44 L 436.95,336.51 L 420.3,398.47 Z" fill="#8a5a34"/><path d="M 407,405.73 L 369.28,358.54 L 363.96,362.6 L 399.55,411.42 Z" fill="#8a5a34"/><path d="M 369.05,358.27 L 326.61,315.26 L 323.7,318.01 L 364.19,362.86 Z" fill="#8a5a34"/><path d="M 422.93,368.2 L 477.41,333.19 L 474.23,328.06 L 418.68,361.34 Z" fill="#5b3a24"/><path d="M 477.76,332.94 L 526.67,290.51 L 524.1,287.45 L 473.87,328.32 Z" fill="#5b3a24"/><path d="M 433.63,316.64 L 393.41,275.17 L 389.5,278.87 L 428.72,321.29 Z" fill="#5b3a24"/><path d="M 393.6,275.39 L 358.01,229.88 L 354.83,232.31 L 389.32,278.65 Z" fill="#5b3a24"/><path d="M 446.82,275.23 L 488.63,223.08 L 484.96,220.1 L 442.58,271.8 Z" fill="#5b3a24"/><path d="M 488.21,223.49 L 541.71,183.42 L 539.33,180.21 L 485.39,219.69 Z" fill="#5b3a24"/><path d="M 453.01,225.7 L 416.57,170.31 L 413.16,172.55 L 449.54,227.98 Z" fill="#5b3a24"/><path d="M 416.76,170.67 L 392.09,109.13 L 388.38,110.61 L 412.98,172.18 Z" fill="#5b3a24"/>
    <ellipse cx="444.54" cy="345.44" rx="44.7" ry="36.7" fill="#4a7c3a"/><ellipse cx="458.43" cy="338.1" rx="32.85" ry="26.94" fill="#4a7c3a"/><ellipse cx="444.47" cy="348.34" rx="27.66" ry="22.68" fill="#8fc76b"/><ellipse cx="430.69" cy="346.49" rx="25.91" ry="21.25" fill="#4a7c3a"/><ellipse cx="423.26" cy="336.44" rx="25.33" ry="20.77" fill="#8fc76b"/><ellipse cx="431.1" cy="320.62" rx="32.31" ry="26.5" fill="#8fc76b"/><ellipse cx="444.27" cy="328.68" rx="29.24" ry="23.98" fill="#8fc76b"/><ellipse cx="438.89" cy="336.97" rx="29.17" ry="24.47" fill="#8fc76b"/><ellipse cx="432.8" cy="332" rx="16.77" ry="14.26" fill="#dff2c2" opacity="0.85"/><ellipse cx="424.62" cy="333.12" rx="16.04" ry="13.63" fill="#dff2c2" opacity="0.85"/><ellipse cx="438.67" cy="329.92" rx="14.01" ry="11.91" fill="#dff2c2" opacity="0.85"/><ellipse cx="331.81" cy="326.62" rx="52.7" ry="43.27" fill="#4a7c3a"/><ellipse cx="349.12" cy="313.06" rx="38.24" ry="31.35" fill="#8fc76b"/><ellipse cx="337.67" cy="334.48" rx="33.86" ry="27.77" fill="#8fc76b"/><ellipse cx="315.56" cy="332.98" rx="33.54" ry="27.5" fill="#4a7c3a"/><ellipse cx="298.27" cy="316.81" rx="34.96" ry="28.67" fill="#8fc76b"/><ellipse cx="315.33" cy="303.77" rx="38.56" ry="31.62" fill="#8fc76b"/><ellipse cx="332.66" cy="298.81" rx="38.37" ry="31.47" fill="#4a7c3a"/><ellipse cx="325.15" cy="316.64" rx="34.39" ry="28.85" fill="#8fc76b"/><ellipse cx="316.87" cy="315.79" rx="15.13" ry="12.86" fill="#dff2c2" opacity="0.85"/><ellipse cx="310.49" cy="316.16" rx="19.44" ry="16.52" fill="#dff2c2" opacity="0.85"/><ellipse cx="317.92" cy="303.97" rx="17.95" ry="15.26" fill="#dff2c2" opacity="0.85"/><ellipse cx="532.76" cy="300.04" rx="58.38" ry="47.93" fill="#4a7c3a"/><ellipse cx="555.51" cy="288.71" rx="40.36" ry="33.09" fill="#8fc76b"/><ellipse cx="535.65" cy="300.56" rx="32.2" ry="26.4" fill="#8fc76b"/><ellipse cx="513.81" cy="307.35" rx="33.11" ry="27.15" fill="#8fc76b"/><ellipse cx="502.57" cy="288.73" rx="42.69" ry="35" fill="#4a7c3a"/><ellipse cx="507.45" cy="271.35" rx="34.08" ry="27.95" fill="#4a7c3a"/><ellipse cx="530.07" cy="276.48" rx="40.31" ry="33.05" fill="#8fc76b"/><ellipse cx="525.38" cy="288.98" rx="38.1" ry="31.95" fill="#8fc76b"/><ellipse cx="509.3" cy="287.72" rx="15.12" ry="12.85" fill="#dff2c2" opacity="0.85"/><ellipse cx="517.3" cy="284.14" rx="14.78" ry="12.56" fill="#dff2c2" opacity="0.85"/><ellipse cx="509" cy="275.43" rx="21.53" ry="18.3" fill="#dff2c2" opacity="0.85"/><ellipse cx="362.75" cy="240.59" rx="50.11" ry="41.15" fill="#4a7c3a"/><ellipse cx="377.88" cy="228.71" rx="29.77" ry="24.41" fill="#8fc76b"/><ellipse cx="367.46" cy="243.89" rx="37.74" ry="30.95" fill="#4a7c3a"/><ellipse cx="342.88" cy="243.44" rx="27.17" ry="22.28" fill="#4a7c3a"/><ellipse cx="345.03" cy="232.13" rx="35.2" ry="28.86" fill="#8fc76b"/><ellipse cx="348.99" cy="218.44" rx="36.17" ry="29.66" fill="#8fc76b"/><ellipse cx="369.19" cy="215.63" rx="27.68" ry="22.7" fill="#4a7c3a"/><ellipse cx="356.42" cy="231.09" rx="32.71" ry="27.43" fill="#8fc76b"/><ellipse cx="351.59" cy="216.99" rx="18.66" ry="15.86" fill="#dff2c2" opacity="0.85"/><ellipse cx="349.63" cy="226.25" rx="15.14" ry="12.87" fill="#dff2c2" opacity="0.85"/><ellipse cx="355.87" cy="218.73" rx="13.84" ry="11.77" fill="#dff2c2" opacity="0.85"/><ellipse cx="547.82" cy="192.76" rx="57.78" ry="47.44" fill="#4a7c3a"/><ellipse cx="562.59" cy="179.3" rx="32.97" ry="27.03" fill="#8fc76b"/><ellipse cx="547.66" cy="200.66" rx="38.39" ry="31.48" fill="#8fc76b"/><ellipse cx="532.76" cy="191.03" rx="32.58" ry="26.72" fill="#8fc76b"/><ellipse cx="517.97" cy="184.42" rx="40.46" ry="33.18" fill="#4a7c3a"/><ellipse cx="527.71" cy="162.34" rx="38.59" ry="31.64" fill="#4a7c3a"/><ellipse cx="551.88" cy="161.24" rx="37.54" ry="30.78" fill="#4a7c3a"/><ellipse cx="540.52" cy="181.82" rx="37.71" ry="31.63" fill="#8fc76b"/><ellipse cx="525.55" cy="174.16" rx="13.93" ry="11.84" fill="#dff2c2" opacity="0.85"/><ellipse cx="536.67" cy="165.42" rx="15.84" ry="13.47" fill="#dff2c2" opacity="0.85"/><ellipse cx="537" cy="164.95" rx="21.46" ry="18.24" fill="#dff2c2" opacity="0.85"/><ellipse cx="397.49" cy="120.75" rx="57.41" ry="47.14" fill="#4a7c3a"/><ellipse cx="406.58" cy="106.94" rx="33.92" ry="27.81" fill="#8fc76b"/><ellipse cx="408.33" cy="124.1" rx="41.54" ry="34.07" fill="#8fc76b"/><ellipse cx="380.38" cy="119.78" rx="39.11" ry="32.07" fill="#8fc76b"/><ellipse cx="364.61" cy="108.54" rx="33.94" ry="27.83" fill="#8fc76b"/><ellipse cx="383.81" cy="99.09" rx="38.91" ry="31.9" fill="#8fc76b"/><ellipse cx="398.39" cy="95.76" rx="40.81" ry="33.47" fill="#4a7c3a"/><ellipse cx="390.23" cy="109.87" rx="37.47" ry="31.43" fill="#8fc76b"/><ellipse cx="367.49" cy="106.13" rx="14.78" ry="12.56" fill="#dff2c2" opacity="0.85"/><ellipse cx="386.8" cy="100.37" rx="14.95" ry="12.7" fill="#dff2c2" opacity="0.85"/><ellipse cx="375.05" cy="104.1" rx="17.53" ry="14.9" fill="#dff2c2" opacity="0.85"/><ellipse cx="459.39" cy="188.61" rx="47.05" ry="38.63" fill="#4a7c3a"/><ellipse cx="465.76" cy="181.32" rx="27.12" ry="22.24" fill="#8fc76b"/><ellipse cx="464.06" cy="188.32" rx="29.4" ry="24.11" fill="#4a7c3a"/><ellipse cx="444.12" cy="196.89" rx="27.58" ry="22.62" fill="#8fc76b"/><ellipse cx="439.41" cy="178.41" rx="33.41" ry="27.4" fill="#8fc76b"/><ellipse cx="447.08" cy="162.85" rx="32.82" ry="26.91" fill="#4a7c3a"/><ellipse cx="461.13" cy="164.14" rx="34.89" ry="28.61" fill="#8fc76b"/><ellipse cx="453.45" cy="179.7" rx="30.71" ry="25.75" fill="#8fc76b"/><ellipse cx="445.01" cy="168.18" rx="12.01" ry="10.21" fill="#dff2c2" opacity="0.85"/><ellipse cx="443.06" cy="171.92" rx="13.06" ry="11.1" fill="#dff2c2" opacity="0.85"/><ellipse cx="445.77" cy="173.03" rx="12" ry="10.2" fill="#dff2c2" opacity="0.85"/>
    <g><circle cx="404.42" cy="308.55" r="6.54" fill="#ffc94d" opacity="0.9"/><circle cx="398.77" cy="316.32" r="6.54" fill="#ffc94d" opacity="0.9"/><circle cx="389.63" cy="313.35" r="6.54" fill="#ffc94d" opacity="0.9"/><circle cx="389.63" cy="303.74" r="6.54" fill="#ffc94d" opacity="0.9"/><circle cx="398.77" cy="300.77" r="6.54" fill="#ffc94d" opacity="0.9"/><circle cx="396.25" cy="308.55" r="5.72" fill="#ffe9a8"/></g><g><circle cx="411.75" cy="312.55" r="7.6" fill="#ff9ecf" opacity="0.9"/><circle cx="405.19" cy="321.59" r="7.6" fill="#ff9ecf" opacity="0.9"/><circle cx="394.57" cy="318.13" r="7.6" fill="#ff9ecf" opacity="0.9"/><circle cx="394.57" cy="306.97" r="7.6" fill="#ff9ecf" opacity="0.9"/><circle cx="405.19" cy="303.52" r="7.6" fill="#ff9ecf" opacity="0.9"/><circle cx="402.25" cy="312.55" r="6.65" fill="#ffe9a8"/></g>
    
    
    <line x1="409" y1="516" x2="413" y2="516" stroke="#6b4226" stroke-width="2"/><line x1="404.5" y1="523.79" x2="406.5" y2="527.26" stroke="#6b4226" stroke-width="2"/><line x1="395.5" y1="523.79" x2="393.5" y2="527.26" stroke="#6b4226" stroke-width="2"/><line x1="391" y1="516" x2="387" y2="516" stroke="#6b4226" stroke-width="2"/><line x1="395.5" y1="508.21" x2="393.5" y2="504.74" stroke="#6b4226" stroke-width="2"/><line x1="404.5" y1="508.21" x2="406.5" y2="504.74" stroke="#6b4226" stroke-width="2"/><circle cx="400" cy="516" r="8" fill="none" stroke="#6b4226" stroke-width="3"/><circle cx="400" cy="516" r="3" fill="#6b4226"/><line x1="409" y1="516" x2="413" y2="516" stroke="#6b4226" stroke-width="2"/><line x1="404.5" y1="523.79" x2="406.5" y2="527.26" stroke="#6b4226" stroke-width="2"/><line x1="395.5" y1="523.79" x2="393.5" y2="527.26" stroke="#6b4226" stroke-width="2"/><line x1="391" y1="516" x2="387" y2="516" stroke="#6b4226" stroke-width="2"/><line x1="395.5" y1="508.21" x2="393.5" y2="504.74" stroke="#6b4226" stroke-width="2"/><line x1="404.5" y1="508.21" x2="406.5" y2="504.74" stroke="#6b4226" stroke-width="2"/><circle cx="400" cy="516" r="8" fill="none" stroke="#6b4226" stroke-width="3"/><circle cx="400" cy="516" r="3" fill="#6b4226"/><line x1="409" y1="516" x2="413" y2="516" stroke="#6b4226" stroke-width="2"/><line x1="404.5" y1="523.79" x2="406.5" y2="527.26" stroke="#6b4226" stroke-width="2"/><line x1="395.5" y1="523.79" x2="393.5" y2="527.26" stroke="#6b4226" stroke-width="2"/><line x1="391" y1="516" x2="387" y2="516" stroke="#6b4226" stroke-width="2"/><line x1="395.5" y1="508.21" x2="393.5" y2="504.74" stroke="#6b4226" stroke-width="2"/><line x1="404.5" y1="508.21" x2="406.5" y2="504.74" stroke="#6b4226" stroke-width="2"/><circle cx="400" cy="516" r="8" fill="none" stroke="#6b4226" stroke-width="3"/><circle cx="400" cy="516" r="3" fill="#6b4226"/><line x1="409" y1="516" x2="413" y2="516" stroke="#6b4226" stroke-width="2"/><line x1="404.5" y1="523.79" x2="406.5" y2="527.26" stroke="#6b4226" stroke-width="2"/><line x1="395.5" y1="523.79" x2="393.5" y2="527.26" stroke="#6b4226" stroke-width="2"/><line x1="391" y1="516" x2="387" y2="516" stroke="#6b4226" stroke-width="2"/><line x1="395.5" y1="508.21" x2="393.5" y2="504.74" stroke="#6b4226" stroke-width="2"/><line x1="404.5" y1="508.21" x2="406.5" y2="504.74" stroke="#6b4226" stroke-width="2"/><circle cx="400" cy="516" r="8" fill="none" stroke="#6b4226" stroke-width="3"/><circle cx="400" cy="516" r="3" fill="#6b4226"/><line x1="409" y1="516" x2="413" y2="516" stroke="#6b4226" stroke-width="2"/><line x1="404.5" y1="523.79" x2="406.5" y2="527.26" stroke="#6b4226" stroke-width="2"/><line x1="395.5" y1="523.79" x2="393.5" y2="527.26" stroke="#6b4226" stroke-width="2"/><line x1="391" y1="516" x2="387" y2="516" stroke="#6b4226" stroke-width="2"/><line x1="395.5" y1="508.21" x2="393.5" y2="504.74" stroke="#6b4226" stroke-width="2"/><line x1="404.5" y1="508.21" x2="406.5" y2="504.74" stroke="#6b4226" stroke-width="2"/><circle cx="400" cy="516" r="8" fill="none" stroke="#6b4226" stroke-width="3"/><circle cx="400" cy="516" r="3" fill="#6b4226"/><line x1="409" y1="516" x2="413" y2="516" stroke="#6b4226" stroke-width="2"/><line x1="404.5" y1="523.79" x2="406.5" y2="527.26" stroke="#6b4226" stroke-width="2"/><line x1="395.5" y1="523.79" x2="393.5" y2="527.26" stroke="#6b4226" stroke-width="2"/><line x1="391" y1="516" x2="387" y2="516" stroke="#6b4226" stroke-width="2"/><line x1="395.5" y1="508.21" x2="393.5" y2="504.74" stroke="#6b4226" stroke-width="2"/><line x1="404.5" y1="508.21" x2="406.5" y2="504.74" stroke="#6b4226" stroke-width="2"/><circle cx="400" cy="516" r="8" fill="none" stroke="#6b4226" stroke-width="3"/><circle cx="400" cy="516" r="3" fill="#6b4226"/><line x1="409" y1="516" x2="413" y2="516" stroke="#6b4226" stroke-width="2"/><line x1="404.5" y1="523.79" x2="406.5" y2="527.26" stroke="#6b4226" stroke-width="2"/><line x1="395.5" y1="523.79" x2="393.5" y2="527.26" stroke="#6b4226" stroke-width="2"/><line x1="391" y1="516" x2="387" y2="516" stroke="#6b4226" stroke-width="2"/><line x1="395.5" y1="508.21" x2="393.5" y2="504.74" stroke="#6b4226" stroke-width="2"/><line x1="404.5" y1="508.21" x2="406.5" y2="504.74" stroke="#6b4226" stroke-width="2"/><circle cx="400" cy="516" r="8" fill="none" stroke="#6b4226" stroke-width="3"/><circle cx="400" cy="516" r="3" fill="#6b4226"/><line x1="409" y1="516" x2="413" y2="516" stroke="#6b4226" stroke-width="2"/><line x1="404.5" y1="523.79" x2="406.5" y2="527.26" stroke="#6b4226" stroke-width="2"/><line x1="395.5" y1="523.79" x2="393.5" y2="527.26" stroke="#6b4226" stroke-width="2"/><line x1="391" y1="516" x2="387" y2="516" stroke="#6b4226" stroke-width="2"/><line x1="395.5" y1="508.21" x2="393.5" y2="504.74" stroke="#6b4226" stroke-width="2"/><line x1="404.5" y1="508.21" x2="406.5" y2="504.74" stroke="#6b4226" stroke-width="2"/><circle cx="400" cy="516" r="8" fill="none" stroke="#6b4226" stroke-width="3"/><circle cx="400" cy="516" r="3" fill="#6b4226"/><line x1="409" y1="516" x2="413" y2="516" stroke="#6b4226" stroke-width="2"/><line x1="404.5" y1="523.79" x2="406.5" y2="527.26" stroke="#6b4226" stroke-width="2"/><line x1="395.5" y1="523.79" x2="393.5" y2="527.26" stroke="#6b4226" stroke-width="2"/><line x1="391" y1="516" x2="387" y2="516" stroke="#6b4226" stroke-width="2"/><line x1="395.5" y1="508.21" x2="393.5" y2="504.74" stroke="#6b4226" stroke-width="2"/><line x1="404.5" y1="508.21" x2="406.5" y2="504.74" stroke="#6b4226" stroke-width="2"/><circle cx="400" cy="516" r="8" fill="none" stroke="#6b4226" stroke-width="3"/><circle cx="400" cy="516" r="3" fill="#6b4226"/><line x1="409" y1="516" x2="413" y2="516" stroke="#6b4226" stroke-width="2"/><line x1="404.5" y1="523.79" x2="406.5" y2="527.26" stroke="#6b4226" stroke-width="2"/><line x1="395.5" y1="523.79" x2="393.5" y2="527.26" stroke="#6b4226" stroke-width="2"/><line x1="391" y1="516" x2="387" y2="516" stroke="#6b4226" stroke-width="2"/><line x1="395.5" y1="508.21" x2="393.5" y2="504.74" stroke="#6b4226" stroke-width="2"/><line x1="404.5" y1="508.21" x2="406.5" y2="504.74" stroke="#6b4226" stroke-width="2"/><circle cx="400" cy="516" r="8" fill="none" stroke="#6b4226" stroke-width="3"/><circle cx="400" cy="516" r="3" fill="#6b4226"/>
  </svg>