<svg xmlns="http://www.w3.org/2000/svg" width="800" height="600" viewBox="0 0 800 600">
    <defs>
      <linearGradient id="sky" x1="0" y1="0" x2="0" y2="1">
        <stop offset="0" stop-color="#fdf6e3"/>
        <stop offset="1" stop-color="#f6e2b3"/>
      </linearGradient>
    </defs>
    <rect x="0" y="0" width="800" height="600" fill="url(#sky)"/>
    <ellipse cx="400" cy="534" rx="105" ry="14" fill="#c9a267" opacity="0.6"/>
    <path d="M 330,526 L 342,560 L 458,560 L 470,526 Z" fill="#a85f3c"/>
    <rect x="326" y="520" width="148" height="10" rx="3" fill="#8a4a2e"/>
    <path d="M 409.69,513.54 L 405.45,498.3 L 386.77,503.04 L 390.31,518.46 Z" fill="#5b3a24"/><path d="M 404.59,496.1 L 396.77,482.34 L 380.44,491.14 L 387.63,505.24 Z" fill="#5b3a24"/><path d="M 397.43,483.89 L 392.21,468.95 L 375.26,474.44 L 379.78,489.6 Z" fill="#5b3a24"/><path d="M 392.43,469.77 L 388.65,454.4 L 371.97,458.1 L 375.03,473.62 Z" fill="#5b3a24"/><path d="M 388.25,453.1 L 382.08,438.53 L 366.87,444.57 L 372.37,459.4 Z" fill="#5b3a24"/><path d="M 382.45,439.72 L 378.55,424.38 L 363.31,427.88 L 366.5,443.38 Z" fill="#5b3a24"/><path d="M 378.72,425.44 L 376.97,409.72 L 362.12,411.03 L 363.15,426.82 Z" fill="#5b3a24"/><path d="M 377,410.28 L 376.43,394.46 L 362.25,394.65 L 362.09,410.47 Z" fill="#5b3a24"/><path d="M 376.17,396.45 L 380.03,381.1 L 367.07,377.52 L 362.5,392.67 Z" fill="#5b3a24"/><path d="M 380.26,379.81 L 381.08,364.01 L 368.39,363.06 L 366.84,378.81 Z" fill="#5b3a24"/><path d="M 380.72,365.68 L 385.72,350.67 L 374.42,346.62 L 368.74,361.39 Z" fill="#5b3a24"/><path d="M 386.07,348.63 L 385.65,332.81 L 374.38,332.85 L 374.07,348.67 Z" fill="#5b3a24"/><path d="M 385.49,334.16 L 388.89,318.71 L 378.64,316.21 L 374.54,331.49 Z" fill="#5b3a24"/><path d="M 388.71,319.27 L 393.81,304.29 L 384.59,300.92 L 378.81,315.65 Z" fill="#5b3a24"/><path d="M 393.95,303.83 L 397.56,288.43 L 388.76,286.15 L 384.45,301.38 Z" fill="#5b3a24"/><path d="M 397.71,287.23 L 397.15,271.42 L 388.78,271.53 L 388.62,287.35 Z" fill="#5b3a24"/><path d="M 397.08,272.21 L 399.52,256.58 L 392,255.23 L 388.85,270.74 Z" fill="#5b3a24"/><path d="M 399.57,256.08 L 399.94,240.26 L 393.03,239.94 L 391.94,255.73 Z" fill="#5b3a24"/><path d="M 399.9,240.62 L 401.92,224.93 L 395.8,224 L 393.07,239.58 Z" fill="#5b3a24"/><path d="M 401.95,224.66 L 402.57,208.85 L 397.13,208.51 L 395.78,224.27 Z" fill="#5b3a24"/><path d="M 402.54,209.1 L 404.66,193.42 L 399.99,192.68 L 397.15,208.25 Z" fill="#5b3a24"/><path d="M 404.67,193.31 L 406.01,177.54 L 402.03,177.11 L 399.97,192.8 Z" fill="#5b3a24"/>
    <path d="M 384.69,459.31 L 419.06,407.19 L 413.04,402.98 L 375.93,453.19 Z" fill="#8a5a34"/><path d="M 419.03,407.24 L 454.27,355.7 L 451.03,353.36 L 413.08,402.93 Z" fill="#8a5a34"/><path d="M 372.8,406.99 L 326.11,363.97 L 321.47,368.8 L 366.3,413.76 Z" fill="#5b3a24"/><path d="M 326.74,364.82 L 295.79,309.38 L 292.26,311.26 L 320.83,367.95 Z" fill="#5b3a24"/><path d="M 377.65,366.33 L 422.34,318.16 L 417.98,313.99 L 371.82,360.74 Z" fill="#8a5a34"/><path d="M 422.47,318.01 L 463.86,266.98 L 460.79,264.41 L 417.84,314.14 Z" fill="#8a5a34"/><path d="M 385.8,314.76 L 336.65,278.67 L 333.42,282.97 L 381.73,320.16 Z" fill="#8a5a34"/><path d="M 337.27,279.32 L 302.7,229.09 L 299.38,231.32 L 332.8,282.32 Z" fill="#8a5a34"/><path d="M 394.98,273.31 L 436.89,226.6 L 433.39,223.42 L 390.95,269.64 Z" fill="#5b3a24"/><path d="M 436.69,226.79 L 483.88,185.42 L 481.26,182.4 L 433.6,223.22 Z" fill="#5b3a24"/><path d="M 400.56,223.28 L 387.43,204.42 L 384.09,206.74 L 397.16,225.65 Z" fill="#8a5a34"/><path d="M 387.61,204.73 L 377.97,183.87 L 374.33,185.54 L 383.91,206.43 Z" fill="#8a5a34"/>
    <ellipse cx="460.05" cy="365.63" rx="58.6" ry="48.11" fill="#4a7c3a"/><ellipse cx="469.66" cy="355.7" rx="38.08" ry="31.22" fill="#8fc76b"/><ellipse cx="460.35" cy="368.8" rx="44.3" ry="36.32" fill="#8fc76b"/><ellipse cx="445.15" cy="362.92" rx="38.72" ry="31.75" fill="#8fc76b"/><ellipse cx="437" cy="356.61" rx="31.23" ry="25.61" fill="#4a7c3a"/><ellipse cx="433.37" cy="337.61" rx="36.29" ry="29.76" fill="#4a7c3a"/><ellipse cx="461.57" cy="347.36" rx="40.35" ry="33.09" fill="#8fc76b"/><ellipse cx="452.65" cy="354.53" rx="38.24" ry="32.07" fill="#8fc76b"/><ellipse cx="431.92" cy="353.66" rx="20.25" ry="17.21" fill="#dff2c2" opacity="0.85"/><ellipse cx="449.2" cy="347.47" rx="15.61" ry="13.27" fill="#dff2c2" opacity="0.85"/><ellipse cx="446.15" cy="349.48" rx="21.14" ry="17.97" fill="#dff2c2" opacity="0.85"/><ellipse cx="300.32" cy="319.76" rx="49.82" ry="40.9" fill="#4a7c3a"/><ellipse cx="312.05" cy="308.33" rx="33.44" ry="27.42" fill="#4a7c3a"/><ellipse cx="303.64" cy="321.65" rx="36.86" ry="30.22" fill="#8fc76b"/><ellipse cx="283.78" cy="319.12" rx="35.44" ry="29.06" fill="#8fc76b"/><ellipse cx="278.36" cy="309.14" rx="27.6" ry="22.63" fill="#8fc76b"/><ellipse cx="280.33" cy="296.17" rx="36.62" ry="30.03" fill="#8fc76b"/><ellipse cx="305.91" cy="295.83" rx="37.65" ry="30.88" fill="#8fc76b"/><ellipse cx="294.03" cy="310.32" rx="32.51" ry="27.27" fill="#8fc76b"/><ellipse cx="289.15" cy="297.99" rx="17.05" ry="14.5" fill="#dff2c2" opacity="0.85"/><ellipse cx="286.2" cy="303.03" rx="17.31" ry="14.71" fill="#dff2c2" opacity="0.85"/><ellipse cx="276.36" cy="306.19" rx="18.11" ry="15.4" fill="#dff2c2" opacity="0.85"/><ellipse cx="468.05" cy="274.29" rx="45.35" ry="37.24" fill="#4a7c3a"/><ellipse cx="479.15" cy="265.49" rx="27" ry="22.14" fill="#4a7c3a"/><ellipse cx="467.27" cy="277.38" rx="29.6" ry="24.27" fill="#8fc76b"/><ellipse cx="459.33" cy="273.05" rx="25.22" ry="20.68" fill="#8fc76b"/><ellipse cx="446.92" cy="264.38" rx="34.11" ry="27.97" fill="#4a7c3a"/><ellipse cx="457.18" cy="253.39" rx="25.02" ry="20.52" fill="#8fc76b"/><ellipse cx="467.69" cy="253.08" rx="34.23" ry="28.07" fill="#4a7c3a"/><ellipse cx="462.32" cy="265.69" rx="29.6" ry="24.82" fill="#8fc76b"/><ellipse cx="450.94" cy="254.19" rx="16.64" ry="14.14" fill="#dff2c2" opacity="0.85"/><ellipse cx="452.95" cy="259.72" rx="12.19" ry="10.36" fill="#dff2c2" opacity="0.85"/><ellipse cx="456.72" cy="258.96" rx="11.33" ry="9.63" fill="#dff2c2" opacity="0.85"/><ellipse cx="307.03" cy="239.2" rx="47.44" ry="38.95" fill="#4a7c3a"/><ellipse cx="320.05" cy="230.66" rx="30.86" ry="25.3" fill="#8fc76b"/><ellipse cx="311.19" cy="240.23" rx="33.95" ry="27.84" fill="#4a7c3a"/><ellipse cx="291.08" cy="238.81" rx="25.01" ry="20.51" fill="#8fc76b"/><ellipse cx="285.57" cy="228.65" rx="34.14" ry="28" fill="#8fc76b"/><ellipse cx="294.84" cy="224.19" rx="31.74" ry="26.03" fill="#4a7c3a"/><ellipse cx="308.43" cy="214.47" rx="33.95" ry="27.84" fill="#4a7c3a"/><ellipse cx="301.04" cy="230.21" rx="30.96" ry="25.97" fill="#8fc76b"/><ellipse cx="290.49" cy="218.62" rx="12.93" ry="10.99" fill="#dff2c2" opacity="0.85"/><ellipse cx="289.26" cy="219.73" rx="13.8" ry="11.73" fill="#dff2c2" opacity="0.85"/><ellipse cx="284.67" cy="226.7" rx="13.49" ry="11.47" fill="#dff2c2" opacity="0.85"/><ellipse cx="490.13" cy="195.25" rx="59.83" ry="49.13" fill="#4a7c3a"/><ellipse cx="506.14" cy="181.8" rx="37.17" ry="30.48" fill="#8fc76b"/><ellipse cx="487.33" cy="193.26" rx="37.59" ry="30.82" fill="#8fc76b"/><ellipse cx="474.81" cy="193.77" rx="44.92" ry="36.84" fill="#4a7c3a"/><ellipse cx="468.14" cy="186.01" rx="31.8" ry="26.08" fill="#8fc76b"/><ellipse cx="474.34" cy="169.68" rx="36.93" ry="30.28" fill="#4a7c3a"/><ellipse cx="498.81" cy="165.17" rx="34.4" ry="28.21" fill="#8fc76b"/><ellipse cx="482.57" cy="183.91" rx="39.05" ry="32.75" fill="#8fc76b"/><ellipse cx="463.07" cy="168.95" rx="16.17" ry="13.74" fill="#dff2c2" opacity="0.85"/><ellipse cx="469.78" cy="173.82" rx="19.92" ry="16.93" fill="#dff2c2" opacity="0.85"/><ellipse cx="477.04" cy="164.64" rx="14.79" ry="12.57" fill="#dff2c2" opacity="0.85"/><ellipse cx="382.63" cy="194.43" rx="51.33" ry="42.15" fill="#4a7c3a"/><ellipse cx="392.92" cy="186.1" rx="32.27" ry="26.46" fill="#4a7c3a"/><ellipse cx="386.74" cy="201.73" rx="33.84" ry="27.75" fill="#4a7c3a"/><ellipse cx="358.73" cy="198.51" rx="27.41" ry="22.48" fill="#8fc76b"/><ellipse cx="358.4" cy="186.53" rx="32.31" ry="26.49" fill="#8fc76b"/><ellipse cx="368.26" cy="174.67" rx="34.97" ry="28.67" fill="#4a7c3a"/><ellipse cx="386.4" cy="175.37" rx="29.58" ry="24.26" fill="#4a7c3a"/><ellipse cx="376.15" cy="184.71" rx="33.5" ry="28.1" fill="#8fc76b"/><ellipse cx="373.61" cy="177.53" rx="18.24" ry="15.5" fill="#dff2c2" opacity="0.85"/><ellipse cx="357.27" cy="177.63" rx="14.06" ry="11.95" fill="#dff2c2" opacity="0.85"/><ellipse cx="360.43" cy="181.86" rx="14.65" ry="12.46" fill="#dff2c2" opacity="0.85"/><ellipse cx="410.65" cy="187.28" rx="52.52" ry="43.12" fill="#4a7c3a"/><ellipse cx="425.93" cy="181.14" rx="33.38" ry="27.37" fill="#8fc76b"/><ellipse cx="414.16" cy="186.63" rx="35.43" ry="29.05" fill="#8fc76b"/><ellipse cx="399.86" cy="185.15" rx="35.24" ry="28.89" fill="#8fc76b"/><ellipse cx="387.48" cy="178.32" rx="29.55" ry="24.23" fill="#8fc76b"/><ellipse cx="400" cy="167.75" rx="31.7" ry="25.99" fill="#8fc76b"/><ellipse cx="415.26" cy="167.53" rx="30.61" ry="25.1" fill="#8fc76b"/><ellipse cx="404.02" cy="177.33" rx="34.28" ry="28.75" fill="#8fc76b"/><ellipse cx="383.96" cy="174.91" rx="15.14" ry="12.87" fill="#dff2c2" opacity="0.85"/><ellipse cx="392.48" cy="173.08" rx="16" ry="13.6" fill="#dff2c2" opacity="0.85"/><ellipse cx="391.71" cy="173.32" rx="17.45" ry="14.83" fill="#dff2c2" opacity="0.85"/>
    <g><circle cx="419.51" cy="326.1" r="7.6" fill="#ff9ecf" opacity="0.9"/><circle cx="412.94" cy="335.14" r="7.6" fill="#ff9ecf" opacity="0.9"/><circle cx="402.32" cy="331.68" r="7.6" fill="#ff9ecf" opacity="0.9"/><circle cx="402.32" cy="320.52" r="7.6" fill="#ff9ecf" opacity="0.9"/><circle cx="412.94" cy="317.07" r="7.6" fill="#ff9ecf" opacity="0.9"/><circle cx="410.01" cy="326.1" r="6.65" fill="#ffe9a8"/></g><g><circle cx="423.69" cy="330.11" r="6.14" fill="#ff9ecf" opacity="0.9"/><circle cx="418.39" cy="337.4" r="6.14" fill="#ff9ecf" opacity="0.9"/><circle cx="409.81" cy="334.62" r="6.14" fill="#ff9ecf" opacity="0.9"/><circle cx="409.81" cy="325.59" r="6.14" fill="#ff9ecf" opacity="0.9"/><circle cx="418.39" cy="322.81" r="6.14" fill="#ff9ecf" opacity="0.9"/><circle cx="416.02" cy="330.11" r="5.37" fill="#ffe9a8"/></g>
    
    
    <line x1="409" y1="516" x2="413" y2="516" stroke="#6b4226" stroke-width="2"/><line x1="404.5" y1="523.79" x2="406.5" y2="527.26" stroke="#6b4226" stroke-width="2"/><line x1="395.5" y1="523.79" x2="393.5" y2="527.26" stroke="#6b4226" stroke-width="2"/><line x1="391" y1="516" x2="387" y2="516" stroke="#6b4226" stroke-width="2"/><line x1="395.5" y1="508.21" x2="393.5" y2="504.74" stroke="#6b4226" stroke-width="2"/><line x1="404.5" y1="508.21" x2="406.5" y2="504.74" stroke="#6b4226" stroke-width="2"/><circle cx="400" cy="516" r="8" fill="none" stroke="#6b4226" stroke-width="3"/><circle cx="400" cy="516" r="3" fill="#6b4226"/><line x1="409" y1="516" x2="413" y2="516" stroke="#6b4226" stroke-width="2"/><line x1="404.5" y1="523.79" x2="406.5" y2="527.26" stroke="#6b4226" stroke-width="2"/><line x1="395.5" y1="523.79" x2="393.5" y2="527.26" stroke="#6b4226" stroke-width="2"/><line x1="391" y1="516" x2="387" y2="516" stroke="#6b4226" stroke-width="2"/><line x1="395.5" y1="508.21" x2="393.5" y2="504.74" stroke="#6b4226" stroke-width="2"/><line x1="404.5" y1="508.21" x2="406.5" y2="504.74" stroke="#6b4226" stroke-width="2"/><circle cx="400" cy="516" r="8" fill="none" stroke="#6b4226" stroke-width="3"/><circle cx="400" cy="516" r="3" fill="#6b4226"/><line x1="409" y1="516" x2="413" y2="516" stroke="#6b4226" stroke-width="2"/><line x1="404.5" y1="523.79" x2="406.5" y2="527.26" stroke="#6b4226" stroke-width="2"/><line x1="395.5" y1="523.79" x2="393.5" y2="527.26" stroke="#6b4226" stroke-width="2"/><line x1="391" y1="516" x2="387" y2="516" stroke="#6b4226" stroke-width="2"/><line x1="395.5" y1="508.21" x2="393.5" y2="504.74" stroke="#6b4226" stroke-width="2"/><line x1="404.5" y1="508.21" x2="406.5" y2="504.74" stroke="#6b4226" stroke-width="2"/><circle cx="400" cy="516" r="8" fill="none" stroke="#6b4226" stroke-width="3"/><circle cx="400" cy="516" r="3" fill="#6b4226"/><line x1="409" y1="516" x2="413" y2="516" stroke="#6b4226" stroke-width="2"/><line x1="404.5" y1="523.79" x2="406.5" y2="527.26" stroke="#6b4226" stroke-width="2"/><line x1="395.5" y1="523.79" x2="393.5" y2="527.26" stroke="#6b4226" stroke-width="2"/><line x1="391" y1="516" x2="387" y2="516" stroke="#6b4226" stroke-width="2"/><line x1="395.5" y1="508.21" x2="393.5" y2="504.74" stroke="#6b4226" stroke-width="2"/><line x1="404.5" y1="508.21" x2="406.5" y2="504.74" stroke="#6b4226" stroke-width="2"/><circle cx="400" cy="516" r="8" fill="none" stroke="#6b4226" stroke-width="3"/><circle cx="400" cy="516" r="3" fill="#6b4226"/><line x1="405.11" y1="500.67" x2="409.11" y2="500.67" stroke="#6b4226" stroke-width="2"/><line x1="400.61" y1="508.46" x2="402.61" y2="511.93" stroke="#6b4226" stroke-width="2"/><line x1="391.61" y1="508.46" x2="389.61" y2="511.93" stroke="#6b4226" stroke-width="2"/><line x1="387.11" y1="500.67" x2="383.11" y2="500.67" stroke="#6b4226" stroke-width="2"/><line x1="391.61" y1="492.87" x2="389.61" y2="489.41" stroke="#6b4226" stroke-width="2"/><line x1="400.61" y1="492.87" x2="402.61" y2="489.41" stroke="#6b4226" stroke-width="2"/><circle cx="396.11" cy="500.67" r="8" fill="none" stroke="#6b4226" stroke-width="3"/><circle cx="396.11" cy="500.67" r="3" fill="#6b4226"/><line x1="405.11" y1="500.67" x2="409.11" y2="500.67" stroke="#6b4226" stroke-width="2"/><line x1="400.61" y1="508.46" x2="402.61" y2="511.93" stroke="#6b4226" stroke-width="2"/><line x1="391.61" y1="508.46" x2="389.61" y2="511.93" stroke="#6b4226" stroke-width="2"/><line x1="387.11" y1="500.67" x2="383.11" y2="500.67" stroke="#6b4226" stroke-width="2"/><line x1="391.61" y1="492.87" x2="389.61" y2="489.41" stroke="#6b4226" stroke-width="2"/><line x1="400.61" y1="492.87" x2="402.61" y2="489.41" stroke="#6b4226" stroke-width="2"/><circle cx="396.11" cy="500.67" r="8" fill="none" stroke="#6b4226" stroke-width="3"/><circle cx="396.11" cy="500.67" r="3" fill="#6b4226"/><line x1="405.11" y1="500.67" x2="409.11" y2="500.67" stroke="#6b4226" stroke-width="2"/><line x1="400.61" y1="508.46" x2="402.61" y2="511.93" stroke="#6b4226" stroke-width="2"/><line x1="391.61" y1="508.46" x2="389.61" y2="511.93" stroke="#6b4226" stroke-width="2"/><line x1="387.11" y1="500.67" x2="383.11" y2="500.67" stroke="#6b4226" stroke-width="2"/><line x1="391.61" y1="492.87" x2="389.61" y2="489.41" stroke="#6b4226" stroke-width="2"/><line x1="400.61" y1="492.87" x2="402.61" y2="489.41" stroke="#6b4226" stroke-width="2"/><circle cx="396.11" cy="500.67" r="8" fill="none" stroke="#6b4226" stroke-width="3"/><circle cx="396.11" cy="500.67" r="3" fill="#6b4226"/><line x1="405.11" y1="500.67" x2="409.11" y2="500.67" stroke="#6b4226" stroke-width="2"/><line x1="400.61" y1="508.46" x2="402.61" y2="511.93" stroke="#6b4226" stroke-width="2"/><line x1="391.61" y1="508.46" x2="389.61" y2="511.93" stroke="#6b4226" stroke-width="2"/><line x1="387.11" y1="500.67" x2="383.11" y2="500.67" stroke="#6b4226" stroke-width="2"/><line x1="391.61" y1="492.87" x2="389.61" y2="489.41" stroke="#6b4226" stroke-width="2"/><line x1="400.61" y1="492.87" x2="402.61" y2="489.41" stroke="#6b4226" stroke-width="2"/><circle cx="396.11" cy="500.67" r="8" fill="none" stroke="#6b4226" stroke-width="3"/><circle cx="396.11" cy="500.67" r="3" fill="#6b4226"/><line x1="405.11" y1="500.67" x2="409.11" y2="500.67" stroke="#6b4226" stroke-width="2"/><line x1="400.61" y1="508.46" x2="402.61" y2="511.93" stroke="#6b4226" stroke-width="2"/><line x1="391.61" y1="508.46" x2="389.61" y2="511.93" stroke="#6b4226" stroke-width="2"/><line x1="387.11" y1="500.67" x2="383.11" y2="500.67" stroke="#6b4226" stroke-width="2"/><line x1="391.61" y1="492.87" x2="389.61" y2="489.41" stroke="#6b4226" stroke-width="2"/><line x1="400.61" y1="492.87" x2="402.61" y2="489.41" stroke="#6b4226" stroke-width="2"/><circle cx="396.11" cy="500.67" r="8" fill="none" stroke="#6b4226" stroke-width="3"/><circle cx="396.11" cy="500.67" r="3" fill="#6b4226"/><line x1="405.11" y1="500.67" x2="409.11" y2="500.67" stroke="#6b4226" stroke-width="2"/><line x1="400.61" y1="508.46" x2="402.61" y2="511.93" stroke="#6b4226" stroke-width="2"/><line x1="391.61" y1="508.46" x2="389.61" y2="511.93" stroke="#6b4226" stroke-width="2"/><line x1="387.11" y1="500.67" x2="383.11" y2="500.67" stroke="#6b4226" stroke-width="2"/><line x1="391.61" y1="492.87" x2="389.61" y2="489.41" stroke="#6b4226" stroke-width="2"/><line x1="400.61" y1="492.87" x2="402.61" y2="489.41" stroke="#6b4226" stroke-width="2"/><circle cx="396.11" cy="500.67" r="8" fill="none" stroke="#6b4226" stroke-width="3"/><circle cx="396.11" cy="500.67" r="3" fill="#6b4226"/>
  </svg>