<svg xmlns="http://www.w3.org/2000/svg" width="800" height="600" viewBox="0 0 800 600">
    <defs>
      <linearGradient id="sky" x1="0" y1="0" x2="0" y2="1">
        <stop offset="0" stop-color="#fdf6e3"/>
        <stop offset="1" stop-color="#f6e2b3"/>
      </linearGradient>
    </defs>
    <rect x="0" y="0" width="800" height="600" fill="url(#sky)"/>
    <ellipse cx="400" cy="534" rx="105" ry="14" fill="#c9a267" opacity="0.6"/>
    <path d="M 330,526 L 342,560 L 458,560 L 470,526 Z" fill="#a85f3c"/>
    <rect x="326" y="520" width="148" height="10" rx="3" fill="#8a4a2e"/>
    <path d="M 409.66,518.57 L 413.38,503.19 L 394.76,498.24 L 390.34,513.43 Z" fill="#5b3a24"/><path d="M 413.69,501.25 L 414.21,485.44 L 395.69,484.4 L 394.45,500.18 Z" fill="#5b3a24"/><path d="M 413.74,487.88 L 418.44,472.77 L 401.56,467.09 L 396.16,481.96 Z" fill="#5b3a24"/><path d="M 418.11,473.62 L 424.32,459.06 L 408.76,451.99 L 401.89,466.25 Z" fill="#5b3a24"/><path d="M 424.21,459.3 L 430.87,444.95 L 416.18,437.72 L 408.88,451.76 Z" fill="#5b3a24"/><path d="M 430.71,445.26 L 437.97,431.2 L 424.25,423.71 L 416.35,437.41 Z" fill="#5b3a24"/><path d="M 438.63,429.61 L 442.63,414.3 L 428.3,410.19 L 423.59,425.3 Z" fill="#5b3a24"/><path d="M 442.91,411.97 L 441.96,396.17 L 427.78,396.71 L 428.02,412.53 Z" fill="#5b3a24"/><path d="M 441.95,396.81 L 442.41,380.99 L 428.98,380.29 L 427.79,396.07 Z" fill="#5b3a24"/><path d="M 442.38,379.86 L 440.18,364.19 L 427.54,365.67 L 429.01,381.42 Z" fill="#5b3a24"/><path d="M 439.78,362.6 L 433.65,348.01 L 422.49,352.41 L 427.94,367.26 Z" fill="#5b3a24"/><path d="M 433.72,348.2 L 428.08,333.42 L 417.46,337.19 L 422.42,352.22 Z" fill="#5b3a24"/><path d="M 428.34,334.41 L 425.45,318.85 L 415.04,320.53 L 417.21,336.21 Z" fill="#5b3a24"/><path d="M 425.52,319.62 L 424.93,303.81 L 415.12,303.94 L 414.97,319.76 Z" fill="#5b3a24"/><path d="M 424.92,304.19 L 425.59,288.39 L 416.52,287.79 L 415.13,303.55 Z" fill="#5b3a24"/><path d="M 425.4,289.43 L 429.72,274.21 L 421.72,271.74 L 416.71,286.75 Z" fill="#5b3a24"/><path d="M 429.73,274.17 L 433.89,258.9 L 426.57,256.73 L 421.71,271.78 Z" fill="#5b3a24"/><path d="M 434.02,258.28 L 435.59,242.53 L 428.73,241.69 L 426.44,257.35 Z" fill="#5b3a24"/><path d="M 435.61,242.05 L 434.95,226.24 L 428.77,226.36 L 428.7,242.18 Z" fill="#5b3a24"/><path d="M 434.94,226.42 L 435.2,210.6 L 429.75,210.39 L 428.77,226.18 Z" fill="#5b3a24"/><path d="M 435.2,210.62 L 435.56,194.8 L 430.84,194.58 L 429.75,210.37 Z" fill="#5b3a24"/><path d="M 435.55,194.96 L 436.98,179.2 L 433.01,178.75 L 430.85,194.42 Z" fill="#5b3a24"/>
    <path d="M 420.46,459.16 L 459.31,414.78 L 453.92,409.79 L 412.62,451.9 Z" fill="#8a5a34"/><path d="M 459.15,414.95 L 500.7,373.09 L 497.94,370.19 L 454.08,409.62 Z" fill="#8a5a34"/><path d="M 439.28,409.52 L 400.67,357.72 L 395.23,361.61 L 431.65,414.97 Z" fill="#5b3a24"/><path d="M 400.35,357.34 L 354.45,311.86 L 351.58,314.65 L 395.55,361.99 Z" fill="#5b3a24"/><path d="M 435.89,368.42 L 492.29,334.38 L 489.25,329.17 L 431.83,361.44 Z" fill="#5b3a24"/><path d="M 492.65,334.13 L 543.51,292.28 L 541.01,289.15 L 488.88,329.42 Z" fill="#5b3a24"/><path d="M 423.04,317.79 L 386.31,264.86 L 381.85,267.88 L 417.45,321.59 Z" fill="#8a5a34"/><path d="M 386.29,264.83 L 348.96,212.31 L 345.67,214.59 L 381.87,267.9 Z" fill="#8a5a34"/><path d="M 428.04,274.42 L 459.98,222.39 L 455.96,219.89 L 423.4,271.53 Z" fill="#8a5a34"/><path d="M 460.14,222.07 L 483.69,165.74 L 480.01,164.17 L 455.79,220.22 Z" fill="#8a5a34"/><path d="M 433.61,225.19 L 420.62,204.61 L 417.17,206.78 L 430.1,227.4 Z" fill="#5b3a24"/><path d="M 420.66,204.68 L 408.51,183.58 L 405.04,185.58 L 417.13,206.71 Z" fill="#5b3a24"/>
    <ellipse cx="505.76" cy="381.31" rx="51.02" ry="41.89" fill="#4a7c3a"/><ellipse cx="521.02" cy="373.36" rx="29.63" ry="24.3" fill="#8fc76b"/><ellipse cx="511.71" cy="381.42" rx="36.18" ry="29.67" fill="#4a7c3a"/><ellipse cx="495.75" cy="379.51" rx="29.36" ry="24.08" fill="#8fc76b"/><ellipse cx="482.91" cy="369.83" rx="32.94" ry="27.01" fill="#4a7c3a"/><ellipse cx="491.25" cy="365.28" rx="34.68" ry="28.43" fill="#4a7c3a"/><ellipse cx="509.6" cy="361.1" rx="35.41" ry="29.04" fill="#8fc76b"/><ellipse cx="499.32" cy="371.64" rx="33.3" ry="27.93" fill="#8fc76b"/><ellipse cx="492.88" cy="368.01" rx="14.13" ry="12.01" fill="#dff2c2" opacity="0.85"/><ellipse cx="489.79" cy="368.73" rx="14.37" ry="12.21" fill="#dff2c2" opacity="0.85"/><ellipse cx="492.01" cy="363.41" rx="14.73" ry="12.52" fill="#dff2c2" opacity="0.85"/><ellipse cx="360.22" cy="324.06" rx="57.02" ry="46.82" fill="#4a7c3a"/><ellipse cx="365.28" cy="313.43" rx="33.69" ry="27.62" fill="#4a7c3a"/><ellipse cx="362.14" cy="323.93" rx="36.5" ry="29.93" fill="#4a7c3a"/><ellipse cx="346.03" cy="320.65" rx="31.41" ry="25.76" fill="#8fc76b"/><ellipse cx="336.92" cy="313.55" rx="39.8" ry="32.64" fill="#4a7c3a"/><ellipse cx="345.87" cy="301.67" rx="39.76" ry="32.6" fill="#8fc76b"/><ellipse cx="358.5" cy="301.97" rx="43.05" ry="35.3" fill="#8fc76b"/><ellipse cx="353.02" cy="313.25" rx="37.21" ry="31.21" fill="#8fc76b"/><ellipse cx="339.05" cy="303.9" rx="20.04" ry="17.03" fill="#dff2c2" opacity="0.85"/><ellipse cx="347.61" cy="304.42" rx="19.8" ry="16.83" fill="#dff2c2" opacity="0.85"/><ellipse cx="334.77" cy="302.58" rx="13.46" ry="11.44" fill="#dff2c2" opacity="0.85"/><ellipse cx="549.14" cy="301.03" rx="54.44" ry="44.7" fill="#4a7c3a"/><ellipse cx="558.24" cy="293.23" rx="40.52" ry="33.22" fill="#4a7c3a"/><ellipse cx="546.99" cy="302.4" rx="41.17" ry="33.76" fill="#4a7c3a"/><ellipse cx="534.69" cy="298.69" rx="30.06" ry="24.65" fill="#4a7c3a"/><ellipse cx="526.95" cy="293.15" rx="31.54" ry="25.86" fill="#8fc76b"/><ellipse cx="527.51" cy="275.89" rx="32.54" ry="26.68" fill="#8fc76b"/><ellipse cx="557.04" cy="276.26" rx="30.38" ry="24.91" fill="#4a7c3a"/><ellipse cx="542.26" cy="290.71" rx="35.53" ry="29.8" fill="#8fc76b"/><ellipse cx="525.84" cy="276.15" rx="20.17" ry="17.14" fill="#dff2c2" opacity="0.85"/><ellipse cx="517.27" cy="290.63" rx="14.5" ry="12.32" fill="#dff2c2" opacity="0.85"/><ellipse cx="539.84" cy="283.5" rx="14.02" ry="11.92" fill="#dff2c2" opacity="0.85"/><ellipse cx="353.49" cy="222.72" rx="48.9" ry="40.15" fill="#4a7c3a"/><ellipse cx="359.72" cy="212.89" rx="33.41" ry="27.4" fill="#4a7c3a"/><ellipse cx="359.26" cy="229.52" rx="32.35" ry="26.53" fill="#8fc76b"/><ellipse cx="342.54" cy="225.71" rx="28.43" ry="23.31" fill="#8fc76b"/><ellipse cx="328.03" cy="213.55" rx="31.25" ry="25.62" fill="#8fc76b"/><ellipse cx="337.56" cy="198.74" rx="35.51" ry="29.12" fill="#8fc76b"/><ellipse cx="362.42" cy="200.86" rx="36.62" ry="30.03" fill="#4a7c3a"/><ellipse cx="347.32" cy="213.45" rx="31.91" ry="26.76" fill="#8fc76b"/><ellipse cx="336.07" cy="207.67" rx="16.44" ry="13.97" fill="#dff2c2" opacity="0.85"/><ellipse cx="342.64" cy="207.69" rx="17.35" ry="14.75" fill="#dff2c2" opacity="0.85"/><ellipse cx="329.73" cy="203.63" rx="13.38" ry="11.38" fill="#dff2c2" opacity="0.85"/><ellipse cx="487.71" cy="173.75" rx="46.43" ry="38.12" fill="#4a7c3a"/><ellipse cx="498.88" cy="163.92" rx="27.09" ry="22.21" fill="#4a7c3a"/><ellipse cx="495.02" cy="175.12" rx="34.75" ry="28.5" fill="#4a7c3a"/><ellipse cx="474.52" cy="181.35" rx="33.47" ry="27.45" fill="#8fc76b"/><ellipse cx="471.48" cy="166.93" rx="32.77" ry="26.87" fill="#8fc76b"/><ellipse cx="471.32" cy="154.81" rx="26.63" ry="21.84" fill="#8fc76b"/><ellipse cx="492.58" cy="150.34" rx="33.35" ry="27.35" fill="#4a7c3a"/><ellipse cx="481.85" cy="164.96" rx="30.3" ry="25.41" fill="#8fc76b"/><ellipse cx="477.34" cy="150.34" rx="12.57" ry="10.68" fill="#dff2c2" opacity="0.85"/><ellipse cx="464.27" cy="161.14" rx="10.82" ry="9.2" fill="#dff2c2" opacity="0.85"/><ellipse cx="463.2" cy="162.38" rx="13.41" ry="11.4" fill="#dff2c2" opacity="0.85"/><ellipse cx="413.59" cy="194.8" rx="53.93" ry="44.28" fill="#4a7c3a"/><ellipse cx="431.48" cy="181.29" rx="37.97" ry="31.14" fill="#8fc76b"/><ellipse cx="413.96" cy="199.86" rx="28.62" ry="23.47" fill="#4a7c3a"/><ellipse cx="398.05" cy="199.6" rx="36.94" ry="30.29" fill="#8fc76b"/><ellipse cx="378.86" cy="187.91" rx="34.28" ry="28.11" fill="#4a7c3a"/><ellipse cx="393.42" cy="171.94" rx="40.06" ry="32.85" fill="#8fc76b"/><ellipse cx="416.7" cy="176.48" rx="38.89" ry="31.89" fill="#8fc76b"/><ellipse cx="406.77" cy="184.58" rx="35.2" ry="29.52" fill="#8fc76b"/><ellipse cx="394.81" cy="177.83" rx="16.6" ry="14.11" fill="#dff2c2" opacity="0.85"/><ellipse cx="405.67" cy="169.61" rx="19" ry="16.15" fill="#dff2c2" opacity="0.85"/><ellipse cx="394.54" cy="181.96" rx="18.66" ry="15.86" fill="#dff2c2" opacity="0.85"/><ellipse cx="441.83" cy="189.22" rx="54.08" ry="44.41" fill="#4a7c3a"/><ellipse cx="461.01" cy="183.3" rx="30.44" ry="24.96" fill="#8fc76b"/><ellipse cx="442" cy="195.05" rx="39.72" ry="32.57" fill="#8fc76b"/><ellipse cx="423.68" cy="194.67" rx="32.2" ry="26.41" fill="#4a7c3a"/><ellipse cx="420.85" cy="180.33" rx="33.83" ry="27.74" fill="#8fc76b"/><ellipse cx="426.93" cy="165.27" rx="30.54" ry="25.04" fill="#8fc76b"/><ellipse cx="447.21" cy="162.87" rx="31.44" ry="25.78" fill="#4a7c3a"/><ellipse cx="435" cy="178.97" rx="35.3" ry="29.6" fill="#8fc76b"/><ellipse cx="422.52" cy="175.57" rx="15.01" ry="12.76" fill="#dff2c2" opacity="0.85"/><ellipse cx="420.64" cy="170.3" rx="14.91" ry="12.68" fill="#dff2c2" opacity="0.85"/><ellipse cx="421.44" cy="169.48" rx="14.19" ry="12.06" fill="#dff2c2" opacity="0.85"/>
    <g><circle cx="466.18" cy="343.21" r="7.6" fill="#ffc94d" opacity="0.9"/><circle cx="459.61" cy="352.25" r="7.6" fill="#ffc94d" opacity="0.9"/><circle cx="448.99" cy="348.8" r="7.6" fill="#ffc94d" opacity="0.9"/><circle cx="448.99" cy="337.63" r="7.6" fill="#ffc94d" opacity="0.9"/><circle cx="459.61" cy="334.18" r="7.6" fill="#ffc94d" opacity="0.9"/><circle cx="456.68" cy="343.21" r="6.65" fill="#ffe9a8"/></g><g><circle cx="470.66" cy="347.22" r="6.38" fill="#ff9ecf" opacity="0.9"/><circle cx="465.15" cy="354.8" r="6.38" fill="#ff9ecf" opacity="0.9"/><circle cx="456.23" cy="351.91" r="6.38" fill="#ff9ecf" opacity="0.9"/><circle cx="456.23" cy="342.53" r="6.38" fill="#ff9ecf" opacity="0.9"/><circle cx="465.15" cy="339.63" r="6.38" fill="#ff9ecf" opacity="0.9"/><circle cx="462.68" cy="347.22" r="5.58" fill="#ffe9a8"/></g>
    
    
    <line x1="409" y1="516" x2="413" y2="516" stroke="#6b4226" stroke-width="2"/><line x1="404.5" y1="523.79" x2="406.5" y2="527.26" stroke="#6b4226" stroke-width="2"/><line x1="395.5" y1="523.79" x2="393.5" y2="527.26" stroke="#6b4226" stroke-width="2"/><line x1="391" y1="516" x2="387" y2="516" stroke="#6b4226" stroke-width="2"/><line x1="395.5" y1="508.21" x2="393.5" y2="504.74" stroke="#6b4226" stroke-width="2"/><line x1="404.5" y1="508.21" x2="406.5" y2="504.74" stroke="#6b4226" stroke-width="2"/><circle cx="400" cy="516" r="8" fill="none" stroke="#6b4226" stroke-width="3"/><circle cx="400" cy="516" r="3" fill="#6b4226"/><line x1="409" y1="516" x2="413" y2="516" stroke="#6b4226" stroke-width="2"/><line x1="404.5" y1="523.79" x2="406.5" y2="527.26" stroke="#6b4226" stroke-width="2"/><line x1="395.5" y1="523.79" x2="393.5" y2="527.26" stroke="#6b4226" stroke-width="2"/><line x1="391" y1="516" x2="387" y2="516" stroke="#6b4226" stroke-width="2"/><line x1="395.5" y1="508.21" x2="393.5" y2="504.74" stroke="#6b4226" stroke-width="2"/><line x1="404.5" y1="508.21" x2="406.5" y2="504.74" stroke="#6b4226" stroke-width="2"/><circle cx="400" cy="516" r="8" fill="none" stroke="#6b4226" stroke-width="3"/><circle cx="400" cy="516" r="3" fill="#6b4226"/><line x1="409" y1="516" x2="413" y2="516" stroke="#6b4226" stroke-width="2"/><line x1="404.5" y1="523.79" x2="406.5" y2="527.26" stroke="#6b4226" stroke-width="2"/><line x1="395.5" y1="523.79" x2="393.5" y2="527.26" stroke="#6b4226" stroke-width="2"/><line x1="391" y1="516" x2="387" y2="516" stroke="#6b4226" stroke-width="2"/><line x1="395.5" y1="508.21" x2="393.5" y2="504.74" stroke="#6b4226" stroke-width="2"/><line x1="404.5" y1="508.21" x2="406.5" y2="504.74" stroke="#6b4226" stroke-width="2"/><circle cx="400" cy="516" r="8" fill="none" stroke="#6b4226" stroke-width="3"/><circle cx="400" cy="516" r="3" fill="#6b4226"/><line x1="409" y1="516" x2="413" y2="516" stroke="#6b4226" stroke-width="2"/><line x1="404.5" y1="523.79" x2="406.5" y2="527.26" stroke="#6b4226" stroke-width="2"/><line x1="395.5" y1="523.79" x2="393.5" y2="527.26" stroke="#6b4226" stroke-width="2"/><line x1="391" y1="516" x2="387" y2="516" stroke="#6b4226" stroke-width="2"/><line x1="395.5" y1="508.21" x2="393.5" y2="504.74" stroke="#6b4226" stroke-width="2"/><line x1="404.5" y1="508.21" x2="406.5" y2="504.74" stroke="#6b4226" stroke-width="2"/><circle cx="400" cy="516" r="8" fill="none" stroke="#6b4226" stroke-width="3"/><circle cx="400" cy="516" r="3" fill="#6b4226"/><line x1="413.07" y1="500.71" x2="417.07" y2="500.71" stroke="#6b4226" stroke-width="2"/><line x1="408.57" y1="508.51" x2="410.57" y2="511.97" stroke="#6b4226" stroke-width="2"/><line x1="399.57" y1="508.51" x2="397.57" y2="511.97" stroke="#6b4226" stroke-width="2"/><line x1="395.07" y1="500.71" x2="391.07" y2="500.71" stroke="#6b4226" stroke-width="2"/><line x1="399.57" y1="492.92" x2="397.57" y2="489.46" stroke="#6b4226" stroke-width="2"/><line x1="408.57" y1="492.92" x2="410.57" y2="489.46" stroke="#6b4226" stroke-width="2"/><circle cx="404.07" cy="500.71" r="8" fill="none" stroke="#6b4226" stroke-width="3"/><circle cx="404.07" cy="500.71" r="3" fill="#6b4226"/><line x1="413.07" y1="500.71" x2="417.07" y2="500.71" stroke="#6b4226" stroke-width="2"/><line x1="408.57" y1="508.51" x2="410.57" y2="511.97" stroke="#6b4226" stroke-width="2"/><line x1="399.57" y1="508.51" x2="397.57" y2="511.97" stroke="#6b4226" stroke-width="2"/><line x1="395.07" y1="500.71" x2="391.07" y2="500.71" stroke="#6b4226" stroke-width="2"/><line x1="399.57" y1="492.92" x2="397.57" y2="489.46" stroke="#6b4226" stroke-width="2"/><line x1="408.57" y1="492.92" x2="410.57" y2="489.46" stroke="#6b4226" stroke-width="2"/><circle cx="404.07" cy="500.71" r="8" fill="none" stroke="#6b4226" stroke-width="3"/><circle cx="404.07" cy="500.71" r="3" fill="#6b4226"/><line x1="413.07" y1="500.71" x2="417.07" y2="500.71" stroke="#6b4226" stroke-width="2"/><line x1="408.57" y1="508.51" x2="410.57" y2="511.97" stroke="#6b4226" stroke-width="2"/><line x1="399.57" y1="508.51" x2="397.57" y2="511.97" stroke="#6b4226" stroke-width="2"/><line x1="395.07" y1="500.71" x2="391.07" y2="500.71" stroke="#6b4226" stroke-width="2"/><line x1="399.57" y1="492.92" x2="397.57" y2="489.46" stroke="#6b4226" stroke-width="2"/><line x1="408.57" y1="492.92" x2="410.57" y2="489.46" stroke="#6b4226" stroke-width="2"/><circle cx="404.07" cy="500.71" r="8" fill="none" stroke="#6b4226" stroke-width="3"/><circle cx="404.07" cy="500.71" r="3" fill="#6b4226"/><line x1="413.07" y1="500.71" x2="417.07" y2="500.71" stroke="#6b4226" stroke-width="2"/><line x1="408.57" y1="508.51" x2="410.57" y2="511.97" stroke="#6b4226" stroke-width="2"/><line x1="399.57" y1="508.51" x2="397.57" y2="511.97" stroke="#6b4226" stroke-width="2"/><line x1="395.07" y1="500.71" x2="391.07" y2="500.71" stroke="#6b4226" stroke-width="2"/><line x1="399.57" y1="492.92" x2="397.57" y2="489.46" stroke="#6b4226" stroke-width="2"/><line x1="408.57" y1="492.92" x2="410.57" y2="489.46" stroke="#6b4226" stroke-width="2"/><circle cx="404.07" cy="500.71" r="8" fill="none" stroke="#6b4226" stroke-width="3"/><circle cx="404.07" cy="500.71" r="3" fill="#6b4226"/><line x1="413.07" y1="500.71" x2="417.07" y2="500.71" stroke="#6b4226" stroke-width="2"/><line x1="408.57" y1="508.51" x2="410.57" y2="511.97" stroke="#6b4226" stroke-width="2"/><line x1="399.57" y1="508.51" x2="397.57" y2="511.97" stroke="#6b4226" stroke-width="2"/><line x1="395.07" y1="500.71" x2="391.07" y2="500.71" stroke="#6b4226" stroke-width="2"/><line x1="399.57" y1="492.92" x2="397.57" y2="489.46" stroke="#6b4226" stroke-width="2"/><line x1="408.57" y1="492.92" x2="410.57" y2="489.46" stroke="#6b4226" stroke-width="2"/><circle cx="404.07" cy="500.71" r="8" fill="none" stroke="#6b4226" stroke-width="3"/><circle cx="404.07" cy="500.71" r="3" fill="#6b4226"/><line x1="413.07" y1="500.71" x2="417.07" y2="500.71" stroke="#6b4226" stroke-width="2"/><line x1="408.57" y1="508.51" x2="410.57" y2="511.97" stroke="#6b4226" stroke-width="2"/><line x1="399.57" y1="508.51" x2="397.57" y2="511.97" stroke="#6b4226" stroke-width="2"/><line x1="395.07" y1="500.71" x2="391.07" y2="500.71" stroke="#6b4226" stroke-width="2"/><line x1="399.57" y1="492.92" x2="397.57" y2="489.46" stroke="#6b4226" stroke-width="2"/><line x1="408.57" y1="492.92" x2="410.57" y2="489.46" stroke="#6b4226" stroke-width="2"/><circle cx="404.07" cy="500.71" r="8" fill="none" stroke="#6b4226" stroke-width="3"/><circle cx="404.07" cy="500.71" r="3" fill="#6b4226"/>
  </svg>