<svg xmlns="http://www.w3.org/2000/svg" width="800" height="600" viewBox="0 0 800 600">
    <defs>
      <linearGradient id="sky" x1="0" y1="0" x2="0" y2="1">
        <stop offset="0" stop-color="#fdf6e3"/>
        <stop offset="1" stop-color="#f6e2b3"/>
      </linearGradient>
    </defs>
    <rect x="0" y="0" width="800" height="600" fill="url(#sky)"/>
    <ellipse cx="400" cy="534" rx="105" ry="14" fill="#c9a267" opacity="0.6"/>
    <path d="M 330,526 L 342,560 L 458,560 L 470,526 Z" fill="#a85f3c"/>
    <rect x="326" y="520" width="148" height="10" rx="3" fill="#8a4a2e"/>
    <path d="M 409.85,517.73 L 412.22,502.08 L 393.24,498.76 L 390.15,514.27 Z" fill="#5b3a24"/><path d="M 412.35,499.84 L 411.04,484.07 L 392.53,485.18 L 393.11,501 Z" fill="#5b3a24"/><path d="M 411.06,484.74 L 410.89,468.92 L 393.07,468.7 L 392.51,484.52 Z" fill="#5b3a24"/><path d="M 410.87,469.38 L 411.5,453.57 L 394.45,452.49 L 393.09,468.25 Z" fill="#5b3a24"/><path d="M 411.32,451.2 L 407.58,435.82 L 391.6,439.32 L 394.63,454.85 Z" fill="#5b3a24"/><path d="M 407.74,438.35 L 408.88,422.57 L 393.32,421.08 L 391.45,436.8 Z" fill="#5b3a24"/><path d="M 408.78,420.36 L 405.46,404.89 L 390.81,407.68 L 393.42,423.29 Z" fill="#5b3a24"/><path d="M 405.51,405.17 L 402.77,389.58 L 388.75,391.72 L 390.77,407.41 Z" fill="#5b3a24"/><path d="M 402.85,390.57 L 402.3,374.75 L 388.85,374.91 L 388.67,390.73 Z" fill="#5b3a24"/><path d="M 402.15,376.28 L 405.18,360.75 L 392.75,358.02 L 389.01,373.39 Z" fill="#5b3a24"/><path d="M 404.73,362.08 L 411.1,347.59 L 400.23,342.51 L 393.2,356.69 Z" fill="#5b3a24"/><path d="M 411.65,345.39 L 412.19,329.58 L 400.93,328.94 L 399.67,344.71 Z" fill="#5b3a24"/><path d="M 412.15,329.94 L 413.71,314.2 L 403.24,312.92 L 400.96,328.57 Z" fill="#5b3a24"/><path d="M 413.69,314.34 L 415.67,298.64 L 405.96,297.19 L 403.26,312.78 Z" fill="#5b3a24"/><path d="M 415.62,298.93 L 418.55,283.38 L 409.65,281.5 L 406.02,296.89 Z" fill="#5b3a24"/><path d="M 418.58,283.22 L 420.95,267.58 L 412.71,266.14 L 409.62,281.65 Z" fill="#5b3a24"/><path d="M 421,267.11 L 421.59,251.3 L 413.97,250.84 L 412.65,266.61 Z" fill="#5b3a24"/><path d="M 421.59,250.88 L 420.45,235.1 L 413.54,235.44 L 413.97,251.26 Z" fill="#5b3a24"/><path d="M 420.42,234.79 L 417.87,219.18 L 411.75,220.03 L 413.57,235.75 Z" fill="#5b3a24"/><path d="M 417.9,219.64 L 417.73,203.82 L 412.27,203.75 L 411.72,219.57 Z" fill="#5b3a24"/><path d="M 417.72,203.58 L 416.17,187.83 L 411.46,188.19 L 412.28,203.99 Z" fill="#5b3a24"/><path d="M 416.18,187.97 L 415.52,172.16 L 411.52,172.23 L 411.45,188.06 Z" fill="#5b3a24"/>
    <path d="M 406.64,456.92 L 448.13,415.57 L 443.09,410.22 L 399.31,449.13 Z" fill="#8a5a34"/><path d="M 447.9,415.77 L 492.64,377.97 L 490.15,374.84 L 443.32,410.03 Z" fill="#8a5a34"/><path d="M 400.87,402.48 L 346.08,364.87 L 342.18,370.31 L 395.41,410.1 Z" fill="#5b3a24"/><path d="M 345.25,364.44 L 282.18,343.49 L 280.85,347.25 L 343.01,370.75 Z" fill="#5b3a24"/><path d="M 402.37,361.56 L 437.43,304.79 L 432.34,301.54 L 395.57,357.21 Z" fill="#5b3a24"/><path d="M 437.26,305.03 L 477.76,252.02 L 474.62,249.54 L 432.52,301.3 Z" fill="#5b3a24"/><path d="M 411.27,311.65 L 393.47,286.83 L 389.03,289.86 L 405.69,315.46 Z" fill="#5b3a24"/><path d="M 393.8,287.48 L 383.37,258.78 L 379.58,260.06 L 388.7,289.21 Z" fill="#5b3a24"/><path d="M 418.44,269.06 L 436.8,255.17 L 434.01,251.35 L 415.22,264.66 Z" fill="#8a5a34"/><path d="M 437.07,254.93 L 453.11,238.41 L 450.29,235.58 L 433.73,251.59 Z" fill="#8a5a34"/><path d="M 416.46,218.34 L 402.14,199.74 L 398.91,202.22 L 413.17,220.86 Z" fill="#5b3a24"/><path d="M 401.89,199.47 L 384.45,183.77 L 381.77,186.74 L 399.16,202.49 Z" fill="#5b3a24"/>
    <ellipse cx="498.95" cy="387.74" rx="59.82" ry="49.12" fill="#4a7c3a"/><ellipse cx="518.39" cy="375.44" rx="44.95" ry="36.86" fill="#4a7c3a"/><ellipse cx="502.02" cy="387.53" rx="33.77" ry="27.69" fill="#8fc76b"/><ellipse cx="477.16" cy="388.03" rx="32.93" ry="27" fill="#8fc76b"/><ellipse cx="462.2" cy="374.9" rx="37.15" ry="30.46" fill="#8fc76b"/><ellipse cx="478.71" cy="357.23" rx="43.25" ry="35.47" fill="#4a7c3a"/><ellipse cx="496.32" cy="365.33" rx="36.85" ry="30.22" fill="#4a7c3a"/><ellipse cx="491.39" cy="376.41" rx="39.04" ry="32.75" fill="#8fc76b"/><ellipse cx="472.41" cy="368.79" rx="14.54" ry="12.36" fill="#dff2c2" opacity="0.85"/><ellipse cx="478.77" cy="369.36" rx="18.98" ry="16.13" fill="#dff2c2" opacity="0.85"/><ellipse cx="485.07" cy="356.92" rx="17.03" ry="14.48" fill="#dff2c2" opacity="0.85"/><ellipse cx="288.13" cy="355.29" rx="52.36" ry="42.99" fill="#4a7c3a"/><ellipse cx="305.03" cy="345.52" rx="31.9" ry="26.16" fill="#4a7c3a"/><ellipse cx="292.53" cy="361.62" rx="28.08" ry="23.02" fill="#8fc76b"/><ellipse cx="273.44" cy="362.87" rx="38.67" ry="31.71" fill="#8fc76b"/><ellipse cx="269.24" cy="346.22" rx="34.05" ry="27.92" fill="#4a7c3a"/><ellipse cx="269.25" cy="331.88" rx="34.84" ry="28.57" fill="#4a7c3a"/><ellipse cx="290.92" cy="329.65" rx="27.98" ry="22.94" fill="#8fc76b"/><ellipse cx="281.52" cy="345.37" rx="34.17" ry="28.66" fill="#8fc76b"/><ellipse cx="280.32" cy="327.12" rx="19.45" ry="16.53" fill="#dff2c2" opacity="0.85"/><ellipse cx="259.2" cy="344.7" rx="17.39" ry="14.78" fill="#dff2c2" opacity="0.85"/><ellipse cx="280.14" cy="328.01" rx="13.19" ry="11.21" fill="#dff2c2" opacity="0.85"/><ellipse cx="483.13" cy="261.18" rx="54.91" ry="45.08" fill="#4a7c3a"/><ellipse cx="491.03" cy="251.32" rx="41.22" ry="33.8" fill="#8fc76b"/><ellipse cx="483.95" cy="257.54" rx="33.94" ry="27.83" fill="#8fc76b"/><ellipse cx="465.07" cy="264.77" rx="29.42" ry="24.12" fill="#4a7c3a"/><ellipse cx="453.64" cy="250.23" rx="40.6" ry="33.29" fill="#4a7c3a"/><ellipse cx="471.37" cy="240.3" rx="31.23" ry="25.61" fill="#4a7c3a"/><ellipse cx="481.17" cy="241.44" rx="40.86" ry="33.5" fill="#8fc76b"/><ellipse cx="476.19" cy="250.78" rx="35.84" ry="30.06" fill="#8fc76b"/><ellipse cx="453.56" cy="241.23" rx="18.57" ry="15.78" fill="#dff2c2" opacity="0.85"/><ellipse cx="465.3" cy="240.44" rx="15.04" ry="12.78" fill="#dff2c2" opacity="0.85"/><ellipse cx="461.62" cy="248.37" rx="16.72" ry="14.21" fill="#dff2c2" opacity="0.85"/><ellipse cx="388.49" cy="269.95" rx="55.59" ry="45.64" fill="#4a7c3a"/><ellipse cx="400.34" cy="260.23" rx="38.41" ry="31.49" fill="#4a7c3a"/><ellipse cx="394.4" cy="272.82" rx="31.33" ry="25.69" fill="#4a7c3a"/><ellipse cx="373.64" cy="277.94" rx="38.59" ry="31.64" fill="#4a7c3a"/><ellipse cx="362.64" cy="260.27" rx="32.43" ry="26.6" fill="#4a7c3a"/><ellipse cx="367.58" cy="246.25" rx="30.49" ry="25" fill="#8fc76b"/><ellipse cx="388.67" cy="246.69" rx="38.84" ry="31.84" fill="#8fc76b"/><ellipse cx="381.47" cy="259.42" rx="36.28" ry="30.43" fill="#8fc76b"/><ellipse cx="369.08" cy="252.17" rx="14.9" ry="12.66" fill="#dff2c2" opacity="0.85"/><ellipse cx="362.37" cy="250.61" rx="17.67" ry="15.02" fill="#dff2c2" opacity="0.85"/><ellipse cx="372.95" cy="254.49" rx="20.21" ry="17.18" fill="#dff2c2" opacity="0.85"/><ellipse cx="458.77" cy="247.61" rx="55.99" ry="45.97" fill="#4a7c3a"/><ellipse cx="477.44" cy="239.22" rx="42.41" ry="34.77" fill="#4a7c3a"/><ellipse cx="456.71" cy="246.08" rx="41.24" ry="33.82" fill="#8fc76b"/><ellipse cx="444.68" cy="254.62" rx="34.09" ry="27.96" fill="#8fc76b"/><ellipse cx="433.38" cy="240.03" rx="32.66" ry="26.79" fill="#8fc76b"/><ellipse cx="442.59" cy="218.66" rx="30.41" ry="24.94" fill="#4a7c3a"/><ellipse cx="459.82" cy="223.43" rx="37.04" ry="30.37" fill="#4a7c3a"/><ellipse cx="451.7" cy="237" rx="36.54" ry="30.65" fill="#8fc76b"/><ellipse cx="444" cy="229" rx="14.69" ry="12.49" fill="#dff2c2" opacity="0.85"/><ellipse cx="437.04" cy="229.69" rx="14.83" ry="12.61" fill="#dff2c2" opacity="0.85"/><ellipse cx="432.45" cy="228.02" rx="16.52" ry="14.04" fill="#dff2c2" opacity="0.85"/><ellipse cx="388.95" cy="194.02" rx="46.23" ry="37.96" fill="#4a7c3a"/><ellipse cx="397.45" cy="185.9" rx="30.66" ry="25.14" fill="#8fc76b"/><ellipse cx="398.96" cy="197.95" rx="27.56" ry="22.6" fill="#8fc76b"/><ellipse cx="372.68" cy="193.96" rx="27.28" ry="22.37" fill="#4a7c3a"/><ellipse cx="360.95" cy="183.7" rx="34.21" ry="28.05" fill="#8fc76b"/><ellipse cx="375.62" cy="171.28" rx="33.99" ry="27.87" fill="#8fc76b"/><ellipse cx="390.46" cy="174.22" rx="28.85" ry="23.66" fill="#8fc76b"/><ellipse cx="383.11" cy="185.26" rx="30.17" ry="25.31" fill="#8fc76b"/><ellipse cx="375.03" cy="179.03" rx="14.92" ry="12.68" fill="#dff2c2" opacity="0.85"/><ellipse cx="369.66" cy="183.27" rx="14.94" ry="12.7" fill="#dff2c2" opacity="0.85"/><ellipse cx="378.56" cy="179.27" rx="17.08" ry="14.52" fill="#dff2c2" opacity="0.85"/><ellipse cx="419.82" cy="181.64" rx="49.86" ry="40.94" fill="#4a7c3a"/><ellipse cx="434.04" cy="175.55" rx="37.11" ry="30.43" fill="#4a7c3a"/><ellipse cx="420.62" cy="181.8" rx="28.99" ry="23.77" fill="#4a7c3a"/><ellipse cx="399.81" cy="188.9" rx="34.92" ry="28.63" fill="#8fc76b"/><ellipse cx="399.04" cy="171.23" rx="30.56" ry="25.06" fill="#8fc76b"/><ellipse cx="399.26" cy="159.91" rx="28.66" ry="23.5" fill="#8fc76b"/><ellipse cx="421.99" cy="165.5" rx="28.63" ry="23.48" fill="#4a7c3a"/><ellipse cx="413.52" cy="172.2" rx="32.54" ry="27.29" fill="#8fc76b"/><ellipse cx="402.4" cy="171.97" rx="13.82" ry="11.74" fill="#dff2c2" opacity="0.85"/><ellipse cx="399.36" cy="161.89" rx="15.41" ry="13.1" fill="#dff2c2" opacity="0.85"/><ellipse cx="395.97" cy="164.05" rx="18.75" ry="15.94" fill="#dff2c2" opacity="0.85"/>
    <g><circle cx="458.25" cy="347.98" r="7.6" fill="#ff9ecf" opacity="0.9"/><circle cx="451.68" cy="357.01" r="7.6" fill="#ff9ecf" opacity="0.9"/><circle cx="441.06" cy="353.56" r="7.6" fill="#ff9ecf" opacity="0.9"/><circle cx="441.06" cy="342.39" r="7.6" fill="#ff9ecf" opacity="0.9"/><circle cx="451.68" cy="338.94" r="7.6" fill="#ff9ecf" opacity="0.9"/><circle cx="448.75" cy="347.98" r="6.65" fill="#ffe9a8"/></g><g><circle cx="383.04" cy="147.77" r="4.92" fill="#ffc94d" opacity="0.9"/><circle cx="378.79" cy="153.62" r="4.92" fill="#ffc94d" opacity="0.9"/><circle cx="371.91" cy="151.39" r="4.92" fill="#ffc94d" opacity="0.9"/><circle cx="371.91" cy="144.16" r="4.92" fill="#ffc94d" opacity="0.9"/><circle cx="378.79" cy="141.92" r="4.92" fill="#ffc94d" opacity="0.9"/><circle cx="376.89" cy="147.77" r="4.31" fill="#ffe9a8"/></g>
    
    
    <line x1="411.73" y1="500.42" x2="415.73" y2="500.42" stroke="#6b4226" stroke-width="2"/><line x1="407.23" y1="508.21" x2="409.23" y2="511.68" stroke="#6b4226" stroke-width="2"/><line x1="398.23" y1="508.21" x2="396.23" y2="511.68" stroke="#6b4226" stroke-width="2"/><line x1="393.73" y1="500.42" x2="389.73" y2="500.42" stroke="#6b4226" stroke-width="2"/><line x1="398.23" y1="492.63" x2="396.23" y2="489.16" stroke="#6b4226" stroke-width="2"/><line x1="407.23" y1="492.63" x2="409.23" y2="489.16" stroke="#6b4226" stroke-width="2"/><circle cx="402.73" cy="500.42" r="8" fill="none" stroke="#6b4226" stroke-width="3"/><circle cx="402.73" cy="500.42" r="3" fill="#6b4226"/><line x1="411.73" y1="500.42" x2="415.73" y2="500.42" stroke="#6b4226" stroke-width="2"/><line x1="407.23" y1="508.21" x2="409.23" y2="511.68" stroke="#6b4226" stroke-width="2"/><line x1="398.23" y1="508.21" x2="396.23" y2="511.68" stroke="#6b4226" stroke-width="2"/><line x1="393.73" y1="500.42" x2="389.73" y2="500.42" stroke="#6b4226" stroke-width="2"/><line x1="398.23" y1="492.63" x2="396.23" y2="489.16" stroke="#6b4226" stroke-width="2"/><line x1="407.23" y1="492.63" x2="409.23" y2="489.16" stroke="#6b4226" stroke-width="2"/><circle cx="402.73" cy="500.42" r="8" fill="none" stroke="#6b4226" stroke-width="3"/><circle cx="402.73" cy="500.42" r="3" fill="#6b4226"/><line x1="411.73" y1="500.42" x2="415.73" y2="500.42" stroke="#6b4226" stroke-width="2"/><line x1="407.23" y1="508.21" x2="409.23" y2="511.68" stroke="#6b4226" stroke-width="2"/><line x1="398.23" y1="508.21" x2="396.23" y2="511.68" stroke="#6b4226" stroke-width="2"/><line x1="393.73" y1="500.42" x2="389.73" y2="500.42" stroke="#6b4226" stroke-width="2"/><line x1="398.23" y1="492.63" x2="396.23" y2="489.16" stroke="#6b4226" stroke-width="2"/><line x1="407.23" y1="492.63" x2="409.23" y2="489.16" stroke="#6b4226" stroke-width="2"/><circle cx="402.73" cy="500.42" r="8" fill="none" stroke="#6b4226" stroke-width="3"/><circle cx="402.73" cy="500.42" r="3" fill="#6b4226"/><line x1="410.78" y1="484.63" x2="414.78" y2="484.63" stroke="#6b4226" stroke-width="2"/><line x1="406.28" y1="492.42" x2="408.28" y2="495.89" stroke="#6b4226" stroke-width="2"/><line x1="397.28" y1="492.42" x2="395.28" y2="495.89" stroke="#6b4226" stroke-width="2"/><line x1="392.78" y1="484.63" x2="388.78" y2="484.63" stroke="#6b4226" stroke-width="2"/><line x1="397.28" y1="476.84" x2="395.28" y2="473.37" stroke="#6b4226" stroke-width="2"/><line x1="406.28" y1="476.84" x2="408.28" y2="473.37" stroke="#6b4226" stroke-width="2"/><circle cx="401.78" cy="484.63" r="8" fill="none" stroke="#6b4226" stroke-width="3"/><circle cx="401.78" cy="484.63" r="3" fill="#6b4226"/><line x1="424" y1="203.79" x2="428" y2="203.79" stroke="#6b4226" stroke-width="2"/><line x1="419.5" y1="211.58" x2="421.5" y2="215.04" stroke="#6b4226" stroke-width="2"/><line x1="410.5" y1="211.58" x2="408.5" y2="215.04" stroke="#6b4226" stroke-width="2"/><line x1="406" y1="203.79" x2="402" y2="203.79" stroke="#6b4226" stroke-width="2"/><line x1="410.5" y1="195.99" x2="408.5" y2="192.53" stroke="#6b4226" stroke-width="2"/><line x1="419.5" y1="195.99" x2="421.5" y2="192.53" stroke="#6b4226" stroke-width="2"/><circle cx="415" cy="203.79" r="8" fill="none" stroke="#6b4226" stroke-width="3"/><circle cx="415" cy="203.79" r="3" fill="#6b4226"/><line x1="424" y1="203.79" x2="428" y2="203.79" stroke="#6b4226" stroke-width="2"/><line x1="419.5" y1="211.58" x2="421.5" y2="215.04" stroke="#6b4226" stroke-width="2"/><line x1="410.5" y1="211.58" x2="408.5" y2="215.04" stroke="#6b4226" stroke-width="2"/><line x1="406" y1="203.79" x2="402" y2="203.79" stroke="#6b4226" stroke-width="2"/><line x1="410.5" y1="195.99" x2="408.5" y2="192.53" stroke="#6b4226" stroke-width="2"/><line x1="419.5" y1="195.99" x2="421.5" y2="192.53" stroke="#6b4226" stroke-width="2"/><circle cx="415" cy="203.79" r="8" fill="none" stroke="#6b4226" stroke-width="3"/><circle cx="415" cy="203.79" r="3" fill="#6b4226"/><line x1="424" y1="203.79" x2="428" y2="203.79" stroke="#6b4226" stroke-width="2"/><line x1="419.5" y1="211.58" x2="421.5" y2="215.04" stroke="#6b4226" stroke-width="2"/><line x1="410.5" y1="211.58" x2="408.5" y2="215.04" stroke="#6b4226" stroke-width="2"/><line x1="406" y1="203.79" x2="402" y2="203.79" stroke="#6b4226" stroke-width="2"/><line x1="410.5" y1="195.99" x2="408.5" y2="192.53" stroke="#6b4226" stroke-width="2"/><line x1="419.5" y1="195.99" x2="421.5" y2="192.53" stroke="#6b4226" stroke-width="2"/><circle cx="415" cy="203.79" r="8" fill="none" stroke="#6b4226" stroke-width="3"/><circle cx="415" cy="203.79" r="3" fill="#6b4226"/><line x1="424" y1="203.79" x2="428" y2="203.79" stroke="#6b4226" stroke-width="2"/><line x1="419.5" y1="211.58" x2="421.5" y2="215.04" stroke="#6b4226" stroke-width="2"/><line x1="410.5" y1="211.58" x2="408.5" y2="215.04" stroke="#6b4226" stroke-width="2"/><line x1="406" y1="203.79" x2="402" y2="203.79" stroke="#6b4226" stroke-width="2"/><line x1="410.5" y1="195.99" x2="408.5" y2="192.53" stroke="#6b4226" stroke-width="2"/><line x1="419.5" y1="195.99" x2="421.5" y2="192.53" stroke="#6b4226" stroke-width="2"/><circle cx="415" cy="203.79" r="8" fill="none" stroke="#6b4226" stroke-width="3"/><circle cx="415" cy="203.79" r="3" fill="#6b4226"/><line x1="424" y1="203.79" x2="428" y2="203.79" stroke="#6b4226" stroke-width="2"/><line x1="419.5" y1="211.58" x2="421.5" y2="215.04" stroke="#6b4226" stroke-width="2"/><line x1="410.5" y1="211.58" x2="408.5" y2="215.04" stroke="#6b4226" stroke-width="2"/><line x1="406" y1="203.79" x2="402" y2="203.79" stroke="#6b4226" stroke-width="2"/><line x1="410.5" y1="195.99" x2="408.5" y2="192.53" stroke="#6b4226" stroke-width="2"/><line x1="419.5" y1="195.99" x2="421.5" y2="192.53" stroke="#6b4226" stroke-width="2"/><circle cx="415" cy="203.79" r="8" fill="none" stroke="#6b4226" stroke-width="3"/><circle cx="415" cy="203.79" r="3" fill="#6b4226"/><line x1="422.52" y1="172.2" x2="426.52" y2="172.2" stroke="#6b4226" stroke-width="2"/><line x1="418.02" y1="179.99" x2="420.02" y2="183.45" stroke="#6b4226" stroke-width="2"/><line x1="409.02" y1="179.99" x2="407.02" y2="183.45" stroke="#6b4226" stroke-width="2"/><line x1="404.52" y1="172.2" x2="400.52" y2="172.2" stroke="#6b4226" stroke-width="2"/><line x1="409.02" y1="164.4" x2="407.02" y2="160.94" stroke="#6b4226" stroke-width="2"/><line x1="418.02" y1="164.4" x2="420.02" y2="160.94" stroke="#6b4226" stroke-width="2"/><circle cx="413.52" cy="172.2" r="8" fill="none" stroke="#6b4226" stroke-width="3"/><circle cx="413.52" cy="172.2" r="3" fill="#6b4226"/>
  </svg>