<svg xmlns="http://www.w3.org/2000/svg" width="800" height="600" viewBox="0 0 800 600">
    <defs>
      <linearGradient id="sky" x1="0" y1="0" x2="0" y2="1">
        <stop offset="0" stop-color="#fdf6e3"/>
        <stop offset="1" stop-color="#f6e2b3"/>
      </linearGradient>
    </defs>
    <rect x="0" y="0" width="800" height="600" fill="url(#sky)"/>
    <ellipse cx="400" cy="534" rx="105" ry="14" fill="#c9a267" opacity="0.6"/>
    <path d="M 330,526 L 342,560 L 458,560 L 470,526 Z" fill="#a85f3c"/>
    <rect x="326" y="520" width="148" height="10" rx="3" fill="#8a4a2e"/>
    <path d="M 409.96,515.16 L 408.27,499.43 L 389.07,501.05 L 390.04,516.84 Z" fill="#5b3a24"/><path d="M 408.03,497.94 L 403.9,482.66 L 385.89,487.09 L 389.31,502.54 Z" fill="#5b3a24"/><path d="M 403.62,481.73 L 397.91,466.97 L 381.15,473.02 L 386.17,488.02 Z" fill="#5b3a24"/><path d="M 398.21,468.01 L 394.33,452.67 L 377.67,456.48 L 380.84,471.98 Z" fill="#5b3a24"/><path d="M 394.54,454.33 L 393.72,438.53 L 377.36,439 L 377.46,454.83 Z" fill="#5b3a24"/><path d="M 393.72,438.68 L 393.19,422.87 L 377.56,423.03 L 377.36,438.85 Z" fill="#5b3a24"/><path d="M 392.98,424.77 L 396.3,409.3 L 381.8,405.83 L 377.77,421.13 Z" fill="#5b3a24"/><path d="M 395.77,410.79 L 402.29,396.38 L 389.51,390.23 L 382.33,404.34 Z" fill="#5b3a24"/><path d="M 402.68,395.4 L 407,380.18 L 394.15,376.2 L 389.13,391.21 Z" fill="#5b3a24"/><path d="M 407.29,378.64 L 407.98,362.84 L 395.28,361.99 L 393.87,377.75 Z" fill="#5b3a24"/><path d="M 408,362.44 L 407.71,346.62 L 395.71,346.56 L 395.27,362.38 Z" fill="#5b3a24"/><path d="M 407.54,348.02 L 410.95,332.57 L 400,329.89 L 395.88,345.16 Z" fill="#5b3a24"/><path d="M 411.1,331.59 L 411.76,315.78 L 401.23,315.11 L 399.85,330.87 Z" fill="#5b3a24"/><path d="M 411.64,316.61 L 414.79,301.11 L 405.22,298.93 L 401.35,314.27 Z" fill="#5b3a24"/><path d="M 414.91,300.3 L 415.46,284.49 L 406.38,283.97 L 405.1,299.74 Z" fill="#5b3a24"/><path d="M 415.47,284.24 L 415.13,268.42 L 406.76,268.4 L 406.38,284.22 Z" fill="#5b3a24"/><path d="M 415.12,268.15 L 413.79,252.39 L 406.17,252.86 L 406.77,268.67 Z" fill="#5b3a24"/><path d="M 413.78,252.32 L 412.18,236.58 L 405.29,237.12 L 406.17,252.92 Z" fill="#5b3a24"/><path d="M 412.17,236.5 L 410.18,220.8 L 404.03,221.44 L 405.3,237.21 Z" fill="#5b3a24"/><path d="M 410.19,221.2 L 410.23,205.37 L 404.77,205.24 L 404.01,221.04 Z" fill="#5b3a24"/><path d="M 410.22,205.52 L 411.13,189.73 L 406.42,189.35 L 404.78,205.09 Z" fill="#5b3a24"/><path d="M 411.13,189.43 L 410.01,173.64 L 406.02,173.83 L 406.41,189.65 Z" fill="#5b3a24"/>
    <path d="M 389.31,458.78 L 435.66,420.14 L 431.11,414.37 L 382.69,450.38 Z" fill="#8a5a34"/><path d="M 435.67,420.14 L 481.89,381.35 L 479.4,378.22 L 431.1,414.38 Z" fill="#8a5a34"/><path d="M 393.02,405.06 L 356.14,349.28 L 350.49,352.86 L 385.09,410.07 Z" fill="#8a5a34"/><path d="M 356.42,349.81 L 330.03,288.37 L 326.32,289.88 L 350.22,352.33 Z" fill="#8a5a34"/><path d="M 404.1,365.6 L 451.8,327.47 L 448.1,322.69 L 399.17,359.22 Z" fill="#5b3a24"/><path d="M 452.46,326.75 L 485.49,275.38 L 482.16,273.17 L 447.44,323.4 Z" fill="#5b3a24"/><path d="M 408.31,312.59 L 358.48,281.7 L 355.59,286.24 L 404.68,318.3 Z" fill="#8a5a34"/><path d="M 358.01,281.47 L 303.12,260.85 L 301.67,264.58 L 356.06,286.48 Z" fill="#8a5a34"/><path d="M 413.1,270.08 L 441.02,233.31 L 437.27,230.42 L 408.79,266.74 Z" fill="#5b3a24"/><path d="M 440.58,233.74 L 477.07,205.46 L 474.64,202.28 L 437.71,229.98 Z" fill="#5b3a24"/><path d="M 408.73,219.83 L 394.48,201.93 L 391.29,204.46 L 405.48,222.41 Z" fill="#8a5a34"/><path d="M 394.67,202.21 L 383.53,182.23 L 380.04,184.17 L 391.11,204.19 Z" fill="#8a5a34"/>
    <ellipse cx="487.25" cy="389.69" rx="52.29" ry="42.93" fill="#4a7c3a"/><ellipse cx="503.13" cy="382.62" rx="38.48" ry="31.55" fill="#8fc76b"/><ellipse cx="492.41" cy="393.13" rx="32.89" ry="26.97" fill="#8fc76b"/><ellipse cx="472.55" cy="391.25" rx="29.02" ry="23.8" fill="#8fc76b"/><ellipse cx="454.47" cy="378" rx="30.96" ry="25.39" fill="#8fc76b"/><ellipse cx="473.47" cy="367.74" rx="36.34" ry="29.8" fill="#8fc76b"/><ellipse cx="490.1" cy="368.9" rx="34.9" ry="28.61" fill="#8fc76b"/><ellipse cx="480.64" cy="379.78" rx="34.12" ry="28.62" fill="#8fc76b"/><ellipse cx="474.99" cy="368.38" rx="19.74" ry="16.78" fill="#dff2c2" opacity="0.85"/><ellipse cx="466.55" cy="375.73" rx="17.59" ry="14.95" fill="#dff2c2" opacity="0.85"/><ellipse cx="470.96" cy="370.54" rx="19.29" ry="16.4" fill="#dff2c2" opacity="0.85"/><ellipse cx="335.41" cy="299.98" rx="57.27" ry="47.03" fill="#4a7c3a"/><ellipse cx="348.14" cy="292.19" rx="32.39" ry="26.56" fill="#4a7c3a"/><ellipse cx="336.4" cy="296.42" rx="42.38" ry="34.75" fill="#4a7c3a"/><ellipse cx="323.28" cy="297.76" rx="40.33" ry="33.07" fill="#4a7c3a"/><ellipse cx="305.8" cy="289.91" rx="35.7" ry="29.27" fill="#4a7c3a"/><ellipse cx="309.77" cy="274.27" rx="34.06" ry="27.93" fill="#8fc76b"/><ellipse cx="339.08" cy="270.94" rx="31.03" ry="25.44" fill="#8fc76b"/><ellipse cx="328.18" cy="289.13" rx="37.38" ry="31.35" fill="#8fc76b"/><ellipse cx="312.88" cy="287.76" rx="16.31" ry="13.86" fill="#dff2c2" opacity="0.85"/><ellipse cx="316.28" cy="276.78" rx="20.55" ry="17.47" fill="#dff2c2" opacity="0.85"/><ellipse cx="324.52" cy="280.54" rx="19.78" ry="16.82" fill="#dff2c2" opacity="0.85"/><ellipse cx="489.66" cy="283.03" rx="46.19" ry="37.92" fill="#4a7c3a"/><ellipse cx="498.94" cy="272.27" rx="34.83" ry="28.56" fill="#8fc76b"/><ellipse cx="491.72" cy="287.86" rx="27.4" ry="22.47" fill="#8fc76b"/><ellipse cx="473.86" cy="287.94" rx="30.35" ry="24.89" fill="#4a7c3a"/><ellipse cx="464.78" cy="276.81" rx="29.99" ry="24.59" fill="#8fc76b"/><ellipse cx="477.53" cy="257.77" rx="31.43" ry="25.77" fill="#4a7c3a"/><ellipse cx="497.85" cy="261.33" rx="28.94" ry="23.73" fill="#8fc76b"/><ellipse cx="483.82" cy="274.27" rx="30.14" ry="25.28" fill="#8fc76b"/><ellipse cx="477.41" cy="260.35" rx="14.7" ry="12.5" fill="#dff2c2" opacity="0.85"/><ellipse cx="474.49" cy="273.77" rx="17.17" ry="14.6" fill="#dff2c2" opacity="0.85"/><ellipse cx="480.42" cy="268.12" rx="14.07" ry="11.96" fill="#dff2c2" opacity="0.85"/><ellipse cx="308.72" cy="272.2" rx="50.02" ry="41.07" fill="#4a7c3a"/><ellipse cx="316.21" cy="265.04" rx="33.9" ry="27.79" fill="#4a7c3a"/><ellipse cx="308.28" cy="277.97" rx="33.22" ry="27.24" fill="#8fc76b"/><ellipse cx="295.23" cy="278.95" rx="32.45" ry="26.61" fill="#8fc76b"/><ellipse cx="282.73" cy="259.5" rx="32.03" ry="26.26" fill="#4a7c3a"/><ellipse cx="290.07" cy="246.36" rx="36.37" ry="29.83" fill="#8fc76b"/><ellipse cx="308.99" cy="255.16" rx="35.25" ry="28.91" fill="#4a7c3a"/><ellipse cx="302.4" cy="262.72" rx="32.64" ry="27.38" fill="#8fc76b"/><ellipse cx="294.11" cy="260.88" rx="17.73" ry="15.07" fill="#dff2c2" opacity="0.85"/><ellipse cx="286.78" cy="260.49" rx="11.65" ry="9.9" fill="#dff2c2" opacity="0.85"/><ellipse cx="301.27" cy="247.49" rx="12.94" ry="11" fill="#dff2c2" opacity="0.85"/><ellipse cx="482.37" cy="213.65" rx="51.61" ry="42.37" fill="#4a7c3a"/><ellipse cx="499.55" cy="206.72" rx="32.53" ry="26.67" fill="#4a7c3a"/><ellipse cx="494.51" cy="218.54" rx="32.07" ry="26.3" fill="#8fc76b"/><ellipse cx="463.94" cy="213.04" rx="28.54" ry="23.41" fill="#8fc76b"/><ellipse cx="458.66" cy="204.3" rx="37.7" ry="30.91" fill="#8fc76b"/><ellipse cx="470.82" cy="192.68" rx="31.59" ry="25.9" fill="#8fc76b"/><ellipse cx="484.47" cy="185.12" rx="31.28" ry="25.65" fill="#8fc76b"/><ellipse cx="475.85" cy="203.87" rx="33.68" ry="28.25" fill="#8fc76b"/><ellipse cx="472.37" cy="194.85" rx="17.02" ry="14.47" fill="#dff2c2" opacity="0.85"/><ellipse cx="464.35" cy="196.76" rx="14.35" ry="12.2" fill="#dff2c2" opacity="0.85"/><ellipse cx="458.87" cy="202.61" rx="12.79" ry="10.87" fill="#dff2c2" opacity="0.85"/><ellipse cx="389.23" cy="194.37" rx="58.97" ry="48.42" fill="#4a7c3a"/><ellipse cx="399.73" cy="185.11" rx="43.18" ry="35.41" fill="#4a7c3a"/><ellipse cx="393.43" cy="195.47" rx="35.44" ry="29.06" fill="#4a7c3a"/><ellipse cx="370.88" cy="192.62" rx="43.54" ry="35.7" fill="#4a7c3a"/><ellipse cx="361.73" cy="181.71" rx="36.28" ry="29.75" fill="#4a7c3a"/><ellipse cx="364.95" cy="165.2" rx="44.51" ry="36.5" fill="#4a7c3a"/><ellipse cx="396.79" cy="164.59" rx="34.47" ry="28.26" fill="#8fc76b"/><ellipse cx="381.78" cy="183.2" rx="38.49" ry="32.28" fill="#8fc76b"/><ellipse cx="356.09" cy="180.42" rx="19.78" ry="16.81" fill="#dff2c2" opacity="0.85"/><ellipse cx="367.49" cy="178.88" rx="16.38" ry="13.92" fill="#dff2c2" opacity="0.85"/><ellipse cx="373.53" cy="174.35" rx="13.97" ry="11.87" fill="#dff2c2" opacity="0.85"/><ellipse cx="414" cy="182.72" rx="47.42" ry="38.93" fill="#4a7c3a"/><ellipse cx="429.2" cy="175.41" rx="28.08" ry="23.03" fill="#4a7c3a"/><ellipse cx="422.93" cy="188.21" rx="31.07" ry="25.48" fill="#4a7c3a"/><ellipse cx="402.52" cy="180.51" rx="31.09" ry="25.49" fill="#8fc76b"/><ellipse cx="392.21" cy="176.4" rx="31.02" ry="25.44" fill="#4a7c3a"/><ellipse cx="400.38" cy="163.88" rx="28.32" ry="23.22" fill="#8fc76b"/><ellipse cx="420.23" cy="162.21" rx="26.2" ry="21.48" fill="#8fc76b"/><ellipse cx="408.01" cy="173.74" rx="30.95" ry="25.95" fill="#8fc76b"/><ellipse cx="397.04" cy="160.36" rx="16.56" ry="14.08" fill="#dff2c2" opacity="0.85"/><ellipse cx="389.52" cy="164.82" rx="16.49" ry="14.01" fill="#dff2c2" opacity="0.85"/><ellipse cx="400.85" cy="171.31" rx="12.69" ry="10.79" fill="#dff2c2" opacity="0.85"/>
    <g><circle cx="447.5" cy="351.35" r="7.6" fill="#ff9ecf" opacity="0.9"/><circle cx="440.93" cy="360.39" r="7.6" fill="#ff9ecf" opacity="0.9"/><circle cx="430.31" cy="356.94" r="7.6" fill="#ff9ecf" opacity="0.9"/><circle cx="430.31" cy="345.77" r="7.6" fill="#ff9ecf" opacity="0.9"/><circle cx="440.93" cy="342.32" r="7.6" fill="#ff9ecf" opacity="0.9"/><circle cx="438" cy="351.35" r="6.65" fill="#ffe9a8"/></g><g><circle cx="451.22" cy="355.36" r="5.77" fill="#ff9ecf" opacity="0.9"/><circle cx="446.24" cy="362.22" r="5.77" fill="#ff9ecf" opacity="0.9"/><circle cx="438.17" cy="359.6" r="5.77" fill="#ff9ecf" opacity="0.9"/><circle cx="438.17" cy="351.12" r="5.77" fill="#ff9ecf" opacity="0.9"/><circle cx="446.24" cy="348.49" r="5.77" fill="#ff9ecf" opacity="0.9"/><circle cx="444.01" cy="355.36" r="5.05" fill="#ffe9a8"/></g>
    
    
    <line x1="409" y1="516" x2="413" y2="516" stroke="#6b4226" stroke-width="2"/><line x1="404.5" y1="523.79" x2="406.5" y2="527.26" stroke="#6b4226" stroke-width="2"/><line x1="395.5" y1="523.79" x2="393.5" y2="527.26" stroke="#6b4226" stroke-width="2"/><line x1="391" y1="516" x2="387" y2="516" stroke="#6b4226" stroke-width="2"/><line x1="395.5" y1="508.21" x2="393.5" y2="504.74" stroke="#6b4226" stroke-width="2"/><line x1="404.5" y1="508.21" x2="406.5" y2="504.74" stroke="#6b4226" stroke-width="2"/><circle cx="400" cy="516" r="8" fill="none" stroke="#6b4226" stroke-width="3"/><circle cx="400" cy="516" r="3" fill="#6b4226"/><line x1="409" y1="516" x2="413" y2="516" stroke="#6b4226" stroke-width="2"/><line x1="404.5" y1="523.79" x2="406.5" y2="527.26" stroke="#6b4226" stroke-width="2"/><line x1="395.5" y1="523.79" x2="393.5" y2="527.26" stroke="#6b4226" stroke-width="2"/><line x1="391" y1="516" x2="387" y2="516" stroke="#6b4226" stroke-width="2"/><line x1="395.5" y1="508.21" x2="393.5" y2="504.74" stroke="#6b4226" stroke-width="2"/><line x1="404.5" y1="508.21" x2="406.5" y2="504.74" stroke="#6b4226" stroke-width="2"/><circle cx="400" cy="516" r="8" fill="none" stroke="#6b4226" stroke-width="3"/><circle cx="400" cy="516" r="3" fill="#6b4226"/><line x1="409" y1="516" x2="413" y2="516" stroke="#6b4226" stroke-width="2"/><line x1="404.5" y1="523.79" x2="406.5" y2="527.26" stroke="#6b4226" stroke-width="2"/><line x1="395.5" y1="523.79" x2="393.5" y2="527.26" stroke="#6b4226" stroke-width="2"/><line x1="391" y1="516" x2="387" y2="516" stroke="#6b4226" stroke-width="2"/><line x1="395.5" y1="508.21" x2="393.5" y2="504.74" stroke="#6b4226" stroke-width="2"/><line x1="404.5" y1="508.21" x2="406.5" y2="504.74" stroke="#6b4226" stroke-width="2"/><circle cx="400" cy="516" r="8" fill="none" stroke="#6b4226" stroke-width="3"/><circle cx="400" cy="516" r="3" fill="#6b4226"/><line x1="409" y1="516" x2="413" y2="516" stroke="#6b4226" stroke-width="2"/><line x1="404.5" y1="523.79" x2="406.5" y2="527.26" stroke="#6b4226" stroke-width="2"/><line x1="395.5" y1="523.79" x2="393.5" y2="527.26" stroke="#6b4226" stroke-width="2"/><line x1="391" y1="516" x2="387" y2="516" stroke="#6b4226" stroke-width="2"/><line x1="395.5" y1="508.21" x2="393.5" y2="504.74" stroke="#6b4226" stroke-width="2"/><line x1="404.5" y1="508.21" x2="406.5" y2="504.74" stroke="#6b4226" stroke-width="2"/><circle cx="400" cy="516" r="8" fill="none" stroke="#6b4226" stroke-width="3"/><circle cx="400" cy="516" r="3" fill="#6b4226"/><line x1="403.89" y1="484.88" x2="407.89" y2="484.88" stroke="#6b4226" stroke-width="2"/><line x1="399.39" y1="492.67" x2="401.39" y2="496.14" stroke="#6b4226" stroke-width="2"/><line x1="390.39" y1="492.67" x2="388.39" y2="496.14" stroke="#6b4226" stroke-width="2"/><line x1="385.89" y1="484.88" x2="381.89" y2="484.88" stroke="#6b4226" stroke-width="2"/><line x1="390.39" y1="477.08" x2="388.39" y2="473.62" stroke="#6b4226" stroke-width="2"/><line x1="399.39" y1="477.08" x2="401.39" y2="473.62" stroke="#6b4226" stroke-width="2"/><circle cx="394.89" cy="484.88" r="8" fill="none" stroke="#6b4226" stroke-width="3"/><circle cx="394.89" cy="484.88" r="3" fill="#6b4226"/><line x1="403.89" y1="484.88" x2="407.89" y2="484.88" stroke="#6b4226" stroke-width="2"/><line x1="399.39" y1="492.67" x2="401.39" y2="496.14" stroke="#6b4226" stroke-width="2"/><line x1="390.39" y1="492.67" x2="388.39" y2="496.14" stroke="#6b4226" stroke-width="2"/><line x1="385.89" y1="484.88" x2="381.89" y2="484.88" stroke="#6b4226" stroke-width="2"/><line x1="390.39" y1="477.08" x2="388.39" y2="473.62" stroke="#6b4226" stroke-width="2"/><line x1="399.39" y1="477.08" x2="401.39" y2="473.62" stroke="#6b4226" stroke-width="2"/><circle cx="394.89" cy="484.88" r="8" fill="none" stroke="#6b4226" stroke-width="3"/><circle cx="394.89" cy="484.88" r="3" fill="#6b4226"/><line x1="403.89" y1="484.88" x2="407.89" y2="484.88" stroke="#6b4226" stroke-width="2"/><line x1="399.39" y1="492.67" x2="401.39" y2="496.14" stroke="#6b4226" stroke-width="2"/><line x1="390.39" y1="492.67" x2="388.39" y2="496.14" stroke="#6b4226" stroke-width="2"/><line x1="385.89" y1="484.88" x2="381.89" y2="484.88" stroke="#6b4226" stroke-width="2"/><line x1="390.39" y1="477.08" x2="388.39" y2="473.62" stroke="#6b4226" stroke-width="2"/><line x1="399.39" y1="477.08" x2="401.39" y2="473.62" stroke="#6b4226" stroke-width="2"/><circle cx="394.89" cy="484.88" r="8" fill="none" stroke="#6b4226" stroke-width="3"/><circle cx="394.89" cy="484.88" r="3" fill="#6b4226"/><line x1="403.89" y1="484.88" x2="407.89" y2="484.88" stroke="#6b4226" stroke-width="2"/><line x1="399.39" y1="492.67" x2="401.39" y2="496.14" stroke="#6b4226" stroke-width="2"/><line x1="390.39" y1="492.67" x2="388.39" y2="496.14" stroke="#6b4226" stroke-width="2"/><line x1="385.89" y1="484.88" x2="381.89" y2="484.88" stroke="#6b4226" stroke-width="2"/><line x1="390.39" y1="477.08" x2="388.39" y2="473.62" stroke="#6b4226" stroke-width="2"/><line x1="399.39" y1="477.08" x2="401.39" y2="473.62" stroke="#6b4226" stroke-width="2"/><circle cx="394.89" cy="484.88" r="8" fill="none" stroke="#6b4226" stroke-width="3"/><circle cx="394.89" cy="484.88" r="3" fill="#6b4226"/><line x1="403.89" y1="484.88" x2="407.89" y2="484.88" stroke="#6b4226" stroke-width="2"/><line x1="399.39" y1="492.67" x2="401.39" y2="496.14" stroke="#6b4226" stroke-width="2"/><line x1="390.39" y1="492.67" x2="388.39" y2="496.14" stroke="#6b4226" stroke-width="2"/><line x1="385.89" y1="484.88" x2="381.89" y2="484.88" stroke="#6b4226" stroke-width="2"/><line x1="390.39" y1="477.08" x2="388.39" y2="473.62" stroke="#6b4226" stroke-width="2"/><line x1="399.39" y1="477.08" x2="401.39" y2="473.62" stroke="#6b4226" stroke-width="2"/><circle cx="394.89" cy="484.88" r="8" fill="none" stroke="#6b4226" stroke-width="3"/><circle cx="394.89" cy="484.88" r="3" fill="#6b4226"/><line x1="403.89" y1="484.88" x2="407.89" y2="484.88" stroke="#6b4226" stroke-width="2"/><line x1="399.39" y1="492.67" x2="401.39" y2="496.14" stroke="#6b4226" stroke-width="2"/><line x1="390.39" y1="492.67" x2="388.39" y2="496.14" stroke="#6b4226" stroke-width="2"/><line x1="385.89" y1="484.88" x2="381.89" y2="484.88" stroke="#6b4226" stroke-width="2"/><line x1="390.39" y1="477.08" x2="388.39" y2="473.62" stroke="#6b4226" stroke-width="2"/><line x1="399.39" y1="477.08" x2="401.39" y2="473.62" stroke="#6b4226" stroke-width="2"/><circle cx="394.89" cy="484.88" r="8" fill="none" stroke="#6b4226" stroke-width="3"/><circle cx="394.89" cy="484.88" r="3" fill="#6b4226"/>
  </svg>