<svg xmlns="http://www.w3.org/2000/svg" width="800" height="600" viewBox="0 0 800 600">
    <defs>
      <linearGradient id="sky" x1="0" y1="0" x2="0" y2="1">
        <stop offset="0" stop-color="#fdf6e3"/>
        <stop offset="1" stop-color="#f6e2b3"/>
      </linearGradient>
    </defs>
    <rect x="0" y="0" width="800" height="600" fill="url(#sky)"/>
    <ellipse cx="400" cy="534" rx="105" ry="14" fill="#c9a267" opacity="0.6"/>
    <path d="M 330,526 L 342,560 L 458,560 L 470,526 Z" fill="#a85f3c"/>
    <rect x="326" y="520" width="148" height="10" rx="3" fill="#8a4a2e"/>
    <path d="M 410,515.81 L 409.34,500 L 390.07,500.36 L 390,516.19 Z" fill="#5b3a24"/><path d="M 409.34,499.84 L 408.41,484.05 L 389.88,484.71 L 390.07,500.53 Z" fill="#5b3a24"/><path d="M 408.41,484.18 L 407.72,468.38 L 389.91,468.75 L 389.87,484.57 Z" fill="#5b3a24"/><path d="M 407.66,467.48 L 405.37,451.82 L 388.41,453.9 L 389.97,469.65 Z" fill="#5b3a24"/><path d="M 405.36,451.74 L 402.93,436.11 L 386.71,438.25 L 388.42,453.98 Z" fill="#5b3a24"/><path d="M 403,437.06 L 402.4,421.25 L 386.76,421.48 L 386.64,437.3 Z" fill="#5b3a24"/><path d="M 402.27,419.93 L 399,404.44 L 384.34,407.19 L 386.9,422.8 Z" fill="#5b3a24"/><path d="M 399.13,405.69 L 398.49,389.88 L 384.31,390.12 L 384.22,405.94 Z" fill="#5b3a24"/><path d="M 398.45,389.23 L 396.37,373.54 L 383,375.01 L 384.36,390.77 Z" fill="#5b3a24"/><path d="M 396.41,374.4 L 396.34,358.57 L 383.61,358.34 L 382.96,374.15 Z" fill="#5b3a24"/><path d="M 396.32,358.07 L 394.99,342.3 L 383.01,343.04 L 383.62,358.85 Z" fill="#5b3a24"/><path d="M 394.94,343.54 L 396.87,327.84 L 385.72,326.2 L 383.07,341.8 Z" fill="#5b3a24"/><path d="M 396.77,328.36 L 400.17,312.9 L 389.93,310.4 L 385.82,325.68 Z" fill="#5b3a24"/><path d="M 400.31,311.29 L 398.87,295.54 L 389.07,296.21 L 389.79,312.01 Z" fill="#5b3a24"/><path d="M 398.8,296.73 L 401.2,281.09 L 392.25,279.5 L 389.14,295.02 Z" fill="#5b3a24"/><path d="M 401.14,281.37 L 404.54,265.92 L 396.41,263.94 L 392.31,279.22 Z" fill="#5b3a24"/><path d="M 404.42,266.33 L 409.37,251.3 L 402.18,248.75 L 396.54,263.53 Z" fill="#5b3a24"/><path d="M 409.34,251.39 L 414.66,236.49 L 408.21,234.02 L 402.21,248.66 Z" fill="#5b3a24"/><path d="M 414.69,236.41 L 419.66,221.39 L 413.83,219.32 L 408.18,234.09 Z" fill="#5b3a24"/><path d="M 419.76,221.05 L 422.99,205.57 L 417.68,204.33 L 413.74,219.65 Z" fill="#5b3a24"/><path d="M 423.03,205.34 L 424.97,189.64 L 420.3,188.95 L 417.63,204.55 Z" fill="#5b3a24"/><path d="M 424.99,189.52 L 426.09,173.73 L 422.1,173.36 L 420.28,189.08 Z" fill="#5b3a24"/>
    <path d="M 399.92,457.27 L 455.01,417.36 L 450.84,411.31 L 393.86,448.46 Z" fill="#5b3a24"/><path d="M 455.55,416.9 L 501.89,367.11 L 499.03,364.31 L 450.3,411.77 Z" fill="#5b3a24"/><path d="M 395.55,403.18 L 357.31,349.21 L 351.77,352.96 L 387.79,408.45 Z" fill="#5b3a24"/><path d="M 357.36,349.28 L 320.67,294.24 L 317.3,296.39 L 351.72,352.88 Z" fill="#5b3a24"/><path d="M 392.05,361.92 L 443.87,329.59 L 440.76,324.42 L 387.89,355 Z" fill="#8a5a34"/><path d="M 443.73,329.67 L 497.22,300.2 L 495.35,296.67 L 440.9,324.34 Z" fill="#8a5a34"/><path d="M 397.79,309.68 L 362.51,261.91 L 358.14,265.06 L 392.31,313.63 Z" fill="#5b3a24"/><path d="M 362.48,261.87 L 326.37,214.73 L 323.17,217.12 L 358.17,265.1 Z" fill="#5b3a24"/><path d="M 402.55,266.7 L 444.23,217.21 L 440.63,214.14 L 398.4,263.16 Z" fill="#8a5a34"/><path d="M 443.74,217.65 L 497.53,181.68 L 495.32,178.34 L 441.13,213.7 Z" fill="#8a5a34"/><path d="M 417.93,218.65 L 394.56,202.49 L 392.24,205.83 L 415.56,222.06 Z" fill="#5b3a24"/><path d="M 394.86,202.74 L 375.06,182.37 L 372.19,185.16 L 391.94,205.58 Z" fill="#5b3a24"/>
    <ellipse cx="507.09" cy="375.65" rx="52.45" ry="43.06" fill="#4a7c3a"/><ellipse cx="523.54" cy="366.29" rx="35.85" ry="29.4" fill="#8fc76b"/><ellipse cx="504.12" cy="373.68" rx="36.83" ry="30.2" fill="#4a7c3a"/><ellipse cx="486.38" cy="378.73" rx="34.57" ry="28.35" fill="#8fc76b"/><ellipse cx="475.41" cy="370.06" rx="37.91" ry="31.08" fill="#8fc76b"/><ellipse cx="485.4" cy="353.39" rx="37.48" ry="30.74" fill="#4a7c3a"/><ellipse cx="517.26" cy="352.49" rx="36.2" ry="29.68" fill="#8fc76b"/><ellipse cx="500.46" cy="365.71" rx="34.23" ry="28.71" fill="#8fc76b"/><ellipse cx="489.95" cy="356.06" rx="19.5" ry="16.58" fill="#dff2c2" opacity="0.85"/><ellipse cx="485.52" cy="364.58" rx="16.11" ry="13.7" fill="#dff2c2" opacity="0.85"/><ellipse cx="484.99" cy="356.87" rx="18.69" ry="15.89" fill="#dff2c2" opacity="0.85"/><ellipse cx="326.03" cy="305.9" rx="55.83" ry="45.84" fill="#4a7c3a"/><ellipse cx="345.25" cy="295.29" rx="40.67" ry="33.35" fill="#8fc76b"/><ellipse cx="326.21" cy="307.53" rx="30.33" ry="24.87" fill="#4a7c3a"/><ellipse cx="306.73" cy="309.52" rx="32.18" ry="26.39" fill="#8fc76b"/><ellipse cx="303.39" cy="294.56" rx="33.79" ry="27.71" fill="#4a7c3a"/><ellipse cx="308.65" cy="277.75" rx="39.58" ry="32.45" fill="#8fc76b"/><ellipse cx="327.2" cy="274.76" rx="35.19" ry="28.86" fill="#8fc76b"/><ellipse cx="318.98" cy="295.32" rx="36.44" ry="30.56" fill="#8fc76b"/><ellipse cx="313.53" cy="288.32" rx="18.62" ry="15.82" fill="#dff2c2" opacity="0.85"/><ellipse cx="309.29" cy="294.27" rx="15.2" ry="12.92" fill="#dff2c2" opacity="0.85"/><ellipse cx="310.24" cy="278.63" rx="19.67" ry="16.72" fill="#dff2c2" opacity="0.85"/><ellipse cx="503.24" cy="308.86" rx="55.04" ry="45.19" fill="#4a7c3a"/><ellipse cx="517.21" cy="300.25" rx="36.4" ry="29.85" fill="#4a7c3a"/><ellipse cx="502.76" cy="315.23" rx="32.94" ry="27.01" fill="#8fc76b"/><ellipse cx="490.42" cy="312.9" rx="30.3" ry="24.84" fill="#4a7c3a"/><ellipse cx="478.17" cy="295.17" rx="32.69" ry="26.81" fill="#4a7c3a"/><ellipse cx="491.97" cy="287.52" rx="31.15" ry="25.54" fill="#8fc76b"/><ellipse cx="503.34" cy="280.26" rx="41.17" ry="33.76" fill="#8fc76b"/><ellipse cx="496.28" cy="298.43" rx="35.92" ry="30.13" fill="#8fc76b"/><ellipse cx="484.52" cy="293.44" rx="18.74" ry="15.93" fill="#dff2c2" opacity="0.85"/><ellipse cx="479.72" cy="285.24" rx="13.65" ry="11.6" fill="#dff2c2" opacity="0.85"/><ellipse cx="495.09" cy="289.96" rx="13.27" ry="11.28" fill="#dff2c2" opacity="0.85"/><ellipse cx="331.16" cy="225.51" rx="50.61" ry="41.55" fill="#4a7c3a"/><ellipse cx="349.57" cy="218.95" rx="30.05" ry="24.64" fill="#8fc76b"/><ellipse cx="334.2" cy="229.96" rx="29.07" ry="23.84" fill="#4a7c3a"/><ellipse cx="312.09" cy="229.94" rx="27.98" ry="22.94" fill="#4a7c3a"/><ellipse cx="312.57" cy="214.38" rx="32.58" ry="26.71" fill="#4a7c3a"/><ellipse cx="308.13" cy="202.34" rx="33.68" ry="27.61" fill="#8fc76b"/><ellipse cx="329.69" cy="204.23" rx="27.1" ry="22.22" fill="#8fc76b"/><ellipse cx="324.77" cy="215.93" rx="33.03" ry="27.7" fill="#8fc76b"/><ellipse cx="314.03" cy="213.55" rx="16.29" ry="13.84" fill="#dff2c2" opacity="0.85"/><ellipse cx="305.41" cy="212.88" rx="17.52" ry="14.9" fill="#dff2c2" opacity="0.85"/><ellipse cx="314.92" cy="214.73" rx="15.3" ry="13" fill="#dff2c2" opacity="0.85"/><ellipse cx="502.08" cy="188.5" rx="44.82" ry="36.8" fill="#4a7c3a"/><ellipse cx="517.08" cy="177.39" rx="33.77" ry="27.69" fill="#8fc76b"/><ellipse cx="512.04" cy="192.21" rx="33.49" ry="27.47" fill="#8fc76b"/><ellipse cx="488.11" cy="195.17" rx="31.39" ry="25.74" fill="#8fc76b"/><ellipse cx="474.41" cy="180.5" rx="31.24" ry="25.62" fill="#8fc76b"/><ellipse cx="488.92" cy="172.65" rx="30.38" ry="24.91" fill="#4a7c3a"/><ellipse cx="503.6" cy="169.56" rx="27.77" ry="22.77" fill="#4a7c3a"/><ellipse cx="496.42" cy="180.01" rx="29.25" ry="24.53" fill="#8fc76b"/><ellipse cx="491.75" cy="172.47" rx="14.87" ry="12.64" fill="#dff2c2" opacity="0.85"/><ellipse cx="483.55" cy="168.68" rx="10.89" ry="9.25" fill="#dff2c2" opacity="0.85"/><ellipse cx="482.34" cy="178.76" rx="13.18" ry="11.2" fill="#dff2c2" opacity="0.85"/><ellipse cx="379.6" cy="192.73" rx="47.31" ry="38.84" fill="#4a7c3a"/><ellipse cx="387.23" cy="181.32" rx="31.05" ry="25.46" fill="#8fc76b"/><ellipse cx="381.17" cy="196.83" rx="28.52" ry="23.39" fill="#8fc76b"/><ellipse cx="365.92" cy="198.13" rx="27.05" ry="22.18" fill="#4a7c3a"/><ellipse cx="351" cy="184.42" rx="30.52" ry="25.03" fill="#8fc76b"/><ellipse cx="363.76" cy="175.42" rx="30.22" ry="24.78" fill="#8fc76b"/><ellipse cx="381.42" cy="176.88" rx="25.84" ry="21.19" fill="#4a7c3a"/><ellipse cx="373.63" cy="183.76" rx="30.88" ry="25.9" fill="#8fc76b"/><ellipse cx="358.42" cy="178.03" rx="13.2" ry="11.22" fill="#dff2c2" opacity="0.85"/><ellipse cx="372.85" cy="170.69" rx="16.29" ry="13.84" fill="#dff2c2" opacity="0.85"/><ellipse cx="369.26" cy="176.06" rx="17.32" ry="14.72" fill="#dff2c2" opacity="0.85"/><ellipse cx="430.91" cy="183.77" rx="53.97" ry="44.32" fill="#4a7c3a"/><ellipse cx="438.14" cy="174.91" rx="40.54" ry="33.24" fill="#4a7c3a"/><ellipse cx="438.62" cy="190.34" rx="38.01" ry="31.17" fill="#8fc76b"/><ellipse cx="411.08" cy="191.31" rx="31.14" ry="25.53" fill="#4a7c3a"/><ellipse cx="398.87" cy="173.96" rx="30.55" ry="25.05" fill="#4a7c3a"/><ellipse cx="412.4" cy="163.27" rx="28.92" ry="23.72" fill="#4a7c3a"/><ellipse cx="432.39" cy="165.37" rx="30.9" ry="25.34" fill="#8fc76b"/><ellipse cx="424.1" cy="173.55" rx="35.23" ry="29.54" fill="#8fc76b"/><ellipse cx="421.57" cy="158.07" rx="18.9" ry="16.06" fill="#dff2c2" opacity="0.85"/><ellipse cx="400.7" cy="170.42" rx="17.82" ry="15.15" fill="#dff2c2" opacity="0.85"/><ellipse cx="407.05" cy="162.9" rx="15.2" ry="12.92" fill="#dff2c2" opacity="0.85"/>
    <g><circle cx="465.61" cy="337.28" r="6.23" fill="#ff9ecf" opacity="0.9"/><circle cx="460.23" cy="344.69" r="6.23" fill="#ff9ecf" opacity="0.9"/><circle cx="451.52" cy="341.86" r="6.23" fill="#ff9ecf" opacity="0.9"/><circle cx="451.52" cy="332.7" r="6.23" fill="#ff9ecf" opacity="0.9"/><circle cx="460.23" cy="329.87" r="6.23" fill="#ff9ecf" opacity="0.9"/><circle cx="457.82" cy="337.28" r="5.45" fill="#ffe9a8"/></g><g><circle cx="473.33" cy="341.28" r="7.6" fill="#ffc94d" opacity="0.9"/><circle cx="466.76" cy="350.32" r="7.6" fill="#ffc94d" opacity="0.9"/><circle cx="456.14" cy="346.87" r="7.6" fill="#ffc94d" opacity="0.9"/><circle cx="456.14" cy="335.7" r="7.6" fill="#ffc94d" opacity="0.9"/><circle cx="466.76" cy="332.25" r="7.6" fill="#ffc94d" opacity="0.9"/><circle cx="463.83" cy="341.28" r="6.65" fill="#ffe9a8"/></g>
    
    
    <line x1="409" y1="516" x2="413" y2="516" stroke="#6b4226" stroke-width="2"/><line x1="404.5" y1="523.79" x2="406.5" y2="527.26" stroke="#6b4226" stroke-width="2"/><line x1="395.5" y1="523.79" x2="393.5" y2="527.26" stroke="#6b4226" stroke-width="2"/><line x1="391" y1="516" x2="387" y2="516" stroke="#6b4226" stroke-width="2"/><line x1="395.5" y1="508.21" x2="393.5" y2="504.74" stroke="#6b4226" stroke-width="2"/><line x1="404.5" y1="508.21" x2="406.5" y2="504.74" stroke="#6b4226" stroke-width="2"/><circle cx="400" cy="516" r="8" fill="none" stroke="#6b4226" stroke-width="3"/><circle cx="400" cy="516" r="3" fill="#6b4226"/><line x1="409" y1="516" x2="413" y2="516" stroke="#6b4226" stroke-width="2"/><line x1="404.5" y1="523.79" x2="406.5" y2="527.26" stroke="#6b4226" stroke-width="2"/><line x1="395.5" y1="523.79" x2="393.5" y2="527.26" stroke="#6b4226" stroke-width="2"/><line x1="391" y1="516" x2="387" y2="516" stroke="#6b4226" stroke-width="2"/><line x1="395.5" y1="508.21" x2="393.5" y2="504.74" stroke="#6b4226" stroke-width="2"/><line x1="404.5" y1="508.21" x2="406.5" y2="504.74" stroke="#6b4226" stroke-width="2"/><circle cx="400" cy="516" r="8" fill="none" stroke="#6b4226" stroke-width="3"/><circle cx="400" cy="516" r="3" fill="#6b4226"/><line x1="409" y1="516" x2="413" y2="516" stroke="#6b4226" stroke-width="2"/><line x1="404.5" y1="523.79" x2="406.5" y2="527.26" stroke="#6b4226" stroke-width="2"/><line x1="395.5" y1="523.79" x2="393.5" y2="527.26" stroke="#6b4226" stroke-width="2"/><line x1="391" y1="516" x2="387" y2="516" stroke="#6b4226" stroke-width="2"/><line x1="395.5" y1="508.21" x2="393.5" y2="504.74" stroke="#6b4226" stroke-width="2"/><line x1="404.5" y1="508.21" x2="406.5" y2="504.74" stroke="#6b4226" stroke-width="2"/><circle cx="400" cy="516" r="8" fill="none" stroke="#6b4226" stroke-width="3"/><circle cx="400" cy="516" r="3" fill="#6b4226"/><line x1="409" y1="516" x2="413" y2="516" stroke="#6b4226" stroke-width="2"/><line x1="404.5" y1="523.79" x2="406.5" y2="527.26" stroke="#6b4226" stroke-width="2"/><line x1="395.5" y1="523.79" x2="393.5" y2="527.26" stroke="#6b4226" stroke-width="2"/><line x1="391" y1="516" x2="387" y2="516" stroke="#6b4226" stroke-width="2"/><line x1="395.5" y1="508.21" x2="393.5" y2="504.74" stroke="#6b4226" stroke-width="2"/><line x1="404.5" y1="508.21" x2="406.5" y2="504.74" stroke="#6b4226" stroke-width="2"/><circle cx="400" cy="516" r="8" fill="none" stroke="#6b4226" stroke-width="3"/><circle cx="400" cy="516" r="3" fill="#6b4226"/><line x1="409" y1="516" x2="413" y2="516" stroke="#6b4226" stroke-width="2"/><line x1="404.5" y1="523.79" x2="406.5" y2="527.26" stroke="#6b4226" stroke-width="2"/><line x1="395.5" y1="523.79" x2="393.5" y2="527.26" stroke="#6b4226" stroke-width="2"/><line x1="391" y1="516" x2="387" y2="516" stroke="#6b4226" stroke-width="2"/><line x1="395.5" y1="508.21" x2="393.5" y2="504.74" stroke="#6b4226" stroke-width="2"/><line x1="404.5" y1="508.21" x2="406.5" y2="504.74" stroke="#6b4226" stroke-width="2"/><circle cx="400" cy="516" r="8" fill="none" stroke="#6b4226" stroke-width="3"/><circle cx="400" cy="516" r="3" fill="#6b4226"/><line x1="409" y1="516" x2="413" y2="516" stroke="#6b4226" stroke-width="2"/><line x1="404.5" y1="523.79" x2="406.5" y2="527.26" stroke="#6b4226" stroke-width="2"/><line x1="395.5" y1="523.79" x2="393.5" y2="527.26" stroke="#6b4226" stroke-width="2"/><line x1="391" y1="516" x2="387" y2="516" stroke="#6b4226" stroke-width="2"/><line x1="395.5" y1="508.21" x2="393.5" y2="504.74" stroke="#6b4226" stroke-width="2"/><line x1="404.5" y1="508.21" x2="406.5" y2="504.74" stroke="#6b4226" stroke-width="2"/><circle cx="400" cy="516" r="8" fill="none" stroke="#6b4226" stroke-width="3"/><circle cx="400" cy="516" r="3" fill="#6b4226"/><line x1="409" y1="516" x2="413" y2="516" stroke="#6b4226" stroke-width="2"/><line x1="404.5" y1="523.79" x2="406.5" y2="527.26" stroke="#6b4226" stroke-width="2"/><line x1="395.5" y1="523.79" x2="393.5" y2="527.26" stroke="#6b4226" stroke-width="2"/><line x1="391" y1="516" x2="387" y2="516" stroke="#6b4226" stroke-width="2"/><line x1="395.5" y1="508.21" x2="393.5" y2="504.74" stroke="#6b4226" stroke-width="2"/><line x1="404.5" y1="508.21" x2="406.5" y2="504.74" stroke="#6b4226" stroke-width="2"/><circle cx="400" cy="516" r="8" fill="none" stroke="#6b4226" stroke-width="3"/><circle cx="400" cy="516" r="3" fill="#6b4226"/><line x1="409" y1="516" x2="413" y2="516" stroke="#6b4226" stroke-width="2"/><line x1="404.5" y1="523.79" x2="406.5" y2="527.26" stroke="#6b4226" stroke-width="2"/><line x1="395.5" y1="523.79" x2="393.5" y2="527.26" stroke="#6b4226" stroke-width="2"/><line x1="391" y1="516" x2="387" y2="516" stroke="#6b4226" stroke-width="2"/><line x1="395.5" y1="508.21" x2="393.5" y2="504.74" stroke="#6b4226" stroke-width="2"/><line x1="404.5" y1="508.21" x2="406.5" y2="504.74" stroke="#6b4226" stroke-width="2"/><circle cx="400" cy="516" r="8" fill="none" stroke="#6b4226" stroke-width="3"/><circle cx="400" cy="516" r="3" fill="#6b4226"/><line x1="409" y1="516" x2="413" y2="516" stroke="#6b4226" stroke-width="2"/><line x1="404.5" y1="523.79" x2="406.5" y2="527.26" stroke="#6b4226" stroke-width="2"/><line x1="395.5" y1="523.79" x2="393.5" y2="527.26" stroke="#6b4226" stroke-width="2"/><line x1="391" y1="516" x2="387" y2="516" stroke="#6b4226" stroke-width="2"/><line x1="395.5" y1="508.21" x2="393.5" y2="504.74" stroke="#6b4226" stroke-width="2"/><line x1="404.5" y1="508.21" x2="406.5" y2="504.74" stroke="#6b4226" stroke-width="2"/><circle cx="400" cy="516" r="8" fill="none" stroke="#6b4226" stroke-width="3"/><circle cx="400" cy="516" r="3" fill="#6b4226"/><line x1="409" y1="516" x2="413" y2="516" stroke="#6b4226" stroke-width="2"/><line x1="404.5" y1="523.79" x2="406.5" y2="527.26" stroke="#6b4226" stroke-width="2"/><line x1="395.5" y1="523.79" x2="393.5" y2="527.26" stroke="#6b4226" stroke-width="2"/><line x1="391" y1="516" x2="387" y2="516" stroke="#6b4226" stroke-width="2"/><line x1="395.5" y1="508.21" x2="393.5" y2="504.74" stroke="#6b4226" stroke-width="2"/><line x1="404.5" y1="508.21" x2="406.5" y2="504.74" stroke="#6b4226" stroke-width="2"/><circle cx="400" cy="516" r="8" fill="none" stroke="#6b4226" stroke-width="3"/><circle cx="400" cy="516" r="3" fill="#6b4226"/>
  </svg>