<svg xmlns="http://www.w3.org/2000/svg" width="800" height="600" viewBox="0 0 800 600">
    <defs>
      <linearGradient id="sky" x1="0" y1="0" x2="0" y2="1">
        <stop offset="0" stop-color="#fdf6e3"/>
        <stop offset="1" stop-color="#f6e2b3"/>
      </linearGradient>
    </defs>
    <rect x="0" y="0" width="800" height="600" fill="url(#sky)"/>
    <ellipse cx="400" cy="534" rx="105" ry="14" fill="#c9a267" opacity="0.6"/>
    <path d="M 330,526 L 342,560 L 458,560 L 470,526 Z" fill="#a85f3c"/>
    <rect x="326" y="520" width="148" height="10" rx="3" fill="#8a4a2e"/>
    <path d="M 409.63,518.69 L 413.54,503.36 L 394.98,498.17 L 390.37,513.31 Z" fill="#5b3a24"/><path d="M 413.7,502.72 L 416.54,487.15 L 398.38,483.4 L 394.82,498.82 Z" fill="#5b3a24"/><path d="M 416.73,484.94 L 415.79,469.14 L 397.98,469.79 L 398.19,485.61 Z" fill="#5b3a24"/><path d="M 415.71,470.67 L 417.48,454.94 L 400.55,452.64 L 398.06,468.27 Z" fill="#5b3a24"/><path d="M 417.5,454.78 L 418.97,439.03 L 402.72,437.14 L 400.53,452.81 Z" fill="#5b3a24"/><path d="M 418.99,437.29 L 417.09,421.58 L 401.53,423.1 L 402.7,438.88 Z" fill="#5b3a24"/><path d="M 416.93,424.05 L 420.05,408.54 L 405.51,405.27 L 401.68,420.62 Z" fill="#5b3a24"/><path d="M 420.19,407.74 L 421.6,391.98 L 407.5,390.39 L 405.37,406.07 Z" fill="#5b3a24"/><path d="M 421.63,391.59 L 422.18,375.78 L 408.74,375.01 L 407.47,390.78 Z" fill="#5b3a24"/><path d="M 422.19,375.22 L 421.4,359.41 L 408.68,359.75 L 408.74,375.57 Z" fill="#5b3a24"/><path d="M 421.19,357.95 L 416.78,342.75 L 405.19,345.83 L 408.89,361.21 Z" fill="#5b3a24"/><path d="M 416.95,343.62 L 414.81,327.94 L 403.61,329.21 L 405.02,344.97 Z" fill="#5b3a24"/><path d="M 414.78,329.41 L 416.76,313.71 L 406.33,312.15 L 403.63,327.74 Z" fill="#5b3a24"/><path d="M 416.8,313.38 L 417.79,297.59 L 408,296.75 L 406.29,312.48 Z" fill="#5b3a24"/><path d="M 417.8,297.31 L 417.89,281.49 L 408.8,281.23 L 407.99,297.03 Z" fill="#5b3a24"/><path d="M 417.88,281.69 L 418.66,265.88 L 410.32,265.28 L 408.81,281.03 Z" fill="#5b3a24"/><path d="M 418.66,265.9 L 419.5,250.1 L 411.89,249.52 L 410.32,265.26 Z" fill="#5b3a24"/><path d="M 419.46,250.4 L 421.57,234.72 L 414.75,233.65 L 411.92,249.21 Z" fill="#5b3a24"/><path d="M 421.61,234.24 L 421.48,218.41 L 415.3,218.32 L 414.7,234.13 Z" fill="#5b3a24"/><path d="M 421.47,218.07 L 419.57,202.36 L 414.14,202.89 L 415.32,218.67 Z" fill="#5b3a24"/><path d="M 419.54,202.16 L 416.47,186.64 L 411.81,187.45 L 414.17,203.09 Z" fill="#5b3a24"/><path d="M 416.46,186.58 L 413,171.14 L 409.08,171.92 L 411.82,187.5 Z" fill="#5b3a24"/>
    <path d="M 413.45,456.77 L 448.52,401.59 L 442.42,397.49 L 404.58,450.81 Z" fill="#5b3a24"/><path d="M 448.22,401.97 L 490.3,351.92 L 487.3,349.27 L 442.72,397.1 Z" fill="#5b3a24"/><path d="M 415.83,403.34 L 370.62,366.5 L 366.28,371.59 L 409.73,410.47 Z" fill="#5b3a24"/><path d="M 370.82,366.69 L 328.78,326.28 L 325.94,329.1 L 366.08,371.41 Z" fill="#5b3a24"/><path d="M 418.37,361.86 L 455.4,305.99 L 450.42,302.58 L 411.71,357.3 Z" fill="#8a5a34"/><path d="M 455.45,305.92 L 490.92,249.04 L 487.56,246.87 L 450.38,302.65 Z" fill="#8a5a34"/><path d="M 413.29,310.04 L 360.13,278.74 L 357.35,283.35 L 409.8,315.83 Z" fill="#8a5a34"/><path d="M 359.81,278.58 L 302.95,254.65 L 301.36,258.32 L 357.67,283.51 Z" fill="#8a5a34"/><path d="M 416.62,267.28 L 433.9,245.02 L 430.21,242.07 L 412.36,263.88 Z" fill="#8a5a34"/><path d="M 434.26,244.41 L 444.25,218.06 L 440.53,216.59 L 429.86,242.68 Z" fill="#8a5a34"/><path d="M 419.43,216.58 L 399.49,205.02 L 397.44,208.54 L 417.35,220.16 Z" fill="#5b3a24"/><path d="M 399.05,204.83 L 376.97,198.2 L 375.81,202.03 L 397.87,208.73 Z" fill="#5b3a24"/>
    <ellipse cx="494.73" cy="359.5" rx="46.98" ry="38.57" fill="#4a7c3a"/><ellipse cx="506.27" cy="350.63" rx="29.89" ry="24.51" fill="#8fc76b"/><ellipse cx="500.54" cy="364.6" rx="27.57" ry="22.61" fill="#8fc76b"/><ellipse cx="478.28" cy="364.55" rx="30.91" ry="25.35" fill="#4a7c3a"/><ellipse cx="475.92" cy="349.71" rx="34.07" ry="27.94" fill="#8fc76b"/><ellipse cx="481.55" cy="344.29" rx="35.22" ry="28.88" fill="#8fc76b"/><ellipse cx="495.17" cy="343.43" rx="30.94" ry="25.37" fill="#8fc76b"/><ellipse cx="488.8" cy="350.59" rx="30.66" ry="25.71" fill="#8fc76b"/><ellipse cx="485.62" cy="335.28" rx="12.58" ry="10.69" fill="#dff2c2" opacity="0.85"/><ellipse cx="473.07" cy="342.2" rx="11.73" ry="9.97" fill="#dff2c2" opacity="0.85"/><ellipse cx="476.65" cy="338.53" rx="13.02" ry="11.07" fill="#dff2c2" opacity="0.85"/><ellipse cx="333.45" cy="336.83" rx="48.21" ry="39.58" fill="#4a7c3a"/><ellipse cx="346.29" cy="330.43" rx="26.35" ry="21.6" fill="#4a7c3a"/><ellipse cx="332.78" cy="341.71" rx="26.9" ry="22.06" fill="#8fc76b"/><ellipse cx="312.05" cy="341.86" rx="30.52" ry="25.03" fill="#4a7c3a"/><ellipse cx="303.53" cy="329.33" rx="26.32" ry="21.58" fill="#4a7c3a"/><ellipse cx="319.38" cy="315.58" rx="29.61" ry="24.28" fill="#4a7c3a"/><ellipse cx="334.53" cy="311.08" rx="35.21" ry="28.87" fill="#4a7c3a"/><ellipse cx="327.36" cy="327.69" rx="31.46" ry="26.39" fill="#8fc76b"/><ellipse cx="322.56" cy="320.95" rx="13.33" ry="11.33" fill="#dff2c2" opacity="0.85"/><ellipse cx="310.31" cy="317.38" rx="13.8" ry="11.73" fill="#dff2c2" opacity="0.85"/><ellipse cx="318.9" cy="320.77" rx="14.85" ry="12.62" fill="#dff2c2" opacity="0.85"/><ellipse cx="495.16" cy="256.84" rx="46.89" ry="38.5" fill="#4a7c3a"/><ellipse cx="502.3" cy="249.08" rx="24.94" ry="20.45" fill="#4a7c3a"/><ellipse cx="498.43" cy="264.37" rx="25.29" ry="20.74" fill="#4a7c3a"/><ellipse cx="479.62" cy="256.72" rx="26.66" ry="21.86" fill="#8fc76b"/><ellipse cx="468.68" cy="250.53" rx="30.33" ry="24.87" fill="#8fc76b"/><ellipse cx="483.35" cy="238.31" rx="30.77" ry="25.23" fill="#8fc76b"/><ellipse cx="499.3" cy="232.52" rx="30.15" ry="24.73" fill="#8fc76b"/><ellipse cx="489.24" cy="247.95" rx="30.6" ry="25.67" fill="#8fc76b"/><ellipse cx="488.48" cy="240.26" rx="12" ry="10.2" fill="#dff2c2" opacity="0.85"/><ellipse cx="488.23" cy="238.02" rx="15.08" ry="12.82" fill="#dff2c2" opacity="0.85"/><ellipse cx="485.13" cy="243.33" rx="14.19" ry="12.06" fill="#dff2c2" opacity="0.85"/><ellipse cx="309.24" cy="267.12" rx="56.1" ry="46.06" fill="#4a7c3a"/><ellipse cx="317.91" cy="256.11" rx="33.6" ry="27.55" fill="#8fc76b"/><ellipse cx="305.82" cy="265.39" rx="37.12" ry="30.44" fill="#8fc76b"/><ellipse cx="294.31" cy="264.52" rx="35.14" ry="28.82" fill="#4a7c3a"/><ellipse cx="273.89" cy="254.48" rx="39.44" ry="32.34" fill="#8fc76b"/><ellipse cx="294.42" cy="238.76" rx="36.99" ry="30.33" fill="#4a7c3a"/><ellipse cx="320.29" cy="240.85" rx="36.55" ry="29.97" fill="#4a7c3a"/><ellipse cx="302.16" cy="256.49" rx="36.61" ry="30.71" fill="#8fc76b"/><ellipse cx="301.92" cy="246.24" rx="18.99" ry="16.14" fill="#dff2c2" opacity="0.85"/><ellipse cx="297.12" cy="244.67" rx="15.52" ry="13.19" fill="#dff2c2" opacity="0.85"/><ellipse cx="295.25" cy="245.3" rx="16.85" ry="14.32" fill="#dff2c2" opacity="0.85"/><ellipse cx="449.78" cy="228.41" rx="58.54" ry="48.06" fill="#4a7c3a"/><ellipse cx="458.44" cy="216.24" rx="36.41" ry="29.86" fill="#8fc76b"/><ellipse cx="456.26" cy="229.53" rx="36.52" ry="29.95" fill="#8fc76b"/><ellipse cx="431.54" cy="227.39" rx="38.11" ry="31.25" fill="#8fc76b"/><ellipse cx="414.52" cy="222.43" rx="37.76" ry="30.96" fill="#4a7c3a"/><ellipse cx="427.17" cy="204.07" rx="31.68" ry="25.97" fill="#8fc76b"/><ellipse cx="448.38" cy="204.24" rx="32.69" ry="26.81" fill="#4a7c3a"/><ellipse cx="442.39" cy="217.32" rx="38.2" ry="32.04" fill="#8fc76b"/><ellipse cx="426.9" cy="206.62" rx="14.5" ry="12.32" fill="#dff2c2" opacity="0.85"/><ellipse cx="425.44" cy="204.5" rx="13.98" ry="11.88" fill="#dff2c2" opacity="0.85"/><ellipse cx="433.19" cy="206.3" rx="16.51" ry="14.04" fill="#dff2c2" opacity="0.85"/><ellipse cx="383.09" cy="210.16" rx="53" ry="43.51" fill="#4a7c3a"/><ellipse cx="403.55" cy="200.25" rx="32.14" ry="26.36" fill="#8fc76b"/><ellipse cx="383.61" cy="216.19" rx="37.44" ry="30.7" fill="#8fc76b"/><ellipse cx="363.88" cy="215.24" rx="35.46" ry="29.07" fill="#8fc76b"/><ellipse cx="357.08" cy="202.81" rx="33.84" ry="27.75" fill="#4a7c3a"/><ellipse cx="367.06" cy="192.6" rx="37.06" ry="30.39" fill="#8fc76b"/><ellipse cx="385.1" cy="185.43" rx="29.67" ry="24.33" fill="#8fc76b"/><ellipse cx="376.39" cy="200.12" rx="34.59" ry="29.01" fill="#8fc76b"/><ellipse cx="361.73" cy="192.52" rx="12.47" ry="10.6" fill="#dff2c2" opacity="0.85"/><ellipse cx="374.3" cy="190.91" rx="16.81" ry="14.29" fill="#dff2c2" opacity="0.85"/><ellipse cx="372.74" cy="193.05" rx="16.6" ry="14.11" fill="#dff2c2" opacity="0.85"/><ellipse cx="418.21" cy="182.29" rx="56.79" ry="46.63" fill="#4a7c3a"/><ellipse cx="430.5" cy="168.97" rx="39.84" ry="32.67" fill="#8fc76b"/><ellipse cx="419.65" cy="179.06" rx="31.74" ry="26.02" fill="#8fc76b"/><ellipse cx="404.9" cy="182.83" rx="31.57" ry="25.89" fill="#8fc76b"/><ellipse cx="389.22" cy="169.09" rx="36.48" ry="29.92" fill="#4a7c3a"/><ellipse cx="400.78" cy="157.52" rx="40.12" ry="32.9" fill="#4a7c3a"/><ellipse cx="422.53" cy="157.89" rx="33.69" ry="27.63" fill="#8fc76b"/><ellipse cx="411.04" cy="171.53" rx="37.06" ry="31.09" fill="#8fc76b"/><ellipse cx="403.23" cy="155.68" rx="14.57" ry="12.38" fill="#dff2c2" opacity="0.85"/><ellipse cx="407.24" cy="158.2" rx="20.52" ry="17.45" fill="#dff2c2" opacity="0.85"/><ellipse cx="407.54" cy="156.21" rx="14.16" ry="12.04" fill="#dff2c2" opacity="0.85"/>
    <g><circle cx="455.66" cy="322.17" r="7.6" fill="#ffc94d" opacity="0.9"/><circle cx="449.09" cy="331.2" r="7.6" fill="#ffc94d" opacity="0.9"/><circle cx="438.47" cy="327.75" r="7.6" fill="#ffc94d" opacity="0.9"/><circle cx="438.47" cy="316.58" r="7.6" fill="#ffc94d" opacity="0.9"/><circle cx="449.09" cy="313.13" r="7.6" fill="#ffc94d" opacity="0.9"/><circle cx="446.16" cy="322.17" r="6.65" fill="#ffe9a8"/></g><g><circle cx="297.79" cy="303.27" r="5.65" fill="#ffc94d" opacity="0.9"/><circle cx="292.91" cy="309.99" r="5.65" fill="#ffc94d" opacity="0.9"/><circle cx="285.01" cy="307.42" r="5.65" fill="#ffc94d" opacity="0.9"/><circle cx="285.01" cy="299.12" r="5.65" fill="#ffc94d" opacity="0.9"/><circle cx="292.91" cy="296.55" r="5.65" fill="#ffc94d" opacity="0.9"/><circle cx="290.73" cy="303.27" r="4.95" fill="#ffe9a8"/></g>
    
    
    <line x1="409" y1="516" x2="413" y2="516" stroke="#6b4226" stroke-width="2"/><line x1="404.5" y1="523.79" x2="406.5" y2="527.26" stroke="#6b4226" stroke-width="2"/><line x1="395.5" y1="523.79" x2="393.5" y2="527.26" stroke="#6b4226" stroke-width="2"/><line x1="391" y1="516" x2="387" y2="516" stroke="#6b4226" stroke-width="2"/><line x1="395.5" y1="508.21" x2="393.5" y2="504.74" stroke="#6b4226" stroke-width="2"/><line x1="404.5" y1="508.21" x2="406.5" y2="504.74" stroke="#6b4226" stroke-width="2"/><circle cx="400" cy="516" r="8" fill="none" stroke="#6b4226" stroke-width="3"/><circle cx="400" cy="516" r="3" fill="#6b4226"/><line x1="409" y1="516" x2="413" y2="516" stroke="#6b4226" stroke-width="2"/><line x1="404.5" y1="523.79" x2="406.5" y2="527.26" stroke="#6b4226" stroke-width="2"/><line x1="395.5" y1="523.79" x2="393.5" y2="527.26" stroke="#6b4226" stroke-width="2"/><line x1="391" y1="516" x2="387" y2="516" stroke="#6b4226" stroke-width="2"/><line x1="395.5" y1="508.21" x2="393.5" y2="504.74" stroke="#6b4226" stroke-width="2"/><line x1="404.5" y1="508.21" x2="406.5" y2="504.74" stroke="#6b4226" stroke-width="2"/><circle cx="400" cy="516" r="8" fill="none" stroke="#6b4226" stroke-width="3"/><circle cx="400" cy="516" r="3" fill="#6b4226"/><line x1="409" y1="516" x2="413" y2="516" stroke="#6b4226" stroke-width="2"/><line x1="404.5" y1="523.79" x2="406.5" y2="527.26" stroke="#6b4226" stroke-width="2"/><line x1="395.5" y1="523.79" x2="393.5" y2="527.26" stroke="#6b4226" stroke-width="2"/><line x1="391" y1="516" x2="387" y2="516" stroke="#6b4226" stroke-width="2"/><line x1="395.5" y1="508.21" x2="393.5" y2="504.74" stroke="#6b4226" stroke-width="2"/><line x1="404.5" y1="508.21" x2="406.5" y2="504.74" stroke="#6b4226" stroke-width="2"/><circle cx="400" cy="516" r="8" fill="none" stroke="#6b4226" stroke-width="3"/><circle cx="400" cy="516" r="3" fill="#6b4226"/><line x1="409" y1="516" x2="413" y2="516" stroke="#6b4226" stroke-width="2"/><line x1="404.5" y1="523.79" x2="406.5" y2="527.26" stroke="#6b4226" stroke-width="2"/><line x1="395.5" y1="523.79" x2="393.5" y2="527.26" stroke="#6b4226" stroke-width="2"/><line x1="391" y1="516" x2="387" y2="516" stroke="#6b4226" stroke-width="2"/><line x1="395.5" y1="508.21" x2="393.5" y2="504.74" stroke="#6b4226" stroke-width="2"/><line x1="404.5" y1="508.21" x2="406.5" y2="504.74" stroke="#6b4226" stroke-width="2"/><circle cx="400" cy="516" r="8" fill="none" stroke="#6b4226" stroke-width="3"/><circle cx="400" cy="516" r="3" fill="#6b4226"/><line x1="416.46" y1="485.28" x2="420.46" y2="485.28" stroke="#6b4226" stroke-width="2"/><line x1="411.96" y1="493.07" x2="413.96" y2="496.53" stroke="#6b4226" stroke-width="2"/><line x1="402.96" y1="493.07" x2="400.96" y2="496.53" stroke="#6b4226" stroke-width="2"/><line x1="398.46" y1="485.28" x2="394.46" y2="485.28" stroke="#6b4226" stroke-width="2"/><line x1="402.96" y1="477.48" x2="400.96" y2="474.02" stroke="#6b4226" stroke-width="2"/><line x1="411.96" y1="477.48" x2="413.96" y2="474.02" stroke="#6b4226" stroke-width="2"/><circle cx="407.46" cy="485.28" r="8" fill="none" stroke="#6b4226" stroke-width="3"/><circle cx="407.46" cy="485.28" r="3" fill="#6b4226"/><line x1="416.46" y1="485.28" x2="420.46" y2="485.28" stroke="#6b4226" stroke-width="2"/><line x1="411.96" y1="493.07" x2="413.96" y2="496.53" stroke="#6b4226" stroke-width="2"/><line x1="402.96" y1="493.07" x2="400.96" y2="496.53" stroke="#6b4226" stroke-width="2"/><line x1="398.46" y1="485.28" x2="394.46" y2="485.28" stroke="#6b4226" stroke-width="2"/><line x1="402.96" y1="477.48" x2="400.96" y2="474.02" stroke="#6b4226" stroke-width="2"/><line x1="411.96" y1="477.48" x2="413.96" y2="474.02" stroke="#6b4226" stroke-width="2"/><circle cx="407.46" cy="485.28" r="8" fill="none" stroke="#6b4226" stroke-width="3"/><circle cx="407.46" cy="485.28" r="3" fill="#6b4226"/><line x1="416.46" y1="485.28" x2="420.46" y2="485.28" stroke="#6b4226" stroke-width="2"/><line x1="411.96" y1="493.07" x2="413.96" y2="496.53" stroke="#6b4226" stroke-width="2"/><line x1="402.96" y1="493.07" x2="400.96" y2="496.53" stroke="#6b4226" stroke-width="2"/><line x1="398.46" y1="485.28" x2="394.46" y2="485.28" stroke="#6b4226" stroke-width="2"/><line x1="402.96" y1="477.48" x2="400.96" y2="474.02" stroke="#6b4226" stroke-width="2"/><line x1="411.96" y1="477.48" x2="413.96" y2="474.02" stroke="#6b4226" stroke-width="2"/><circle cx="407.46" cy="485.28" r="8" fill="none" stroke="#6b4226" stroke-width="3"/><circle cx="407.46" cy="485.28" r="3" fill="#6b4226"/><line x1="416.46" y1="485.28" x2="420.46" y2="485.28" stroke="#6b4226" stroke-width="2"/><line x1="411.96" y1="493.07" x2="413.96" y2="496.53" stroke="#6b4226" stroke-width="2"/><line x1="402.96" y1="493.07" x2="400.96" y2="496.53" stroke="#6b4226" stroke-width="2"/><line x1="398.46" y1="485.28" x2="394.46" y2="485.28" stroke="#6b4226" stroke-width="2"/><line x1="402.96" y1="477.48" x2="400.96" y2="474.02" stroke="#6b4226" stroke-width="2"/><line x1="411.96" y1="477.48" x2="413.96" y2="474.02" stroke="#6b4226" stroke-width="2"/><circle cx="407.46" cy="485.28" r="8" fill="none" stroke="#6b4226" stroke-width="3"/><circle cx="407.46" cy="485.28" r="3" fill="#6b4226"/><line x1="416.46" y1="485.28" x2="420.46" y2="485.28" stroke="#6b4226" stroke-width="2"/><line x1="411.96" y1="493.07" x2="413.96" y2="496.53" stroke="#6b4226" stroke-width="2"/><line x1="402.96" y1="493.07" x2="400.96" y2="496.53" stroke="#6b4226" stroke-width="2"/><line x1="398.46" y1="485.28" x2="394.46" y2="485.28" stroke="#6b4226" stroke-width="2"/><line x1="402.96" y1="477.48" x2="400.96" y2="474.02" stroke="#6b4226" stroke-width="2"/><line x1="411.96" y1="477.48" x2="413.96" y2="474.02" stroke="#6b4226" stroke-width="2"/><circle cx="407.46" cy="485.28" r="8" fill="none" stroke="#6b4226" stroke-width="3"/><circle cx="407.46" cy="485.28" r="3" fill="#6b4226"/><line x1="416.46" y1="485.28" x2="420.46" y2="485.28" stroke="#6b4226" stroke-width="2"/><line x1="411.96" y1="493.07" x2="413.96" y2="496.53" stroke="#6b4226" stroke-width="2"/><line x1="402.96" y1="493.07" x2="400.96" y2="496.53" stroke="#6b4226" stroke-width="2"/><line x1="398.46" y1="485.28" x2="394.46" y2="485.28" stroke="#6b4226" stroke-width="2"/><line x1="402.96" y1="477.48" x2="400.96" y2="474.02" stroke="#6b4226" stroke-width="2"/><line x1="411.96" y1="477.48" x2="413.96" y2="474.02" stroke="#6b4226" stroke-width="2"/><circle cx="407.46" cy="485.28" r="8" fill="none" stroke="#6b4226" stroke-width="3"/><circle cx="407.46" cy="485.28" r="3" fill="#6b4226"/>
  </svg>