<svg xmlns="http://www.w3.org/2000/svg" width="800" height="600" viewBox="0 0 800 600">
    <defs>
      <linearGradient id="sky" x1="0" y1="0" x2="0" y2="1">
        <stop offset="0" stop-color="#fdf6e3"/>
        <stop offset="1" stop-color="#f6e2b3"/>
      </linearGradient>
    </defs>
    <rect x="0" y="0" width="800" height="600" fill="url(#sky)"/>
    <ellipse cx="400" cy="534" rx="105" ry="14" fill="#c9a267" opacity="0.6"/>
    <path d="M 330,526 L 342,560 L 458,560 L 470,526 Z" fill="#a85f3c"/>
    <rect x="326" y="520" width="148" height="10" rx="3" fill="#8a4a2e"/>
    <path d="M 409.99,515.6 L 408.99,499.81 L 389.73,500.58 L 390.01,516.4 Z" fill="#5b3a24"/><path d="M 408.54,497.26 L 403.38,482.3 L 385.71,487.95 L 390.18,503.13 Z" fill="#5b3a24"/><path d="M 403.7,483.63 L 400.78,468.08 L 383.2,470.96 L 385.4,486.63 Z" fill="#5b3a24"/><path d="M 400.88,469.03 L 399.65,453.25 L 382.59,454.19 L 383.09,470.01 Z" fill="#5b3a24"/><path d="M 399.57,452.45 L 396.86,436.86 L 380.68,439.3 L 382.67,454.99 Z" fill="#5b3a24"/><path d="M 396.54,435.51 L 391.23,420.61 L 376.38,425.51 L 381,440.65 Z" fill="#5b3a24"/><path d="M 390.95,419.88 L 384.17,405.58 L 370.56,411.65 L 376.67,426.25 Z" fill="#5b3a24"/><path d="M 384.44,406.26 L 379.1,391.37 L 365.64,395.84 L 370.29,410.97 Z" fill="#5b3a24"/><path d="M 378.85,390.72 L 372.08,376.42 L 359.79,381.9 L 365.9,396.49 Z" fill="#5b3a24"/><path d="M 372.64,378.62 L 371.03,362.88 L 358.34,363.89 L 359.23,379.69 Z" fill="#5b3a24"/><path d="M 370.88,361.93 L 366.89,346.62 L 355.21,349.37 L 358.49,364.85 Z" fill="#5b3a24"/><path d="M 366.87,346.54 L 362.68,331.28 L 351.74,334.02 L 355.23,349.45 Z" fill="#5b3a24"/><path d="M 362.72,331.44 L 358.99,316.07 L 348.68,318.32 L 351.71,333.85 Z" fill="#5b3a24"/><path d="M 358.91,315.77 L 354.28,300.64 L 344.83,303.3 L 348.76,318.62 Z" fill="#5b3a24"/><path d="M 354.32,300.81 L 350.23,285.52 L 341.39,287.67 L 344.78,303.13 Z" fill="#5b3a24"/><path d="M 350.34,286.24 L 348.76,270.5 L 340.42,271.15 L 341.28,286.95 Z" fill="#5b3a24"/><path d="M 348.72,270.18 L 345.92,254.61 L 338.37,255.79 L 340.46,271.47 Z" fill="#5b3a24"/><path d="M 345.96,255.09 L 345.16,239.29 L 338.25,239.48 L 338.33,255.3 Z" fill="#5b3a24"/><path d="M 345.15,239.67 L 346.09,223.88 L 339.93,223.37 L 338.26,239.1 Z" fill="#5b3a24"/><path d="M 346.1,223.64 L 345.81,207.82 L 340.36,207.79 L 339.92,223.61 Z" fill="#5b3a24"/><path d="M 345.8,208.1 L 347.14,192.33 L 342.44,191.82 L 340.37,207.51 Z" fill="#5b3a24"/><path d="M 347.16,192.09 L 346.86,176.27 L 342.86,176.25 L 342.43,192.07 Z" fill="#5b3a24"/>
    <path d="M 394.33,458 L 443.24,419.25 L 438.84,413.38 L 387.91,449.45 Z" fill="#8a5a34"/><path d="M 443.9,418.62 L 481.77,369.03 L 478.66,366.51 L 438.18,414.01 Z" fill="#8a5a34"/><path d="M 380.27,404.94 L 329.6,366.58 L 325.45,371.82 L 374.45,412.29 Z" fill="#8a5a34"/><path d="M 328.88,366.14 L 270.24,341.65 L 268.62,345.31 L 326.17,372.26 Z" fill="#8a5a34"/><path d="M 367.64,366.13 L 408.51,320.53 L 404.09,316.43 L 361.72,360.64 Z" fill="#5b3a24"/><path d="M 409.07,319.67 L 432.33,263.02 L 428.65,261.44 L 403.53,317.29 Z" fill="#5b3a24"/><path d="M 356.7,315.39 L 321.74,261.17 L 317.19,264.03 L 350.97,319 Z" fill="#5b3a24"/><path d="M 322.04,261.83 L 303.05,200.18 L 299.21,201.32 L 316.89,263.36 Z" fill="#5b3a24"/><path d="M 346.9,272.27 L 359.77,250.9 L 355.76,248.4 L 342.27,269.38 Z" fill="#5b3a24"/><path d="M 359.98,250.49 L 368.46,227.03 L 364.72,225.62 L 355.55,248.81 Z" fill="#5b3a24"/><path d="M 344.59,222.28 L 327.66,202.45 L 324.56,205.09 L 341.43,224.96 Z" fill="#8a5a34"/><path d="M 327.66,202.44 L 310.66,182.66 L 307.63,185.27 L 324.56,205.09 Z" fill="#8a5a34"/>
    <ellipse cx="486.6" cy="377.36" rx="50.6" ry="41.54" fill="#4a7c3a"/><ellipse cx="494.48" cy="366.51" rx="33.9" ry="27.8" fill="#8fc76b"/><ellipse cx="490.1" cy="380.19" rx="31.13" ry="25.53" fill="#8fc76b"/><ellipse cx="473.69" cy="377.58" rx="30.38" ry="24.91" fill="#4a7c3a"/><ellipse cx="460.54" cy="365.6" rx="27.23" ry="22.33" fill="#8fc76b"/><ellipse cx="469" cy="351.13" rx="29.97" ry="24.58" fill="#4a7c3a"/><ellipse cx="497.59" cy="353.61" rx="34.32" ry="28.14" fill="#8fc76b"/><ellipse cx="480.21" cy="367.77" rx="33.02" ry="27.7" fill="#8fc76b"/><ellipse cx="462.65" cy="363.73" rx="13.71" ry="11.65" fill="#dff2c2" opacity="0.85"/><ellipse cx="472.69" cy="361.97" rx="12.54" ry="10.66" fill="#dff2c2" opacity="0.85"/><ellipse cx="467.41" cy="359.75" rx="11.97" ry="10.18" fill="#dff2c2" opacity="0.85"/><ellipse cx="276.1" cy="353.49" rx="52.83" ry="43.37" fill="#4a7c3a"/><ellipse cx="289.22" cy="343.5" rx="32.63" ry="26.76" fill="#4a7c3a"/><ellipse cx="275.33" cy="357.88" rx="36.96" ry="30.31" fill="#8fc76b"/><ellipse cx="258.24" cy="356.77" rx="34.75" ry="28.5" fill="#4a7c3a"/><ellipse cx="253.43" cy="345.67" rx="35.78" ry="29.34" fill="#4a7c3a"/><ellipse cx="253.96" cy="328.31" rx="31.15" ry="25.54" fill="#4a7c3a"/><ellipse cx="278.12" cy="334.52" rx="39.03" ry="32" fill="#8fc76b"/><ellipse cx="269.43" cy="343.48" rx="34.48" ry="28.91" fill="#8fc76b"/><ellipse cx="258.71" cy="339.86" rx="19.2" ry="16.32" fill="#dff2c2" opacity="0.85"/><ellipse cx="267.52" cy="336.65" rx="16.99" ry="14.44" fill="#dff2c2" opacity="0.85"/><ellipse cx="255.06" cy="338.72" rx="16.59" ry="14.1" fill="#dff2c2" opacity="0.85"/><ellipse cx="437.71" cy="273.06" rx="57.16" ry="46.93" fill="#4a7c3a"/><ellipse cx="451.28" cy="265.3" rx="31.29" ry="25.66" fill="#4a7c3a"/><ellipse cx="441.14" cy="276.06" rx="38.33" ry="31.43" fill="#8fc76b"/><ellipse cx="426.59" cy="272.18" rx="35.45" ry="29.07" fill="#8fc76b"/><ellipse cx="404.67" cy="264.78" rx="43.19" ry="35.41" fill="#8fc76b"/><ellipse cx="422.88" cy="253.3" rx="37.96" ry="31.12" fill="#8fc76b"/><ellipse cx="444.08" cy="244.88" rx="36.49" ry="29.92" fill="#4a7c3a"/><ellipse cx="430.49" cy="262.23" rx="37.3" ry="31.29" fill="#8fc76b"/><ellipse cx="426.2" cy="244.48" rx="14.6" ry="12.41" fill="#dff2c2" opacity="0.85"/><ellipse cx="422.94" cy="257.22" rx="16.46" ry="13.99" fill="#dff2c2" opacity="0.85"/><ellipse cx="428.66" cy="255.27" rx="14.97" ry="12.73" fill="#dff2c2" opacity="0.85"/><ellipse cx="308.63" cy="212" rx="59.39" ry="48.76" fill="#4a7c3a"/><ellipse cx="329.81" cy="204.8" rx="38.38" ry="31.47" fill="#8fc76b"/><ellipse cx="314.25" cy="218.36" rx="33.84" ry="27.75" fill="#8fc76b"/><ellipse cx="292.59" cy="217.76" rx="40.12" ry="32.9" fill="#8fc76b"/><ellipse cx="278.58" cy="197.75" rx="41.17" ry="33.76" fill="#8fc76b"/><ellipse cx="285.14" cy="182.76" rx="39.78" ry="32.62" fill="#8fc76b"/><ellipse cx="311" cy="182.14" rx="36.22" ry="29.7" fill="#4a7c3a"/><ellipse cx="301.13" cy="200.75" rx="38.76" ry="32.51" fill="#8fc76b"/><ellipse cx="286.8" cy="198.13" rx="14.03" ry="11.93" fill="#dff2c2" opacity="0.85"/><ellipse cx="294.49" cy="194.9" rx="22.07" ry="18.76" fill="#dff2c2" opacity="0.85"/><ellipse cx="281.49" cy="193.58" rx="18.49" ry="15.72" fill="#dff2c2" opacity="0.85"/><ellipse cx="373.75" cy="237.06" rx="56.65" ry="46.51" fill="#4a7c3a"/><ellipse cx="385.85" cy="223.8" rx="42.56" ry="34.9" fill="#4a7c3a"/><ellipse cx="382.27" cy="239.53" rx="35.71" ry="29.28" fill="#8fc76b"/><ellipse cx="354.99" cy="236.77" rx="40.33" ry="33.07" fill="#8fc76b"/><ellipse cx="353.53" cy="224.37" rx="32.4" ry="26.57" fill="#8fc76b"/><ellipse cx="356.4" cy="209.67" rx="34.04" ry="27.92" fill="#8fc76b"/><ellipse cx="375.67" cy="218.29" rx="35.36" ry="29" fill="#8fc76b"/><ellipse cx="366.59" cy="226.33" rx="36.97" ry="31.01" fill="#8fc76b"/><ellipse cx="351.79" cy="223.49" rx="13.75" ry="11.69" fill="#dff2c2" opacity="0.85"/><ellipse cx="358.19" cy="221.7" rx="19.6" ry="16.66" fill="#dff2c2" opacity="0.85"/><ellipse cx="366.14" cy="216.29" rx="13.21" ry="11.23" fill="#dff2c2" opacity="0.85"/><ellipse cx="315.92" cy="194.12" rx="53.61" ry="44.01" fill="#4a7c3a"/><ellipse cx="335.37" cy="188.71" rx="29.55" ry="24.23" fill="#8fc76b"/><ellipse cx="316.04" cy="198.82" rx="35.85" ry="29.4" fill="#8fc76b"/><ellipse cx="292.73" cy="197.34" rx="40.4" ry="33.13" fill="#4a7c3a"/><ellipse cx="294.27" cy="186.69" rx="35.54" ry="29.14" fill="#8fc76b"/><ellipse cx="303.1" cy="171.99" rx="29.62" ry="24.29" fill="#4a7c3a"/><ellipse cx="316.3" cy="175.2" rx="30.45" ry="24.97" fill="#8fc76b"/><ellipse cx="309.15" cy="183.97" rx="34.99" ry="29.34" fill="#8fc76b"/><ellipse cx="293.85" cy="174.38" rx="15.03" ry="12.78" fill="#dff2c2" opacity="0.85"/><ellipse cx="306.3" cy="175.57" rx="18.46" ry="15.69" fill="#dff2c2" opacity="0.85"/><ellipse cx="289.16" cy="174.33" rx="19.13" ry="16.26" fill="#dff2c2" opacity="0.85"/><ellipse cx="350.71" cy="185.05" rx="46.37" ry="38.07" fill="#4a7c3a"/><ellipse cx="363.1" cy="173.26" rx="26.51" ry="21.74" fill="#8fc76b"/><ellipse cx="357.18" cy="185.94" rx="25.82" ry="21.17" fill="#8fc76b"/><ellipse cx="335.23" cy="186.23" rx="34.74" ry="28.48" fill="#8fc76b"/><ellipse cx="329.84" cy="174.98" rx="33.05" ry="27.1" fill="#8fc76b"/><ellipse cx="338.28" cy="167.79" rx="25.85" ry="21.19" fill="#8fc76b"/><ellipse cx="351.51" cy="159.95" rx="25.6" ry="20.99" fill="#8fc76b"/><ellipse cx="344.86" cy="176.26" rx="30.26" ry="25.38" fill="#8fc76b"/><ellipse cx="326.21" cy="174.46" rx="16.11" ry="13.69" fill="#dff2c2" opacity="0.85"/><ellipse cx="330.48" cy="169.91" rx="16.04" ry="13.63" fill="#dff2c2" opacity="0.85"/><ellipse cx="340.61" cy="161.83" rx="12.65" ry="10.75" fill="#dff2c2" opacity="0.85"/>
    <g><circle cx="447.07" cy="339.34" r="7.6" fill="#ff9ecf" opacity="0.9"/><circle cx="440.5" cy="348.38" r="7.6" fill="#ff9ecf" opacity="0.9"/><circle cx="429.88" cy="344.92" r="7.6" fill="#ff9ecf" opacity="0.9"/><circle cx="429.88" cy="333.76" r="7.6" fill="#ff9ecf" opacity="0.9"/><circle cx="440.5" cy="330.31" r="7.6" fill="#ff9ecf" opacity="0.9"/><circle cx="437.57" cy="339.34" r="6.65" fill="#ffe9a8"/></g><g><circle cx="452.92" cy="343.35" r="7.48" fill="#ffc94d" opacity="0.9"/><circle cx="446.46" cy="352.24" r="7.48" fill="#ffc94d" opacity="0.9"/><circle cx="436.01" cy="348.84" r="7.48" fill="#ffc94d" opacity="0.9"/><circle cx="436.01" cy="337.85" r="7.48" fill="#ffc94d" opacity="0.9"/><circle cx="446.46" cy="334.46" r="7.48" fill="#ffc94d" opacity="0.9"/><circle cx="443.57" cy="343.35" r="6.54" fill="#ffe9a8"/></g>
    
    
    <line x1="409" y1="516" x2="413" y2="516" stroke="#6b4226" stroke-width="2"/><line x1="404.5" y1="523.79" x2="406.5" y2="527.26" stroke="#6b4226" stroke-width="2"/><line x1="395.5" y1="523.79" x2="393.5" y2="527.26" stroke="#6b4226" stroke-width="2"/><line x1="391" y1="516" x2="387" y2="516" stroke="#6b4226" stroke-width="2"/><line x1="395.5" y1="508.21" x2="393.5" y2="504.74" stroke="#6b4226" stroke-width="2"/><line x1="404.5" y1="508.21" x2="406.5" y2="504.74" stroke="#6b4226" stroke-width="2"/><circle cx="400" cy="516" r="8" fill="none" stroke="#6b4226" stroke-width="3"/><circle cx="400" cy="516" r="3" fill="#6b4226"/><line x1="409" y1="516" x2="413" y2="516" stroke="#6b4226" stroke-width="2"/><line x1="404.5" y1="523.79" x2="406.5" y2="527.26" stroke="#6b4226" stroke-width="2"/><line x1="395.5" y1="523.79" x2="393.5" y2="527.26" stroke="#6b4226" stroke-width="2"/><line x1="391" y1="516" x2="387" y2="516" stroke="#6b4226" stroke-width="2"/><line x1="395.5" y1="508.21" x2="393.5" y2="504.74" stroke="#6b4226" stroke-width="2"/><line x1="404.5" y1="508.21" x2="406.5" y2="504.74" stroke="#6b4226" stroke-width="2"/><circle cx="400" cy="516" r="8" fill="none" stroke="#6b4226" stroke-width="3"/><circle cx="400" cy="516" r="3" fill="#6b4226"/><line x1="409" y1="516" x2="413" y2="516" stroke="#6b4226" stroke-width="2"/><line x1="404.5" y1="523.79" x2="406.5" y2="527.26" stroke="#6b4226" stroke-width="2"/><line x1="395.5" y1="523.79" x2="393.5" y2="527.26" stroke="#6b4226" stroke-width="2"/><line x1="391" y1="516" x2="387" y2="516" stroke="#6b4226" stroke-width="2"/><line x1="395.5" y1="508.21" x2="393.5" y2="504.74" stroke="#6b4226" stroke-width="2"/><line x1="404.5" y1="508.21" x2="406.5" y2="504.74" stroke="#6b4226" stroke-width="2"/><circle cx="400" cy="516" r="8" fill="none" stroke="#6b4226" stroke-width="3"/><circle cx="400" cy="516" r="3" fill="#6b4226"/><line x1="409" y1="516" x2="413" y2="516" stroke="#6b4226" stroke-width="2"/><line x1="404.5" y1="523.79" x2="406.5" y2="527.26" stroke="#6b4226" stroke-width="2"/><line x1="395.5" y1="523.79" x2="393.5" y2="527.26" stroke="#6b4226" stroke-width="2"/><line x1="391" y1="516" x2="387" y2="516" stroke="#6b4226" stroke-width="2"/><line x1="395.5" y1="508.21" x2="393.5" y2="504.74" stroke="#6b4226" stroke-width="2"/><line x1="404.5" y1="508.21" x2="406.5" y2="504.74" stroke="#6b4226" stroke-width="2"/><circle cx="400" cy="516" r="8" fill="none" stroke="#6b4226" stroke-width="3"/><circle cx="400" cy="516" r="3" fill="#6b4226"/><line x1="409" y1="516" x2="413" y2="516" stroke="#6b4226" stroke-width="2"/><line x1="404.5" y1="523.79" x2="406.5" y2="527.26" stroke="#6b4226" stroke-width="2"/><line x1="395.5" y1="523.79" x2="393.5" y2="527.26" stroke="#6b4226" stroke-width="2"/><line x1="391" y1="516" x2="387" y2="516" stroke="#6b4226" stroke-width="2"/><line x1="395.5" y1="508.21" x2="393.5" y2="504.74" stroke="#6b4226" stroke-width="2"/><line x1="404.5" y1="508.21" x2="406.5" y2="504.74" stroke="#6b4226" stroke-width="2"/><circle cx="400" cy="516" r="8" fill="none" stroke="#6b4226" stroke-width="3"/><circle cx="400" cy="516" r="3" fill="#6b4226"/><line x1="409" y1="516" x2="413" y2="516" stroke="#6b4226" stroke-width="2"/><line x1="404.5" y1="523.79" x2="406.5" y2="527.26" stroke="#6b4226" stroke-width="2"/><line x1="395.5" y1="523.79" x2="393.5" y2="527.26" stroke="#6b4226" stroke-width="2"/><line x1="391" y1="516" x2="387" y2="516" stroke="#6b4226" stroke-width="2"/><line x1="395.5" y1="508.21" x2="393.5" y2="504.74" stroke="#6b4226" stroke-width="2"/><line x1="404.5" y1="508.21" x2="406.5" y2="504.74" stroke="#6b4226" stroke-width="2"/><circle cx="400" cy="516" r="8" fill="none" stroke="#6b4226" stroke-width="3"/><circle cx="400" cy="516" r="3" fill="#6b4226"/><line x1="409" y1="516" x2="413" y2="516" stroke="#6b4226" stroke-width="2"/><line x1="404.5" y1="523.79" x2="406.5" y2="527.26" stroke="#6b4226" stroke-width="2"/><line x1="395.5" y1="523.79" x2="393.5" y2="527.26" stroke="#6b4226" stroke-width="2"/><line x1="391" y1="516" x2="387" y2="516" stroke="#6b4226" stroke-width="2"/><line x1="395.5" y1="508.21" x2="393.5" y2="504.74" stroke="#6b4226" stroke-width="2"/><line x1="404.5" y1="508.21" x2="406.5" y2="504.74" stroke="#6b4226" stroke-width="2"/><circle cx="400" cy="516" r="8" fill="none" stroke="#6b4226" stroke-width="3"/><circle cx="400" cy="516" r="3" fill="#6b4226"/><line x1="409" y1="516" x2="413" y2="516" stroke="#6b4226" stroke-width="2"/><line x1="404.5" y1="523.79" x2="406.5" y2="527.26" stroke="#6b4226" stroke-width="2"/><line x1="395.5" y1="523.79" x2="393.5" y2="527.26" stroke="#6b4226" stroke-width="2"/><line x1="391" y1="516" x2="387" y2="516" stroke="#6b4226" stroke-width="2"/><line x1="395.5" y1="508.21" x2="393.5" y2="504.74" stroke="#6b4226" stroke-width="2"/><line x1="404.5" y1="508.21" x2="406.5" y2="504.74" stroke="#6b4226" stroke-width="2"/><circle cx="400" cy="516" r="8" fill="none" stroke="#6b4226" stroke-width="3"/><circle cx="400" cy="516" r="3" fill="#6b4226"/><line x1="409" y1="516" x2="413" y2="516" stroke="#6b4226" stroke-width="2"/><line x1="404.5" y1="523.79" x2="406.5" y2="527.26" stroke="#6b4226" stroke-width="2"/><line x1="395.5" y1="523.79" x2="393.5" y2="527.26" stroke="#6b4226" stroke-width="2"/><line x1="391" y1="516" x2="387" y2="516" stroke="#6b4226" stroke-width="2"/><line x1="395.5" y1="508.21" x2="393.5" y2="504.74" stroke="#6b4226" stroke-width="2"/><line x1="404.5" y1="508.21" x2="406.5" y2="504.74" stroke="#6b4226" stroke-width="2"/><circle cx="400" cy="516" r="8" fill="none" stroke="#6b4226" stroke-width="3"/><circle cx="400" cy="516" r="3" fill="#6b4226"/><line x1="408.36" y1="500.19" x2="412.36" y2="500.19" stroke="#6b4226" stroke-width="2"/><line x1="403.86" y1="507.99" x2="405.86" y2="511.45" stroke="#6b4226" stroke-width="2"/><line x1="394.86" y1="507.99" x2="392.86" y2="511.45" stroke="#6b4226" stroke-width="2"/><line x1="390.36" y1="500.19" x2="386.36" y2="500.19" stroke="#6b4226" stroke-width="2"/><line x1="394.86" y1="492.4" x2="392.86" y2="488.94" stroke="#6b4226" stroke-width="2"/><line x1="403.86" y1="492.4" x2="405.86" y2="488.94" stroke="#6b4226" stroke-width="2"/><circle cx="399.36" cy="500.19" r="8" fill="none" stroke="#6b4226" stroke-width="3"/><circle cx="399.36" cy="500.19" r="3" fill="#6b4226"/>
  </svg>