<svg xmlns="http://www.w3.org/2000/svg" width="800" height="600" viewBox="0 0 800 600">
    <defs>
      <linearGradient id="sky" x1="0" y1="0" x2="0" y2="1">
        <stop offset="0" stop-color="#fdf6e3"/>
        <stop offset="1" stop-color="#f6e2b3"/>
      </linearGradient>
    </defs>
    <rect x="0" y="0" width="800" height="600" fill="url(#sky)"/>
    <ellipse cx="400" cy="534" rx="105" ry="14" fill="#c9a267" opacity="0.6"/>
    <path d="M 330,526 L 342,560 L 458,560 L 470,526 Z" fill="#a85f3c"/>
    <rect x="326" y="520" width="148" height="10" rx="3" fill="#8a4a2e"/>
    <path d="M 409.76,518.17 L 412.84,502.65 L 394.03,498.47 L 390.24,513.83 Z" fill="#5b3a24"/><path d="M 412.4,504.11 L 417.89,489.27 L 400.65,482.44 L 394.48,497.01 Z" fill="#5b3a24"/><path d="M 418.22,488.26 L 421.98,472.89 L 404.77,468.27 L 400.31,483.45 Z" fill="#5b3a24"/><path d="M 421.99,472.85 L 425.66,457.46 L 409.13,453.11 L 404.76,468.31 Z" fill="#5b3a24"/><path d="M 425.94,455.02 L 425.1,439.22 L 408.74,439.72 L 408.85,455.54 Z" fill="#5b3a24"/><path d="M 424.95,437.91 L 421.57,422.45 L 406.22,425.44 L 408.89,441.03 Z" fill="#5b3a24"/><path d="M 421.71,424.06 L 421.58,408.24 L 406.67,408.02 L 406.08,423.83 Z" fill="#5b3a24"/><path d="M 421.58,408.34 L 421.66,392.51 L 407.49,392.12 L 406.68,407.92 Z" fill="#5b3a24"/><path d="M 421.46,390.62 L 417.32,375.35 L 404.26,378.56 L 407.69,394.01 Z" fill="#5b3a24"/><path d="M 417.51,376.74 L 416.65,360.94 L 403.93,361.35 L 404.07,377.17 Z" fill="#5b3a24"/><path d="M 416.37,359.26 L 411.34,344.26 L 399.88,347.81 L 404.21,363.03 Z" fill="#5b3a24"/><path d="M 411.27,344.04 L 405.66,329.24 L 395.03,332.99 L 399.95,348.03 Z" fill="#5b3a24"/><path d="M 405.98,330.84 L 404.83,315.06 L 394.29,315.58 L 394.72,331.4 Z" fill="#5b3a24"/><path d="M 404.66,316.66 L 408.34,301.28 L 398.85,298.77 L 394.46,313.98 Z" fill="#5b3a24"/><path d="M 408.44,300.83 L 410.66,285.16 L 401.69,283.68 L 398.75,299.22 Z" fill="#5b3a24"/><path d="M 410.63,285.31 L 413.37,269.73 L 405.17,268.09 L 401.72,283.53 Z" fill="#5b3a24"/><path d="M 413.45,269.15 L 414.01,253.34 L 406.39,252.89 L 405.1,268.66 Z" fill="#5b3a24"/><path d="M 413.97,253.73 L 416.15,238.06 L 409.33,236.95 L 406.43,252.5 Z" fill="#5b3a24"/><path d="M 416.07,238.42 L 419.93,223.08 L 413.97,221.43 L 409.41,236.58 Z" fill="#5b3a24"/><path d="M 419.99,222.85 L 422.66,207.25 L 417.31,206.21 L 413.92,221.66 Z" fill="#5b3a24"/><path d="M 422.64,207.35 L 425.86,191.86 L 421.26,190.79 L 417.33,206.11 Z" fill="#5b3a24"/><path d="M 425.83,191.99 L 429.94,176.71 L 426.1,175.58 L 421.29,190.66 Z" fill="#5b3a24"/>
    <path d="M 421.53,458.67 L 461.35,407.56 L 455.67,402.9 L 413.27,451.89 Z" fill="#8a5a34"/><path d="M 461.16,407.77 L 504.77,359.85 L 501.88,357.08 L 455.86,402.69 Z" fill="#8a5a34"/><path d="M 417.7,405.08 L 374.88,357.02 L 369.8,361.37 L 410.56,411.17 Z" fill="#5b3a24"/><path d="M 374.62,356.74 L 326.53,313.96 L 323.81,316.89 L 370.06,361.65 Z" fill="#5b3a24"/><path d="M 412.47,364.54 L 468.6,327.27 L 465.33,322.19 L 408.11,357.75 Z" fill="#5b3a24"/><path d="M 468.01,327.56 L 530.87,303.32 L 529.49,299.56 L 465.92,321.9 Z" fill="#5b3a24"/><path d="M 402.43,313.54 L 368.11,259.43 L 363.54,262.26 L 396.68,317.1 Z" fill="#5b3a24"/><path d="M 367.88,259.11 L 326.03,210.58 L 322.98,213.16 L 363.77,262.58 Z" fill="#5b3a24"/><path d="M 411.08,270.95 L 459.84,227.34 L 456.7,223.8 L 407.47,266.86 Z" fill="#8a5a34"/><path d="M 459.45,227.62 L 515.97,194.7 L 513.98,191.23 L 457.09,223.52 Z" fill="#8a5a34"/><path d="M 418.49,220.87 L 373.83,171.44 L 370.81,174.17 L 415.41,223.64 Z" fill="#8a5a34"/><path d="M 374.18,171.97 L 346.73,111.28 L 343.08,112.92 L 370.47,173.65 Z" fill="#8a5a34"/>
    <ellipse cx="510.16" cy="368.72" rx="54.12" ry="44.43" fill="#4a7c3a"/><ellipse cx="514.9" cy="359.09" rx="30.38" ry="24.92" fill="#4a7c3a"/><ellipse cx="519.41" cy="371.81" rx="33.24" ry="27.26" fill="#8fc76b"/><ellipse cx="491.45" cy="369.21" rx="33.26" ry="27.28" fill="#8fc76b"/><ellipse cx="480.76" cy="354.92" rx="39.71" ry="32.56" fill="#4a7c3a"/><ellipse cx="496.58" cy="345.11" rx="35.56" ry="29.16" fill="#8fc76b"/><ellipse cx="512.7" cy="348.47" rx="30.79" ry="25.25" fill="#4a7c3a"/><ellipse cx="503.32" cy="358.47" rx="35.32" ry="29.62" fill="#8fc76b"/><ellipse cx="496.26" cy="343.65" rx="18.06" ry="15.35" fill="#dff2c2" opacity="0.85"/><ellipse cx="500.88" cy="346.11" rx="14.69" ry="12.49" fill="#dff2c2" opacity="0.85"/><ellipse cx="496.53" cy="351.82" rx="16.67" ry="14.17" fill="#dff2c2" opacity="0.85"/><ellipse cx="332.56" cy="326.52" rx="58.55" ry="48.07" fill="#4a7c3a"/><ellipse cx="341.95" cy="313.15" rx="41.95" ry="34.4" fill="#8fc76b"/><ellipse cx="331.39" cy="323.82" rx="37.91" ry="31.09" fill="#4a7c3a"/><ellipse cx="318.28" cy="323.72" rx="33.29" ry="27.3" fill="#4a7c3a"/><ellipse cx="299.78" cy="311.17" rx="31.69" ry="25.99" fill="#4a7c3a"/><ellipse cx="314.35" cy="298.87" rx="31.94" ry="26.19" fill="#4a7c3a"/><ellipse cx="343.26" cy="301.3" rx="34.03" ry="27.9" fill="#8fc76b"/><ellipse cx="325.17" cy="315.43" rx="38.21" ry="32.05" fill="#8fc76b"/><ellipse cx="321.9" cy="308.74" rx="14.58" ry="12.39" fill="#dff2c2" opacity="0.85"/><ellipse cx="302.08" cy="305.25" rx="14.75" ry="12.54" fill="#dff2c2" opacity="0.85"/><ellipse cx="317.65" cy="296.07" rx="14.35" ry="12.2" fill="#dff2c2" opacity="0.85"/><ellipse cx="537.56" cy="312.52" rx="58.46" ry="48" fill="#4a7c3a"/><ellipse cx="551.47" cy="297.59" rx="41.85" ry="34.32" fill="#8fc76b"/><ellipse cx="537.13" cy="312.8" rx="39.08" ry="32.05" fill="#4a7c3a"/><ellipse cx="522.25" cy="322.02" rx="31.63" ry="25.93" fill="#8fc76b"/><ellipse cx="509.28" cy="300.42" rx="34.16" ry="28.01" fill="#8fc76b"/><ellipse cx="523.91" cy="285.4" rx="36.83" ry="30.2" fill="#8fc76b"/><ellipse cx="542.82" cy="281.25" rx="37.05" ry="30.38" fill="#8fc76b"/><ellipse cx="530.18" cy="301.44" rx="38.15" ry="32" fill="#8fc76b"/><ellipse cx="517.03" cy="290.22" rx="20.97" ry="17.82" fill="#dff2c2" opacity="0.85"/><ellipse cx="512" cy="291.58" rx="15.34" ry="13.03" fill="#dff2c2" opacity="0.85"/><ellipse cx="520.61" cy="296.53" rx="17.11" ry="14.54" fill="#dff2c2" opacity="0.85"/><ellipse cx="331.93" cy="223" rx="58.77" ry="48.25" fill="#4a7c3a"/><ellipse cx="343.14" cy="211.63" rx="34.07" ry="27.94" fill="#8fc76b"/><ellipse cx="332.49" cy="227.37" rx="38.83" ry="31.84" fill="#4a7c3a"/><ellipse cx="317.56" cy="229.8" rx="39.58" ry="32.45" fill="#8fc76b"/><ellipse cx="295.18" cy="212.89" rx="31" ry="25.42" fill="#8fc76b"/><ellipse cx="315.24" cy="201.46" rx="38.42" ry="31.51" fill="#4a7c3a"/><ellipse cx="329.87" cy="198.68" rx="34.61" ry="28.38" fill="#8fc76b"/><ellipse cx="324.51" cy="211.87" rx="38.35" ry="32.17" fill="#8fc76b"/><ellipse cx="312.22" cy="206.89" rx="18.39" ry="15.63" fill="#dff2c2" opacity="0.85"/><ellipse cx="321.71" cy="194.19" rx="16.62" ry="14.13" fill="#dff2c2" opacity="0.85"/><ellipse cx="314.68" cy="210.64" rx="13.67" ry="11.62" fill="#dff2c2" opacity="0.85"/><ellipse cx="522.52" cy="204.28" rx="59.72" ry="49.03" fill="#4a7c3a"/><ellipse cx="536.24" cy="194.15" rx="34.46" ry="28.26" fill="#8fc76b"/><ellipse cx="527.01" cy="202.62" rx="42.93" ry="35.2" fill="#8fc76b"/><ellipse cx="507.74" cy="207.23" rx="34.05" ry="27.92" fill="#4a7c3a"/><ellipse cx="500.4" cy="194.54" rx="37.13" ry="30.45" fill="#8fc76b"/><ellipse cx="500" cy="180.98" rx="44.72" ry="36.67" fill="#8fc76b"/><ellipse cx="524.06" cy="182.24" rx="33.69" ry="27.63" fill="#8fc76b"/><ellipse cx="514.98" cy="192.96" rx="38.97" ry="32.69" fill="#8fc76b"/><ellipse cx="510.91" cy="172" rx="17.8" ry="15.13" fill="#dff2c2" opacity="0.85"/><ellipse cx="508.06" cy="187.21" rx="18.61" ry="15.82" fill="#dff2c2" opacity="0.85"/><ellipse cx="501.1" cy="190.57" rx="21.65" ry="18.4" fill="#dff2c2" opacity="0.85"/><ellipse cx="351.62" cy="122.17" rx="53.14" ry="43.63" fill="#4a7c3a"/><ellipse cx="358.6" cy="111.19" rx="35.93" ry="29.46" fill="#4a7c3a"/><ellipse cx="355.23" cy="126.46" rx="37.49" ry="30.74" fill="#8fc76b"/><ellipse cx="332.39" cy="128.65" rx="28.61" ry="23.46" fill="#4a7c3a"/><ellipse cx="327.77" cy="112.47" rx="32.85" ry="26.93" fill="#8fc76b"/><ellipse cx="340.06" cy="104.41" rx="30.67" ry="25.15" fill="#4a7c3a"/><ellipse cx="354.61" cy="98.91" rx="36.25" ry="29.72" fill="#4a7c3a"/><ellipse cx="344.91" cy="112.1" rx="34.68" ry="29.09" fill="#8fc76b"/><ellipse cx="336.12" cy="94.58" rx="14.08" ry="11.97" fill="#dff2c2" opacity="0.85"/><ellipse cx="335.62" cy="111.17" rx="16.35" ry="13.9" fill="#dff2c2" opacity="0.85"/><ellipse cx="334.8" cy="104.71" rx="18.89" ry="16.06" fill="#dff2c2" opacity="0.85"/><ellipse cx="435.45" cy="187.29" rx="58.82" ry="48.3" fill="#4a7c3a"/><ellipse cx="453.7" cy="174.51" rx="35.77" ry="29.33" fill="#8fc76b"/><ellipse cx="436.12" cy="194.64" rx="38.78" ry="31.8" fill="#8fc76b"/><ellipse cx="414.97" cy="187.87" rx="36.24" ry="29.72" fill="#8fc76b"/><ellipse cx="398.64" cy="175.69" rx="32.89" ry="26.97" fill="#4a7c3a"/><ellipse cx="421.87" cy="161.05" rx="43.8" ry="35.91" fill="#8fc76b"/><ellipse cx="447.54" cy="160.02" rx="33.22" ry="27.24" fill="#4a7c3a"/><ellipse cx="428.02" cy="176.15" rx="38.39" ry="32.2" fill="#8fc76b"/><ellipse cx="411.18" cy="167.03" rx="14.82" ry="12.6" fill="#dff2c2" opacity="0.85"/><ellipse cx="405.32" cy="172.63" rx="17.04" ry="14.48" fill="#dff2c2" opacity="0.85"/><ellipse cx="415.13" cy="175.6" rx="15.4" ry="13.09" fill="#dff2c2" opacity="0.85"/>
    <g><circle cx="470.18" cy="330.04" r="7.6" fill="#ff9ecf" opacity="0.9"/><circle cx="463.61" cy="339.07" r="7.6" fill="#ff9ecf" opacity="0.9"/><circle cx="452.99" cy="335.62" r="7.6" fill="#ff9ecf" opacity="0.9"/><circle cx="452.99" cy="324.45" r="7.6" fill="#ff9ecf" opacity="0.9"/><circle cx="463.61" cy="321" r="7.6" fill="#ff9ecf" opacity="0.9"/><circle cx="460.68" cy="330.04" r="6.65" fill="#ffe9a8"/></g><g><circle cx="475.12" cy="334.04" r="6.75" fill="#ff9ecf" opacity="0.9"/><circle cx="469.29" cy="342.07" r="6.75" fill="#ff9ecf" opacity="0.9"/><circle cx="459.86" cy="339" r="6.75" fill="#ff9ecf" opacity="0.9"/><circle cx="459.86" cy="329.09" r="6.75" fill="#ff9ecf" opacity="0.9"/><circle cx="469.29" cy="326.02" r="6.75" fill="#ff9ecf" opacity="0.9"/><circle cx="466.69" cy="334.04" r="5.9" fill="#ffe9a8"/></g>
    
    
    <line x1="409" y1="516" x2="413" y2="516" stroke="#6b4226" stroke-width="2"/><line x1="404.5" y1="523.79" x2="406.5" y2="527.26" stroke="#6b4226" stroke-width="2"/><line x1="395.5" y1="523.79" x2="393.5" y2="527.26" stroke="#6b4226" stroke-width="2"/><line x1="391" y1="516" x2="387" y2="516" stroke="#6b4226" stroke-width="2"/><line x1="395.5" y1="508.21" x2="393.5" y2="504.74" stroke="#6b4226" stroke-width="2"/><line x1="404.5" y1="508.21" x2="406.5" y2="504.74" stroke="#6b4226" stroke-width="2"/><circle cx="400" cy="516" r="8" fill="none" stroke="#6b4226" stroke-width="3"/><circle cx="400" cy="516" r="3" fill="#6b4226"/><line x1="409" y1="516" x2="413" y2="516" stroke="#6b4226" stroke-width="2"/><line x1="404.5" y1="523.79" x2="406.5" y2="527.26" stroke="#6b4226" stroke-width="2"/><line x1="395.5" y1="523.79" x2="393.5" y2="527.26" stroke="#6b4226" stroke-width="2"/><line x1="391" y1="516" x2="387" y2="516" stroke="#6b4226" stroke-width="2"/><line x1="395.5" y1="508.21" x2="393.5" y2="504.74" stroke="#6b4226" stroke-width="2"/><line x1="404.5" y1="508.21" x2="406.5" y2="504.74" stroke="#6b4226" stroke-width="2"/><circle cx="400" cy="516" r="8" fill="none" stroke="#6b4226" stroke-width="3"/><circle cx="400" cy="516" r="3" fill="#6b4226"/><line x1="409" y1="516" x2="413" y2="516" stroke="#6b4226" stroke-width="2"/><line x1="404.5" y1="523.79" x2="406.5" y2="527.26" stroke="#6b4226" stroke-width="2"/><line x1="395.5" y1="523.79" x2="393.5" y2="527.26" stroke="#6b4226" stroke-width="2"/><line x1="391" y1="516" x2="387" y2="516" stroke="#6b4226" stroke-width="2"/><line x1="395.5" y1="508.21" x2="393.5" y2="504.74" stroke="#6b4226" stroke-width="2"/><line x1="404.5" y1="508.21" x2="406.5" y2="504.74" stroke="#6b4226" stroke-width="2"/><circle cx="400" cy="516" r="8" fill="none" stroke="#6b4226" stroke-width="3"/><circle cx="400" cy="516" r="3" fill="#6b4226"/><line x1="409" y1="516" x2="413" y2="516" stroke="#6b4226" stroke-width="2"/><line x1="404.5" y1="523.79" x2="406.5" y2="527.26" stroke="#6b4226" stroke-width="2"/><line x1="395.5" y1="523.79" x2="393.5" y2="527.26" stroke="#6b4226" stroke-width="2"/><line x1="391" y1="516" x2="387" y2="516" stroke="#6b4226" stroke-width="2"/><line x1="395.5" y1="508.21" x2="393.5" y2="504.74" stroke="#6b4226" stroke-width="2"/><line x1="404.5" y1="508.21" x2="406.5" y2="504.74" stroke="#6b4226" stroke-width="2"/><circle cx="400" cy="516" r="8" fill="none" stroke="#6b4226" stroke-width="3"/><circle cx="400" cy="516" r="3" fill="#6b4226"/><line x1="412.44" y1="500.56" x2="416.44" y2="500.56" stroke="#6b4226" stroke-width="2"/><line x1="407.94" y1="508.35" x2="409.94" y2="511.82" stroke="#6b4226" stroke-width="2"/><line x1="398.94" y1="508.35" x2="396.94" y2="511.82" stroke="#6b4226" stroke-width="2"/><line x1="394.44" y1="500.56" x2="390.44" y2="500.56" stroke="#6b4226" stroke-width="2"/><line x1="398.94" y1="492.77" x2="396.94" y2="489.3" stroke="#6b4226" stroke-width="2"/><line x1="407.94" y1="492.77" x2="409.94" y2="489.3" stroke="#6b4226" stroke-width="2"/><circle cx="403.44" cy="500.56" r="8" fill="none" stroke="#6b4226" stroke-width="3"/><circle cx="403.44" cy="500.56" r="3" fill="#6b4226"/><line x1="412.44" y1="500.56" x2="416.44" y2="500.56" stroke="#6b4226" stroke-width="2"/><line x1="407.94" y1="508.35" x2="409.94" y2="511.82" stroke="#6b4226" stroke-width="2"/><line x1="398.94" y1="508.35" x2="396.94" y2="511.82" stroke="#6b4226" stroke-width="2"/><line x1="394.44" y1="500.56" x2="390.44" y2="500.56" stroke="#6b4226" stroke-width="2"/><line x1="398.94" y1="492.77" x2="396.94" y2="489.3" stroke="#6b4226" stroke-width="2"/><line x1="407.94" y1="492.77" x2="409.94" y2="489.3" stroke="#6b4226" stroke-width="2"/><circle cx="403.44" cy="500.56" r="8" fill="none" stroke="#6b4226" stroke-width="3"/><circle cx="403.44" cy="500.56" r="3" fill="#6b4226"/><line x1="412.44" y1="500.56" x2="416.44" y2="500.56" stroke="#6b4226" stroke-width="2"/><line x1="407.94" y1="508.35" x2="409.94" y2="511.82" stroke="#6b4226" stroke-width="2"/><line x1="398.94" y1="508.35" x2="396.94" y2="511.82" stroke="#6b4226" stroke-width="2"/><line x1="394.44" y1="500.56" x2="390.44" y2="500.56" stroke="#6b4226" stroke-width="2"/><line x1="398.94" y1="492.77" x2="396.94" y2="489.3" stroke="#6b4226" stroke-width="2"/><line x1="407.94" y1="492.77" x2="409.94" y2="489.3" stroke="#6b4226" stroke-width="2"/><circle cx="403.44" cy="500.56" r="8" fill="none" stroke="#6b4226" stroke-width="3"/><circle cx="403.44" cy="500.56" r="3" fill="#6b4226"/><line x1="412.44" y1="500.56" x2="416.44" y2="500.56" stroke="#6b4226" stroke-width="2"/><line x1="407.94" y1="508.35" x2="409.94" y2="511.82" stroke="#6b4226" stroke-width="2"/><line x1="398.94" y1="508.35" x2="396.94" y2="511.82" stroke="#6b4226" stroke-width="2"/><line x1="394.44" y1="500.56" x2="390.44" y2="500.56" stroke="#6b4226" stroke-width="2"/><line x1="398.94" y1="492.77" x2="396.94" y2="489.3" stroke="#6b4226" stroke-width="2"/><line x1="407.94" y1="492.77" x2="409.94" y2="489.3" stroke="#6b4226" stroke-width="2"/><circle cx="403.44" cy="500.56" r="8" fill="none" stroke="#6b4226" stroke-width="3"/><circle cx="403.44" cy="500.56" r="3" fill="#6b4226"/><line x1="412.44" y1="500.56" x2="416.44" y2="500.56" stroke="#6b4226" stroke-width="2"/><line x1="407.94" y1="508.35" x2="409.94" y2="511.82" stroke="#6b4226" stroke-width="2"/><line x1="398.94" y1="508.35" x2="396.94" y2="511.82" stroke="#6b4226" stroke-width="2"/><line x1="394.44" y1="500.56" x2="390.44" y2="500.56" stroke="#6b4226" stroke-width="2"/><line x1="398.94" y1="492.77" x2="396.94" y2="489.3" stroke="#6b4226" stroke-width="2"/><line x1="407.94" y1="492.77" x2="409.94" y2="489.3" stroke="#6b4226" stroke-width="2"/><circle cx="403.44" cy="500.56" r="8" fill="none" stroke="#6b4226" stroke-width="3"/><circle cx="403.44" cy="500.56" r="3" fill="#6b4226"/><line x1="412.44" y1="500.56" x2="416.44" y2="500.56" stroke="#6b4226" stroke-width="2"/><line x1="407.94" y1="508.35" x2="409.94" y2="511.82" stroke="#6b4226" stroke-width="2"/><line x1="398.94" y1="508.35" x2="396.94" y2="511.82" stroke="#6b4226" stroke-width="2"/><line x1="394.44" y1="500.56" x2="390.44" y2="500.56" stroke="#6b4226" stroke-width="2"/><line x1="398.94" y1="492.77" x2="396.94" y2="489.3" stroke="#6b4226" stroke-width="2"/><line x1="407.94" y1="492.77" x2="409.94" y2="489.3" stroke="#6b4226" stroke-width="2"/><circle cx="403.44" cy="500.56" r="8" fill="none" stroke="#6b4226" stroke-width="3"/><circle cx="403.44" cy="500.56" r="3" fill="#6b4226"/>
  </svg>