<svg xmlns="http://www.w3.org/2000/svg" width="800" height="600" viewBox="0 0 800 600">
    <defs>
      <linearGradient id="sky" x1="0" y1="0" x2="0" y2="1">
        <stop offset="0" stop-color="#fdf6e3"/>
        <stop offset="1" stop-color="#f6e2b3"/>
      </linearGradient>
    </defs>
    <rect x="0" y="0" width="800" height="600" fill="url(#sky)"/>
    <ellipse cx="400" cy="534" rx="105" ry="14" fill="#c9a267" opacity="0.6"/>
    <path d="M 330,526 L 342,560 L 458,560 L 470,526 Z" fill="#a85f3c"/>
    <rect x="326" y="520" width="148" height="10" rx="3" fill="#8a4a2e"/>
    <path d="M 409.77,513.86 L 406.02,498.48 L 387.2,502.61 L 390.23,518.14 Z" fill="#5b3a24"/><path d="M 405.68,497.3 L 400.01,482.53 L 382.55,488.78 L 387.54,503.8 Z" fill="#5b3a24"/><path d="M 399.86,482.14 L 393.53,467.64 L 377.04,474.39 L 382.7,489.17 Z" fill="#5b3a24"/><path d="M 393.86,468.58 L 389.18,453.47 L 372.74,458.14 L 376.72,473.45 Z" fill="#5b3a24"/><path d="M 389.51,455.76 L 389.06,439.94 L 372.7,440.03 L 372.42,455.85 Z" fill="#5b3a24"/><path d="M 389.04,440.52 L 389.71,424.71 L 374.1,423.69 L 372.71,439.45 Z" fill="#5b3a24"/><path d="M 389.72,424.33 L 389.62,408.51 L 374.71,408.26 L 374.09,424.07 Z" fill="#5b3a24"/><path d="M 389.59,409 L 390.55,393.21 L 376.41,392.03 L 374.74,407.76 Z" fill="#5b3a24"/><path d="M 390.48,393.75 L 392.64,378.07 L 379.36,375.93 L 376.48,391.49 Z" fill="#5b3a24"/><path d="M 392.44,378.94 L 396.65,363.69 L 384.46,360.02 L 379.55,375.07 Z" fill="#5b3a24"/><path d="M 396.41,364.34 L 402.26,349.64 L 391.22,344.95 L 384.7,359.37 Z" fill="#5b3a24"/><path d="M 402.59,348.62 L 405.73,333.11 L 394.73,330.62 L 390.89,345.97 Z" fill="#5b3a24"/><path d="M 405.83,331.2 L 403.59,315.54 L 393.12,316.79 L 394.63,332.54 Z" fill="#5b3a24"/><path d="M 403.39,314.61 L 398.38,299.6 L 389,302.5 L 393.32,317.72 Z" fill="#5b3a24"/><path d="M 398.59,301.25 L 398.88,285.43 L 389.8,285.06 L 388.79,300.84 Z" fill="#5b3a24"/><path d="M 398.86,284.71 L 396.65,269.05 L 388.35,270.02 L 389.83,285.77 Z" fill="#5b3a24"/><path d="M 396.49,268.29 L 391.45,253.29 L 384.16,255.56 L 388.51,270.77 Z" fill="#5b3a24"/><path d="M 391.41,253.19 L 385.94,238.34 L 379.4,240.58 L 384.19,255.67 Z" fill="#5b3a24"/><path d="M 385.97,238.45 L 380.96,223.44 L 375.05,225.26 L 379.37,240.48 Z" fill="#5b3a24"/><path d="M 381,223.57 L 376.65,208.36 L 371.37,209.74 L 375.02,225.13 Z" fill="#5b3a24"/><path d="M 376.67,208.44 L 372.8,193.1 L 368.19,194.15 L 371.35,209.65 Z" fill="#5b3a24"/><path d="M 372.78,193 L 368.24,177.84 L 364.38,178.9 L 368.22,194.25 Z" fill="#5b3a24"/>
    <path d="M 384.27,460 L 433.09,419.43 L 428.54,413.66 L 377.65,451.6 Z" fill="#8a5a34"/><path d="M 433.67,418.86 L 472.3,368.49 L 469.19,365.97 L 427.96,414.24 Z" fill="#8a5a34"/><path d="M 385.81,405.43 L 344.77,356.88 L 339.57,361.09 L 378.52,411.33 Z" fill="#8a5a34"/><path d="M 344.4,356.48 L 296.01,315.25 L 293.35,318.24 L 339.95,361.48 Z" fill="#8a5a34"/><path d="M 393.86,364.16 L 427.32,314.45 L 422.37,310.99 L 387.24,359.54 Z" fill="#5b3a24"/><path d="M 427.32,314.44 L 460.63,264.63 L 457.34,262.35 L 422.36,311 Z" fill="#5b3a24"/><path d="M 401.12,314.21 L 366.57,266.59 L 362.18,269.7 L 395.6,318.12 Z" fill="#5b3a24"/><path d="M 366.18,266.15 L 322.22,227.07 L 319.52,230.02 L 362.56,270.13 Z" fill="#5b3a24"/><path d="M 394.71,271.12 L 431.9,218.8 L 428.06,216.04 L 390.29,267.94 Z" fill="#5b3a24"/><path d="M 431.49,219.24 L 480.54,177.83 L 477.98,174.76 L 428.46,215.61 Z" fill="#5b3a24"/><path d="M 379.7,223.15 L 361.45,197.51 L 358.12,199.87 L 376.32,225.55 Z" fill="#8a5a34"/><path d="M 361.35,197.39 L 341.19,173.22 L 338.12,175.78 L 358.22,199.99 Z" fill="#8a5a34"/>
    <ellipse cx="476.88" cy="376.44" rx="48.61" ry="39.91" fill="#4a7c3a"/><ellipse cx="494.6" cy="370.48" rx="33.21" ry="27.23" fill="#8fc76b"/><ellipse cx="478.79" cy="378.1" rx="33.19" ry="27.22" fill="#8fc76b"/><ellipse cx="466.57" cy="378.25" rx="27.05" ry="22.18" fill="#4a7c3a"/><ellipse cx="445.84" cy="364.96" rx="31.49" ry="25.82" fill="#8fc76b"/><ellipse cx="463.93" cy="359.12" rx="36.41" ry="29.86" fill="#4a7c3a"/><ellipse cx="482.18" cy="356.84" rx="32.09" ry="26.32" fill="#4a7c3a"/><ellipse cx="470.74" cy="367.23" rx="31.72" ry="26.61" fill="#8fc76b"/><ellipse cx="452.65" cy="365.8" rx="15.23" ry="12.95" fill="#dff2c2" opacity="0.85"/><ellipse cx="462.84" cy="351.33" rx="17.84" ry="15.17" fill="#dff2c2" opacity="0.85"/><ellipse cx="462.7" cy="351.56" rx="17.09" ry="14.53" fill="#dff2c2" opacity="0.85"/><ellipse cx="302.14" cy="327.93" rx="59.07" ry="48.5" fill="#4a7c3a"/><ellipse cx="307.75" cy="317.54" rx="39.46" ry="32.36" fill="#8fc76b"/><ellipse cx="302.38" cy="333.2" rx="33.12" ry="27.16" fill="#4a7c3a"/><ellipse cx="279.94" cy="329.87" rx="35.31" ry="28.96" fill="#8fc76b"/><ellipse cx="265.35" cy="316.66" rx="44.59" ry="36.56" fill="#4a7c3a"/><ellipse cx="280.87" cy="300.95" rx="40.72" ry="33.39" fill="#4a7c3a"/><ellipse cx="302.22" cy="302.98" rx="39.26" ry="32.2" fill="#8fc76b"/><ellipse cx="294.68" cy="316.74" rx="38.55" ry="32.33" fill="#8fc76b"/><ellipse cx="289.93" cy="298" rx="16.17" ry="13.75" fill="#dff2c2" opacity="0.85"/><ellipse cx="281.66" cy="302.55" rx="18.92" ry="16.08" fill="#dff2c2" opacity="0.85"/><ellipse cx="289.68" cy="300.94" rx="20.24" ry="17.2" fill="#dff2c2" opacity="0.85"/><ellipse cx="465.02" cy="272.53" rx="47.74" ry="39.2" fill="#4a7c3a"/><ellipse cx="471.47" cy="265.76" rx="28.68" ry="23.52" fill="#8fc76b"/><ellipse cx="467.75" cy="275.67" rx="32.77" ry="26.87" fill="#8fc76b"/><ellipse cx="450.67" cy="276.31" rx="33.38" ry="27.37" fill="#8fc76b"/><ellipse cx="442.59" cy="264.15" rx="29.38" ry="24.09" fill="#4a7c3a"/><ellipse cx="442.68" cy="249.39" rx="33.2" ry="27.23" fill="#8fc76b"/><ellipse cx="463.04" cy="254.46" rx="27.03" ry="22.16" fill="#8fc76b"/><ellipse cx="458.99" cy="263.49" rx="31.16" ry="26.13" fill="#8fc76b"/><ellipse cx="455.97" cy="257.42" rx="15.42" ry="13.1" fill="#dff2c2" opacity="0.85"/><ellipse cx="439.59" cy="262.49" rx="14.02" ry="11.92" fill="#dff2c2" opacity="0.85"/><ellipse cx="457.08" cy="255.87" rx="12.43" ry="10.57" fill="#dff2c2" opacity="0.85"/><ellipse cx="327.49" cy="238.47" rx="52.37" ry="43" fill="#4a7c3a"/><ellipse cx="345.14" cy="225.16" rx="38.93" ry="31.92" fill="#8fc76b"/><ellipse cx="326.9" cy="242.9" rx="39.39" ry="32.3" fill="#8fc76b"/><ellipse cx="305.86" cy="240.92" rx="36.93" ry="30.28" fill="#8fc76b"/><ellipse cx="305.19" cy="226.12" rx="34.3" ry="28.13" fill="#4a7c3a"/><ellipse cx="306.64" cy="217.17" rx="37.8" ry="31" fill="#4a7c3a"/><ellipse cx="331.04" cy="213.39" rx="35.27" ry="28.92" fill="#4a7c3a"/><ellipse cx="320.87" cy="228.54" rx="34.18" ry="28.67" fill="#8fc76b"/><ellipse cx="319.91" cy="219.47" rx="12.22" ry="10.38" fill="#dff2c2" opacity="0.85"/><ellipse cx="308.82" cy="224.63" rx="14.57" ry="12.38" fill="#dff2c2" opacity="0.85"/><ellipse cx="313.18" cy="217.4" rx="16.57" ry="14.09" fill="#dff2c2" opacity="0.85"/><ellipse cx="485.2" cy="185.2" rx="47" ry="38.59" fill="#4a7c3a"/><ellipse cx="492.89" cy="175.02" rx="24.88" ry="20.4" fill="#4a7c3a"/><ellipse cx="491.13" cy="186.55" rx="28.28" ry="23.19" fill="#4a7c3a"/><ellipse cx="466.64" cy="189.19" rx="29.5" ry="24.19" fill="#4a7c3a"/><ellipse cx="462.51" cy="179.29" rx="35.56" ry="29.16" fill="#4a7c3a"/><ellipse cx="472.16" cy="169.85" rx="28.35" ry="23.24" fill="#4a7c3a"/><ellipse cx="484.74" cy="167.41" rx="24.88" ry="20.41" fill="#8fc76b"/><ellipse cx="479.26" cy="176.3" rx="30.68" ry="25.73" fill="#8fc76b"/><ellipse cx="470.01" cy="175.43" rx="11.25" ry="9.57" fill="#dff2c2" opacity="0.85"/><ellipse cx="466.81" cy="164.66" rx="17.14" ry="14.57" fill="#dff2c2" opacity="0.85"/><ellipse cx="476.2" cy="168.39" rx="11.14" ry="9.47" fill="#dff2c2" opacity="0.85"/><ellipse cx="346.84" cy="185.27" rx="56.87" ry="46.69" fill="#4a7c3a"/><ellipse cx="360.18" cy="175.38" rx="40.99" ry="33.61" fill="#8fc76b"/><ellipse cx="349.35" cy="184.68" rx="38.75" ry="31.77" fill="#8fc76b"/><ellipse cx="332.71" cy="192.88" rx="37.94" ry="31.11" fill="#8fc76b"/><ellipse cx="319.45" cy="177.99" rx="38.18" ry="31.31" fill="#4a7c3a"/><ellipse cx="330.65" cy="161.45" rx="39.38" ry="32.29" fill="#8fc76b"/><ellipse cx="345.97" cy="158.64" rx="38.87" ry="31.88" fill="#8fc76b"/><ellipse cx="339.65" cy="174.5" rx="37.11" ry="31.13" fill="#8fc76b"/><ellipse cx="327.96" cy="171.62" rx="16.33" ry="13.88" fill="#dff2c2" opacity="0.85"/><ellipse cx="332.41" cy="168.76" rx="19.13" ry="16.26" fill="#dff2c2" opacity="0.85"/><ellipse cx="338.94" cy="163.5" rx="21.51" ry="18.28" fill="#dff2c2" opacity="0.85"/><ellipse cx="372.4" cy="187.49" rx="48.16" ry="39.54" fill="#4a7c3a"/><ellipse cx="386.32" cy="176.96" rx="27.44" ry="22.5" fill="#4a7c3a"/><ellipse cx="372.79" cy="189.92" rx="28.86" ry="23.66" fill="#8fc76b"/><ellipse cx="357.63" cy="186.01" rx="32.63" ry="26.76" fill="#4a7c3a"/><ellipse cx="352.54" cy="180.87" rx="26.64" ry="21.84" fill="#8fc76b"/><ellipse cx="358.24" cy="171.74" rx="30.1" ry="24.68" fill="#8fc76b"/><ellipse cx="377.15" cy="166.17" rx="36.33" ry="29.79" fill="#4a7c3a"/><ellipse cx="366.31" cy="178.37" rx="31.43" ry="26.36" fill="#8fc76b"/><ellipse cx="353.71" cy="170.49" rx="15.88" ry="13.5" fill="#dff2c2" opacity="0.85"/><ellipse cx="357.92" cy="167.05" rx="17.9" ry="15.21" fill="#dff2c2" opacity="0.85"/><ellipse cx="348.5" cy="174.96" rx="15.39" ry="13.08" fill="#dff2c2" opacity="0.85"/>
    <g><circle cx="437.6" cy="338.8" r="7.6" fill="#ffc94d" opacity="0.9"/><circle cx="431.03" cy="347.84" r="7.6" fill="#ffc94d" opacity="0.9"/><circle cx="420.41" cy="344.39" r="7.6" fill="#ffc94d" opacity="0.9"/><circle cx="420.41" cy="333.22" r="7.6" fill="#ffc94d" opacity="0.9"/><circle cx="431.03" cy="329.77" r="7.6" fill="#ffc94d" opacity="0.9"/><circle cx="428.1" cy="338.8" r="6.65" fill="#ffe9a8"/></g><g><circle cx="441.63" cy="342.81" r="6.02" fill="#ff9ecf" opacity="0.9"/><circle cx="436.43" cy="349.96" r="6.02" fill="#ff9ecf" opacity="0.9"/><circle cx="428.02" cy="347.23" r="6.02" fill="#ff9ecf" opacity="0.9"/><circle cx="428.02" cy="338.39" r="6.02" fill="#ff9ecf" opacity="0.9"/><circle cx="436.43" cy="335.65" r="6.02" fill="#ff9ecf" opacity="0.9"/><circle cx="434.11" cy="342.81" r="5.27" fill="#ffe9a8"/></g>
    
    
    <line x1="409" y1="516" x2="413" y2="516" stroke="#6b4226" stroke-width="2"/><line x1="404.5" y1="523.79" x2="406.5" y2="527.26" stroke="#6b4226" stroke-width="2"/><line x1="395.5" y1="523.79" x2="393.5" y2="527.26" stroke="#6b4226" stroke-width="2"/><line x1="391" y1="516" x2="387" y2="516" stroke="#6b4226" stroke-width="2"/><line x1="395.5" y1="508.21" x2="393.5" y2="504.74" stroke="#6b4226" stroke-width="2"/><line x1="404.5" y1="508.21" x2="406.5" y2="504.74" stroke="#6b4226" stroke-width="2"/><circle cx="400" cy="516" r="8" fill="none" stroke="#6b4226" stroke-width="3"/><circle cx="400" cy="516" r="3" fill="#6b4226"/><line x1="409" y1="516" x2="413" y2="516" stroke="#6b4226" stroke-width="2"/><line x1="404.5" y1="523.79" x2="406.5" y2="527.26" stroke="#6b4226" stroke-width="2"/><line x1="395.5" y1="523.79" x2="393.5" y2="527.26" stroke="#6b4226" stroke-width="2"/><line x1="391" y1="516" x2="387" y2="516" stroke="#6b4226" stroke-width="2"/><line x1="395.5" y1="508.21" x2="393.5" y2="504.74" stroke="#6b4226" stroke-width="2"/><line x1="404.5" y1="508.21" x2="406.5" y2="504.74" stroke="#6b4226" stroke-width="2"/><circle cx="400" cy="516" r="8" fill="none" stroke="#6b4226" stroke-width="3"/><circle cx="400" cy="516" r="3" fill="#6b4226"/><line x1="409" y1="516" x2="413" y2="516" stroke="#6b4226" stroke-width="2"/><line x1="404.5" y1="523.79" x2="406.5" y2="527.26" stroke="#6b4226" stroke-width="2"/><line x1="395.5" y1="523.79" x2="393.5" y2="527.26" stroke="#6b4226" stroke-width="2"/><line x1="391" y1="516" x2="387" y2="516" stroke="#6b4226" stroke-width="2"/><line x1="395.5" y1="508.21" x2="393.5" y2="504.74" stroke="#6b4226" stroke-width="2"/><line x1="404.5" y1="508.21" x2="406.5" y2="504.74" stroke="#6b4226" stroke-width="2"/><circle cx="400" cy="516" r="8" fill="none" stroke="#6b4226" stroke-width="3"/><circle cx="400" cy="516" r="3" fill="#6b4226"/><line x1="409" y1="516" x2="413" y2="516" stroke="#6b4226" stroke-width="2"/><line x1="404.5" y1="523.79" x2="406.5" y2="527.26" stroke="#6b4226" stroke-width="2"/><line x1="395.5" y1="523.79" x2="393.5" y2="527.26" stroke="#6b4226" stroke-width="2"/><line x1="391" y1="516" x2="387" y2="516" stroke="#6b4226" stroke-width="2"/><line x1="395.5" y1="508.21" x2="393.5" y2="504.74" stroke="#6b4226" stroke-width="2"/><line x1="404.5" y1="508.21" x2="406.5" y2="504.74" stroke="#6b4226" stroke-width="2"/><circle cx="400" cy="516" r="8" fill="none" stroke="#6b4226" stroke-width="3"/><circle cx="400" cy="516" r="3" fill="#6b4226"/><line x1="405.61" y1="500.55" x2="409.61" y2="500.55" stroke="#6b4226" stroke-width="2"/><line x1="401.11" y1="508.34" x2="403.11" y2="511.81" stroke="#6b4226" stroke-width="2"/><line x1="392.11" y1="508.34" x2="390.11" y2="511.81" stroke="#6b4226" stroke-width="2"/><line x1="387.61" y1="500.55" x2="383.61" y2="500.55" stroke="#6b4226" stroke-width="2"/><line x1="392.11" y1="492.76" x2="390.11" y2="489.29" stroke="#6b4226" stroke-width="2"/><line x1="401.11" y1="492.76" x2="403.11" y2="489.29" stroke="#6b4226" stroke-width="2"/><circle cx="396.61" cy="500.55" r="8" fill="none" stroke="#6b4226" stroke-width="3"/><circle cx="396.61" cy="500.55" r="3" fill="#6b4226"/><line x1="405.61" y1="500.55" x2="409.61" y2="500.55" stroke="#6b4226" stroke-width="2"/><line x1="401.11" y1="508.34" x2="403.11" y2="511.81" stroke="#6b4226" stroke-width="2"/><line x1="392.11" y1="508.34" x2="390.11" y2="511.81" stroke="#6b4226" stroke-width="2"/><line x1="387.61" y1="500.55" x2="383.61" y2="500.55" stroke="#6b4226" stroke-width="2"/><line x1="392.11" y1="492.76" x2="390.11" y2="489.29" stroke="#6b4226" stroke-width="2"/><line x1="401.11" y1="492.76" x2="403.11" y2="489.29" stroke="#6b4226" stroke-width="2"/><circle cx="396.61" cy="500.55" r="8" fill="none" stroke="#6b4226" stroke-width="3"/><circle cx="396.61" cy="500.55" r="3" fill="#6b4226"/><line x1="405.61" y1="500.55" x2="409.61" y2="500.55" stroke="#6b4226" stroke-width="2"/><line x1="401.11" y1="508.34" x2="403.11" y2="511.81" stroke="#6b4226" stroke-width="2"/><line x1="392.11" y1="508.34" x2="390.11" y2="511.81" stroke="#6b4226" stroke-width="2"/><line x1="387.61" y1="500.55" x2="383.61" y2="500.55" stroke="#6b4226" stroke-width="2"/><line x1="392.11" y1="492.76" x2="390.11" y2="489.29" stroke="#6b4226" stroke-width="2"/><line x1="401.11" y1="492.76" x2="403.11" y2="489.29" stroke="#6b4226" stroke-width="2"/><circle cx="396.61" cy="500.55" r="8" fill="none" stroke="#6b4226" stroke-width="3"/><circle cx="396.61" cy="500.55" r="3" fill="#6b4226"/><line x1="405.61" y1="500.55" x2="409.61" y2="500.55" stroke="#6b4226" stroke-width="2"/><line x1="401.11" y1="508.34" x2="403.11" y2="511.81" stroke="#6b4226" stroke-width="2"/><line x1="392.11" y1="508.34" x2="390.11" y2="511.81" stroke="#6b4226" stroke-width="2"/><line x1="387.61" y1="500.55" x2="383.61" y2="500.55" stroke="#6b4226" stroke-width="2"/><line x1="392.11" y1="492.76" x2="390.11" y2="489.29" stroke="#6b4226" stroke-width="2"/><line x1="401.11" y1="492.76" x2="403.11" y2="489.29" stroke="#6b4226" stroke-width="2"/><circle cx="396.61" cy="500.55" r="8" fill="none" stroke="#6b4226" stroke-width="3"/><circle cx="396.61" cy="500.55" r="3" fill="#6b4226"/><line x1="405.61" y1="500.55" x2="409.61" y2="500.55" stroke="#6b4226" stroke-width="2"/><line x1="401.11" y1="508.34" x2="403.11" y2="511.81" stroke="#6b4226" stroke-width="2"/><line x1="392.11" y1="508.34" x2="390.11" y2="511.81" stroke="#6b4226" stroke-width="2"/><line x1="387.61" y1="500.55" x2="383.61" y2="500.55" stroke="#6b4226" stroke-width="2"/><line x1="392.11" y1="492.76" x2="390.11" y2="489.29" stroke="#6b4226" stroke-width="2"/><line x1="401.11" y1="492.76" x2="403.11" y2="489.29" stroke="#6b4226" stroke-width="2"/><circle cx="396.61" cy="500.55" r="8" fill="none" stroke="#6b4226" stroke-width="3"/><circle cx="396.61" cy="500.55" r="3" fill="#6b4226"/><line x1="405.61" y1="500.55" x2="409.61" y2="500.55" stroke="#6b4226" stroke-width="2"/><line x1="401.11" y1="508.34" x2="403.11" y2="511.81" stroke="#6b4226" stroke-width="2"/><line x1="392.11" y1="508.34" x2="390.11" y2="511.81" stroke="#6b4226" stroke-width="2"/><line x1="387.61" y1="500.55" x2="383.61" y2="500.55" stroke="#6b4226" stroke-width="2"/><line x1="392.11" y1="492.76" x2="390.11" y2="489.29" stroke="#6b4226" stroke-width="2"/><line x1="401.11" y1="492.76" x2="403.11" y2="489.29" stroke="#6b4226" stroke-width="2"/><circle cx="396.61" cy="500.55" r="8" fill="none" stroke="#6b4226" stroke-width="3"/><circle cx="396.61" cy="500.55" r="3" fill="#6b4226"/>
  </svg>