<svg xmlns="http://www.w3.org/2000/svg" width="800" height="600" viewBox="0 0 800 600">
    <defs>
      <linearGradient id="sky" x1="0" y1="0" x2="0" y2="1">
        <stop offset="0" stop-color="#fdf6e3"/>
        <stop offset="1" stop-color="#f6e2b3"/>
      </linearGradient>
    </defs>
    <rect x="0" y="0" width="800" height="600" fill="url(#sky)"/>
    <ellipse cx="400" cy="534" rx="105" ry="14" fill="#c9a267" opacity="0.6"/>
    <path d="M 330,526 L 342,560 L 458,560 L 470,526 Z" fill="#a85f3c"/>
    <rect x="326" y="520" width="148" height="10" rx="3" fill="#8a4a2e"/>
    <path d="M 409.6,518.82 L 413.7,503.53 L 395.21,498.11 L 390.4,513.18 Z" fill="#5b3a24"/><path d="M 412.91,505.44 L 420.17,491.39 L 403.9,482.49 L 396,496.2 Z" fill="#5b3a24"/><path d="M 420.55,490.63 L 426.5,475.97 L 410.15,468.88 L 403.53,483.25 Z" fill="#5b3a24"/><path d="M 427.08,474.06 L 429.63,458.44 L 412.83,455.31 L 409.57,470.79 Z" fill="#5b3a24"/><path d="M 429.69,455.7 L 427.15,440.08 L 410.94,442.34 L 412.76,458.06 Z" fill="#5b3a24"/><path d="M 427.19,441.96 L 428.28,426.17 L 412.7,424.74 L 410.9,440.46 Z" fill="#5b3a24"/><path d="M 428.31,425.3 L 427.63,409.49 L 412.72,409.79 L 412.67,425.61 Z" fill="#5b3a24"/><path d="M 427.61,409.14 L 426.19,393.38 L 412.04,394.33 L 412.73,410.14 Z" fill="#5b3a24"/><path d="M 425.95,391.99 L 421.43,376.83 L 408.45,380.37 L 412.27,395.73 Z" fill="#5b3a24"/><path d="M 421.23,376.2 L 415.25,361.55 L 403.36,366.09 L 408.66,381 Z" fill="#5b3a24"/><path d="M 415.65,363.42 L 414.27,347.65 L 402.3,348.42 L 402.95,364.23 Z" fill="#5b3a24"/><path d="M 414.03,346.31 L 409.12,331.27 L 398.32,334.52 L 402.54,349.77 Z" fill="#5b3a24"/><path d="M 408.81,330.47 L 401.69,316.34 L 392.17,320.87 L 398.63,335.31 Z" fill="#5b3a24"/><path d="M 401.84,316.68 L 395.71,302.09 L 386.57,305.68 L 392.02,320.54 Z" fill="#5b3a24"/><path d="M 395.96,302.96 L 392.61,287.49 L 383.68,289.21 L 386.32,304.82 Z" fill="#5b3a24"/><path d="M 392.55,287.21 L 388.23,271.99 L 380.13,274.09 L 383.75,289.49 Z" fill="#5b3a24"/><path d="M 388.27,272.15 L 384.54,256.77 L 377.08,258.4 L 380.09,273.93 Z" fill="#5b3a24"/><path d="M 384.58,256.98 L 381.73,241.42 L 374.9,242.51 L 377.04,258.19 Z" fill="#5b3a24"/><path d="M 381.76,241.72 L 380.29,225.97 L 374.12,226.4 L 374.87,242.21 Z" fill="#5b3a24"/><path d="M 380.27,225.74 L 377.6,210.14 L 372.21,210.93 L 374.15,226.64 Z" fill="#5b3a24"/><path d="M 377.56,209.9 L 373.49,194.61 L 368.89,195.72 L 372.25,211.18 Z" fill="#5b3a24"/><path d="M 373.55,195 L 372.08,179.24 L 368.09,179.52 L 368.83,195.33 Z" fill="#5b3a24"/>
    <path d="M 424.31,461.25 L 475.67,423.01 L 471.44,417 L 418.15,452.51 Z" fill="#8a5a34"/><path d="M 475.21,423.29 L 531.62,393 L 529.82,389.43 L 471.9,416.73 Z" fill="#8a5a34"/><path d="M 423.23,406.09 L 372.91,364.49 L 368.54,369.56 L 417.11,413.2 Z" fill="#8a5a34"/><path d="M 373.22,364.79 L 328.66,317.07 L 325.68,319.74 L 368.23,369.26 Z" fill="#8a5a34"/><path d="M 411.97,366.85 L 459.24,323.7 L 455.24,319.18 L 406.63,360.8 Z" fill="#8a5a34"/><path d="M 459.58,323.35 L 499.29,273.17 L 496.19,270.64 L 454.91,319.53 Z" fill="#8a5a34"/><path d="M 398.64,315.69 L 345.56,285.49 L 342.85,290.14 L 395.23,321.53 Z" fill="#8a5a34"/><path d="M 345.57,285.5 L 292.65,255.05 L 290.61,258.49 L 342.84,290.13 Z" fill="#8a5a34"/><path d="M 386.42,274.59 L 403.41,249.4 L 399.52,246.71 L 381.94,271.49 Z" fill="#8a5a34"/><path d="M 403.7,248.84 L 413.41,220.05 L 409.63,218.72 L 399.24,247.27 Z" fill="#8a5a34"/><path d="M 378.93,225.03 L 362.97,201.37 L 359.59,203.65 L 375.49,227.34 Z" fill="#8a5a34"/><path d="M 362.67,201.02 L 341.8,181.57 L 339.07,184.49 L 359.89,204 Z" fill="#8a5a34"/>
    <ellipse cx="537.68" cy="401.64" rx="55.05" ry="45.2" fill="#4a7c3a"/><ellipse cx="557.55" cy="390.19" rx="36.59" ry="30" fill="#8fc76b"/><ellipse cx="545.17" cy="407.14" rx="31.59" ry="25.91" fill="#4a7c3a"/><ellipse cx="517.86" cy="404.86" rx="38.14" ry="31.27" fill="#8fc76b"/><ellipse cx="503.07" cy="387.77" rx="34.39" ry="28.2" fill="#8fc76b"/><ellipse cx="518.81" cy="378.42" rx="34.34" ry="28.16" fill="#8fc76b"/><ellipse cx="534.95" cy="382.1" rx="38.71" ry="31.74" fill="#8fc76b"/><ellipse cx="530.72" cy="391.21" rx="35.92" ry="30.13" fill="#8fc76b"/><ellipse cx="530.44" cy="378.61" rx="16.37" ry="13.92" fill="#dff2c2" opacity="0.85"/><ellipse cx="518.24" cy="378.16" rx="12.75" ry="10.84" fill="#dff2c2" opacity="0.85"/><ellipse cx="528.56" cy="380.93" rx="17.93" ry="15.24" fill="#dff2c2" opacity="0.85"/><ellipse cx="334.23" cy="329" rx="55.93" ry="45.92" fill="#4a7c3a"/><ellipse cx="338.77" cy="319.98" rx="32.03" ry="26.26" fill="#4a7c3a"/><ellipse cx="339.85" cy="329.36" rx="40.5" ry="33.21" fill="#4a7c3a"/><ellipse cx="318.54" cy="338.42" rx="39.9" ry="32.72" fill="#8fc76b"/><ellipse cx="312.27" cy="316.02" rx="35.87" ry="29.41" fill="#4a7c3a"/><ellipse cx="319.45" cy="303.6" rx="39.24" ry="32.18" fill="#8fc76b"/><ellipse cx="336.25" cy="310.56" rx="41.74" ry="34.23" fill="#4a7c3a"/><ellipse cx="327.17" cy="318.4" rx="36.5" ry="30.62" fill="#8fc76b"/><ellipse cx="312.95" cy="315.82" rx="13.12" ry="11.15" fill="#dff2c2" opacity="0.85"/><ellipse cx="323.75" cy="306.06" rx="19.19" ry="16.31" fill="#dff2c2" opacity="0.85"/><ellipse cx="315.94" cy="315.06" rx="14.83" ry="12.6" fill="#dff2c2" opacity="0.85"/><ellipse cx="503.64" cy="280.76" rx="46.73" ry="38.36" fill="#4a7c3a"/><ellipse cx="508.3" cy="273.55" rx="30.99" ry="25.41" fill="#4a7c3a"/><ellipse cx="507.85" cy="282.22" rx="28.18" ry="23.11" fill="#8fc76b"/><ellipse cx="485.11" cy="286.07" rx="30.93" ry="25.36" fill="#4a7c3a"/><ellipse cx="485.2" cy="273.11" rx="34.17" ry="28.02" fill="#8fc76b"/><ellipse cx="483.83" cy="261.15" rx="27.07" ry="22.19" fill="#4a7c3a"/><ellipse cx="504.28" cy="263.2" rx="27.38" ry="22.45" fill="#4a7c3a"/><ellipse cx="497.74" cy="271.9" rx="30.49" ry="25.58" fill="#8fc76b"/><ellipse cx="491.78" cy="267.26" rx="11.38" ry="9.67" fill="#dff2c2" opacity="0.85"/><ellipse cx="485.02" cy="261.19" rx="13.67" ry="11.62" fill="#dff2c2" opacity="0.85"/><ellipse cx="485.4" cy="265.86" rx="15.27" ry="12.98" fill="#dff2c2" opacity="0.85"/><ellipse cx="298.18" cy="266.6" rx="51.89" ry="42.6" fill="#4a7c3a"/><ellipse cx="308.66" cy="257.39" rx="33.09" ry="27.13" fill="#8fc76b"/><ellipse cx="295.7" cy="265.94" rx="35.01" ry="28.71" fill="#4a7c3a"/><ellipse cx="285.66" cy="272.24" rx="33.06" ry="27.11" fill="#4a7c3a"/><ellipse cx="278.37" cy="258.98" rx="33.3" ry="27.31" fill="#8fc76b"/><ellipse cx="285.14" cy="245.54" rx="38.43" ry="31.52" fill="#8fc76b"/><ellipse cx="304.95" cy="246.07" rx="31.95" ry="26.2" fill="#4a7c3a"/><ellipse cx="291.63" cy="256.77" rx="33.86" ry="28.4" fill="#8fc76b"/><ellipse cx="277.26" cy="254.7" rx="12.93" ry="10.99" fill="#dff2c2" opacity="0.85"/><ellipse cx="287.36" cy="249.81" rx="14.12" ry="12" fill="#dff2c2" opacity="0.85"/><ellipse cx="288.09" cy="249.91" rx="16.16" ry="13.74" fill="#dff2c2" opacity="0.85"/><ellipse cx="417.36" cy="228.15" rx="46.26" ry="37.98" fill="#4a7c3a"/><ellipse cx="425.15" cy="220.52" rx="26.19" ry="21.48" fill="#8fc76b"/><ellipse cx="423.27" cy="233.69" rx="34.5" ry="28.29" fill="#8fc76b"/><ellipse cx="400.35" cy="228.1" rx="26.02" ry="21.34" fill="#8fc76b"/><ellipse cx="393.81" cy="217.43" rx="25.14" ry="20.61" fill="#8fc76b"/><ellipse cx="404.06" cy="213.49" rx="34.88" ry="28.6" fill="#4a7c3a"/><ellipse cx="424.22" cy="205.63" rx="28.23" ry="23.14" fill="#8fc76b"/><ellipse cx="411.52" cy="219.39" rx="30.19" ry="25.32" fill="#8fc76b"/><ellipse cx="400.91" cy="209.98" rx="10.81" ry="9.19" fill="#dff2c2" opacity="0.85"/><ellipse cx="403.73" cy="205.82" rx="11.09" ry="9.43" fill="#dff2c2" opacity="0.85"/><ellipse cx="410.29" cy="207.72" rx="11.26" ry="9.57" fill="#dff2c2" opacity="0.85"/><ellipse cx="346.08" cy="191.5" rx="44.71" ry="36.71" fill="#4a7c3a"/><ellipse cx="356.49" cy="184.79" rx="24.5" ry="20.09" fill="#4a7c3a"/><ellipse cx="350.26" cy="193.77" rx="27.04" ry="22.18" fill="#4a7c3a"/><ellipse cx="334.21" cy="193.24" rx="24.32" ry="19.95" fill="#8fc76b"/><ellipse cx="323.25" cy="184.74" rx="27.18" ry="22.29" fill="#8fc76b"/><ellipse cx="335.54" cy="173.11" rx="25.33" ry="20.77" fill="#8fc76b"/><ellipse cx="349.91" cy="170.79" rx="23.69" ry="19.42" fill="#8fc76b"/><ellipse cx="340.43" cy="183.03" rx="29.18" ry="24.48" fill="#8fc76b"/><ellipse cx="332.23" cy="178.45" rx="12.66" ry="10.76" fill="#dff2c2" opacity="0.85"/><ellipse cx="333.29" cy="182.16" rx="16.03" ry="13.63" fill="#dff2c2" opacity="0.85"/><ellipse cx="320.44" cy="180.54" rx="15.97" ry="13.58" fill="#dff2c2" opacity="0.85"/><ellipse cx="377.27" cy="190.15" rx="56.86" ry="46.68" fill="#4a7c3a"/><ellipse cx="385.1" cy="178.61" rx="41.95" ry="34.4" fill="#8fc76b"/><ellipse cx="382.37" cy="198.29" rx="42.38" ry="34.75" fill="#8fc76b"/><ellipse cx="359.15" cy="191.08" rx="40.32" ry="33.07" fill="#8fc76b"/><ellipse cx="350" cy="178.06" rx="30.66" ry="25.14" fill="#4a7c3a"/><ellipse cx="357.26" cy="163.94" rx="35.48" ry="29.09" fill="#4a7c3a"/><ellipse cx="376.75" cy="162.25" rx="37.19" ry="30.5" fill="#4a7c3a"/><ellipse cx="370.09" cy="179.38" rx="37.11" ry="31.12" fill="#8fc76b"/><ellipse cx="356.51" cy="165.64" rx="20.07" ry="17.06" fill="#dff2c2" opacity="0.85"/><ellipse cx="347.85" cy="177.64" rx="16.41" ry="13.95" fill="#dff2c2" opacity="0.85"/><ellipse cx="358.63" cy="165.46" rx="16.24" ry="13.8" fill="#dff2c2" opacity="0.85"/>
    <g><circle cx="497.58" cy="362.78" r="7.6" fill="#ffc94d" opacity="0.9"/><circle cx="491.01" cy="371.82" r="7.6" fill="#ffc94d" opacity="0.9"/><circle cx="480.39" cy="368.37" r="7.6" fill="#ffc94d" opacity="0.9"/><circle cx="480.39" cy="357.2" r="7.6" fill="#ffc94d" opacity="0.9"/><circle cx="491.01" cy="353.75" r="7.6" fill="#ffc94d" opacity="0.9"/><circle cx="488.08" cy="362.78" r="6.65" fill="#ffe9a8"/></g><g><circle cx="297.14" cy="293.98" r="5.29" fill="#ff9ecf" opacity="0.9"/><circle cx="292.57" cy="300.26" r="5.29" fill="#ff9ecf" opacity="0.9"/><circle cx="285.18" cy="297.86" r="5.29" fill="#ff9ecf" opacity="0.9"/><circle cx="285.18" cy="290.09" r="5.29" fill="#ff9ecf" opacity="0.9"/><circle cx="292.57" cy="287.69" r="5.29" fill="#ff9ecf" opacity="0.9"/><circle cx="290.53" cy="293.98" r="4.63" fill="#ffe9a8"/></g>
    
    
    <line x1="409" y1="516" x2="413" y2="516" stroke="#6b4226" stroke-width="2"/><line x1="404.5" y1="523.79" x2="406.5" y2="527.26" stroke="#6b4226" stroke-width="2"/><line x1="395.5" y1="523.79" x2="393.5" y2="527.26" stroke="#6b4226" stroke-width="2"/><line x1="391" y1="516" x2="387" y2="516" stroke="#6b4226" stroke-width="2"/><line x1="395.5" y1="508.21" x2="393.5" y2="504.74" stroke="#6b4226" stroke-width="2"/><line x1="404.5" y1="508.21" x2="406.5" y2="504.74" stroke="#6b4226" stroke-width="2"/><circle cx="400" cy="516" r="8" fill="none" stroke="#6b4226" stroke-width="3"/><circle cx="400" cy="516" r="3" fill="#6b4226"/><line x1="409" y1="516" x2="413" y2="516" stroke="#6b4226" stroke-width="2"/><line x1="404.5" y1="523.79" x2="406.5" y2="527.26" stroke="#6b4226" stroke-width="2"/><line x1="395.5" y1="523.79" x2="393.5" y2="527.26" stroke="#6b4226" stroke-width="2"/><line x1="391" y1="516" x2="387" y2="516" stroke="#6b4226" stroke-width="2"/><line x1="395.5" y1="508.21" x2="393.5" y2="504.74" stroke="#6b4226" stroke-width="2"/><line x1="404.5" y1="508.21" x2="406.5" y2="504.74" stroke="#6b4226" stroke-width="2"/><circle cx="400" cy="516" r="8" fill="none" stroke="#6b4226" stroke-width="3"/><circle cx="400" cy="516" r="3" fill="#6b4226"/><line x1="409" y1="516" x2="413" y2="516" stroke="#6b4226" stroke-width="2"/><line x1="404.5" y1="523.79" x2="406.5" y2="527.26" stroke="#6b4226" stroke-width="2"/><line x1="395.5" y1="523.79" x2="393.5" y2="527.26" stroke="#6b4226" stroke-width="2"/><line x1="391" y1="516" x2="387" y2="516" stroke="#6b4226" stroke-width="2"/><line x1="395.5" y1="508.21" x2="393.5" y2="504.74" stroke="#6b4226" stroke-width="2"/><line x1="404.5" y1="508.21" x2="406.5" y2="504.74" stroke="#6b4226" stroke-width="2"/><circle cx="400" cy="516" r="8" fill="none" stroke="#6b4226" stroke-width="3"/><circle cx="400" cy="516" r="3" fill="#6b4226"/><line x1="409" y1="516" x2="413" y2="516" stroke="#6b4226" stroke-width="2"/><line x1="404.5" y1="523.79" x2="406.5" y2="527.26" stroke="#6b4226" stroke-width="2"/><line x1="395.5" y1="523.79" x2="393.5" y2="527.26" stroke="#6b4226" stroke-width="2"/><line x1="391" y1="516" x2="387" y2="516" stroke="#6b4226" stroke-width="2"/><line x1="395.5" y1="508.21" x2="393.5" y2="504.74" stroke="#6b4226" stroke-width="2"/><line x1="404.5" y1="508.21" x2="406.5" y2="504.74" stroke="#6b4226" stroke-width="2"/><circle cx="400" cy="516" r="8" fill="none" stroke="#6b4226" stroke-width="3"/><circle cx="400" cy="516" r="3" fill="#6b4226"/><line x1="430.23" y1="456.88" x2="434.23" y2="456.88" stroke="#6b4226" stroke-width="2"/><line x1="425.73" y1="464.67" x2="427.73" y2="468.13" stroke="#6b4226" stroke-width="2"/><line x1="416.73" y1="464.67" x2="414.73" y2="468.13" stroke="#6b4226" stroke-width="2"/><line x1="412.23" y1="456.88" x2="408.23" y2="456.88" stroke="#6b4226" stroke-width="2"/><line x1="416.73" y1="449.08" x2="414.73" y2="445.62" stroke="#6b4226" stroke-width="2"/><line x1="425.73" y1="449.08" x2="427.73" y2="445.62" stroke="#6b4226" stroke-width="2"/><circle cx="421.23" cy="456.88" r="8" fill="none" stroke="#6b4226" stroke-width="3"/><circle cx="421.23" cy="456.88" r="3" fill="#6b4226"/><line x1="430.23" y1="456.88" x2="434.23" y2="456.88" stroke="#6b4226" stroke-width="2"/><line x1="425.73" y1="464.67" x2="427.73" y2="468.13" stroke="#6b4226" stroke-width="2"/><line x1="416.73" y1="464.67" x2="414.73" y2="468.13" stroke="#6b4226" stroke-width="2"/><line x1="412.23" y1="456.88" x2="408.23" y2="456.88" stroke="#6b4226" stroke-width="2"/><line x1="416.73" y1="449.08" x2="414.73" y2="445.62" stroke="#6b4226" stroke-width="2"/><line x1="425.73" y1="449.08" x2="427.73" y2="445.62" stroke="#6b4226" stroke-width="2"/><circle cx="421.23" cy="456.88" r="8" fill="none" stroke="#6b4226" stroke-width="3"/><circle cx="421.23" cy="456.88" r="3" fill="#6b4226"/><line x1="428.04" y1="441.21" x2="432.04" y2="441.21" stroke="#6b4226" stroke-width="2"/><line x1="423.54" y1="449" x2="425.54" y2="452.47" stroke="#6b4226" stroke-width="2"/><line x1="414.54" y1="449" x2="412.54" y2="452.47" stroke="#6b4226" stroke-width="2"/><line x1="410.04" y1="441.21" x2="406.04" y2="441.21" stroke="#6b4226" stroke-width="2"/><line x1="414.54" y1="433.41" x2="412.54" y2="429.95" stroke="#6b4226" stroke-width="2"/><line x1="423.54" y1="433.41" x2="425.54" y2="429.95" stroke="#6b4226" stroke-width="2"/><circle cx="419.04" cy="441.21" r="8" fill="none" stroke="#6b4226" stroke-width="3"/><circle cx="419.04" cy="441.21" r="3" fill="#6b4226"/><line x1="428.04" y1="441.21" x2="432.04" y2="441.21" stroke="#6b4226" stroke-width="2"/><line x1="423.54" y1="449" x2="425.54" y2="452.47" stroke="#6b4226" stroke-width="2"/><line x1="414.54" y1="449" x2="412.54" y2="452.47" stroke="#6b4226" stroke-width="2"/><line x1="410.04" y1="441.21" x2="406.04" y2="441.21" stroke="#6b4226" stroke-width="2"/><line x1="414.54" y1="433.41" x2="412.54" y2="429.95" stroke="#6b4226" stroke-width="2"/><line x1="423.54" y1="433.41" x2="425.54" y2="429.95" stroke="#6b4226" stroke-width="2"/><circle cx="419.04" cy="441.21" r="8" fill="none" stroke="#6b4226" stroke-width="3"/><circle cx="419.04" cy="441.21" r="3" fill="#6b4226"/><line x1="428.04" y1="441.21" x2="432.04" y2="441.21" stroke="#6b4226" stroke-width="2"/><line x1="423.54" y1="449" x2="425.54" y2="452.47" stroke="#6b4226" stroke-width="2"/><line x1="414.54" y1="449" x2="412.54" y2="452.47" stroke="#6b4226" stroke-width="2"/><line x1="410.04" y1="441.21" x2="406.04" y2="441.21" stroke="#6b4226" stroke-width="2"/><line x1="414.54" y1="433.41" x2="412.54" y2="429.95" stroke="#6b4226" stroke-width="2"/><line x1="423.54" y1="433.41" x2="425.54" y2="429.95" stroke="#6b4226" stroke-width="2"/><circle cx="419.04" cy="441.21" r="8" fill="none" stroke="#6b4226" stroke-width="3"/><circle cx="419.04" cy="441.21" r="3" fill="#6b4226"/><line x1="428.04" y1="441.21" x2="432.04" y2="441.21" stroke="#6b4226" stroke-width="2"/><line x1="423.54" y1="449" x2="425.54" y2="452.47" stroke="#6b4226" stroke-width="2"/><line x1="414.54" y1="449" x2="412.54" y2="452.47" stroke="#6b4226" stroke-width="2"/><line x1="410.04" y1="441.21" x2="406.04" y2="441.21" stroke="#6b4226" stroke-width="2"/><line x1="414.54" y1="433.41" x2="412.54" y2="429.95" stroke="#6b4226" stroke-width="2"/><line x1="423.54" y1="433.41" x2="425.54" y2="429.95" stroke="#6b4226" stroke-width="2"/><circle cx="419.04" cy="441.21" r="8" fill="none" stroke="#6b4226" stroke-width="3"/><circle cx="419.04" cy="441.21" r="3" fill="#6b4226"/>
  </svg>