<svg xmlns="http://www.w3.org/2000/svg" width="800" height="600" viewBox="0 0 800 600">
    <defs>
      <linearGradient id="sky" x1="0" y1="0" x2="0" y2="1">
        <stop offset="0" stop-color="#fdf6e3"/>
        <stop offset="1" stop-color="#f6e2b3"/>
      </linearGradient>
    </defs>
    <rect x="0" y="0" width="800" height="600" fill="url(#sky)"/>
    <ellipse cx="400" cy="534" rx="105" ry="14" fill="#c9a267" opacity="0.6"/>
    <path d="M 330,526 L 342,560 L 458,560 L 470,526 Z" fill="#a85f3c"/>
    <rect x="326" y="520" width="148" height="10" rx="3" fill="#8a4a2e"/>
    <path d="M 409.99,515.49 L 408.81,499.71 L 389.56,500.7 L 390.01,516.51 Z" fill="#5b3a24"/><path d="M 408.27,496.99 L 402.66,482.2 L 385.18,488.38 L 390.1,503.41 Z" fill="#5b3a24"/><path d="M 403.15,484.44 L 401.34,468.72 L 383.6,470.35 L 384.69,486.14 Z" fill="#5b3a24"/><path d="M 401.3,468.31 L 398.76,452.69 L 381.83,455.04 L 383.65,470.76 Z" fill="#5b3a24"/><path d="M 398.82,453.28 L 397.37,437.53 L 381.05,438.65 L 381.77,454.45 Z" fill="#5b3a24"/><path d="M 397.34,437.18 L 395.23,421.5 L 379.69,423.23 L 381.08,438.99 Z" fill="#5b3a24"/><path d="M 394.84,419.78 L 389.27,404.97 L 375.2,409.9 L 380.08,424.95 Z" fill="#5b3a24"/><path d="M 389.68,407.12 L 388.65,391.33 L 374.48,391.93 L 374.78,407.75 Z" fill="#5b3a24"/><path d="M 388.5,390.16 L 384.86,374.76 L 371.7,377.56 L 374.63,393.11 Z" fill="#5b3a24"/><path d="M 384.55,373.73 L 378.49,359.11 L 366.63,363.71 L 372,378.59 Z" fill="#5b3a24"/><path d="M 378.55,359.27 L 372.9,344.5 L 361.6,348.53 L 366.56,363.55 Z" fill="#5b3a24"/><path d="M 373.04,344.97 L 368.62,329.78 L 357.73,332.68 L 361.45,348.06 Z" fill="#5b3a24"/><path d="M 368.81,331.22 L 368.42,315.4 L 357.88,315.42 L 357.54,331.24 Z" fill="#5b3a24"/><path d="M 368.27,316.65 L 371.65,301.19 L 362.11,298.88 L 358.03,314.17 Z" fill="#5b3a24"/><path d="M 371.79,299.96 L 371.19,284.15 L 362.1,284.29 L 361.97,300.11 Z" fill="#5b3a24"/><path d="M 371,282.91 L 366.08,267.87 L 358.07,270.28 L 362.29,285.53 Z" fill="#5b3a24"/><path d="M 365.87,267.32 L 358.89,253.12 L 351.96,256.33 L 358.28,270.83 Z" fill="#5b3a24"/><path d="M 359.17,253.99 L 355.76,238.54 L 348.98,239.87 L 351.68,255.46 Z" fill="#5b3a24"/><path d="M 355.7,238.29 L 351.14,223.13 L 345.18,224.78 L 349.04,240.12 Z" fill="#5b3a24"/><path d="M 351.1,222.99 L 345.8,208.08 L 340.62,209.79 L 345.23,224.92 Z" fill="#5b3a24"/><path d="M 345.85,208.27 L 341.66,193.01 L 337.08,194.16 L 340.56,209.59 Z" fill="#5b3a24"/><path d="M 341.73,193.41 L 340.2,177.66 L 336.21,177.96 L 337.01,193.76 Z" fill="#5b3a24"/>
    <path d="M 393.14,458.39 L 447.98,421.87 L 444.06,415.65 L 387.45,449.35 Z" fill="#5b3a24"/><path d="M 448.46,421.5 L 496.53,376.45 L 493.87,373.46 L 443.58,416.02 Z" fill="#5b3a24"/><path d="M 385.96,404.59 L 346.56,355.15 L 341.24,359.21 L 378.5,410.28 Z" fill="#8a5a34"/><path d="M 346.52,355.09 L 305.94,306.61 L 302.82,309.11 L 341.29,359.27 Z" fill="#8a5a34"/><path d="M 375.44,364.24 L 419.88,317.52 L 415.57,313.3 L 369.68,358.58 Z" fill="#5b3a24"/><path d="M 420.17,317.17 L 456.98,264.24 L 453.74,261.9 L 415.27,313.65 Z" fill="#5b3a24"/><path d="M 365.99,313.57 L 330.68,260.42 L 326.17,263.35 L 360.31,317.25 Z" fill="#5b3a24"/><path d="M 331.02,261.15 L 313.07,199.92 L 309.22,201.01 L 325.84,262.61 Z" fill="#5b3a24"/><path d="M 364.4,270.5 L 395.45,219.26 L 391.42,216.79 L 359.75,267.65 Z" fill="#5b3a24"/><path d="M 395.64,218.88 L 416.98,162.89 L 413.25,161.45 L 391.23,217.17 Z" fill="#5b3a24"/><path d="M 349.76,222.64 L 334.6,204.33 L 331.46,206.93 L 346.56,225.28 Z" fill="#8a5a34"/><path d="M 334.86,204.74 L 324.43,183.39 L 320.83,185.14 L 331.2,206.52 Z" fill="#8a5a34"/>
    <ellipse cx="501.62" cy="384.58" rx="50.79" ry="41.7" fill="#4a7c3a"/><ellipse cx="511.69" cy="374.26" rx="29.26" ry="23.99" fill="#8fc76b"/><ellipse cx="504.06" cy="382.91" rx="35.36" ry="29" fill="#8fc76b"/><ellipse cx="484.32" cy="387.27" rx="32.87" ry="26.95" fill="#8fc76b"/><ellipse cx="471.76" cy="373.78" rx="34.87" ry="28.59" fill="#8fc76b"/><ellipse cx="490.11" cy="362.45" rx="38.41" ry="31.5" fill="#8fc76b"/><ellipse cx="510.13" cy="361.9" rx="30.58" ry="25.07" fill="#4a7c3a"/><ellipse cx="495.2" cy="374.96" rx="33.15" ry="27.8" fill="#8fc76b"/><ellipse cx="478.01" cy="364.27" rx="19" ry="16.15" fill="#dff2c2" opacity="0.85"/><ellipse cx="478.72" cy="366.28" rx="17.4" ry="14.79" fill="#dff2c2" opacity="0.85"/><ellipse cx="492.54" cy="360.49" rx="15.03" ry="12.77" fill="#dff2c2" opacity="0.85"/><ellipse cx="310.14" cy="316.5" rx="45.62" ry="37.45" fill="#4a7c3a"/><ellipse cx="322" cy="306.75" rx="24.97" ry="20.48" fill="#4a7c3a"/><ellipse cx="320.05" cy="320.55" rx="28.95" ry="23.74" fill="#8fc76b"/><ellipse cx="299.76" cy="317.88" rx="29.29" ry="24.02" fill="#4a7c3a"/><ellipse cx="294.14" cy="308.44" rx="26.93" ry="22.08" fill="#4a7c3a"/><ellipse cx="289.89" cy="294.82" rx="31.42" ry="25.76" fill="#8fc76b"/><ellipse cx="313.38" cy="300.33" rx="28.11" ry="23.05" fill="#8fc76b"/><ellipse cx="304.38" cy="307.86" rx="29.77" ry="24.97" fill="#8fc76b"/><ellipse cx="284.83" cy="307.49" rx="14.3" ry="12.15" fill="#dff2c2" opacity="0.85"/><ellipse cx="292.29" cy="294.64" rx="10.97" ry="9.32" fill="#dff2c2" opacity="0.85"/><ellipse cx="287.83" cy="306.64" rx="13.24" ry="11.25" fill="#dff2c2" opacity="0.85"/><ellipse cx="461.37" cy="272.08" rx="47.53" ry="39.03" fill="#4a7c3a"/><ellipse cx="477.57" cy="264.45" rx="26.24" ry="21.51" fill="#8fc76b"/><ellipse cx="464.16" cy="277.87" rx="30.85" ry="25.3" fill="#8fc76b"/><ellipse cx="450.58" cy="270.04" rx="27.3" ry="22.39" fill="#4a7c3a"/><ellipse cx="433.19" cy="259.27" rx="28.66" ry="23.5" fill="#4a7c3a"/><ellipse cx="447.97" cy="252.56" rx="33.23" ry="27.25" fill="#8fc76b"/><ellipse cx="461.62" cy="256.77" rx="26.75" ry="21.94" fill="#4a7c3a"/><ellipse cx="455.36" cy="263.07" rx="31.02" ry="26.02" fill="#8fc76b"/><ellipse cx="433.18" cy="262.98" rx="16.07" ry="13.66" fill="#dff2c2" opacity="0.85"/><ellipse cx="442.38" cy="255.6" rx="17.78" ry="15.11" fill="#dff2c2" opacity="0.85"/><ellipse cx="447.22" cy="262.68" rx="15.36" ry="13.06" fill="#dff2c2" opacity="0.85"/><ellipse cx="317.63" cy="210.19" rx="51.32" ry="42.14" fill="#4a7c3a"/><ellipse cx="329.76" cy="200.95" rx="28.42" ry="23.3" fill="#4a7c3a"/><ellipse cx="318.45" cy="215.16" rx="31.84" ry="26.11" fill="#8fc76b"/><ellipse cx="300.75" cy="209.29" rx="28.59" ry="23.44" fill="#8fc76b"/><ellipse cx="285.87" cy="198.59" rx="29.8" ry="24.44" fill="#8fc76b"/><ellipse cx="299.94" cy="187.7" rx="32.3" ry="26.48" fill="#8fc76b"/><ellipse cx="316" cy="192.8" rx="30.89" ry="25.33" fill="#4a7c3a"/><ellipse cx="311.15" cy="200.46" rx="33.49" ry="28.09" fill="#8fc76b"/><ellipse cx="300.22" cy="193.76" rx="18.32" ry="15.57" fill="#dff2c2" opacity="0.85"/><ellipse cx="292.06" cy="189.3" rx="14.46" ry="12.29" fill="#dff2c2" opacity="0.85"/><ellipse cx="301.77" cy="196.57" rx="14.43" ry="12.26" fill="#dff2c2" opacity="0.85"/><ellipse cx="421.77" cy="172.15" rx="52.65" ry="43.22" fill="#4a7c3a"/><ellipse cx="441.96" cy="157.23" rx="29.11" ry="23.87" fill="#4a7c3a"/><ellipse cx="427.79" cy="175.24" rx="30.98" ry="25.4" fill="#8fc76b"/><ellipse cx="407.11" cy="171.72" rx="37.53" ry="30.78" fill="#8fc76b"/><ellipse cx="394.78" cy="159.32" rx="32.96" ry="27.03" fill="#8fc76b"/><ellipse cx="405.91" cy="151.69" rx="33.97" ry="27.86" fill="#8fc76b"/><ellipse cx="431.78" cy="145.83" rx="27.94" ry="22.91" fill="#8fc76b"/><ellipse cx="415.12" cy="162.17" rx="34.36" ry="28.82" fill="#8fc76b"/><ellipse cx="412.74" cy="146.46" rx="18.3" ry="15.56" fill="#dff2c2" opacity="0.85"/><ellipse cx="400.37" cy="150.25" rx="19.68" ry="16.72" fill="#dff2c2" opacity="0.85"/><ellipse cx="411.41" cy="144.42" rx="16.99" ry="14.44" fill="#dff2c2" opacity="0.85"/><ellipse cx="329.87" cy="195.13" rx="57.35" ry="47.09" fill="#4a7c3a"/><ellipse cx="341.19" cy="186.74" rx="38.83" ry="31.84" fill="#8fc76b"/><ellipse cx="331.67" cy="194.58" rx="36.39" ry="29.84" fill="#8fc76b"/><ellipse cx="318.49" cy="193.08" rx="31.4" ry="25.75" fill="#8fc76b"/><ellipse cx="303.16" cy="181.4" rx="32.42" ry="26.59" fill="#8fc76b"/><ellipse cx="311.54" cy="164.26" rx="31.27" ry="25.64" fill="#8fc76b"/><ellipse cx="337.49" cy="169.48" rx="38.71" ry="31.74" fill="#4a7c3a"/><ellipse cx="322.63" cy="184.26" rx="37.43" ry="31.39" fill="#8fc76b"/><ellipse cx="316.85" cy="174.47" rx="16.77" ry="14.26" fill="#dff2c2" opacity="0.85"/><ellipse cx="312.25" cy="167.93" rx="18.58" ry="15.79" fill="#dff2c2" opacity="0.85"/><ellipse cx="310.81" cy="181.45" rx="15.29" ry="12.99" fill="#dff2c2" opacity="0.85"/><ellipse cx="344.66" cy="187.5" rx="51.11" ry="41.96" fill="#4a7c3a"/><ellipse cx="358.67" cy="175.5" rx="37.13" ry="30.45" fill="#8fc76b"/><ellipse cx="351.92" cy="189.34" rx="29.31" ry="24.03" fill="#8fc76b"/><ellipse cx="333" cy="185.9" rx="27.21" ry="22.31" fill="#8fc76b"/><ellipse cx="312.81" cy="179.84" rx="36.03" ry="29.54" fill="#8fc76b"/><ellipse cx="325.9" cy="164.83" rx="32.13" ry="26.35" fill="#8fc76b"/><ellipse cx="343.74" cy="168.86" rx="30.92" ry="25.35" fill="#8fc76b"/><ellipse cx="338.2" cy="177.81" rx="33.35" ry="27.97" fill="#8fc76b"/><ellipse cx="333.13" cy="167.43" rx="15.76" ry="13.4" fill="#dff2c2" opacity="0.85"/><ellipse cx="335.24" cy="165.54" rx="14.01" ry="11.91" fill="#dff2c2" opacity="0.85"/><ellipse cx="320.68" cy="169.72" rx="19.32" ry="16.42" fill="#dff2c2" opacity="0.85"/>
    <g><circle cx="462.05" cy="346.53" r="7.6" fill="#ff9ecf" opacity="0.9"/><circle cx="455.49" cy="355.56" r="7.6" fill="#ff9ecf" opacity="0.9"/><circle cx="444.87" cy="352.11" r="7.6" fill="#ff9ecf" opacity="0.9"/><circle cx="444.87" cy="340.94" r="7.6" fill="#ff9ecf" opacity="0.9"/><circle cx="455.49" cy="337.49" r="7.6" fill="#ff9ecf" opacity="0.9"/><circle cx="452.55" cy="346.53" r="6.65" fill="#ffe9a8"/></g><g><circle cx="466.39" cy="350.53" r="6.26" fill="#ffc94d" opacity="0.9"/><circle cx="460.98" cy="357.98" r="6.26" fill="#ffc94d" opacity="0.9"/><circle cx="452.23" cy="355.13" r="6.26" fill="#ffc94d" opacity="0.9"/><circle cx="452.23" cy="345.93" r="6.26" fill="#ffc94d" opacity="0.9"/><circle cx="460.98" cy="343.09" r="6.26" fill="#ffc94d" opacity="0.9"/><circle cx="458.56" cy="350.53" r="5.48" fill="#ffe9a8"/></g>
    
    
    <line x1="409" y1="516" x2="413" y2="516" stroke="#6b4226" stroke-width="2"/><line x1="404.5" y1="523.79" x2="406.5" y2="527.26" stroke="#6b4226" stroke-width="2"/><line x1="395.5" y1="523.79" x2="393.5" y2="527.26" stroke="#6b4226" stroke-width="2"/><line x1="391" y1="516" x2="387" y2="516" stroke="#6b4226" stroke-width="2"/><line x1="395.5" y1="508.21" x2="393.5" y2="504.74" stroke="#6b4226" stroke-width="2"/><line x1="404.5" y1="508.21" x2="406.5" y2="504.74" stroke="#6b4226" stroke-width="2"/><circle cx="400" cy="516" r="8" fill="none" stroke="#6b4226" stroke-width="3"/><circle cx="400" cy="516" r="3" fill="#6b4226"/><line x1="409" y1="516" x2="413" y2="516" stroke="#6b4226" stroke-width="2"/><line x1="404.5" y1="523.79" x2="406.5" y2="527.26" stroke="#6b4226" stroke-width="2"/><line x1="395.5" y1="523.79" x2="393.5" y2="527.26" stroke="#6b4226" stroke-width="2"/><line x1="391" y1="516" x2="387" y2="516" stroke="#6b4226" stroke-width="2"/><line x1="395.5" y1="508.21" x2="393.5" y2="504.74" stroke="#6b4226" stroke-width="2"/><line x1="404.5" y1="508.21" x2="406.5" y2="504.74" stroke="#6b4226" stroke-width="2"/><circle cx="400" cy="516" r="8" fill="none" stroke="#6b4226" stroke-width="3"/><circle cx="400" cy="516" r="3" fill="#6b4226"/><line x1="409" y1="516" x2="413" y2="516" stroke="#6b4226" stroke-width="2"/><line x1="404.5" y1="523.79" x2="406.5" y2="527.26" stroke="#6b4226" stroke-width="2"/><line x1="395.5" y1="523.79" x2="393.5" y2="527.26" stroke="#6b4226" stroke-width="2"/><line x1="391" y1="516" x2="387" y2="516" stroke="#6b4226" stroke-width="2"/><line x1="395.5" y1="508.21" x2="393.5" y2="504.74" stroke="#6b4226" stroke-width="2"/><line x1="404.5" y1="508.21" x2="406.5" y2="504.74" stroke="#6b4226" stroke-width="2"/><circle cx="400" cy="516" r="8" fill="none" stroke="#6b4226" stroke-width="3"/><circle cx="400" cy="516" r="3" fill="#6b4226"/><line x1="409" y1="516" x2="413" y2="516" stroke="#6b4226" stroke-width="2"/><line x1="404.5" y1="523.79" x2="406.5" y2="527.26" stroke="#6b4226" stroke-width="2"/><line x1="395.5" y1="523.79" x2="393.5" y2="527.26" stroke="#6b4226" stroke-width="2"/><line x1="391" y1="516" x2="387" y2="516" stroke="#6b4226" stroke-width="2"/><line x1="395.5" y1="508.21" x2="393.5" y2="504.74" stroke="#6b4226" stroke-width="2"/><line x1="404.5" y1="508.21" x2="406.5" y2="504.74" stroke="#6b4226" stroke-width="2"/><circle cx="400" cy="516" r="8" fill="none" stroke="#6b4226" stroke-width="3"/><circle cx="400" cy="516" r="3" fill="#6b4226"/><line x1="408.19" y1="500.2" x2="412.19" y2="500.2" stroke="#6b4226" stroke-width="2"/><line x1="403.69" y1="508" x2="405.69" y2="511.46" stroke="#6b4226" stroke-width="2"/><line x1="394.69" y1="508" x2="392.69" y2="511.46" stroke="#6b4226" stroke-width="2"/><line x1="390.19" y1="500.2" x2="386.19" y2="500.2" stroke="#6b4226" stroke-width="2"/><line x1="394.69" y1="492.41" x2="392.69" y2="488.94" stroke="#6b4226" stroke-width="2"/><line x1="403.69" y1="492.41" x2="405.69" y2="488.94" stroke="#6b4226" stroke-width="2"/><circle cx="399.19" cy="500.2" r="8" fill="none" stroke="#6b4226" stroke-width="3"/><circle cx="399.19" cy="500.2" r="3" fill="#6b4226"/><line x1="408.19" y1="500.2" x2="412.19" y2="500.2" stroke="#6b4226" stroke-width="2"/><line x1="403.69" y1="508" x2="405.69" y2="511.46" stroke="#6b4226" stroke-width="2"/><line x1="394.69" y1="508" x2="392.69" y2="511.46" stroke="#6b4226" stroke-width="2"/><line x1="390.19" y1="500.2" x2="386.19" y2="500.2" stroke="#6b4226" stroke-width="2"/><line x1="394.69" y1="492.41" x2="392.69" y2="488.94" stroke="#6b4226" stroke-width="2"/><line x1="403.69" y1="492.41" x2="405.69" y2="488.94" stroke="#6b4226" stroke-width="2"/><circle cx="399.19" cy="500.2" r="8" fill="none" stroke="#6b4226" stroke-width="3"/><circle cx="399.19" cy="500.2" r="3" fill="#6b4226"/><line x1="408.19" y1="500.2" x2="412.19" y2="500.2" stroke="#6b4226" stroke-width="2"/><line x1="403.69" y1="508" x2="405.69" y2="511.46" stroke="#6b4226" stroke-width="2"/><line x1="394.69" y1="508" x2="392.69" y2="511.46" stroke="#6b4226" stroke-width="2"/><line x1="390.19" y1="500.2" x2="386.19" y2="500.2" stroke="#6b4226" stroke-width="2"/><line x1="394.69" y1="492.41" x2="392.69" y2="488.94" stroke="#6b4226" stroke-width="2"/><line x1="403.69" y1="492.41" x2="405.69" y2="488.94" stroke="#6b4226" stroke-width="2"/><circle cx="399.19" cy="500.2" r="8" fill="none" stroke="#6b4226" stroke-width="3"/><circle cx="399.19" cy="500.2" r="3" fill="#6b4226"/><line x1="408.19" y1="500.2" x2="412.19" y2="500.2" stroke="#6b4226" stroke-width="2"/><line x1="403.69" y1="508" x2="405.69" y2="511.46" stroke="#6b4226" stroke-width="2"/><line x1="394.69" y1="508" x2="392.69" y2="511.46" stroke="#6b4226" stroke-width="2"/><line x1="390.19" y1="500.2" x2="386.19" y2="500.2" stroke="#6b4226" stroke-width="2"/><line x1="394.69" y1="492.41" x2="392.69" y2="488.94" stroke="#6b4226" stroke-width="2"/><line x1="403.69" y1="492.41" x2="405.69" y2="488.94" stroke="#6b4226" stroke-width="2"/><circle cx="399.19" cy="500.2" r="8" fill="none" stroke="#6b4226" stroke-width="3"/><circle cx="399.19" cy="500.2" r="3" fill="#6b4226"/><line x1="408.19" y1="500.2" x2="412.19" y2="500.2" stroke="#6b4226" stroke-width="2"/><line x1="403.69" y1="508" x2="405.69" y2="511.46" stroke="#6b4226" stroke-width="2"/><line x1="394.69" y1="508" x2="392.69" y2="511.46" stroke="#6b4226" stroke-width="2"/><line x1="390.19" y1="500.2" x2="386.19" y2="500.2" stroke="#6b4226" stroke-width="2"/><line x1="394.69" y1="492.41" x2="392.69" y2="488.94" stroke="#6b4226" stroke-width="2"/><line x1="403.69" y1="492.41" x2="405.69" y2="488.94" stroke="#6b4226" stroke-width="2"/><circle cx="399.19" cy="500.2" r="8" fill="none" stroke="#6b4226" stroke-width="3"/><circle cx="399.19" cy="500.2" r="3" fill="#6b4226"/><line x1="408.19" y1="500.2" x2="412.19" y2="500.2" stroke="#6b4226" stroke-width="2"/><line x1="403.69" y1="508" x2="405.69" y2="511.46" stroke="#6b4226" stroke-width="2"/><line x1="394.69" y1="508" x2="392.69" y2="511.46" stroke="#6b4226" stroke-width="2"/><line x1="390.19" y1="500.2" x2="386.19" y2="500.2" stroke="#6b4226" stroke-width="2"/><line x1="394.69" y1="492.41" x2="392.69" y2="488.94" stroke="#6b4226" stroke-width="2"/><line x1="403.69" y1="492.41" x2="405.69" y2="488.94" stroke="#6b4226" stroke-width="2"/><circle cx="399.19" cy="500.2" r="8" fill="none" stroke="#6b4226" stroke-width="3"/><circle cx="399.19" cy="500.2" r="3" fill="#6b4226"/>
  </svg>