<svg xmlns="http://www.w3.org/2000/svg" width="800" height="600" viewBox="0 0 800 600">
    <defs>
      <linearGradient id="sky" x1="0" y1="0" x2="0" y2="1">
        <stop offset="0" stop-color="#fdf6e3"/>
        <stop offset="1" stop-color="#f6e2b3"/>
      </linearGradient>
    </defs>
    <rect x="0" y="0" width="800" height="600" fill="url(#sky)"/>
    <ellipse cx="400" cy="534" rx="105" ry="14" fill="#c9a267" opacity="0.6"/>
    <path d="M 330,526 L 342,560 L 458,560 L 470,526 Z" fill="#a85f3c"/>
    <rect x="326" y="520" width="148" height="10" rx="3" fill="#8a4a2e"/>
    <path d="M 409.89,514.54 L 407.23,498.95 L 388.16,501.75 L 390.11,517.46 Z" fill="#5b3a24"/><path d="M 407.33,500.15 L 406.64,484.35 L 388.1,484.73 L 388.06,500.55 Z" fill="#5b3a24"/><path d="M 406.64,484.87 L 406.85,469.05 L 389.04,468.4 L 388.11,484.2 Z" fill="#5b3a24"/><path d="M 406.86,468.78 L 406.59,452.96 L 389.5,452.86 L 389.04,468.67 Z" fill="#5b3a24"/><path d="M 406.59,452.74 L 405.9,436.93 L 389.54,437.26 L 389.5,453.08 Z" fill="#5b3a24"/><path d="M 405.7,435.29 L 401.86,419.94 L 386.61,423.39 L 389.74,438.9 Z" fill="#5b3a24"/><path d="M 401.85,419.89 L 397.9,404.57 L 383.38,407.96 L 386.62,423.45 Z" fill="#5b3a24"/><path d="M 397.45,403.23 L 390.67,388.93 L 377.72,394.7 L 383.83,409.3 Z" fill="#5b3a24"/><path d="M 391.16,390.47 L 387.8,375.01 L 374.59,377.56 L 377.24,393.16 Z" fill="#5b3a24"/><path d="M 387.8,375.04 L 384.51,359.56 L 372,361.92 L 374.58,377.53 Z" fill="#5b3a24"/><path d="M 384.17,358.39 L 377.98,343.83 L 366.83,348.27 L 372.34,363.1 Z" fill="#5b3a24"/><path d="M 378.4,345.8 L 377.38,330.01 L 366.12,330.47 L 366.41,346.29 Z" fill="#5b3a24"/><path d="M 377.15,328.6 L 372.19,313.57 L 362.1,316.64 L 366.36,331.88 Z" fill="#5b3a24"/><path d="M 371.95,312.94 L 365.12,298.67 L 356.17,302.71 L 362.34,317.28 Z" fill="#5b3a24"/><path d="M 365.47,299.82 L 362.3,284.32 L 353.35,285.94 L 355.81,301.57 Z" fill="#5b3a24"/><path d="M 362.36,284.82 L 360.94,269.06 L 352.6,269.62 L 353.29,285.43 Z" fill="#5b3a24"/><path d="M 360.95,269.37 L 360.68,253.55 L 353.04,253.5 L 352.59,269.32 Z" fill="#5b3a24"/><path d="M 360.68,253.41 L 359.85,237.61 L 352.94,237.81 L 353.04,253.64 Z" fill="#5b3a24"/><path d="M 359.79,237.05 L 356.4,221.6 L 350.33,222.78 L 353.01,238.38 Z" fill="#5b3a24"/><path d="M 356.4,221.61 L 353.08,206.14 L 347.72,207.16 L 350.33,222.77 Z" fill="#5b3a24"/><path d="M 353.13,206.7 L 353.04,190.87 L 348.31,190.79 L 347.68,206.6 Z" fill="#5b3a24"/><path d="M 353.04,190.88 L 353,175.06 L 349,174.98 L 348.31,190.79 Z" fill="#5b3a24"/>
    <path d="M 401.81,456.71 L 444.34,412.21 L 439.17,406.99 L 394.28,449.11 Z" fill="#8a5a34"/><path d="M 444.86,411.56 L 476.32,358.66 L 472.94,356.52 L 438.65,407.64 Z" fill="#8a5a34"/><path d="M 393.03,402.23 L 340.28,372.58 L 336.87,378.34 L 388.25,410.3 Z" fill="#5b3a24"/><path d="M 340.49,372.71 L 290.09,339.24 L 287.8,342.52 L 336.66,378.2 Z" fill="#5b3a24"/><path d="M 380.83,363.85 L 426.38,324.71 L 422.52,320.06 L 375.68,357.64 Z" fill="#8a5a34"/><path d="M 426.94,324.09 L 460.03,273.98 L 456.73,271.72 L 421.96,320.68 Z" fill="#8a5a34"/><path d="M 369.79,312.99 L 332.13,267.16 L 327.94,270.52 L 364.51,317.22 Z" fill="#8a5a34"/><path d="M 331.75,266.77 L 285.58,229.52 L 283.03,232.6 L 328.32,270.92 Z" fill="#8a5a34"/><path d="M 358.82,271.14 L 397.58,226.49 L 394.03,223.37 L 354.72,267.54 Z" fill="#8a5a34"/><path d="M 397.63,226.43 L 434.93,180.56 L 431.84,178.02 L 393.98,223.43 Z" fill="#8a5a34"/><path d="M 354.8,220.7 L 309.51,176.97 L 306.68,179.9 L 351.92,223.68 Z" fill="#8a5a34"/><path d="M 309.78,177.29 L 274.36,125.24 L 271.05,127.49 L 306.41,179.58 Z" fill="#8a5a34"/>
    <ellipse cx="481.05" cy="367.22" rx="50.81" ry="41.71" fill="#4a7c3a"/><ellipse cx="492.78" cy="360.02" rx="33.07" ry="27.12" fill="#4a7c3a"/><ellipse cx="486.72" cy="367.05" rx="34.26" ry="28.1" fill="#8fc76b"/><ellipse cx="464.13" cy="366.33" rx="31.88" ry="26.14" fill="#8fc76b"/><ellipse cx="454.7" cy="355.94" rx="30.8" ry="25.26" fill="#8fc76b"/><ellipse cx="461.41" cy="347.35" rx="26.78" ry="21.96" fill="#4a7c3a"/><ellipse cx="481.64" cy="342.31" rx="38.44" ry="31.52" fill="#8fc76b"/><ellipse cx="474.63" cy="357.59" rx="33.16" ry="27.81" fill="#8fc76b"/><ellipse cx="464.66" cy="346.23" rx="12.82" ry="10.9" fill="#dff2c2" opacity="0.85"/><ellipse cx="455.71" cy="352.86" rx="12.3" ry="10.46" fill="#dff2c2" opacity="0.85"/><ellipse cx="473.29" cy="346.52" rx="18.61" ry="15.82" fill="#dff2c2" opacity="0.85"/><ellipse cx="296.38" cy="352.04" rx="58.9" ry="48.36" fill="#4a7c3a"/><ellipse cx="314.31" cy="345.59" rx="33.13" ry="27.17" fill="#4a7c3a"/><ellipse cx="296.85" cy="350.96" rx="35.21" ry="28.88" fill="#8fc76b"/><ellipse cx="269.39" cy="358.79" rx="37.03" ry="30.37" fill="#8fc76b"/><ellipse cx="275.09" cy="342.91" rx="44.58" ry="36.55" fill="#8fc76b"/><ellipse cx="281.24" cy="332.65" rx="44.29" ry="36.32" fill="#8fc76b"/><ellipse cx="293.79" cy="330.42" rx="37.99" ry="31.15" fill="#8fc76b"/><ellipse cx="288.94" cy="340.88" rx="38.44" ry="32.24" fill="#8fc76b"/><ellipse cx="279.86" cy="338.24" rx="16.19" ry="13.76" fill="#dff2c2" opacity="0.85"/><ellipse cx="277.44" cy="325.09" rx="14.37" ry="12.21" fill="#dff2c2" opacity="0.85"/><ellipse cx="265.22" cy="336.38" rx="18.92" ry="16.08" fill="#dff2c2" opacity="0.85"/><ellipse cx="465.5" cy="283.54" rx="56.41" ry="46.31" fill="#4a7c3a"/><ellipse cx="472.83" cy="274.75" rx="31.32" ry="25.68" fill="#8fc76b"/><ellipse cx="464.12" cy="284.52" rx="31.02" ry="25.44" fill="#8fc76b"/><ellipse cx="446.17" cy="288.56" rx="31.94" ry="26.19" fill="#4a7c3a"/><ellipse cx="441.15" cy="274.19" rx="33.13" ry="27.16" fill="#4a7c3a"/><ellipse cx="446.89" cy="260.12" rx="36.78" ry="30.16" fill="#8fc76b"/><ellipse cx="466.5" cy="266.3" rx="38.29" ry="31.4" fill="#8fc76b"/><ellipse cx="458.38" cy="272.85" rx="36.81" ry="30.88" fill="#8fc76b"/><ellipse cx="437.11" cy="263.56" rx="18.14" ry="15.42" fill="#dff2c2" opacity="0.85"/><ellipse cx="453.94" cy="260.56" rx="21.08" ry="17.92" fill="#dff2c2" opacity="0.85"/><ellipse cx="442.32" cy="272.77" rx="14.5" ry="12.32" fill="#dff2c2" opacity="0.85"/><ellipse cx="291.69" cy="242.13" rx="58.44" ry="47.98" fill="#4a7c3a"/><ellipse cx="296.73" cy="233.09" rx="41.39" ry="33.94" fill="#4a7c3a"/><ellipse cx="291.07" cy="248.3" rx="33.12" ry="27.16" fill="#4a7c3a"/><ellipse cx="271.26" cy="244.43" rx="42.39" ry="34.76" fill="#4a7c3a"/><ellipse cx="269.82" cy="232.72" rx="40.85" ry="33.5" fill="#8fc76b"/><ellipse cx="278.42" cy="216.84" rx="43.14" ry="35.38" fill="#4a7c3a"/><ellipse cx="299.22" cy="216.88" rx="40.15" ry="32.92" fill="#4a7c3a"/><ellipse cx="284.31" cy="231.06" rx="38.14" ry="31.99" fill="#8fc76b"/><ellipse cx="266.61" cy="225.74" rx="14.67" ry="12.47" fill="#dff2c2" opacity="0.85"/><ellipse cx="271.57" cy="221.16" rx="15.89" ry="13.51" fill="#dff2c2" opacity="0.85"/><ellipse cx="273.21" cy="221.61" rx="15.38" ry="13.07" fill="#dff2c2" opacity="0.85"/><ellipse cx="439.06" cy="187.8" rx="44.92" ry="36.88" fill="#4a7c3a"/><ellipse cx="453.72" cy="179.46" rx="32.81" ry="26.91" fill="#8fc76b"/><ellipse cx="438.84" cy="192.95" rx="26.95" ry="22.1" fill="#4a7c3a"/><ellipse cx="424.79" cy="190.69" rx="27.73" ry="22.74" fill="#8fc76b"/><ellipse cx="423.03" cy="181.17" rx="31.64" ry="25.95" fill="#8fc76b"/><ellipse cx="429.06" cy="172.69" rx="28.12" ry="23.06" fill="#8fc76b"/><ellipse cx="438.44" cy="168.02" rx="32.65" ry="26.78" fill="#4a7c3a"/><ellipse cx="433.39" cy="179.29" rx="29.32" ry="24.59" fill="#8fc76b"/><ellipse cx="425.42" cy="167.7" rx="12.52" ry="10.64" fill="#dff2c2" opacity="0.85"/><ellipse cx="418.43" cy="170.82" rx="13.78" ry="11.71" fill="#dff2c2" opacity="0.85"/><ellipse cx="426.92" cy="170.03" rx="16.54" ry="14.06" fill="#dff2c2" opacity="0.85"/><ellipse cx="279.17" cy="136.06" rx="51.17" ry="42.01" fill="#4a7c3a"/><ellipse cx="291.24" cy="127.14" rx="27.93" ry="22.9" fill="#8fc76b"/><ellipse cx="280.69" cy="134.28" rx="36.74" ry="30.13" fill="#8fc76b"/><ellipse cx="256.16" cy="141.12" rx="31.65" ry="25.95" fill="#4a7c3a"/><ellipse cx="247.9" cy="129.92" rx="27.38" ry="22.45" fill="#8fc76b"/><ellipse cx="255.93" cy="113.13" rx="29.67" ry="24.33" fill="#8fc76b"/><ellipse cx="281.85" cy="110.05" rx="33.49" ry="27.46" fill="#4a7c3a"/><ellipse cx="272.71" cy="126.36" rx="33.39" ry="28.01" fill="#8fc76b"/><ellipse cx="262.38" cy="122.97" rx="18.51" ry="15.74" fill="#dff2c2" opacity="0.85"/><ellipse cx="259.25" cy="113.98" rx="14.48" ry="12.31" fill="#dff2c2" opacity="0.85"/><ellipse cx="253.45" cy="116.15" rx="16.01" ry="13.61" fill="#dff2c2" opacity="0.85"/><ellipse cx="358.21" cy="185.83" rx="57.08" ry="46.87" fill="#4a7c3a"/><ellipse cx="370.25" cy="171.39" rx="37.18" ry="30.49" fill="#8fc76b"/><ellipse cx="362.15" cy="194.64" rx="37.9" ry="31.08" fill="#8fc76b"/><ellipse cx="337.85" cy="193.89" rx="33.77" ry="27.69" fill="#4a7c3a"/><ellipse cx="335.67" cy="174.84" rx="38.06" ry="31.21" fill="#8fc76b"/><ellipse cx="346.1" cy="163.61" rx="41.38" ry="33.93" fill="#8fc76b"/><ellipse cx="360.43" cy="163.78" rx="39.52" ry="32.41" fill="#8fc76b"/><ellipse cx="351" cy="175.02" rx="37.25" ry="31.24" fill="#8fc76b"/><ellipse cx="334.74" cy="169.32" rx="16.39" ry="13.93" fill="#dff2c2" opacity="0.85"/><ellipse cx="325.65" cy="169.29" rx="20.84" ry="17.71" fill="#dff2c2" opacity="0.85"/><ellipse cx="332.49" cy="167.09" rx="15.85" ry="13.47" fill="#dff2c2" opacity="0.85"/>
    <g><circle cx="441.49" cy="329.16" r="7.6" fill="#ffc94d" opacity="0.9"/><circle cx="434.92" cy="338.2" r="7.6" fill="#ffc94d" opacity="0.9"/><circle cx="424.3" cy="334.74" r="7.6" fill="#ffc94d" opacity="0.9"/><circle cx="424.3" cy="323.58" r="7.6" fill="#ffc94d" opacity="0.9"/><circle cx="434.92" cy="320.13" r="7.6" fill="#ffc94d" opacity="0.9"/><circle cx="431.99" cy="329.16" r="6.65" fill="#ffe9a8"/></g><g><circle cx="447.04" cy="333.17" r="7.23" fill="#ffc94d" opacity="0.9"/><circle cx="440.79" cy="341.77" r="7.23" fill="#ffc94d" opacity="0.9"/><circle cx="430.68" cy="338.48" r="7.23" fill="#ffc94d" opacity="0.9"/><circle cx="430.68" cy="327.85" r="7.23" fill="#ffc94d" opacity="0.9"/><circle cx="440.79" cy="324.56" r="7.23" fill="#ffc94d" opacity="0.9"/><circle cx="438" cy="333.17" r="6.33" fill="#ffe9a8"/></g>
    
    
    <line x1="409" y1="516" x2="413" y2="516" stroke="#6b4226" stroke-width="2"/><line x1="404.5" y1="523.79" x2="406.5" y2="527.26" stroke="#6b4226" stroke-width="2"/><line x1="395.5" y1="523.79" x2="393.5" y2="527.26" stroke="#6b4226" stroke-width="2"/><line x1="391" y1="516" x2="387" y2="516" stroke="#6b4226" stroke-width="2"/><line x1="395.5" y1="508.21" x2="393.5" y2="504.74" stroke="#6b4226" stroke-width="2"/><line x1="404.5" y1="508.21" x2="406.5" y2="504.74" stroke="#6b4226" stroke-width="2"/><circle cx="400" cy="516" r="8" fill="none" stroke="#6b4226" stroke-width="3"/><circle cx="400" cy="516" r="3" fill="#6b4226"/><line x1="409" y1="516" x2="413" y2="516" stroke="#6b4226" stroke-width="2"/><line x1="404.5" y1="523.79" x2="406.5" y2="527.26" stroke="#6b4226" stroke-width="2"/><line x1="395.5" y1="523.79" x2="393.5" y2="527.26" stroke="#6b4226" stroke-width="2"/><line x1="391" y1="516" x2="387" y2="516" stroke="#6b4226" stroke-width="2"/><line x1="395.5" y1="508.21" x2="393.5" y2="504.74" stroke="#6b4226" stroke-width="2"/><line x1="404.5" y1="508.21" x2="406.5" y2="504.74" stroke="#6b4226" stroke-width="2"/><circle cx="400" cy="516" r="8" fill="none" stroke="#6b4226" stroke-width="3"/><circle cx="400" cy="516" r="3" fill="#6b4226"/><line x1="409" y1="516" x2="413" y2="516" stroke="#6b4226" stroke-width="2"/><line x1="404.5" y1="523.79" x2="406.5" y2="527.26" stroke="#6b4226" stroke-width="2"/><line x1="395.5" y1="523.79" x2="393.5" y2="527.26" stroke="#6b4226" stroke-width="2"/><line x1="391" y1="516" x2="387" y2="516" stroke="#6b4226" stroke-width="2"/><line x1="395.5" y1="508.21" x2="393.5" y2="504.74" stroke="#6b4226" stroke-width="2"/><line x1="404.5" y1="508.21" x2="406.5" y2="504.74" stroke="#6b4226" stroke-width="2"/><circle cx="400" cy="516" r="8" fill="none" stroke="#6b4226" stroke-width="3"/><circle cx="400" cy="516" r="3" fill="#6b4226"/><line x1="409" y1="516" x2="413" y2="516" stroke="#6b4226" stroke-width="2"/><line x1="404.5" y1="523.79" x2="406.5" y2="527.26" stroke="#6b4226" stroke-width="2"/><line x1="395.5" y1="523.79" x2="393.5" y2="527.26" stroke="#6b4226" stroke-width="2"/><line x1="391" y1="516" x2="387" y2="516" stroke="#6b4226" stroke-width="2"/><line x1="395.5" y1="508.21" x2="393.5" y2="504.74" stroke="#6b4226" stroke-width="2"/><line x1="404.5" y1="508.21" x2="406.5" y2="504.74" stroke="#6b4226" stroke-width="2"/><circle cx="400" cy="516" r="8" fill="none" stroke="#6b4226" stroke-width="3"/><circle cx="400" cy="516" r="3" fill="#6b4226"/><line x1="406.69" y1="500.35" x2="410.69" y2="500.35" stroke="#6b4226" stroke-width="2"/><line x1="402.19" y1="508.14" x2="404.19" y2="511.61" stroke="#6b4226" stroke-width="2"/><line x1="393.19" y1="508.14" x2="391.19" y2="511.61" stroke="#6b4226" stroke-width="2"/><line x1="388.69" y1="500.35" x2="384.69" y2="500.35" stroke="#6b4226" stroke-width="2"/><line x1="393.19" y1="492.56" x2="391.19" y2="489.09" stroke="#6b4226" stroke-width="2"/><line x1="402.19" y1="492.56" x2="404.19" y2="489.09" stroke="#6b4226" stroke-width="2"/><circle cx="397.69" cy="500.35" r="8" fill="none" stroke="#6b4226" stroke-width="3"/><circle cx="397.69" cy="500.35" r="3" fill="#6b4226"/><line x1="406.69" y1="500.35" x2="410.69" y2="500.35" stroke="#6b4226" stroke-width="2"/><line x1="402.19" y1="508.14" x2="404.19" y2="511.61" stroke="#6b4226" stroke-width="2"/><line x1="393.19" y1="508.14" x2="391.19" y2="511.61" stroke="#6b4226" stroke-width="2"/><line x1="388.69" y1="500.35" x2="384.69" y2="500.35" stroke="#6b4226" stroke-width="2"/><line x1="393.19" y1="492.56" x2="391.19" y2="489.09" stroke="#6b4226" stroke-width="2"/><line x1="402.19" y1="492.56" x2="404.19" y2="489.09" stroke="#6b4226" stroke-width="2"/><circle cx="397.69" cy="500.35" r="8" fill="none" stroke="#6b4226" stroke-width="3"/><circle cx="397.69" cy="500.35" r="3" fill="#6b4226"/><line x1="406.69" y1="500.35" x2="410.69" y2="500.35" stroke="#6b4226" stroke-width="2"/><line x1="402.19" y1="508.14" x2="404.19" y2="511.61" stroke="#6b4226" stroke-width="2"/><line x1="393.19" y1="508.14" x2="391.19" y2="511.61" stroke="#6b4226" stroke-width="2"/><line x1="388.69" y1="500.35" x2="384.69" y2="500.35" stroke="#6b4226" stroke-width="2"/><line x1="393.19" y1="492.56" x2="391.19" y2="489.09" stroke="#6b4226" stroke-width="2"/><line x1="402.19" y1="492.56" x2="404.19" y2="489.09" stroke="#6b4226" stroke-width="2"/><circle cx="397.69" cy="500.35" r="8" fill="none" stroke="#6b4226" stroke-width="3"/><circle cx="397.69" cy="500.35" r="3" fill="#6b4226"/><line x1="406.69" y1="500.35" x2="410.69" y2="500.35" stroke="#6b4226" stroke-width="2"/><line x1="402.19" y1="508.14" x2="404.19" y2="511.61" stroke="#6b4226" stroke-width="2"/><line x1="393.19" y1="508.14" x2="391.19" y2="511.61" stroke="#6b4226" stroke-width="2"/><line x1="388.69" y1="500.35" x2="384.69" y2="500.35" stroke="#6b4226" stroke-width="2"/><line x1="393.19" y1="492.56" x2="391.19" y2="489.09" stroke="#6b4226" stroke-width="2"/><line x1="402.19" y1="492.56" x2="404.19" y2="489.09" stroke="#6b4226" stroke-width="2"/><circle cx="397.69" cy="500.35" r="8" fill="none" stroke="#6b4226" stroke-width="3"/><circle cx="397.69" cy="500.35" r="3" fill="#6b4226"/><line x1="406.69" y1="500.35" x2="410.69" y2="500.35" stroke="#6b4226" stroke-width="2"/><line x1="402.19" y1="508.14" x2="404.19" y2="511.61" stroke="#6b4226" stroke-width="2"/><line x1="393.19" y1="508.14" x2="391.19" y2="511.61" stroke="#6b4226" stroke-width="2"/><line x1="388.69" y1="500.35" x2="384.69" y2="500.35" stroke="#6b4226" stroke-width="2"/><line x1="393.19" y1="492.56" x2="391.19" y2="489.09" stroke="#6b4226" stroke-width="2"/><line x1="402.19" y1="492.56" x2="404.19" y2="489.09" stroke="#6b4226" stroke-width="2"/><circle cx="397.69" cy="500.35" r="8" fill="none" stroke="#6b4226" stroke-width="3"/><circle cx="397.69" cy="500.35" r="3" fill="#6b4226"/><line x1="406.69" y1="500.35" x2="410.69" y2="500.35" stroke="#6b4226" stroke-width="2"/><line x1="402.19" y1="508.14" x2="404.19" y2="511.61" stroke="#6b4226" stroke-width="2"/><line x1="393.19" y1="508.14" x2="391.19" y2="511.61" stroke="#6b4226" stroke-width="2"/><line x1="388.69" y1="500.35" x2="384.69" y2="500.35" stroke="#6b4226" stroke-width="2"/><line x1="393.19" y1="492.56" x2="391.19" y2="489.09" stroke="#6b4226" stroke-width="2"/><line x1="402.19" y1="492.56" x2="404.19" y2="489.09" stroke="#6b4226" stroke-width="2"/><circle cx="397.69" cy="500.35" r="8" fill="none" stroke="#6b4226" stroke-width="3"/><circle cx="397.69" cy="500.35" r="3" fill="#6b4226"/>
  </svg>