<svg xmlns="http://www.w3.org/2000/svg" width="800" height="600" viewBox="0 0 800 600">
    <defs>
      <linearGradient id="sky" x1="0" y1="0" x2="0" y2="1">
        <stop offset="0" stop-color="#fdf6e3"/>
        <stop offset="1" stop-color="#f6e2b3"/>
      </linearGradient>
    </defs>
    <rect x="0" y="0" width="800" height="600" fill="url(#sky)"/>
    <ellipse cx="400" cy="534" rx="105" ry="14" fill="#c9a267" opacity="0.6"/>
    <path d="M 330,526 L 342,560 L 458,560 L 470,526 Z" fill="#a85f3c"/>
    <rect x="326" y="520" width="148" height="10" rx="3" fill="#8a4a2e"/>
    <path d="M 409.96,515.09 L 408.15,499.37 L 388.96,501.13 L 390.04,516.91 Z" fill="#5b3a24"/><path d="M 408.17,499.52 L 406.61,483.78 L 388.12,485.17 L 388.95,500.97 Z" fill="#5b3a24"/><path d="M 406.54,485.86 L 408.53,470.16 L 390.91,467.51 L 388.2,483.09 Z" fill="#5b3a24"/><path d="M 408.57,467.81 L 406.4,452.14 L 389.42,454.1 L 390.87,469.85 Z" fill="#5b3a24"/><path d="M 406.08,450.6 L 401.07,435.59 L 385.43,440.41 L 389.75,455.64 Z" fill="#5b3a24"/><path d="M 401.3,436.54 L 398.13,421.04 L 382.74,423.83 L 385.2,439.46 Z" fill="#5b3a24"/><path d="M 398.2,423.32 L 399.62,407.56 L 384.81,405.88 L 382.66,421.56 Z" fill="#5b3a24"/><path d="M 399.53,408.15 L 402.2,392.55 L 388.28,389.84 L 384.9,405.29 Z" fill="#5b3a24"/><path d="M 402.17,392.71 L 405.2,377.19 L 392.06,374.3 L 388.32,389.68 Z" fill="#5b3a24"/><path d="M 405.32,376.51 L 406.76,360.76 L 394.12,359.3 L 391.95,374.97 Z" fill="#5b3a24"/><path d="M 406.72,358.99 L 403.77,343.44 L 391.93,345.41 L 394.17,361.07 Z" fill="#5b3a24"/><path d="M 403.79,345.22 L 405.53,329.49 L 394.35,328 L 391.9,343.63 Z" fill="#5b3a24"/><path d="M 405.5,327.86 L 402.65,312.29 L 392.24,313.96 L 394.37,329.64 Z" fill="#5b3a24"/><path d="M 402.72,313.22 L 402.64,297.4 L 392.82,297.22 L 392.17,313.03 Z" fill="#5b3a24"/><path d="M 402.51,298.44 L 405.8,282.96 L 396.95,280.87 L 392.96,296.18 Z" fill="#5b3a24"/><path d="M 405.74,283.16 L 409.74,267.85 L 401.69,265.56 L 397,280.67 Z" fill="#5b3a24"/><path d="M 409.9,266.74 L 409.66,250.92 L 402.03,250.86 L 401.53,266.67 Z" fill="#5b3a24"/><path d="M 409.54,251.84 L 413.14,236.44 L 406.45,234.71 L 402.15,249.93 Z" fill="#5b3a24"/><path d="M 412.88,237.13 L 419.68,222.84 L 414.17,220.06 L 406.71,234.02 Z" fill="#5b3a24"/><path d="M 419.64,222.93 L 426.9,208.88 L 422.12,206.26 L 414.21,219.97 Z" fill="#5b3a24"/><path d="M 427.11,208.4 L 431.55,193.21 L 427.04,191.78 L 421.91,206.74 Z" fill="#5b3a24"/><path d="M 431.64,192.8 L 433.34,177.07 L 429.38,176.55 L 426.95,192.18 Z" fill="#5b3a24"/>
    <path d="M 402.19,456.32 L 437.38,406.46 L 431.5,402.06 L 393.63,449.92 Z" fill="#5b3a24"/><path d="M 437.77,405.81 L 462.02,349.82 L 458.4,348.13 L 431.11,402.71 Z" fill="#5b3a24"/><path d="M 395.88,403.79 L 358.15,358.77 L 352.92,362.95 L 388.55,409.65 Z" fill="#5b3a24"/><path d="M 358.56,359.44 L 332.29,306.9 L 328.68,308.61 L 352.51,362.29 Z" fill="#5b3a24"/><path d="M 402.88,363.25 L 450.75,325.68 L 447.1,320.87 L 398,356.81 Z" fill="#8a5a34"/><path d="M 450.72,325.7 L 499.02,288.69 L 496.64,285.47 L 447.13,320.85 Z" fill="#8a5a34"/><path d="M 400.13,311.07 L 362.4,262.96 L 358.13,266.24 L 394.76,315.18 Z" fill="#8a5a34"/><path d="M 362.27,262.81 L 321.15,217.57 L 318.16,220.23 L 358.25,266.39 Z" fill="#8a5a34"/><path d="M 407.92,268.3 L 446.35,214.57 L 442.52,211.8 L 403.5,265.11 Z" fill="#5b3a24"/><path d="M 446.55,214.25 L 475.8,155.01 L 472.22,153.22 L 442.32,212.13 Z" fill="#5b3a24"/><path d="M 418.38,219.98 L 376.79,178.85 L 373.93,181.74 L 415.47,222.92 Z" fill="#5b3a24"/><path d="M 376.58,178.67 L 329.78,143.58 L 327.38,146.78 L 374.14,181.92 Z" fill="#5b3a24"/>
    <ellipse cx="467.22" cy="359.49" rx="55.48" ry="45.56" fill="#4a7c3a"/><ellipse cx="475.73" cy="350.93" rx="36.36" ry="29.82" fill="#8fc76b"/><ellipse cx="465.82" cy="360.78" rx="37" ry="30.34" fill="#4a7c3a"/><ellipse cx="454.15" cy="361.55" rx="41.12" ry="33.72" fill="#8fc76b"/><ellipse cx="446.69" cy="346.55" rx="39.07" ry="32.03" fill="#8fc76b"/><ellipse cx="453.47" cy="339.97" rx="33.36" ry="27.36" fill="#8fc76b"/><ellipse cx="468.35" cy="333.08" rx="31.8" ry="26.07" fill="#8fc76b"/><ellipse cx="460.21" cy="348.98" rx="36.21" ry="30.37" fill="#8fc76b"/><ellipse cx="454.31" cy="343.97" rx="15.18" ry="12.9" fill="#dff2c2" opacity="0.85"/><ellipse cx="449.22" cy="346.04" rx="16.86" ry="14.33" fill="#dff2c2" opacity="0.85"/><ellipse cx="460.09" cy="339.83" rx="19.82" ry="16.85" fill="#dff2c2" opacity="0.85"/><ellipse cx="337.85" cy="318.8" rx="58.29" ry="47.86" fill="#4a7c3a"/><ellipse cx="357.77" cy="310.66" rx="39.77" ry="32.61" fill="#8fc76b"/><ellipse cx="344.68" cy="324.43" rx="36.29" ry="29.76" fill="#8fc76b"/><ellipse cx="317.55" cy="321.82" rx="39.29" ry="32.22" fill="#8fc76b"/><ellipse cx="307.76" cy="303.83" rx="33.01" ry="27.07" fill="#4a7c3a"/><ellipse cx="322.81" cy="300.21" rx="31.35" ry="25.71" fill="#8fc76b"/><ellipse cx="342.74" cy="288.5" rx="34.93" ry="28.64" fill="#8fc76b"/><ellipse cx="330.48" cy="307.75" rx="38.04" ry="31.9" fill="#8fc76b"/><ellipse cx="315.12" cy="291.21" rx="14.93" ry="12.69" fill="#dff2c2" opacity="0.85"/><ellipse cx="325.9" cy="300.95" rx="18.13" ry="15.41" fill="#dff2c2" opacity="0.85"/><ellipse cx="329" cy="298.52" rx="14.17" ry="12.05" fill="#dff2c2" opacity="0.85"/><ellipse cx="504.95" cy="297.77" rx="56.39" ry="46.3" fill="#4a7c3a"/><ellipse cx="514.74" cy="289.1" rx="33.17" ry="27.2" fill="#8fc76b"/><ellipse cx="513.15" cy="299.59" rx="31.81" ry="26.09" fill="#4a7c3a"/><ellipse cx="489.06" cy="299.13" rx="33.31" ry="27.31" fill="#8fc76b"/><ellipse cx="483.03" cy="286.34" rx="40.97" ry="33.59" fill="#8fc76b"/><ellipse cx="486.59" cy="278.15" rx="41.69" ry="34.19" fill="#4a7c3a"/><ellipse cx="509.92" cy="270.09" rx="38.24" ry="31.35" fill="#8fc76b"/><ellipse cx="497.83" cy="287.08" rx="36.8" ry="30.87" fill="#8fc76b"/><ellipse cx="491.98" cy="268.27" rx="17" ry="14.45" fill="#dff2c2" opacity="0.85"/><ellipse cx="484.05" cy="284.71" rx="15.76" ry="13.4" fill="#dff2c2" opacity="0.85"/><ellipse cx="493.14" cy="276.69" rx="17.57" ry="14.93" fill="#dff2c2" opacity="0.85"/><ellipse cx="327.13" cy="230.11" rx="59.16" ry="48.57" fill="#4a7c3a"/><ellipse cx="340.55" cy="221.5" rx="43.96" ry="36.05" fill="#4a7c3a"/><ellipse cx="326.82" cy="235.04" rx="41.45" ry="33.99" fill="#8fc76b"/><ellipse cx="309.36" cy="232.22" rx="32.82" ry="26.91" fill="#4a7c3a"/><ellipse cx="293.67" cy="220.07" rx="37.34" ry="30.62" fill="#8fc76b"/><ellipse cx="311.41" cy="203.53" rx="35.33" ry="28.97" fill="#4a7c3a"/><ellipse cx="330.8" cy="209.88" rx="33.48" ry="27.45" fill="#8fc76b"/><ellipse cx="319.66" cy="218.9" rx="38.61" ry="32.38" fill="#8fc76b"/><ellipse cx="310.67" cy="210.05" rx="14.01" ry="11.91" fill="#dff2c2" opacity="0.85"/><ellipse cx="316.24" cy="203.16" rx="17.48" ry="14.85" fill="#dff2c2" opacity="0.85"/><ellipse cx="319.16" cy="198.83" rx="13.85" ry="11.77" fill="#dff2c2" opacity="0.85"/><ellipse cx="480.5" cy="163.86" rx="51.39" ry="42.2" fill="#4a7c3a"/><ellipse cx="487.44" cy="152.6" rx="29.98" ry="24.59" fill="#4a7c3a"/><ellipse cx="479.2" cy="165.78" rx="34.53" ry="28.32" fill="#8fc76b"/><ellipse cx="463.86" cy="163.16" rx="27.16" ry="22.28" fill="#4a7c3a"/><ellipse cx="457.61" cy="153.41" rx="32.77" ry="26.87" fill="#8fc76b"/><ellipse cx="460.01" cy="142.25" rx="38.52" ry="31.59" fill="#4a7c3a"/><ellipse cx="485.33" cy="139.52" rx="30.22" ry="24.78" fill="#8fc76b"/><ellipse cx="474.01" cy="154.12" rx="33.54" ry="28.13" fill="#8fc76b"/><ellipse cx="461.87" cy="143.13" rx="14.83" ry="12.61" fill="#dff2c2" opacity="0.85"/><ellipse cx="459.44" cy="148.51" rx="13.42" ry="11.41" fill="#dff2c2" opacity="0.85"/><ellipse cx="473.94" cy="145.8" rx="17.52" ry="14.89" fill="#dff2c2" opacity="0.85"/><ellipse cx="335.62" cy="155.74" rx="55.71" ry="45.74" fill="#4a7c3a"/><ellipse cx="356.84" cy="141.03" rx="33.89" ry="27.79" fill="#4a7c3a"/><ellipse cx="337.65" cy="152.87" rx="33.16" ry="27.19" fill="#8fc76b"/><ellipse cx="317.92" cy="159.96" rx="36.5" ry="29.93" fill="#4a7c3a"/><ellipse cx="305.76" cy="148.53" rx="39.29" ry="32.22" fill="#8fc76b"/><ellipse cx="319.94" cy="126.75" rx="39.33" ry="32.25" fill="#8fc76b"/><ellipse cx="336.56" cy="136.43" rx="33.08" ry="27.13" fill="#8fc76b"/><ellipse cx="328.58" cy="145.18" rx="36.36" ry="30.49" fill="#8fc76b"/><ellipse cx="317.28" cy="132.44" rx="15.89" ry="13.51" fill="#dff2c2" opacity="0.85"/><ellipse cx="303.24" cy="143.51" rx="20.39" ry="17.33" fill="#dff2c2" opacity="0.85"/><ellipse cx="312.54" cy="131.47" rx="18.54" ry="15.75" fill="#dff2c2" opacity="0.85"/><ellipse cx="438.84" cy="188.02" rx="59.19" ry="48.59" fill="#4a7c3a"/><ellipse cx="454.49" cy="177.86" rx="37.91" ry="31.08" fill="#8fc76b"/><ellipse cx="452.14" cy="193.3" rx="43.31" ry="35.51" fill="#8fc76b"/><ellipse cx="423.3" cy="185.23" rx="40.14" ry="32.91" fill="#8fc76b"/><ellipse cx="418.46" cy="174.49" rx="34.12" ry="27.98" fill="#4a7c3a"/><ellipse cx="423.15" cy="168.83" rx="32" ry="26.24" fill="#8fc76b"/><ellipse cx="448.91" cy="159.59" rx="44.81" ry="36.74" fill="#8fc76b"/><ellipse cx="431.36" cy="176.81" rx="38.63" ry="32.4" fill="#8fc76b"/><ellipse cx="418.24" cy="171.44" rx="16.42" ry="13.96" fill="#dff2c2" opacity="0.85"/><ellipse cx="409.84" cy="174.65" rx="21.2" ry="18.02" fill="#dff2c2" opacity="0.85"/><ellipse cx="427.41" cy="166.75" rx="21.03" ry="17.88" fill="#dff2c2" opacity="0.85"/>
    <g><circle cx="425.8" cy="320.55" r="6.59" fill="#ff9ecf" opacity="0.9"/><circle cx="420.11" cy="328.38" r="6.59" fill="#ff9ecf" opacity="0.9"/><circle cx="410.9" cy="325.39" r="6.59" fill="#ff9ecf" opacity="0.9"/><circle cx="410.9" cy="315.7" r="6.59" fill="#ff9ecf" opacity="0.9"/><circle cx="420.11" cy="312.71" r="6.59" fill="#ff9ecf" opacity="0.9"/><circle cx="417.57" cy="320.55" r="5.77" fill="#ffe9a8"/></g><g><circle cx="433.07" cy="324.55" r="7.6" fill="#ff9ecf" opacity="0.9"/><circle cx="426.51" cy="333.59" r="7.6" fill="#ff9ecf" opacity="0.9"/><circle cx="415.89" cy="330.14" r="7.6" fill="#ff9ecf" opacity="0.9"/><circle cx="415.89" cy="318.97" r="7.6" fill="#ff9ecf" opacity="0.9"/><circle cx="426.51" cy="315.52" r="7.6" fill="#ff9ecf" opacity="0.9"/><circle cx="423.57" cy="324.55" r="6.65" fill="#ffe9a8"/></g>
    
    
    <line x1="409" y1="516" x2="413" y2="516" stroke="#6b4226" stroke-width="2"/><line x1="404.5" y1="523.79" x2="406.5" y2="527.26" stroke="#6b4226" stroke-width="2"/><line x1="395.5" y1="523.79" x2="393.5" y2="527.26" stroke="#6b4226" stroke-width="2"/><line x1="391" y1="516" x2="387" y2="516" stroke="#6b4226" stroke-width="2"/><line x1="395.5" y1="508.21" x2="393.5" y2="504.74" stroke="#6b4226" stroke-width="2"/><line x1="404.5" y1="508.21" x2="406.5" y2="504.74" stroke="#6b4226" stroke-width="2"/><circle cx="400" cy="516" r="8" fill="none" stroke="#6b4226" stroke-width="3"/><circle cx="400" cy="516" r="3" fill="#6b4226"/><line x1="409" y1="516" x2="413" y2="516" stroke="#6b4226" stroke-width="2"/><line x1="404.5" y1="523.79" x2="406.5" y2="527.26" stroke="#6b4226" stroke-width="2"/><line x1="395.5" y1="523.79" x2="393.5" y2="527.26" stroke="#6b4226" stroke-width="2"/><line x1="391" y1="516" x2="387" y2="516" stroke="#6b4226" stroke-width="2"/><line x1="395.5" y1="508.21" x2="393.5" y2="504.74" stroke="#6b4226" stroke-width="2"/><line x1="404.5" y1="508.21" x2="406.5" y2="504.74" stroke="#6b4226" stroke-width="2"/><circle cx="400" cy="516" r="8" fill="none" stroke="#6b4226" stroke-width="3"/><circle cx="400" cy="516" r="3" fill="#6b4226"/><line x1="409" y1="516" x2="413" y2="516" stroke="#6b4226" stroke-width="2"/><line x1="404.5" y1="523.79" x2="406.5" y2="527.26" stroke="#6b4226" stroke-width="2"/><line x1="395.5" y1="523.79" x2="393.5" y2="527.26" stroke="#6b4226" stroke-width="2"/><line x1="391" y1="516" x2="387" y2="516" stroke="#6b4226" stroke-width="2"/><line x1="395.5" y1="508.21" x2="393.5" y2="504.74" stroke="#6b4226" stroke-width="2"/><line x1="404.5" y1="508.21" x2="406.5" y2="504.74" stroke="#6b4226" stroke-width="2"/><circle cx="400" cy="516" r="8" fill="none" stroke="#6b4226" stroke-width="3"/><circle cx="400" cy="516" r="3" fill="#6b4226"/><line x1="409" y1="516" x2="413" y2="516" stroke="#6b4226" stroke-width="2"/><line x1="404.5" y1="523.79" x2="406.5" y2="527.26" stroke="#6b4226" stroke-width="2"/><line x1="395.5" y1="523.79" x2="393.5" y2="527.26" stroke="#6b4226" stroke-width="2"/><line x1="391" y1="516" x2="387" y2="516" stroke="#6b4226" stroke-width="2"/><line x1="395.5" y1="508.21" x2="393.5" y2="504.74" stroke="#6b4226" stroke-width="2"/><line x1="404.5" y1="508.21" x2="406.5" y2="504.74" stroke="#6b4226" stroke-width="2"/><circle cx="400" cy="516" r="8" fill="none" stroke="#6b4226" stroke-width="3"/><circle cx="400" cy="516" r="3" fill="#6b4226"/><line x1="409" y1="516" x2="413" y2="516" stroke="#6b4226" stroke-width="2"/><line x1="404.5" y1="523.79" x2="406.5" y2="527.26" stroke="#6b4226" stroke-width="2"/><line x1="395.5" y1="523.79" x2="393.5" y2="527.26" stroke="#6b4226" stroke-width="2"/><line x1="391" y1="516" x2="387" y2="516" stroke="#6b4226" stroke-width="2"/><line x1="395.5" y1="508.21" x2="393.5" y2="504.74" stroke="#6b4226" stroke-width="2"/><line x1="404.5" y1="508.21" x2="406.5" y2="504.74" stroke="#6b4226" stroke-width="2"/><circle cx="400" cy="516" r="8" fill="none" stroke="#6b4226" stroke-width="3"/><circle cx="400" cy="516" r="3" fill="#6b4226"/><line x1="409" y1="516" x2="413" y2="516" stroke="#6b4226" stroke-width="2"/><line x1="404.5" y1="523.79" x2="406.5" y2="527.26" stroke="#6b4226" stroke-width="2"/><line x1="395.5" y1="523.79" x2="393.5" y2="527.26" stroke="#6b4226" stroke-width="2"/><line x1="391" y1="516" x2="387" y2="516" stroke="#6b4226" stroke-width="2"/><line x1="395.5" y1="508.21" x2="393.5" y2="504.74" stroke="#6b4226" stroke-width="2"/><line x1="404.5" y1="508.21" x2="406.5" y2="504.74" stroke="#6b4226" stroke-width="2"/><circle cx="400" cy="516" r="8" fill="none" stroke="#6b4226" stroke-width="3"/><circle cx="400" cy="516" r="3" fill="#6b4226"/><line x1="409" y1="516" x2="413" y2="516" stroke="#6b4226" stroke-width="2"/><line x1="404.5" y1="523.79" x2="406.5" y2="527.26" stroke="#6b4226" stroke-width="2"/><line x1="395.5" y1="523.79" x2="393.5" y2="527.26" stroke="#6b4226" stroke-width="2"/><line x1="391" y1="516" x2="387" y2="516" stroke="#6b4226" stroke-width="2"/><line x1="395.5" y1="508.21" x2="393.5" y2="504.74" stroke="#6b4226" stroke-width="2"/><line x1="404.5" y1="508.21" x2="406.5" y2="504.74" stroke="#6b4226" stroke-width="2"/><circle cx="400" cy="516" r="8" fill="none" stroke="#6b4226" stroke-width="3"/><circle cx="400" cy="516" r="3" fill="#6b4226"/><line x1="409" y1="516" x2="413" y2="516" stroke="#6b4226" stroke-width="2"/><line x1="404.5" y1="523.79" x2="406.5" y2="527.26" stroke="#6b4226" stroke-width="2"/><line x1="395.5" y1="523.79" x2="393.5" y2="527.26" stroke="#6b4226" stroke-width="2"/><line x1="391" y1="516" x2="387" y2="516" stroke="#6b4226" stroke-width="2"/><line x1="395.5" y1="508.21" x2="393.5" y2="504.74" stroke="#6b4226" stroke-width="2"/><line x1="404.5" y1="508.21" x2="406.5" y2="504.74" stroke="#6b4226" stroke-width="2"/><circle cx="400" cy="516" r="8" fill="none" stroke="#6b4226" stroke-width="3"/><circle cx="400" cy="516" r="3" fill="#6b4226"/><line x1="409" y1="516" x2="413" y2="516" stroke="#6b4226" stroke-width="2"/><line x1="404.5" y1="523.79" x2="406.5" y2="527.26" stroke="#6b4226" stroke-width="2"/><line x1="395.5" y1="523.79" x2="393.5" y2="527.26" stroke="#6b4226" stroke-width="2"/><line x1="391" y1="516" x2="387" y2="516" stroke="#6b4226" stroke-width="2"/><line x1="395.5" y1="508.21" x2="393.5" y2="504.74" stroke="#6b4226" stroke-width="2"/><line x1="404.5" y1="508.21" x2="406.5" y2="504.74" stroke="#6b4226" stroke-width="2"/><circle cx="400" cy="516" r="8" fill="none" stroke="#6b4226" stroke-width="3"/><circle cx="400" cy="516" r="3" fill="#6b4226"/><line x1="409" y1="516" x2="413" y2="516" stroke="#6b4226" stroke-width="2"/><line x1="404.5" y1="523.79" x2="406.5" y2="527.26" stroke="#6b4226" stroke-width="2"/><line x1="395.5" y1="523.79" x2="393.5" y2="527.26" stroke="#6b4226" stroke-width="2"/><line x1="391" y1="516" x2="387" y2="516" stroke="#6b4226" stroke-width="2"/><line x1="395.5" y1="508.21" x2="393.5" y2="504.74" stroke="#6b4226" stroke-width="2"/><line x1="404.5" y1="508.21" x2="406.5" y2="504.74" stroke="#6b4226" stroke-width="2"/><circle cx="400" cy="516" r="8" fill="none" stroke="#6b4226" stroke-width="3"/><circle cx="400" cy="516" r="3" fill="#6b4226"/>
  </svg>