<svg xmlns="http://www.w3.org/2000/svg" width="800" height="600" viewBox="0 0 800 600">
    <defs>
      <linearGradient id="sky" x1="0" y1="0" x2="0" y2="1">
        <stop offset="0" stop-color="#fdf6e3"/>
        <stop offset="1" stop-color="#f6e2b3"/>
      </linearGradient>
    </defs>
    <rect x="0" y="0" width="800" height="600" fill="url(#sky)"/>
    <ellipse cx="400" cy="534" rx="105" ry="14" fill="#c9a267" opacity="0.6"/>
    <path d="M 330,526 L 342,560 L 458,560 L 470,526 Z" fill="#a85f3c"/>
    <rect x="326" y="520" width="148" height="10" rx="3" fill="#8a4a2e"/>
    <path d="M 409.6,518.79 L 413.66,503.5 L 395.16,498.12 L 390.4,513.21 Z" fill="#5b3a24"/><path d="M 414.05,500.81 L 413.68,484.99 L 395.13,484.99 L 394.77,500.81 Z" fill="#5b3a24"/><path d="M 413.58,483.66 L 410.95,468.06 L 393.32,470.61 L 395.23,486.32 Z" fill="#5b3a24"/><path d="M 411.05,469.31 L 410.64,453.5 L 393.55,453.54 L 393.23,469.36 Z" fill="#5b3a24"/><path d="M 410.47,455.23 L 413.28,439.66 L 397.25,436.38 L 393.73,451.81 Z" fill="#5b3a24"/><path d="M 413.4,437.15 L 411.35,421.46 L 395.81,423.12 L 397.13,438.89 Z" fill="#5b3a24"/><path d="M 411.33,423.33 L 413.08,407.61 L 398.3,405.62 L 395.83,421.25 Z" fill="#5b3a24"/><path d="M 413.01,405.22 L 409.69,389.75 L 395.76,392.41 L 398.37,408.01 Z" fill="#5b3a24"/><path d="M 409.56,389.19 L 405,374.04 L 392.03,377.62 L 395.89,392.96 Z" fill="#5b3a24"/><path d="M 404.42,372.6 L 396.52,358.9 L 385.35,365 L 392.61,379.05 Z" fill="#5b3a24"/><path d="M 397.24,361.06 L 394.66,345.44 L 382.78,347.12 L 384.63,362.84 Z" fill="#5b3a24"/><path d="M 394.66,347.17 L 396.62,331.47 L 385.47,329.81 L 382.79,345.4 Z" fill="#5b3a24"/><path d="M 396.68,330.57 L 396.14,314.76 L 385.59,314.88 L 385.41,330.7 Z" fill="#5b3a24"/><path d="M 396.04,313.83 L 392.7,298.36 L 383.06,300.21 L 385.69,315.81 Z" fill="#5b3a24"/><path d="M 392.74,298.56 L 390.04,282.97 L 381.05,284.31 L 383.03,300.01 Z" fill="#5b3a24"/><path d="M 389.92,282.39 L 385.23,267.28 L 377.18,269.58 L 381.18,284.89 Z" fill="#5b3a24"/><path d="M 385.33,267.73 L 382.33,252.2 L 374.8,253.47 L 377.08,269.13 Z" fill="#5b3a24"/><path d="M 382.33,252.2 L 379.35,236.66 L 372.53,237.81 L 374.8,253.47 Z" fill="#5b3a24"/><path d="M 379.32,236.51 L 375.65,221.12 L 369.61,222.42 L 372.56,237.96 Z" fill="#5b3a24"/><path d="M 375.63,221.04 L 371.54,205.75 L 366.24,207.04 L 369.62,222.5 Z" fill="#5b3a24"/><path d="M 371.57,205.87 L 368.17,190.42 L 363.53,191.33 L 366.22,206.92 Z" fill="#5b3a24"/><path d="M 368.19,190.54 L 365.58,174.93 L 361.62,175.5 L 363.51,191.21 Z" fill="#5b3a24"/>
    <path d="M 405.96,457.22 L 447.31,411.66 L 442.01,406.58 L 398.24,449.82 Z" fill="#8a5a34"/><path d="M 447.9,410.84 L 475.24,355.72 L 471.7,353.84 L 441.41,407.4 Z" fill="#8a5a34"/><path d="M 408.05,402.56 L 351.41,371.17 L 348.04,376.95 L 403.33,410.67 Z" fill="#5b3a24"/><path d="M 350.82,370.9 L 289.19,350.99 L 287.89,354.77 L 348.63,377.22 Z" fill="#5b3a24"/><path d="M 393.81,364.78 L 435.72,320.68 L 431.41,316.45 L 388.06,359.12 Z" fill="#8a5a34"/><path d="M 435.39,320.97 L 483.24,283.42 L 480.82,280.23 L 431.74,316.16 Z" fill="#8a5a34"/><path d="M 393.56,312.78 L 357.32,265.95 L 353.03,269.2 L 388.17,316.86 Z" fill="#8a5a34"/><path d="M 357.56,266.33 L 329.44,214.21 L 325.9,216.07 L 352.79,268.83 Z" fill="#8a5a34"/><path d="M 383.05,270.44 L 417.96,237.77 L 414.76,234.29 L 379.36,266.43 Z" fill="#5b3a24"/><path d="M 418.31,237.36 L 444.93,197.64 L 441.63,195.39 L 414.41,234.7 Z" fill="#5b3a24"/><path d="M 374.1,220.31 L 357.69,203.76 L 354.79,206.62 L 371.15,223.23 Z" fill="#8a5a34"/><path d="M 357.47,203.57 L 338.85,189.55 L 336.44,192.74 L 355.01,206.82 Z" fill="#8a5a34"/>
    <ellipse cx="479.94" cy="364.49" rx="51.25" ry="42.08" fill="#4a7c3a"/><ellipse cx="498.47" cy="354.45" rx="30.63" ry="25.12" fill="#4a7c3a"/><ellipse cx="482.05" cy="368.43" rx="29.2" ry="23.95" fill="#8fc76b"/><ellipse cx="468.62" cy="362.03" rx="36.26" ry="29.73" fill="#4a7c3a"/><ellipse cx="451.75" cy="353.17" rx="32.38" ry="26.56" fill="#8fc76b"/><ellipse cx="456.04" cy="339.44" rx="28.21" ry="23.13" fill="#8fc76b"/><ellipse cx="484.17" cy="341.22" rx="37.15" ry="30.47" fill="#4a7c3a"/><ellipse cx="473.47" cy="354.78" rx="33.45" ry="28.05" fill="#8fc76b"/><ellipse cx="464.35" cy="351.59" rx="15.29" ry="13" fill="#dff2c2" opacity="0.85"/><ellipse cx="473.23" cy="347.67" rx="18.58" ry="15.79" fill="#dff2c2" opacity="0.85"/><ellipse cx="472.42" cy="341.8" rx="14.59" ry="12.4" fill="#dff2c2" opacity="0.85"/><ellipse cx="295.15" cy="362.79" rx="52.34" ry="42.98" fill="#4a7c3a"/><ellipse cx="303.26" cy="353.44" rx="38.12" ry="31.25" fill="#8fc76b"/><ellipse cx="295.04" cy="363.5" rx="31.19" ry="25.58" fill="#8fc76b"/><ellipse cx="283.31" cy="360.16" rx="30.83" ry="25.28" fill="#8fc76b"/><ellipse cx="268.57" cy="354.78" rx="36.15" ry="29.65" fill="#8fc76b"/><ellipse cx="278.41" cy="340.5" rx="35.28" ry="28.93" fill="#8fc76b"/><ellipse cx="300.22" cy="335.13" rx="30.42" ry="24.95" fill="#8fc76b"/><ellipse cx="288.54" cy="352.88" rx="34.16" ry="28.65" fill="#8fc76b"/><ellipse cx="275.21" cy="349.73" rx="15.57" ry="13.24" fill="#dff2c2" opacity="0.85"/><ellipse cx="273.78" cy="350.39" rx="12.59" ry="10.7" fill="#dff2c2" opacity="0.85"/><ellipse cx="273.43" cy="342.38" rx="14.9" ry="12.67" fill="#dff2c2" opacity="0.85"/><ellipse cx="489.14" cy="292.49" rx="56.28" ry="46.21" fill="#4a7c3a"/><ellipse cx="496.66" cy="282.78" rx="31.41" ry="25.76" fill="#8fc76b"/><ellipse cx="493.23" cy="293.6" rx="41.78" ry="34.26" fill="#8fc76b"/><ellipse cx="471.65" cy="291.87" rx="33.11" ry="27.15" fill="#8fc76b"/><ellipse cx="462.64" cy="280.96" rx="39.15" ry="32.1" fill="#8fc76b"/><ellipse cx="475.14" cy="266.74" rx="41.23" ry="33.81" fill="#8fc76b"/><ellipse cx="487.44" cy="270.79" rx="42.33" ry="34.71" fill="#8fc76b"/><ellipse cx="482.03" cy="281.83" rx="36.73" ry="30.8" fill="#8fc76b"/><ellipse cx="464.66" cy="277.23" rx="19.82" ry="16.85" fill="#dff2c2" opacity="0.85"/><ellipse cx="468.92" cy="275.44" rx="17.06" ry="14.5" fill="#dff2c2" opacity="0.85"/><ellipse cx="466.61" cy="270.03" rx="18.8" ry="15.98" fill="#dff2c2" opacity="0.85"/><ellipse cx="334.15" cy="224.86" rx="51.29" ry="42.11" fill="#4a7c3a"/><ellipse cx="353.31" cy="218.85" rx="35.53" ry="29.13" fill="#4a7c3a"/><ellipse cx="340.8" cy="229.4" rx="34.65" ry="28.41" fill="#8fc76b"/><ellipse cx="316.61" cy="228.94" rx="32.87" ry="26.96" fill="#4a7c3a"/><ellipse cx="303.48" cy="213.71" rx="37.89" ry="31.07" fill="#4a7c3a"/><ellipse cx="315.09" cy="202.14" rx="32.7" ry="26.82" fill="#8fc76b"/><ellipse cx="340.84" cy="199.38" rx="27.33" ry="22.41" fill="#4a7c3a"/><ellipse cx="327.67" cy="215.14" rx="33.47" ry="28.07" fill="#8fc76b"/><ellipse cx="306.86" cy="208.34" rx="12.76" ry="10.84" fill="#dff2c2" opacity="0.85"/><ellipse cx="308.06" cy="207.6" rx="12.29" ry="10.45" fill="#dff2c2" opacity="0.85"/><ellipse cx="317.55" cy="198.67" rx="12.61" ry="10.72" fill="#dff2c2" opacity="0.85"/><ellipse cx="450.16" cy="206.85" rx="54.51" ry="44.76" fill="#4a7c3a"/><ellipse cx="470.48" cy="200.43" rx="33.11" ry="27.15" fill="#8fc76b"/><ellipse cx="450.23" cy="209.23" rx="35.07" ry="28.75" fill="#8fc76b"/><ellipse cx="428.83" cy="212.92" rx="34.99" ry="28.7" fill="#8fc76b"/><ellipse cx="415.36" cy="194.04" rx="35.78" ry="29.34" fill="#8fc76b"/><ellipse cx="438.11" cy="186.26" rx="33.91" ry="27.81" fill="#4a7c3a"/><ellipse cx="457.96" cy="178.81" rx="33.75" ry="27.68" fill="#8fc76b"/><ellipse cx="443.28" cy="196.52" rx="35.58" ry="29.84" fill="#8fc76b"/><ellipse cx="429.8" cy="180.74" rx="19.87" ry="16.89" fill="#dff2c2" opacity="0.85"/><ellipse cx="438.86" cy="187.59" rx="19" ry="16.15" fill="#dff2c2" opacity="0.85"/><ellipse cx="431.3" cy="188.76" rx="18.47" ry="15.7" fill="#dff2c2" opacity="0.85"/><ellipse cx="343.92" cy="200.56" rx="49.69" ry="40.79" fill="#4a7c3a"/><ellipse cx="358.1" cy="191.09" rx="30.9" ry="25.34" fill="#8fc76b"/><ellipse cx="344.02" cy="202.7" rx="32.26" ry="26.45" fill="#4a7c3a"/><ellipse cx="323.8" cy="205.23" rx="30.43" ry="24.96" fill="#8fc76b"/><ellipse cx="314.39" cy="194.4" rx="28.77" ry="23.59" fill="#8fc76b"/><ellipse cx="324.74" cy="180.65" rx="31.74" ry="26.03" fill="#8fc76b"/><ellipse cx="344.94" cy="185.45" rx="33.06" ry="27.11" fill="#8fc76b"/><ellipse cx="337.64" cy="191.15" rx="32.43" ry="27.2" fill="#8fc76b"/><ellipse cx="315.16" cy="190.63" rx="18.53" ry="15.75" fill="#dff2c2" opacity="0.85"/><ellipse cx="325.74" cy="183.21" rx="18.22" ry="15.49" fill="#dff2c2" opacity="0.85"/><ellipse cx="326.71" cy="188.2" rx="14.26" ry="12.12" fill="#dff2c2" opacity="0.85"/><ellipse cx="371.06" cy="186.41" rx="59.06" ry="48.49" fill="#4a7c3a"/><ellipse cx="380.74" cy="172.62" rx="38.79" ry="31.81" fill="#4a7c3a"/><ellipse cx="372.44" cy="186.02" rx="33.97" ry="27.86" fill="#8fc76b"/><ellipse cx="353.15" cy="188.76" rx="44.51" ry="36.5" fill="#8fc76b"/><ellipse cx="345.62" cy="173.77" rx="44.49" ry="36.48" fill="#8fc76b"/><ellipse cx="348.04" cy="162.31" rx="43.04" ry="35.29" fill="#4a7c3a"/><ellipse cx="381.45" cy="157.39" rx="34.36" ry="28.18" fill="#8fc76b"/><ellipse cx="363.6" cy="175.22" rx="38.54" ry="32.33" fill="#8fc76b"/><ellipse cx="354.95" cy="156.42" rx="17.71" ry="15.06" fill="#dff2c2" opacity="0.85"/><ellipse cx="344.44" cy="173.74" rx="15.85" ry="13.47" fill="#dff2c2" opacity="0.85"/><ellipse cx="351.52" cy="173.31" rx="14.42" ry="12.26" fill="#dff2c2" opacity="0.85"/>
    <g><circle cx="440.18" cy="326.35" r="7.48" fill="#ff9ecf" opacity="0.9"/><circle cx="433.72" cy="335.25" r="7.48" fill="#ff9ecf" opacity="0.9"/><circle cx="423.26" cy="331.85" r="7.48" fill="#ff9ecf" opacity="0.9"/><circle cx="423.26" cy="320.85" r="7.48" fill="#ff9ecf" opacity="0.9"/><circle cx="433.72" cy="317.45" r="7.48" fill="#ff9ecf" opacity="0.9"/><circle cx="430.83" cy="326.35" r="6.55" fill="#ffe9a8"/></g><g><circle cx="446.33" cy="330.36" r="7.6" fill="#ffc94d" opacity="0.9"/><circle cx="439.77" cy="339.39" r="7.6" fill="#ffc94d" opacity="0.9"/><circle cx="429.15" cy="335.94" r="7.6" fill="#ffc94d" opacity="0.9"/><circle cx="429.15" cy="324.77" r="7.6" fill="#ffc94d" opacity="0.9"/><circle cx="439.77" cy="321.32" r="7.6" fill="#ffc94d" opacity="0.9"/><circle cx="436.83" cy="330.36" r="6.65" fill="#ffe9a8"/></g>
    
    
    <line x1="409" y1="516" x2="413" y2="516" stroke="#6b4226" stroke-width="2"/><line x1="404.5" y1="523.79" x2="406.5" y2="527.26" stroke="#6b4226" stroke-width="2"/><line x1="395.5" y1="523.79" x2="393.5" y2="527.26" stroke="#6b4226" stroke-width="2"/><line x1="391" y1="516" x2="387" y2="516" stroke="#6b4226" stroke-width="2"/><line x1="395.5" y1="508.21" x2="393.5" y2="504.74" stroke="#6b4226" stroke-width="2"/><line x1="404.5" y1="508.21" x2="406.5" y2="504.74" stroke="#6b4226" stroke-width="2"/><circle cx="400" cy="516" r="8" fill="none" stroke="#6b4226" stroke-width="3"/><circle cx="400" cy="516" r="3" fill="#6b4226"/><line x1="409" y1="516" x2="413" y2="516" stroke="#6b4226" stroke-width="2"/><line x1="404.5" y1="523.79" x2="406.5" y2="527.26" stroke="#6b4226" stroke-width="2"/><line x1="395.5" y1="523.79" x2="393.5" y2="527.26" stroke="#6b4226" stroke-width="2"/><line x1="391" y1="516" x2="387" y2="516" stroke="#6b4226" stroke-width="2"/><line x1="395.5" y1="508.21" x2="393.5" y2="504.74" stroke="#6b4226" stroke-width="2"/><line x1="404.5" y1="508.21" x2="406.5" y2="504.74" stroke="#6b4226" stroke-width="2"/><circle cx="400" cy="516" r="8" fill="none" stroke="#6b4226" stroke-width="3"/><circle cx="400" cy="516" r="3" fill="#6b4226"/><line x1="409" y1="516" x2="413" y2="516" stroke="#6b4226" stroke-width="2"/><line x1="404.5" y1="523.79" x2="406.5" y2="527.26" stroke="#6b4226" stroke-width="2"/><line x1="395.5" y1="523.79" x2="393.5" y2="527.26" stroke="#6b4226" stroke-width="2"/><line x1="391" y1="516" x2="387" y2="516" stroke="#6b4226" stroke-width="2"/><line x1="395.5" y1="508.21" x2="393.5" y2="504.74" stroke="#6b4226" stroke-width="2"/><line x1="404.5" y1="508.21" x2="406.5" y2="504.74" stroke="#6b4226" stroke-width="2"/><circle cx="400" cy="516" r="8" fill="none" stroke="#6b4226" stroke-width="3"/><circle cx="400" cy="516" r="3" fill="#6b4226"/><line x1="409" y1="516" x2="413" y2="516" stroke="#6b4226" stroke-width="2"/><line x1="404.5" y1="523.79" x2="406.5" y2="527.26" stroke="#6b4226" stroke-width="2"/><line x1="395.5" y1="523.79" x2="393.5" y2="527.26" stroke="#6b4226" stroke-width="2"/><line x1="391" y1="516" x2="387" y2="516" stroke="#6b4226" stroke-width="2"/><line x1="395.5" y1="508.21" x2="393.5" y2="504.74" stroke="#6b4226" stroke-width="2"/><line x1="404.5" y1="508.21" x2="406.5" y2="504.74" stroke="#6b4226" stroke-width="2"/><circle cx="400" cy="516" r="8" fill="none" stroke="#6b4226" stroke-width="3"/><circle cx="400" cy="516" r="3" fill="#6b4226"/><line x1="409" y1="516" x2="413" y2="516" stroke="#6b4226" stroke-width="2"/><line x1="404.5" y1="523.79" x2="406.5" y2="527.26" stroke="#6b4226" stroke-width="2"/><line x1="395.5" y1="523.79" x2="393.5" y2="527.26" stroke="#6b4226" stroke-width="2"/><line x1="391" y1="516" x2="387" y2="516" stroke="#6b4226" stroke-width="2"/><line x1="395.5" y1="508.21" x2="393.5" y2="504.74" stroke="#6b4226" stroke-width="2"/><line x1="404.5" y1="508.21" x2="406.5" y2="504.74" stroke="#6b4226" stroke-width="2"/><circle cx="400" cy="516" r="8" fill="none" stroke="#6b4226" stroke-width="3"/><circle cx="400" cy="516" r="3" fill="#6b4226"/><line x1="409" y1="516" x2="413" y2="516" stroke="#6b4226" stroke-width="2"/><line x1="404.5" y1="523.79" x2="406.5" y2="527.26" stroke="#6b4226" stroke-width="2"/><line x1="395.5" y1="523.79" x2="393.5" y2="527.26" stroke="#6b4226" stroke-width="2"/><line x1="391" y1="516" x2="387" y2="516" stroke="#6b4226" stroke-width="2"/><line x1="395.5" y1="508.21" x2="393.5" y2="504.74" stroke="#6b4226" stroke-width="2"/><line x1="404.5" y1="508.21" x2="406.5" y2="504.74" stroke="#6b4226" stroke-width="2"/><circle cx="400" cy="516" r="8" fill="none" stroke="#6b4226" stroke-width="3"/><circle cx="400" cy="516" r="3" fill="#6b4226"/><line x1="409" y1="516" x2="413" y2="516" stroke="#6b4226" stroke-width="2"/><line x1="404.5" y1="523.79" x2="406.5" y2="527.26" stroke="#6b4226" stroke-width="2"/><line x1="395.5" y1="523.79" x2="393.5" y2="527.26" stroke="#6b4226" stroke-width="2"/><line x1="391" y1="516" x2="387" y2="516" stroke="#6b4226" stroke-width="2"/><line x1="395.5" y1="508.21" x2="393.5" y2="504.74" stroke="#6b4226" stroke-width="2"/><line x1="404.5" y1="508.21" x2="406.5" y2="504.74" stroke="#6b4226" stroke-width="2"/><circle cx="400" cy="516" r="8" fill="none" stroke="#6b4226" stroke-width="3"/><circle cx="400" cy="516" r="3" fill="#6b4226"/><line x1="409" y1="516" x2="413" y2="516" stroke="#6b4226" stroke-width="2"/><line x1="404.5" y1="523.79" x2="406.5" y2="527.26" stroke="#6b4226" stroke-width="2"/><line x1="395.5" y1="523.79" x2="393.5" y2="527.26" stroke="#6b4226" stroke-width="2"/><line x1="391" y1="516" x2="387" y2="516" stroke="#6b4226" stroke-width="2"/><line x1="395.5" y1="508.21" x2="393.5" y2="504.74" stroke="#6b4226" stroke-width="2"/><line x1="404.5" y1="508.21" x2="406.5" y2="504.74" stroke="#6b4226" stroke-width="2"/><circle cx="400" cy="516" r="8" fill="none" stroke="#6b4226" stroke-width="3"/><circle cx="400" cy="516" r="3" fill="#6b4226"/><line x1="409" y1="516" x2="413" y2="516" stroke="#6b4226" stroke-width="2"/><line x1="404.5" y1="523.79" x2="406.5" y2="527.26" stroke="#6b4226" stroke-width="2"/><line x1="395.5" y1="523.79" x2="393.5" y2="527.26" stroke="#6b4226" stroke-width="2"/><line x1="391" y1="516" x2="387" y2="516" stroke="#6b4226" stroke-width="2"/><line x1="395.5" y1="508.21" x2="393.5" y2="504.74" stroke="#6b4226" stroke-width="2"/><line x1="404.5" y1="508.21" x2="406.5" y2="504.74" stroke="#6b4226" stroke-width="2"/><circle cx="400" cy="516" r="8" fill="none" stroke="#6b4226" stroke-width="3"/><circle cx="400" cy="516" r="3" fill="#6b4226"/><line x1="409" y1="516" x2="413" y2="516" stroke="#6b4226" stroke-width="2"/><line x1="404.5" y1="523.79" x2="406.5" y2="527.26" stroke="#6b4226" stroke-width="2"/><line x1="395.5" y1="523.79" x2="393.5" y2="527.26" stroke="#6b4226" stroke-width="2"/><line x1="391" y1="516" x2="387" y2="516" stroke="#6b4226" stroke-width="2"/><line x1="395.5" y1="508.21" x2="393.5" y2="504.74" stroke="#6b4226" stroke-width="2"/><line x1="404.5" y1="508.21" x2="406.5" y2="504.74" stroke="#6b4226" stroke-width="2"/><circle cx="400" cy="516" r="8" fill="none" stroke="#6b4226" stroke-width="3"/><circle cx="400" cy="516" r="3" fill="#6b4226"/>
  </svg>