<svg xmlns="http://www.w3.org/2000/svg" width="800" height="600" viewBox="0 0 800 600">
    <defs>
      <linearGradient id="sky" x1="0" y1="0" x2="0" y2="1">
        <stop offset="0" stop-color="#fdf6e3"/>
        <stop offset="1" stop-color="#f6e2b3"/>
      </linearGradient>
    </defs>
    <rect x="0" y="0" width="800" height="600" fill="url(#sky)"/>
    <ellipse cx="400" cy="534" rx="105" ry="14" fill="#c9a267" opacity="0.6"/>
    <path d="M 330,526 L 342,560 L 458,560 L 470,526 Z" fill="#a85f3c"/>
    <rect x="326" y="520" width="148" height="10" rx="3" fill="#8a4a2e"/>
    <path d="M 409.76,518.17 L 412.84,502.65 L 394.02,498.47 L 390.24,513.83 Z" fill="#5b3a24"/><path d="M 412.57,503.59 L 417.21,488.47 L 399.61,482.62 L 394.28,497.52 Z" fill="#5b3a24"/><path d="M 417.43,487.7 L 420.75,472.23 L 403.42,468.09 L 399.39,483.39 Z" fill="#5b3a24"/><path d="M 420.96,469.34 L 419.15,453.62 L 402.13,455.19 L 403.22,470.98 Z" fill="#5b3a24"/><path d="M 418.98,452.58 L 415.24,437.21 L 399.26,440.71 L 402.29,456.24 Z" fill="#5b3a24"/><path d="M 414.64,435.46 L 407.54,421.32 L 393.41,428.01 L 399.85,442.46 Z" fill="#5b3a24"/><path d="M 407.34,420.91 L 399.43,407.21 L 386.35,414.36 L 393.61,428.41 Z" fill="#5b3a24"/><path d="M 399.79,407.95 L 393.45,393.46 L 380.33,398.83 L 385.99,413.61 Z" fill="#5b3a24"/><path d="M 393.12,392.75 L 385.21,379.04 L 373.4,385.49 L 380.67,399.54 Z" fill="#5b3a24"/><path d="M 385.74,380.3 L 380.78,365.28 L 368.6,368.99 L 372.87,384.23 Z" fill="#5b3a24"/><path d="M 380.97,366.1 L 378.03,350.55 L 366.19,352.5 L 368.41,368.17 Z" fill="#5b3a24"/><path d="M 378.05,350.64 L 375.35,335.05 L 364.2,336.72 L 366.18,352.41 Z" fill="#5b3a24"/><path d="M 375.4,336.18 L 375.89,320.37 L 365.36,319.8 L 364.15,335.58 Z" fill="#5b3a24"/><path d="M 375.78,321.18 L 378.71,305.63 L 369.1,303.6 L 365.47,318.99 Z" fill="#5b3a24"/><path d="M 378.79,305.09 L 379.96,289.31 L 370.91,288.43 L 369.02,304.14 Z" fill="#5b3a24"/><path d="M 379.95,289.4 L 381.43,273.64 L 373.12,272.67 L 370.92,288.34 Z" fill="#5b3a24"/><path d="M 381.17,274.67 L 386.55,259.79 L 379.43,257.03 L 373.37,271.65 Z" fill="#5b3a24"/><path d="M 386.34,260.24 L 393.61,246.18 L 387.54,242.87 L 379.64,256.58 Z" fill="#5b3a24"/><path d="M 393.61,246.18 L 400.87,232.13 L 395.45,229.16 L 387.54,242.87 Z" fill="#5b3a24"/><path d="M 401.13,231.5 L 405.15,216.19 L 399.9,214.69 L 395.19,229.79 Z" fill="#5b3a24"/><path d="M 405.14,216.22 L 409.31,200.96 L 404.78,199.61 L 399.91,214.66 Z" fill="#5b3a24"/><path d="M 409.35,200.81 L 412.53,185.31 L 408.63,184.42 L 404.74,199.76 Z" fill="#5b3a24"/>
    <path d="M 414.31,458.29 L 459.74,412.99 L 454.69,407.66 L 406.96,450.53 Z" fill="#5b3a24"/><path d="M 459.28,413.36 L 511.39,375.94 L 509.15,372.63 L 455.16,407.29 Z" fill="#5b3a24"/><path d="M 395.63,406.97 L 340.8,369.21 L 336.89,374.65 L 390.15,414.59 Z" fill="#8a5a34"/><path d="M 341.51,369.91 L 300.23,317.68 L 297.04,320.09 L 336.18,373.95 Z" fill="#8a5a34"/><path d="M 376.71,370.63 L 431.98,337.48 L 428.96,332.25 L 372.67,363.64 Z" fill="#8a5a34"/><path d="M 432.34,337.24 L 482.37,296.6 L 479.89,293.46 L 428.61,332.49 Z" fill="#8a5a34"/><path d="M 373,317.68 L 329.9,276.17 L 326.12,280 L 368.25,322.5 Z" fill="#5b3a24"/><path d="M 329.23,275.69 L 275.66,249.05 L 273.83,252.61 L 326.78,280.48 Z" fill="#5b3a24"/><path d="M 378.86,275.38 L 427.09,240.46 L 424.34,236.61 L 375.69,270.94 Z" fill="#5b3a24"/><path d="M 427.18,240.39 L 473.76,203.3 L 471.29,200.16 L 424.26,236.67 Z" fill="#5b3a24"/><path d="M 399.3,228.92 L 362.54,204.65 L 360.3,208.05 L 397.02,232.37 Z" fill="#8a5a34"/><path d="M 362.08,204.42 L 320.36,190.3 L 319.07,194.09 L 360.77,208.28 Z" fill="#8a5a34"/>
    <ellipse cx="517.6" cy="385.28" rx="58.03" ry="47.65" fill="#4a7c3a"/><ellipse cx="540.34" cy="372.62" rx="31.84" ry="26.11" fill="#4a7c3a"/><ellipse cx="518.09" cy="387.51" rx="36.11" ry="29.61" fill="#8fc76b"/><ellipse cx="498.1" cy="390.74" rx="43.22" ry="35.44" fill="#8fc76b"/><ellipse cx="489.73" cy="371.08" rx="31.6" ry="25.91" fill="#8fc76b"/><ellipse cx="502.29" cy="363.76" rx="43.87" ry="35.97" fill="#8fc76b"/><ellipse cx="523.25" cy="363.09" rx="41.26" ry="33.83" fill="#4a7c3a"/><ellipse cx="510.27" cy="374.28" rx="37.88" ry="31.77" fill="#8fc76b"/><ellipse cx="487.05" cy="363.8" rx="18.81" ry="15.99" fill="#dff2c2" opacity="0.85"/><ellipse cx="510" cy="359.8" rx="16.71" ry="14.21" fill="#dff2c2" opacity="0.85"/><ellipse cx="501.98" cy="370.39" rx="17.61" ry="14.97" fill="#dff2c2" opacity="0.85"/><ellipse cx="304.79" cy="328.12" rx="48.74" ry="40.02" fill="#4a7c3a"/><ellipse cx="321.96" cy="323.17" rx="36.54" ry="29.96" fill="#4a7c3a"/><ellipse cx="306.84" cy="331.93" rx="33.32" ry="27.33" fill="#8fc76b"/><ellipse cx="291.34" cy="333.43" rx="31.92" ry="26.18" fill="#4a7c3a"/><ellipse cx="278.09" cy="318.83" rx="34.23" ry="28.07" fill="#8fc76b"/><ellipse cx="291.94" cy="303.52" rx="29.19" ry="23.93" fill="#8fc76b"/><ellipse cx="308.49" cy="301.23" rx="32.8" ry="26.89" fill="#8fc76b"/><ellipse cx="298.63" cy="318.89" rx="31.81" ry="26.68" fill="#8fc76b"/><ellipse cx="296.29" cy="313.03" rx="16.55" ry="14.06" fill="#dff2c2" opacity="0.85"/><ellipse cx="283.63" cy="318.87" rx="12.91" ry="10.97" fill="#dff2c2" opacity="0.85"/><ellipse cx="294.3" cy="309.88" rx="17.45" ry="14.84" fill="#dff2c2" opacity="0.85"/><ellipse cx="488.37" cy="305.89" rx="57.29" ry="47.04" fill="#4a7c3a"/><ellipse cx="503.26" cy="297.58" rx="37.93" ry="31.1" fill="#8fc76b"/><ellipse cx="494.21" cy="306.83" rx="34.22" ry="28.06" fill="#8fc76b"/><ellipse cx="473.01" cy="308.96" rx="32.21" ry="26.42" fill="#4a7c3a"/><ellipse cx="466.62" cy="293.01" rx="41.77" ry="34.25" fill="#4a7c3a"/><ellipse cx="469.61" cy="277.69" rx="42.27" ry="34.66" fill="#8fc76b"/><ellipse cx="489.71" cy="277.44" rx="39.66" ry="32.52" fill="#8fc76b"/><ellipse cx="481.13" cy="295.03" rx="37.39" ry="31.36" fill="#8fc76b"/><ellipse cx="477.07" cy="281" rx="17.63" ry="14.98" fill="#dff2c2" opacity="0.85"/><ellipse cx="467.12" cy="290.18" rx="20.08" ry="17.07" fill="#dff2c2" opacity="0.85"/><ellipse cx="479.69" cy="284.5" rx="16.69" ry="14.19" fill="#dff2c2" opacity="0.85"/><ellipse cx="282.3" cy="262.16" rx="59.84" ry="49.13" fill="#4a7c3a"/><ellipse cx="303.2" cy="248.81" rx="37.07" ry="30.4" fill="#4a7c3a"/><ellipse cx="282.16" cy="259.04" rx="43.86" ry="35.96" fill="#4a7c3a"/><ellipse cx="264.95" cy="271.3" rx="43.5" ry="35.67" fill="#8fc76b"/><ellipse cx="247.4" cy="250.01" rx="31.62" ry="25.92" fill="#4a7c3a"/><ellipse cx="263.62" cy="241.36" rx="38.71" ry="31.74" fill="#4a7c3a"/><ellipse cx="285.02" cy="237.71" rx="40.7" ry="33.37" fill="#4a7c3a"/><ellipse cx="274.74" cy="250.83" rx="39.05" ry="32.75" fill="#8fc76b"/><ellipse cx="260.71" cy="235.94" rx="21.95" ry="18.66" fill="#dff2c2" opacity="0.85"/><ellipse cx="267.72" cy="241.72" rx="15.63" ry="13.29" fill="#dff2c2" opacity="0.85"/><ellipse cx="259.17" cy="233.87" rx="19.69" ry="16.74" fill="#dff2c2" opacity="0.85"/><ellipse cx="478.96" cy="211.37" rx="50.88" ry="41.78" fill="#4a7c3a"/><ellipse cx="493.7" cy="205.08" rx="34.11" ry="27.97" fill="#4a7c3a"/><ellipse cx="478.82" cy="210.47" rx="27.05" ry="22.18" fill="#4a7c3a"/><ellipse cx="463.6" cy="218.89" rx="27.8" ry="22.8" fill="#8fc76b"/><ellipse cx="455.59" cy="199.64" rx="31.52" ry="25.84" fill="#4a7c3a"/><ellipse cx="455.52" cy="187.94" rx="27.76" ry="22.77" fill="#8fc76b"/><ellipse cx="476.82" cy="193.49" rx="36.92" ry="30.27" fill="#4a7c3a"/><ellipse cx="472.53" cy="201.73" rx="33.21" ry="27.85" fill="#8fc76b"/><ellipse cx="469.05" cy="192.59" rx="16.44" ry="13.97" fill="#dff2c2" opacity="0.85"/><ellipse cx="468.67" cy="190.44" rx="16.35" ry="13.9" fill="#dff2c2" opacity="0.85"/><ellipse cx="470.62" cy="195.31" rx="14.09" ry="11.97" fill="#dff2c2" opacity="0.85"/><ellipse cx="326.82" cy="202.86" rx="56.29" ry="46.22" fill="#4a7c3a"/><ellipse cx="332.93" cy="190.73" rx="38.49" ry="31.56" fill="#8fc76b"/><ellipse cx="326.66" cy="205.99" rx="31.06" ry="25.47" fill="#8fc76b"/><ellipse cx="313.86" cy="206.49" rx="31.59" ry="25.9" fill="#8fc76b"/><ellipse cx="293.49" cy="196.4" rx="40.52" ry="33.22" fill="#4a7c3a"/><ellipse cx="305.16" cy="177.72" rx="38.18" ry="31.31" fill="#8fc76b"/><ellipse cx="330.67" cy="176.96" rx="34.39" ry="28.2" fill="#8fc76b"/><ellipse cx="319.71" cy="192.2" rx="36.74" ry="30.81" fill="#8fc76b"/><ellipse cx="305.65" cy="187.91" rx="16.74" ry="14.23" fill="#dff2c2" opacity="0.85"/><ellipse cx="317.31" cy="185.15" rx="19.37" ry="16.46" fill="#dff2c2" opacity="0.85"/><ellipse cx="313.6" cy="186.13" rx="15.1" ry="12.84" fill="#dff2c2" opacity="0.85"/><ellipse cx="417.96" cy="195.94" rx="58.44" ry="47.98" fill="#4a7c3a"/><ellipse cx="422.79" cy="186.28" rx="31.34" ry="25.7" fill="#4a7c3a"/><ellipse cx="427.33" cy="201.26" rx="33.2" ry="27.22" fill="#8fc76b"/><ellipse cx="401.11" cy="206.25" rx="43.87" ry="35.97" fill="#4a7c3a"/><ellipse cx="385.27" cy="184.27" rx="43.63" ry="35.77" fill="#4a7c3a"/><ellipse cx="397.72" cy="174.76" rx="34.18" ry="28.03" fill="#4a7c3a"/><ellipse cx="420.35" cy="169.52" rx="38.3" ry="31.4" fill="#8fc76b"/><ellipse cx="410.58" cy="184.86" rx="38.14" ry="31.99" fill="#8fc76b"/><ellipse cx="396.02" cy="176.43" rx="19.91" ry="16.92" fill="#dff2c2" opacity="0.85"/><ellipse cx="395.84" cy="178.16" rx="21.11" ry="17.94" fill="#dff2c2" opacity="0.85"/><ellipse cx="397.93" cy="174.88" rx="18.84" ry="16.01" fill="#dff2c2" opacity="0.85"/>
    <g><circle cx="477.12" cy="345.85" r="7.6" fill="#ffc94d" opacity="0.9"/><circle cx="470.56" cy="354.89" r="7.6" fill="#ffc94d" opacity="0.9"/><circle cx="459.94" cy="351.44" r="7.6" fill="#ffc94d" opacity="0.9"/><circle cx="459.94" cy="340.27" r="7.6" fill="#ffc94d" opacity="0.9"/><circle cx="470.56" cy="336.82" r="7.6" fill="#ffc94d" opacity="0.9"/><circle cx="467.62" cy="345.85" r="6.65" fill="#ffe9a8"/></g><g><circle cx="481.76" cy="349.86" r="6.5" fill="#ffc94d" opacity="0.9"/><circle cx="476.14" cy="357.59" r="6.5" fill="#ffc94d" opacity="0.9"/><circle cx="467.05" cy="354.64" r="6.5" fill="#ffc94d" opacity="0.9"/><circle cx="467.05" cy="345.08" r="6.5" fill="#ffc94d" opacity="0.9"/><circle cx="476.14" cy="342.13" r="6.5" fill="#ffc94d" opacity="0.9"/><circle cx="473.63" cy="349.86" r="5.69" fill="#ffe9a8"/></g>
    
    
    <line x1="409" y1="516" x2="413" y2="516" stroke="#6b4226" stroke-width="2"/><line x1="404.5" y1="523.79" x2="406.5" y2="527.26" stroke="#6b4226" stroke-width="2"/><line x1="395.5" y1="523.79" x2="393.5" y2="527.26" stroke="#6b4226" stroke-width="2"/><line x1="391" y1="516" x2="387" y2="516" stroke="#6b4226" stroke-width="2"/><line x1="395.5" y1="508.21" x2="393.5" y2="504.74" stroke="#6b4226" stroke-width="2"/><line x1="404.5" y1="508.21" x2="406.5" y2="504.74" stroke="#6b4226" stroke-width="2"/><circle cx="400" cy="516" r="8" fill="none" stroke="#6b4226" stroke-width="3"/><circle cx="400" cy="516" r="3" fill="#6b4226"/><line x1="409" y1="516" x2="413" y2="516" stroke="#6b4226" stroke-width="2"/><line x1="404.5" y1="523.79" x2="406.5" y2="527.26" stroke="#6b4226" stroke-width="2"/><line x1="395.5" y1="523.79" x2="393.5" y2="527.26" stroke="#6b4226" stroke-width="2"/><line x1="391" y1="516" x2="387" y2="516" stroke="#6b4226" stroke-width="2"/><line x1="395.5" y1="508.21" x2="393.5" y2="504.74" stroke="#6b4226" stroke-width="2"/><line x1="404.5" y1="508.21" x2="406.5" y2="504.74" stroke="#6b4226" stroke-width="2"/><circle cx="400" cy="516" r="8" fill="none" stroke="#6b4226" stroke-width="3"/><circle cx="400" cy="516" r="3" fill="#6b4226"/><line x1="409" y1="516" x2="413" y2="516" stroke="#6b4226" stroke-width="2"/><line x1="404.5" y1="523.79" x2="406.5" y2="527.26" stroke="#6b4226" stroke-width="2"/><line x1="395.5" y1="523.79" x2="393.5" y2="527.26" stroke="#6b4226" stroke-width="2"/><line x1="391" y1="516" x2="387" y2="516" stroke="#6b4226" stroke-width="2"/><line x1="395.5" y1="508.21" x2="393.5" y2="504.74" stroke="#6b4226" stroke-width="2"/><line x1="404.5" y1="508.21" x2="406.5" y2="504.74" stroke="#6b4226" stroke-width="2"/><circle cx="400" cy="516" r="8" fill="none" stroke="#6b4226" stroke-width="3"/><circle cx="400" cy="516" r="3" fill="#6b4226"/><line x1="409" y1="516" x2="413" y2="516" stroke="#6b4226" stroke-width="2"/><line x1="404.5" y1="523.79" x2="406.5" y2="527.26" stroke="#6b4226" stroke-width="2"/><line x1="395.5" y1="523.79" x2="393.5" y2="527.26" stroke="#6b4226" stroke-width="2"/><line x1="391" y1="516" x2="387" y2="516" stroke="#6b4226" stroke-width="2"/><line x1="395.5" y1="508.21" x2="393.5" y2="504.74" stroke="#6b4226" stroke-width="2"/><line x1="404.5" y1="508.21" x2="406.5" y2="504.74" stroke="#6b4226" stroke-width="2"/><circle cx="400" cy="516" r="8" fill="none" stroke="#6b4226" stroke-width="3"/><circle cx="400" cy="516" r="3" fill="#6b4226"/><line x1="412.43" y1="500.56" x2="416.43" y2="500.56" stroke="#6b4226" stroke-width="2"/><line x1="407.93" y1="508.35" x2="409.93" y2="511.82" stroke="#6b4226" stroke-width="2"/><line x1="398.93" y1="508.35" x2="396.93" y2="511.82" stroke="#6b4226" stroke-width="2"/><line x1="394.43" y1="500.56" x2="390.43" y2="500.56" stroke="#6b4226" stroke-width="2"/><line x1="398.93" y1="492.76" x2="396.93" y2="489.3" stroke="#6b4226" stroke-width="2"/><line x1="407.93" y1="492.76" x2="409.93" y2="489.3" stroke="#6b4226" stroke-width="2"/><circle cx="403.43" cy="500.56" r="8" fill="none" stroke="#6b4226" stroke-width="3"/><circle cx="403.43" cy="500.56" r="3" fill="#6b4226"/><line x1="412.43" y1="500.56" x2="416.43" y2="500.56" stroke="#6b4226" stroke-width="2"/><line x1="407.93" y1="508.35" x2="409.93" y2="511.82" stroke="#6b4226" stroke-width="2"/><line x1="398.93" y1="508.35" x2="396.93" y2="511.82" stroke="#6b4226" stroke-width="2"/><line x1="394.43" y1="500.56" x2="390.43" y2="500.56" stroke="#6b4226" stroke-width="2"/><line x1="398.93" y1="492.76" x2="396.93" y2="489.3" stroke="#6b4226" stroke-width="2"/><line x1="407.93" y1="492.76" x2="409.93" y2="489.3" stroke="#6b4226" stroke-width="2"/><circle cx="403.43" cy="500.56" r="8" fill="none" stroke="#6b4226" stroke-width="3"/><circle cx="403.43" cy="500.56" r="3" fill="#6b4226"/><line x1="412.43" y1="500.56" x2="416.43" y2="500.56" stroke="#6b4226" stroke-width="2"/><line x1="407.93" y1="508.35" x2="409.93" y2="511.82" stroke="#6b4226" stroke-width="2"/><line x1="398.93" y1="508.35" x2="396.93" y2="511.82" stroke="#6b4226" stroke-width="2"/><line x1="394.43" y1="500.56" x2="390.43" y2="500.56" stroke="#6b4226" stroke-width="2"/><line x1="398.93" y1="492.76" x2="396.93" y2="489.3" stroke="#6b4226" stroke-width="2"/><line x1="407.93" y1="492.76" x2="409.93" y2="489.3" stroke="#6b4226" stroke-width="2"/><circle cx="403.43" cy="500.56" r="8" fill="none" stroke="#6b4226" stroke-width="3"/><circle cx="403.43" cy="500.56" r="3" fill="#6b4226"/><line x1="412.43" y1="500.56" x2="416.43" y2="500.56" stroke="#6b4226" stroke-width="2"/><line x1="407.93" y1="508.35" x2="409.93" y2="511.82" stroke="#6b4226" stroke-width="2"/><line x1="398.93" y1="508.35" x2="396.93" y2="511.82" stroke="#6b4226" stroke-width="2"/><line x1="394.43" y1="500.56" x2="390.43" y2="500.56" stroke="#6b4226" stroke-width="2"/><line x1="398.93" y1="492.76" x2="396.93" y2="489.3" stroke="#6b4226" stroke-width="2"/><line x1="407.93" y1="492.76" x2="409.93" y2="489.3" stroke="#6b4226" stroke-width="2"/><circle cx="403.43" cy="500.56" r="8" fill="none" stroke="#6b4226" stroke-width="3"/><circle cx="403.43" cy="500.56" r="3" fill="#6b4226"/><line x1="412.43" y1="500.56" x2="416.43" y2="500.56" stroke="#6b4226" stroke-width="2"/><line x1="407.93" y1="508.35" x2="409.93" y2="511.82" stroke="#6b4226" stroke-width="2"/><line x1="398.93" y1="508.35" x2="396.93" y2="511.82" stroke="#6b4226" stroke-width="2"/><line x1="394.43" y1="500.56" x2="390.43" y2="500.56" stroke="#6b4226" stroke-width="2"/><line x1="398.93" y1="492.76" x2="396.93" y2="489.3" stroke="#6b4226" stroke-width="2"/><line x1="407.93" y1="492.76" x2="409.93" y2="489.3" stroke="#6b4226" stroke-width="2"/><circle cx="403.43" cy="500.56" r="8" fill="none" stroke="#6b4226" stroke-width="3"/><circle cx="403.43" cy="500.56" r="3" fill="#6b4226"/><line x1="412.43" y1="500.56" x2="416.43" y2="500.56" stroke="#6b4226" stroke-width="2"/><line x1="407.93" y1="508.35" x2="409.93" y2="511.82" stroke="#6b4226" stroke-width="2"/><line x1="398.93" y1="508.35" x2="396.93" y2="511.82" stroke="#6b4226" stroke-width="2"/><line x1="394.43" y1="500.56" x2="390.43" y2="500.56" stroke="#6b4226" stroke-width="2"/><line x1="398.93" y1="492.76" x2="396.93" y2="489.3" stroke="#6b4226" stroke-width="2"/><line x1="407.93" y1="492.76" x2="409.93" y2="489.3" stroke="#6b4226" stroke-width="2"/><circle cx="403.43" cy="500.56" r="8" fill="none" stroke="#6b4226" stroke-width="3"/><circle cx="403.43" cy="500.56" r="3" fill="#6b4226"/>
  </svg>