<svg xmlns="http://www.w3.org/2000/svg" width="800" height="600" viewBox="0 0 800 600">
    <defs>
      <linearGradient id="sky" x1="0" y1="0" x2="0" y2="1">
        <stop offset="0" stop-color="#fdf6e3"/>
        <stop offset="1" stop-color="#f6e2b3"/>
      </linearGradient>
    </defs>
    <rect x="0" y="0" width="800" height="600" fill="url(#sky)"/>
    <ellipse cx="400" cy="534" rx="105" ry="14" fill="#c9a267" opacity="0.6"/>
    <path d="M 330,526 L 342,560 L 458,560 L 470,526 Z" fill="#a85f3c"/>
    <rect x="326" y="520" width="148" height="10" rx="3" fill="#8a4a2e"/>
    <path d="M 409.99,516.35 L 410.19,500.53 L 390.93,499.85 L 390.01,515.65 Z" fill="#5b3a24"/><path d="M 410.16,501.09 L 411.27,485.3 L 392.8,483.58 L 390.97,499.3 Z" fill="#5b3a24"/><path d="M 411.3,484.04 L 410.24,468.25 L 392.44,469.03 L 392.77,484.85 Z" fill="#5b3a24"/><path d="M 410.08,470.38 L 412.81,454.79 L 396.04,451.46 L 392.6,466.9 Z" fill="#5b3a24"/><path d="M 412.81,454.78 L 415.52,439.2 L 399.47,436.02 L 396.04,451.47 Z" fill="#5b3a24"/><path d="M 415.67,437.96 L 416,422.14 L 400.37,421.46 L 399.32,437.25 Z" fill="#5b3a24"/><path d="M 415.97,422.53 L 417.08,406.75 L 402.24,405.36 L 400.4,421.08 Z" fill="#5b3a24"/><path d="M 416.93,404.41 L 413.08,389.06 L 399.25,392.2 L 402.39,407.7 Z" fill="#5b3a24"/><path d="M 412.76,388.04 L 406.64,373.45 L 394.12,378.37 L 399.56,393.22 Z" fill="#5b3a24"/><path d="M 406.35,372.82 L 398.77,358.93 L 387.46,364.78 L 394.4,378.99 Z" fill="#5b3a24"/><path d="M 399.02,359.5 L 392.83,344.94 L 381.68,349.38 L 387.2,364.21 Z" fill="#5b3a24"/><path d="M 392.79,344.85 L 386.35,330.39 L 375.95,334.74 L 381.72,349.48 Z" fill="#5b3a24"/><path d="M 386.15,329.98 L 378.55,316.1 L 369.19,320.95 L 376.14,335.16 Z" fill="#5b3a24"/><path d="M 378.73,316.5 L 372.31,302.04 L 363.25,305.82 L 369,320.56 Z" fill="#5b3a24"/><path d="M 372.64,303.22 L 370,287.62 L 361.01,288.93 L 362.92,304.63 Z" fill="#5b3a24"/><path d="M 369.99,287.53 L 367.04,271.98 L 358.79,273.35 L 361.02,289.02 Z" fill="#5b3a24"/><path d="M 367.03,271.9 L 363.77,256.42 L 356.27,257.82 L 358.81,273.43 Z" fill="#5b3a24"/><path d="M 363.82,256.72 L 361.83,241.03 L 354.96,241.74 L 356.22,257.51 Z" fill="#5b3a24"/><path d="M 361.84,241.1 L 360.2,225.37 L 354.04,225.86 L 354.95,241.66 Z" fill="#5b3a24"/><path d="M 360.19,225.26 L 358.03,209.59 L 352.61,210.21 L 354.05,225.97 Z" fill="#5b3a24"/><path d="M 358,209.38 L 354.63,193.92 L 349.98,194.82 L 352.64,210.42 Z" fill="#5b3a24"/><path d="M 354.66,194.23 L 353.35,178.46 L 349.35,178.7 L 349.95,194.51 Z" fill="#5b3a24"/>
    <path d="M 408.97,455.94 L 443.75,396.63 L 437.51,392.76 L 399.88,450.31 Z" fill="#8a5a34"/><path d="M 443.48,397.01 L 485.61,342.67 L 482.51,340.14 L 437.79,392.37 Z" fill="#8a5a34"/><path d="M 412.96,402.72 L 367.3,359.36 L 362.59,364.11 L 406.36,409.39 Z" fill="#5b3a24"/><path d="M 367.49,359.56 L 325.59,312.54 L 322.55,315.14 L 362.4,363.9 Z" fill="#5b3a24"/><path d="M 395.74,364.92 L 441,324.77 L 437.07,320.19 L 390.49,358.79 Z" fill="#5b3a24"/><path d="M 440.73,324.99 L 490.32,290.34 L 488.09,287.02 L 437.35,319.98 Z" fill="#5b3a24"/><path d="M 376.72,316.72 L 344.92,267.75 L 340.37,270.62 L 371.01,320.33 Z" fill="#5b3a24"/><path d="M 345.12,268.14 L 321.75,214.62 L 318.07,216.18 L 340.17,270.23 Z" fill="#5b3a24"/><path d="M 364.33,275 L 417.31,242.48 L 414.86,238.44 L 361.51,270.33 Z" fill="#8a5a34"/><path d="M 416.8,242.71 L 475.94,223.58 L 474.73,219.77 L 415.37,238.21 Z" fill="#8a5a34"/><path d="M 358.57,224.13 L 338.52,204.56 L 335.67,207.47 L 355.67,227.1 Z" fill="#8a5a34"/><path d="M 338.84,204.97 L 324.39,180.96 L 320.96,183.02 L 335.35,207.06 Z" fill="#8a5a34"/>
    <ellipse cx="490.34" cy="350.83" rx="49.73" ry="40.83" fill="#4a7c3a"/><ellipse cx="496.23" cy="340.49" rx="29.6" ry="24.27" fill="#4a7c3a"/><ellipse cx="497.26" cy="351.86" rx="26.39" ry="21.64" fill="#4a7c3a"/><ellipse cx="471.63" cy="356.96" rx="34.55" ry="28.33" fill="#4a7c3a"/><ellipse cx="468.71" cy="341.68" rx="37.56" ry="30.8" fill="#8fc76b"/><ellipse cx="473.4" cy="332.69" rx="26.79" ry="21.97" fill="#4a7c3a"/><ellipse cx="491.75" cy="328.85" rx="32.07" ry="26.3" fill="#8fc76b"/><ellipse cx="484.06" cy="341.4" rx="32.46" ry="27.22" fill="#8fc76b"/><ellipse cx="462.55" cy="340.02" rx="14.89" ry="12.66" fill="#dff2c2" opacity="0.85"/><ellipse cx="475.05" cy="339.87" rx="17.57" ry="14.93" fill="#dff2c2" opacity="0.85"/><ellipse cx="480.26" cy="332.39" rx="17.59" ry="14.95" fill="#dff2c2" opacity="0.85"/><ellipse cx="330.33" cy="323.24" rx="49.61" ry="40.73" fill="#4a7c3a"/><ellipse cx="342.62" cy="313.72" rx="35.15" ry="28.83" fill="#8fc76b"/><ellipse cx="332.93" cy="325.51" rx="26.45" ry="21.69" fill="#4a7c3a"/><ellipse cx="313.8" cy="324.58" rx="33.79" ry="27.71" fill="#8fc76b"/><ellipse cx="308.72" cy="311.85" rx="33.15" ry="27.19" fill="#8fc76b"/><ellipse cx="312.62" cy="302.18" rx="26.51" ry="21.74" fill="#8fc76b"/><ellipse cx="332.15" cy="307.1" rx="32.39" ry="26.56" fill="#8fc76b"/><ellipse cx="324.07" cy="313.84" rx="32.38" ry="27.15" fill="#8fc76b"/><ellipse cx="317.62" cy="309.37" rx="12.8" ry="10.88" fill="#dff2c2" opacity="0.85"/><ellipse cx="317.06" cy="307.04" rx="17.29" ry="14.7" fill="#dff2c2" opacity="0.85"/><ellipse cx="311.5" cy="308.15" rx="11.8" ry="10.03" fill="#dff2c2" opacity="0.85"/><ellipse cx="496.1" cy="299.02" rx="54.57" ry="44.81" fill="#4a7c3a"/><ellipse cx="504.89" cy="288.18" rx="38.19" ry="31.31" fill="#8fc76b"/><ellipse cx="498.07" cy="299.11" rx="33.55" ry="27.52" fill="#8fc76b"/><ellipse cx="480.07" cy="298.5" rx="31.65" ry="25.95" fill="#8fc76b"/><ellipse cx="464.74" cy="287.15" rx="29.19" ry="23.94" fill="#8fc76b"/><ellipse cx="482.64" cy="275.32" rx="32.1" ry="26.32" fill="#8fc76b"/><ellipse cx="495.43" cy="278.46" rx="36.11" ry="29.61" fill="#8fc76b"/><ellipse cx="489.21" cy="288.68" rx="35.62" ry="29.87" fill="#8fc76b"/><ellipse cx="489.06" cy="275.55" rx="19.5" ry="16.57" fill="#dff2c2" opacity="0.85"/><ellipse cx="486.8" cy="279.8" rx="18.45" ry="15.68" fill="#dff2c2" opacity="0.85"/><ellipse cx="480.27" cy="288.07" rx="15.57" ry="13.24" fill="#dff2c2" opacity="0.85"/><ellipse cx="327.13" cy="226.24" rx="57.2" ry="46.96" fill="#4a7c3a"/><ellipse cx="334.21" cy="214.87" rx="35.11" ry="28.79" fill="#8fc76b"/><ellipse cx="333.42" cy="230.35" rx="33.29" ry="27.3" fill="#8fc76b"/><ellipse cx="309.41" cy="232.86" rx="30.35" ry="24.89" fill="#4a7c3a"/><ellipse cx="306.49" cy="213.46" rx="38.06" ry="31.21" fill="#4a7c3a"/><ellipse cx="307.61" cy="200.95" rx="40.79" ry="33.45" fill="#8fc76b"/><ellipse cx="340.2" cy="199.13" rx="35.93" ry="29.46" fill="#4a7c3a"/><ellipse cx="319.91" cy="215.4" rx="37.33" ry="31.31" fill="#8fc76b"/><ellipse cx="312.5" cy="199.44" rx="19.39" ry="16.48" fill="#dff2c2" opacity="0.85"/><ellipse cx="308.86" cy="209.09" rx="20.03" ry="17.02" fill="#dff2c2" opacity="0.85"/><ellipse cx="296.95" cy="214.58" rx="17.69" ry="15.03" fill="#dff2c2" opacity="0.85"/><ellipse cx="482.04" cy="231.73" rx="53.1" ry="43.6" fill="#4a7c3a"/><ellipse cx="486.69" cy="220.19" rx="29.26" ry="23.99" fill="#4a7c3a"/><ellipse cx="482.35" cy="234.78" rx="28.78" ry="23.6" fill="#4a7c3a"/><ellipse cx="466.83" cy="238.9" rx="37.38" ry="30.65" fill="#8fc76b"/><ellipse cx="452.74" cy="221.1" rx="33.46" ry="27.44" fill="#8fc76b"/><ellipse cx="458.36" cy="205.85" rx="29.82" ry="24.45" fill="#8fc76b"/><ellipse cx="484.18" cy="211.01" rx="29.55" ry="24.23" fill="#8fc76b"/><ellipse cx="475.33" cy="221.67" rx="34.66" ry="29.07" fill="#8fc76b"/><ellipse cx="455.49" cy="211.87" rx="14.21" ry="12.08" fill="#dff2c2" opacity="0.85"/><ellipse cx="460.19" cy="207.62" rx="15.79" ry="13.42" fill="#dff2c2" opacity="0.85"/><ellipse cx="466.24" cy="221.64" rx="18.96" ry="16.12" fill="#dff2c2" opacity="0.85"/><ellipse cx="328.35" cy="190.5" rx="44.93" ry="36.89" fill="#4a7c3a"/><ellipse cx="344.64" cy="180.75" rx="29.51" ry="24.2" fill="#4a7c3a"/><ellipse cx="331.98" cy="198.25" rx="33.52" ry="27.49" fill="#4a7c3a"/><ellipse cx="310.57" cy="192.66" rx="23.85" ry="19.56" fill="#8fc76b"/><ellipse cx="300.27" cy="182.15" rx="31.86" ry="26.13" fill="#4a7c3a"/><ellipse cx="310.5" cy="169.76" rx="24.83" ry="20.36" fill="#8fc76b"/><ellipse cx="330.1" cy="175.29" rx="27.75" ry="22.76" fill="#4a7c3a"/><ellipse cx="322.67" cy="181.99" rx="29.32" ry="24.59" fill="#8fc76b"/><ellipse cx="312.61" cy="169.34" rx="16.8" ry="14.28" fill="#dff2c2" opacity="0.85"/><ellipse cx="310.42" cy="176.69" rx="16.4" ry="13.94" fill="#dff2c2" opacity="0.85"/><ellipse cx="317.23" cy="169.49" rx="13.89" ry="11.8" fill="#dff2c2" opacity="0.85"/><ellipse cx="357.63" cy="188" rx="49.7" ry="40.81" fill="#4a7c3a"/><ellipse cx="364.82" cy="180.7" rx="35.76" ry="29.32" fill="#4a7c3a"/><ellipse cx="360.03" cy="191.31" rx="31.45" ry="25.79" fill="#4a7c3a"/><ellipse cx="346.84" cy="186.23" rx="29.56" ry="24.24" fill="#8fc76b"/><ellipse cx="340.22" cy="178.2" rx="34.49" ry="28.28" fill="#8fc76b"/><ellipse cx="339.8" cy="164.74" rx="34.05" ry="27.92" fill="#8fc76b"/><ellipse cx="363.58" cy="167.92" rx="29.66" ry="24.32" fill="#8fc76b"/><ellipse cx="351.35" cy="178.58" rx="32.44" ry="27.21" fill="#8fc76b"/><ellipse cx="334.5" cy="171.35" rx="18.28" ry="15.53" fill="#dff2c2" opacity="0.85"/><ellipse cx="334.97" cy="168.52" rx="15.1" ry="12.84" fill="#dff2c2" opacity="0.85"/><ellipse cx="340.64" cy="170.86" rx="12.53" ry="10.65" fill="#dff2c2" opacity="0.85"/>
    <g><circle cx="450.51" cy="312.97" r="7.28" fill="#ffc94d" opacity="0.9"/><circle cx="444.22" cy="321.63" r="7.28" fill="#ffc94d" opacity="0.9"/><circle cx="434.05" cy="318.32" r="7.28" fill="#ffc94d" opacity="0.9"/><circle cx="434.05" cy="307.63" r="7.28" fill="#ffc94d" opacity="0.9"/><circle cx="444.22" cy="304.32" r="7.28" fill="#ffc94d" opacity="0.9"/><circle cx="441.41" cy="312.97" r="6.37" fill="#ffe9a8"/></g><g><circle cx="456.92" cy="316.98" r="7.6" fill="#ff9ecf" opacity="0.9"/><circle cx="450.36" cy="326.01" r="7.6" fill="#ff9ecf" opacity="0.9"/><circle cx="439.73" cy="322.56" r="7.6" fill="#ff9ecf" opacity="0.9"/><circle cx="439.73" cy="311.4" r="7.6" fill="#ff9ecf" opacity="0.9"/><circle cx="450.36" cy="307.94" r="7.6" fill="#ff9ecf" opacity="0.9"/><circle cx="447.42" cy="316.98" r="6.65" fill="#ffe9a8"/></g>
    
    
    <line x1="409" y1="516" x2="413" y2="516" stroke="#6b4226" stroke-width="2"/><line x1="404.5" y1="523.79" x2="406.5" y2="527.26" stroke="#6b4226" stroke-width="2"/><line x1="395.5" y1="523.79" x2="393.5" y2="527.26" stroke="#6b4226" stroke-width="2"/><line x1="391" y1="516" x2="387" y2="516" stroke="#6b4226" stroke-width="2"/><line x1="395.5" y1="508.21" x2="393.5" y2="504.74" stroke="#6b4226" stroke-width="2"/><line x1="404.5" y1="508.21" x2="406.5" y2="504.74" stroke="#6b4226" stroke-width="2"/><circle cx="400" cy="516" r="8" fill="none" stroke="#6b4226" stroke-width="3"/><circle cx="400" cy="516" r="3" fill="#6b4226"/><line x1="409" y1="516" x2="413" y2="516" stroke="#6b4226" stroke-width="2"/><line x1="404.5" y1="523.79" x2="406.5" y2="527.26" stroke="#6b4226" stroke-width="2"/><line x1="395.5" y1="523.79" x2="393.5" y2="527.26" stroke="#6b4226" stroke-width="2"/><line x1="391" y1="516" x2="387" y2="516" stroke="#6b4226" stroke-width="2"/><line x1="395.5" y1="508.21" x2="393.5" y2="504.74" stroke="#6b4226" stroke-width="2"/><line x1="404.5" y1="508.21" x2="406.5" y2="504.74" stroke="#6b4226" stroke-width="2"/><circle cx="400" cy="516" r="8" fill="none" stroke="#6b4226" stroke-width="3"/><circle cx="400" cy="516" r="3" fill="#6b4226"/><line x1="409" y1="516" x2="413" y2="516" stroke="#6b4226" stroke-width="2"/><line x1="404.5" y1="523.79" x2="406.5" y2="527.26" stroke="#6b4226" stroke-width="2"/><line x1="395.5" y1="523.79" x2="393.5" y2="527.26" stroke="#6b4226" stroke-width="2"/><line x1="391" y1="516" x2="387" y2="516" stroke="#6b4226" stroke-width="2"/><line x1="395.5" y1="508.21" x2="393.5" y2="504.74" stroke="#6b4226" stroke-width="2"/><line x1="404.5" y1="508.21" x2="406.5" y2="504.74" stroke="#6b4226" stroke-width="2"/><circle cx="400" cy="516" r="8" fill="none" stroke="#6b4226" stroke-width="3"/><circle cx="400" cy="516" r="3" fill="#6b4226"/><line x1="409" y1="516" x2="413" y2="516" stroke="#6b4226" stroke-width="2"/><line x1="404.5" y1="523.79" x2="406.5" y2="527.26" stroke="#6b4226" stroke-width="2"/><line x1="395.5" y1="523.79" x2="393.5" y2="527.26" stroke="#6b4226" stroke-width="2"/><line x1="391" y1="516" x2="387" y2="516" stroke="#6b4226" stroke-width="2"/><line x1="395.5" y1="508.21" x2="393.5" y2="504.74" stroke="#6b4226" stroke-width="2"/><line x1="404.5" y1="508.21" x2="406.5" y2="504.74" stroke="#6b4226" stroke-width="2"/><circle cx="400" cy="516" r="8" fill="none" stroke="#6b4226" stroke-width="3"/><circle cx="400" cy="516" r="3" fill="#6b4226"/><line x1="409" y1="516" x2="413" y2="516" stroke="#6b4226" stroke-width="2"/><line x1="404.5" y1="523.79" x2="406.5" y2="527.26" stroke="#6b4226" stroke-width="2"/><line x1="395.5" y1="523.79" x2="393.5" y2="527.26" stroke="#6b4226" stroke-width="2"/><line x1="391" y1="516" x2="387" y2="516" stroke="#6b4226" stroke-width="2"/><line x1="395.5" y1="508.21" x2="393.5" y2="504.74" stroke="#6b4226" stroke-width="2"/><line x1="404.5" y1="508.21" x2="406.5" y2="504.74" stroke="#6b4226" stroke-width="2"/><circle cx="400" cy="516" r="8" fill="none" stroke="#6b4226" stroke-width="3"/><circle cx="400" cy="516" r="3" fill="#6b4226"/><line x1="409" y1="516" x2="413" y2="516" stroke="#6b4226" stroke-width="2"/><line x1="404.5" y1="523.79" x2="406.5" y2="527.26" stroke="#6b4226" stroke-width="2"/><line x1="395.5" y1="523.79" x2="393.5" y2="527.26" stroke="#6b4226" stroke-width="2"/><line x1="391" y1="516" x2="387" y2="516" stroke="#6b4226" stroke-width="2"/><line x1="395.5" y1="508.21" x2="393.5" y2="504.74" stroke="#6b4226" stroke-width="2"/><line x1="404.5" y1="508.21" x2="406.5" y2="504.74" stroke="#6b4226" stroke-width="2"/><circle cx="400" cy="516" r="8" fill="none" stroke="#6b4226" stroke-width="3"/><circle cx="400" cy="516" r="3" fill="#6b4226"/><line x1="409" y1="516" x2="413" y2="516" stroke="#6b4226" stroke-width="2"/><line x1="404.5" y1="523.79" x2="406.5" y2="527.26" stroke="#6b4226" stroke-width="2"/><line x1="395.5" y1="523.79" x2="393.5" y2="527.26" stroke="#6b4226" stroke-width="2"/><line x1="391" y1="516" x2="387" y2="516" stroke="#6b4226" stroke-width="2"/><line x1="395.5" y1="508.21" x2="393.5" y2="504.74" stroke="#6b4226" stroke-width="2"/><line x1="404.5" y1="508.21" x2="406.5" y2="504.74" stroke="#6b4226" stroke-width="2"/><circle cx="400" cy="516" r="8" fill="none" stroke="#6b4226" stroke-width="3"/><circle cx="400" cy="516" r="3" fill="#6b4226"/><line x1="409" y1="516" x2="413" y2="516" stroke="#6b4226" stroke-width="2"/><line x1="404.5" y1="523.79" x2="406.5" y2="527.26" stroke="#6b4226" stroke-width="2"/><line x1="395.5" y1="523.79" x2="393.5" y2="527.26" stroke="#6b4226" stroke-width="2"/><line x1="391" y1="516" x2="387" y2="516" stroke="#6b4226" stroke-width="2"/><line x1="395.5" y1="508.21" x2="393.5" y2="504.74" stroke="#6b4226" stroke-width="2"/><line x1="404.5" y1="508.21" x2="406.5" y2="504.74" stroke="#6b4226" stroke-width="2"/><circle cx="400" cy="516" r="8" fill="none" stroke="#6b4226" stroke-width="3"/><circle cx="400" cy="516" r="3" fill="#6b4226"/><line x1="409" y1="516" x2="413" y2="516" stroke="#6b4226" stroke-width="2"/><line x1="404.5" y1="523.79" x2="406.5" y2="527.26" stroke="#6b4226" stroke-width="2"/><line x1="395.5" y1="523.79" x2="393.5" y2="527.26" stroke="#6b4226" stroke-width="2"/><line x1="391" y1="516" x2="387" y2="516" stroke="#6b4226" stroke-width="2"/><line x1="395.5" y1="508.21" x2="393.5" y2="504.74" stroke="#6b4226" stroke-width="2"/><line x1="404.5" y1="508.21" x2="406.5" y2="504.74" stroke="#6b4226" stroke-width="2"/><circle cx="400" cy="516" r="8" fill="none" stroke="#6b4226" stroke-width="3"/><circle cx="400" cy="516" r="3" fill="#6b4226"/><line x1="409" y1="516" x2="413" y2="516" stroke="#6b4226" stroke-width="2"/><line x1="404.5" y1="523.79" x2="406.5" y2="527.26" stroke="#6b4226" stroke-width="2"/><line x1="395.5" y1="523.79" x2="393.5" y2="527.26" stroke="#6b4226" stroke-width="2"/><line x1="391" y1="516" x2="387" y2="516" stroke="#6b4226" stroke-width="2"/><line x1="395.5" y1="508.21" x2="393.5" y2="504.74" stroke="#6b4226" stroke-width="2"/><line x1="404.5" y1="508.21" x2="406.5" y2="504.74" stroke="#6b4226" stroke-width="2"/><circle cx="400" cy="516" r="8" fill="none" stroke="#6b4226" stroke-width="3"/><circle cx="400" cy="516" r="3" fill="#6b4226"/>
  </svg>