<svg xmlns="http://www.w3.org/2000/svg" width="800" height="600" viewBox="0 0 800 600">
    <defs>
      <linearGradient id="sky" x1="0" y1="0" x2="0" y2="1">
        <stop offset="0" stop-color="#fdf6e3"/>
        <stop offset="1" stop-color="#f6e2b3"/>
      </linearGradient>
    </defs>
    <rect x="0" y="0" width="800" height="600" fill="url(#sky)"/>
    <ellipse cx="400" cy="534" rx="105" ry="14" fill="#c9a267" opacity="0.6"/>
    <path d="M 330,526 L 342,560 L 458,560 L 470,526 Z" fill="#a85f3c"/>
    <rect x="326" y="520" width="148" height="10" rx="3" fill="#8a4a2e"/>
    <path d="M 409.66,513.42 L 405.22,498.23 L 386.61,503.21 L 390.34,518.58 Z" fill="#5b3a24"/><path d="M 405.54,500.19 L 404.3,484.41 L 385.78,485.44 L 386.29,501.25 Z" fill="#5b3a24"/><path d="M 403.81,481.9 L 398.3,467.06 L 381.46,472.88 L 386.28,487.95 Z" fill="#5b3a24"/><path d="M 398.3,467.08 L 392.82,452.24 L 376.66,457.79 L 381.45,472.87 Z" fill="#5b3a24"/><path d="M 393.12,453.34 L 389.68,437.9 L 373.63,441.1 L 376.36,456.68 Z" fill="#5b3a24"/><path d="M 389.82,438.99 L 388.47,423.23 L 372.87,424.2 L 373.49,440.01 Z" fill="#5b3a24"/><path d="M 388.49,423.95 L 388.6,408.13 L 373.7,407.67 L 372.86,423.47 Z" fill="#5b3a24"/><path d="M 388.45,409.42 L 391.31,393.85 L 377.42,390.97 L 373.85,406.38 Z" fill="#5b3a24"/><path d="M 391.44,392.92 L 392.21,377.12 L 378.79,376.15 L 377.29,391.9 Z" fill="#5b3a24"/><path d="M 392.14,377.72 L 394.34,362.05 L 381.78,360 L 378.87,375.55 Z" fill="#5b3a24"/><path d="M 394.39,360.42 L 392.52,344.71 L 380.58,345.85 L 381.72,361.63 Z" fill="#5b3a24"/><path d="M 392.3,343.55 L 387.4,328.51 L 376.6,331.75 L 380.8,347 Z" fill="#5b3a24"/><path d="M 387.61,329.61 L 385.79,313.89 L 375.29,314.86 L 376.39,330.65 Z" fill="#5b3a24"/><path d="M 385.68,313.18 L 381.72,297.86 L 372.16,300.09 L 375.41,315.58 Z" fill="#5b3a24"/><path d="M 381.56,297.31 L 375.86,282.55 L 367.31,285.63 L 372.32,300.64 Z" fill="#5b3a24"/><path d="M 376.13,284.06 L 375.66,268.24 L 367.29,268.3 L 367.04,284.12 Z" fill="#5b3a24"/><path d="M 375.64,267.86 L 373.72,252.16 L 366.12,252.91 L 367.31,268.68 Z" fill="#5b3a24"/><path d="M 373.74,252.57 L 373.54,236.75 L 366.64,236.68 L 366.1,252.49 Z" fill="#5b3a24"/><path d="M 373.51,236.25 L 371,220.62 L 364.88,221.46 L 366.67,237.18 Z" fill="#5b3a24"/><path d="M 371.01,221.4 L 372.48,205.65 L 367.06,205.02 L 364.87,220.69 Z" fill="#5b3a24"/><path d="M 372.41,206.02 L 376.03,190.61 L 371.45,189.43 L 367.13,204.65 Z" fill="#5b3a24"/><path d="M 376.07,190.43 L 378.44,174.78 L 374.5,174.09 L 371.41,189.61 Z" fill="#5b3a24"/>
    <path d="M 388.85,458.43 L 428.75,407.89 L 423.11,403.19 L 380.63,451.59 Z" fill="#5b3a24"/><path d="M 428.61,408.04 L 471.31,359.83 L 468.39,357.1 L 423.24,403.03 Z" fill="#5b3a24"/><path d="M 384.84,405.01 L 344.55,355.78 L 339.29,359.91 L 377.46,410.79 Z" fill="#8a5a34"/><path d="M 344.07,355.28 L 294.42,315.5 L 291.86,318.57 L 339.77,360.41 Z" fill="#8a5a34"/><path d="M 391.36,363.34 L 429.12,307.7 L 424.18,304.24 L 384.75,358.71 Z" fill="#5b3a24"/><path d="M 429.06,307.79 L 468.69,253.47 L 465.5,251.06 L 424.24,304.16 Z" fill="#5b3a24"/><path d="M 382.79,311.85 L 335.81,270.88 L 332.23,274.9 L 378.29,316.9 Z" fill="#8a5a34"/><path d="M 335.2,270.47 L 278.85,243.81 L 277.1,247.41 L 332.84,275.31 Z" fill="#8a5a34"/><path d="M 373.61,269.98 L 414.51,218.22 L 410.81,215.27 L 369.34,266.57 Z" fill="#8a5a34"/><path d="M 413.9,218.76 L 469.79,183.71 L 467.68,180.31 L 411.42,214.74 Z" fill="#8a5a34"/><path d="M 369.26,219.44 L 320.33,179.15 L 317.74,182.29 L 366.62,222.64 Z" fill="#5b3a24"/><path d="M 320.55,179.36 L 278.13,132.25 L 275.16,134.93 L 317.52,182.08 Z" fill="#5b3a24"/>
    <ellipse cx="477.15" cy="369.42" rx="57.79" ry="47.45" fill="#4a7c3a"/><ellipse cx="490.58" cy="360.63" rx="40.34" ry="33.08" fill="#8fc76b"/><ellipse cx="482.1" cy="377.92" rx="31.96" ry="26.21" fill="#4a7c3a"/><ellipse cx="454.82" cy="373.57" rx="39.97" ry="32.78" fill="#4a7c3a"/><ellipse cx="457.34" cy="358.98" rx="32.83" ry="26.92" fill="#4a7c3a"/><ellipse cx="458.43" cy="340.56" rx="40.85" ry="33.5" fill="#8fc76b"/><ellipse cx="482.05" cy="347.72" rx="36.92" ry="30.28" fill="#4a7c3a"/><ellipse cx="469.85" cy="358.47" rx="37.71" ry="31.63" fill="#8fc76b"/><ellipse cx="457.72" cy="344.99" rx="19.27" ry="16.38" fill="#dff2c2" opacity="0.85"/><ellipse cx="457.3" cy="351.99" rx="20.37" ry="17.31" fill="#dff2c2" opacity="0.85"/><ellipse cx="462.84" cy="341.92" rx="16.33" ry="13.88" fill="#dff2c2" opacity="0.85"/><ellipse cx="300.39" cy="327.92" rx="57.44" ry="47.16" fill="#4a7c3a"/><ellipse cx="318.26" cy="313.52" rx="41.23" ry="33.81" fill="#4a7c3a"/><ellipse cx="299.44" cy="329.25" rx="31.5" ry="25.83" fill="#4a7c3a"/><ellipse cx="286.31" cy="325.91" rx="30.67" ry="25.15" fill="#8fc76b"/><ellipse cx="276.33" cy="317.93" rx="35.64" ry="29.23" fill="#4a7c3a"/><ellipse cx="280.16" cy="298.53" rx="41.95" ry="34.4" fill="#8fc76b"/><ellipse cx="310.88" cy="302.41" rx="30.85" ry="25.3" fill="#4a7c3a"/><ellipse cx="293.14" cy="317.03" rx="37.49" ry="31.44" fill="#8fc76b"/><ellipse cx="272.59" cy="311.48" rx="17.42" ry="14.8" fill="#dff2c2" opacity="0.85"/><ellipse cx="280.68" cy="303.11" rx="17.14" ry="14.57" fill="#dff2c2" opacity="0.85"/><ellipse cx="284.96" cy="301.22" rx="21.19" ry="18.01" fill="#dff2c2" opacity="0.85"/><ellipse cx="474.17" cy="262.87" rx="55.99" ry="45.97" fill="#4a7c3a"/><ellipse cx="492.72" cy="255.85" rx="37.21" ry="30.51" fill="#8fc76b"/><ellipse cx="474.74" cy="264.42" rx="40.23" ry="32.99" fill="#8fc76b"/><ellipse cx="459.91" cy="260.78" rx="30.62" ry="25.11" fill="#8fc76b"/><ellipse cx="442.26" cy="248.75" rx="35.07" ry="28.76" fill="#8fc76b"/><ellipse cx="452.31" cy="234.74" rx="40.68" ry="33.35" fill="#4a7c3a"/><ellipse cx="475.03" cy="237.36" rx="36.39" ry="29.84" fill="#4a7c3a"/><ellipse cx="467.1" cy="252.26" rx="36.54" ry="30.65" fill="#8fc76b"/><ellipse cx="442.92" cy="250.95" rx="17.84" ry="15.17" fill="#dff2c2" opacity="0.85"/><ellipse cx="456.75" cy="245.18" rx="15.16" ry="12.88" fill="#dff2c2" opacity="0.85"/><ellipse cx="465.31" cy="244.89" rx="17.16" ry="14.59" fill="#dff2c2" opacity="0.85"/><ellipse cx="284.86" cy="255.94" rx="54.52" ry="44.76" fill="#4a7c3a"/><ellipse cx="296.21" cy="246.62" rx="29.54" ry="24.23" fill="#4a7c3a"/><ellipse cx="292.81" cy="263.06" rx="36.59" ry="30.01" fill="#4a7c3a"/><ellipse cx="260.63" cy="260.82" rx="36.69" ry="30.09" fill="#4a7c3a"/><ellipse cx="256.89" cy="249.08" rx="40.46" ry="33.18" fill="#8fc76b"/><ellipse cx="271.87" cy="230.96" rx="29.27" ry="24.01" fill="#4a7c3a"/><ellipse cx="286.02" cy="233.02" rx="37.37" ry="30.64" fill="#8fc76b"/><ellipse cx="277.97" cy="245.61" rx="35.58" ry="29.84" fill="#8fc76b"/><ellipse cx="271.25" cy="239.72" rx="12.7" ry="10.8" fill="#dff2c2" opacity="0.85"/><ellipse cx="262.86" cy="232.8" rx="17.52" ry="14.89" fill="#dff2c2" opacity="0.85"/><ellipse cx="267.61" cy="242.18" rx="18.34" ry="15.59" fill="#dff2c2" opacity="0.85"/><ellipse cx="474.62" cy="190.84" rx="46.64" ry="38.29" fill="#4a7c3a"/><ellipse cx="485.9" cy="185.29" rx="27.89" ry="22.87" fill="#4a7c3a"/><ellipse cx="474.54" cy="190.82" rx="30.83" ry="25.28" fill="#8fc76b"/><ellipse cx="462.1" cy="196.38" rx="31.06" ry="25.47" fill="#8fc76b"/><ellipse cx="444.35" cy="181.9" rx="29.93" ry="24.55" fill="#8fc76b"/><ellipse cx="457.05" cy="172.97" rx="30.89" ry="25.33" fill="#8fc76b"/><ellipse cx="475.52" cy="174.28" rx="29.54" ry="24.22" fill="#8fc76b"/><ellipse cx="468.73" cy="182.01" rx="30.44" ry="25.53" fill="#8fc76b"/><ellipse cx="467.46" cy="175.93" rx="12.86" ry="10.93" fill="#dff2c2" opacity="0.85"/><ellipse cx="455.86" cy="171.88" rx="11.46" ry="9.74" fill="#dff2c2" opacity="0.85"/><ellipse cx="467.62" cy="168.49" rx="17.03" ry="14.48" fill="#dff2c2" opacity="0.85"/><ellipse cx="283.58" cy="143.99" rx="54.9" ry="45.07" fill="#4a7c3a"/><ellipse cx="298.85" cy="130.21" rx="40.94" ry="33.57" fill="#8fc76b"/><ellipse cx="281.68" cy="144.81" rx="36.81" ry="30.19" fill="#8fc76b"/><ellipse cx="271.15" cy="142.58" rx="32.42" ry="26.59" fill="#8fc76b"/><ellipse cx="252.12" cy="133.54" rx="39.13" ry="32.08" fill="#8fc76b"/><ellipse cx="270.23" cy="124.75" rx="34.42" ry="28.23" fill="#8fc76b"/><ellipse cx="281.48" cy="124.07" rx="29.56" ry="24.24" fill="#4a7c3a"/><ellipse cx="276.65" cy="133.59" rx="35.83" ry="30.05" fill="#8fc76b"/><ellipse cx="268.51" cy="123.69" rx="12.83" ry="10.91" fill="#dff2c2" opacity="0.85"/><ellipse cx="270.15" cy="121.24" rx="15.75" ry="13.39" fill="#dff2c2" opacity="0.85"/><ellipse cx="257.69" cy="124.39" rx="18.2" ry="15.47" fill="#dff2c2" opacity="0.85"/><ellipse cx="383.45" cy="184.91" rx="55.26" ry="45.37" fill="#4a7c3a"/><ellipse cx="405.11" cy="176.69" rx="33.51" ry="27.48" fill="#8fc76b"/><ellipse cx="387.65" cy="183.04" rx="36.26" ry="29.73" fill="#8fc76b"/><ellipse cx="364.79" cy="183.44" rx="32.87" ry="26.95" fill="#4a7c3a"/><ellipse cx="354.75" cy="177.56" rx="33.03" ry="27.09" fill="#4a7c3a"/><ellipse cx="364.67" cy="163.64" rx="38.71" ry="31.74" fill="#8fc76b"/><ellipse cx="382.17" cy="161.64" rx="33.3" ry="27.31" fill="#4a7c3a"/><ellipse cx="376.47" cy="174.44" rx="36.06" ry="30.25" fill="#8fc76b"/><ellipse cx="360.21" cy="161.6" rx="19.14" ry="16.27" fill="#dff2c2" opacity="0.85"/><ellipse cx="355.25" cy="165.2" rx="16.22" ry="13.78" fill="#dff2c2" opacity="0.85"/><ellipse cx="362.28" cy="166.37" rx="15.79" ry="13.42" fill="#dff2c2" opacity="0.85"/>
    <g><circle cx="434.57" cy="330.04" r="5.89" fill="#ffc94d" opacity="0.9"/><circle cx="429.48" cy="337.04" r="5.89" fill="#ffc94d" opacity="0.9"/><circle cx="421.25" cy="334.36" r="5.89" fill="#ffc94d" opacity="0.9"/><circle cx="421.25" cy="325.71" r="5.89" fill="#ffc94d" opacity="0.9"/><circle cx="429.48" cy="323.03" r="5.89" fill="#ffc94d" opacity="0.9"/><circle cx="427.2" cy="330.04" r="5.16" fill="#ffe9a8"/></g><g><circle cx="442.71" cy="334.04" r="7.6" fill="#ff9ecf" opacity="0.9"/><circle cx="436.15" cy="343.08" r="7.6" fill="#ff9ecf" opacity="0.9"/><circle cx="425.53" cy="339.63" r="7.6" fill="#ff9ecf" opacity="0.9"/><circle cx="425.53" cy="328.46" r="7.6" fill="#ff9ecf" opacity="0.9"/><circle cx="436.15" cy="325.01" r="7.6" fill="#ff9ecf" opacity="0.9"/><circle cx="433.21" cy="334.04" r="6.65" fill="#ffe9a8"/></g>
    
    
    <line x1="409" y1="516" x2="413" y2="516" stroke="#6b4226" stroke-width="2"/><line x1="404.5" y1="523.79" x2="406.5" y2="527.26" stroke="#6b4226" stroke-width="2"/><line x1="395.5" y1="523.79" x2="393.5" y2="527.26" stroke="#6b4226" stroke-width="2"/><line x1="391" y1="516" x2="387" y2="516" stroke="#6b4226" stroke-width="2"/><line x1="395.5" y1="508.21" x2="393.5" y2="504.74" stroke="#6b4226" stroke-width="2"/><line x1="404.5" y1="508.21" x2="406.5" y2="504.74" stroke="#6b4226" stroke-width="2"/><circle cx="400" cy="516" r="8" fill="none" stroke="#6b4226" stroke-width="3"/><circle cx="400" cy="516" r="3" fill="#6b4226"/><line x1="409" y1="516" x2="413" y2="516" stroke="#6b4226" stroke-width="2"/><line x1="404.5" y1="523.79" x2="406.5" y2="527.26" stroke="#6b4226" stroke-width="2"/><line x1="395.5" y1="523.79" x2="393.5" y2="527.26" stroke="#6b4226" stroke-width="2"/><line x1="391" y1="516" x2="387" y2="516" stroke="#6b4226" stroke-width="2"/><line x1="395.5" y1="508.21" x2="393.5" y2="504.74" stroke="#6b4226" stroke-width="2"/><line x1="404.5" y1="508.21" x2="406.5" y2="504.74" stroke="#6b4226" stroke-width="2"/><circle cx="400" cy="516" r="8" fill="none" stroke="#6b4226" stroke-width="3"/><circle cx="400" cy="516" r="3" fill="#6b4226"/><line x1="409" y1="516" x2="413" y2="516" stroke="#6b4226" stroke-width="2"/><line x1="404.5" y1="523.79" x2="406.5" y2="527.26" stroke="#6b4226" stroke-width="2"/><line x1="395.5" y1="523.79" x2="393.5" y2="527.26" stroke="#6b4226" stroke-width="2"/><line x1="391" y1="516" x2="387" y2="516" stroke="#6b4226" stroke-width="2"/><line x1="395.5" y1="508.21" x2="393.5" y2="504.74" stroke="#6b4226" stroke-width="2"/><line x1="404.5" y1="508.21" x2="406.5" y2="504.74" stroke="#6b4226" stroke-width="2"/><circle cx="400" cy="516" r="8" fill="none" stroke="#6b4226" stroke-width="3"/><circle cx="400" cy="516" r="3" fill="#6b4226"/><line x1="409" y1="516" x2="413" y2="516" stroke="#6b4226" stroke-width="2"/><line x1="404.5" y1="523.79" x2="406.5" y2="527.26" stroke="#6b4226" stroke-width="2"/><line x1="395.5" y1="523.79" x2="393.5" y2="527.26" stroke="#6b4226" stroke-width="2"/><line x1="391" y1="516" x2="387" y2="516" stroke="#6b4226" stroke-width="2"/><line x1="395.5" y1="508.21" x2="393.5" y2="504.74" stroke="#6b4226" stroke-width="2"/><line x1="404.5" y1="508.21" x2="406.5" y2="504.74" stroke="#6b4226" stroke-width="2"/><circle cx="400" cy="516" r="8" fill="none" stroke="#6b4226" stroke-width="3"/><circle cx="400" cy="516" r="3" fill="#6b4226"/><line x1="409" y1="516" x2="413" y2="516" stroke="#6b4226" stroke-width="2"/><line x1="404.5" y1="523.79" x2="406.5" y2="527.26" stroke="#6b4226" stroke-width="2"/><line x1="395.5" y1="523.79" x2="393.5" y2="527.26" stroke="#6b4226" stroke-width="2"/><line x1="391" y1="516" x2="387" y2="516" stroke="#6b4226" stroke-width="2"/><line x1="395.5" y1="508.21" x2="393.5" y2="504.74" stroke="#6b4226" stroke-width="2"/><line x1="404.5" y1="508.21" x2="406.5" y2="504.74" stroke="#6b4226" stroke-width="2"/><circle cx="400" cy="516" r="8" fill="none" stroke="#6b4226" stroke-width="3"/><circle cx="400" cy="516" r="3" fill="#6b4226"/><line x1="409" y1="516" x2="413" y2="516" stroke="#6b4226" stroke-width="2"/><line x1="404.5" y1="523.79" x2="406.5" y2="527.26" stroke="#6b4226" stroke-width="2"/><line x1="395.5" y1="523.79" x2="393.5" y2="527.26" stroke="#6b4226" stroke-width="2"/><line x1="391" y1="516" x2="387" y2="516" stroke="#6b4226" stroke-width="2"/><line x1="395.5" y1="508.21" x2="393.5" y2="504.74" stroke="#6b4226" stroke-width="2"/><line x1="404.5" y1="508.21" x2="406.5" y2="504.74" stroke="#6b4226" stroke-width="2"/><circle cx="400" cy="516" r="8" fill="none" stroke="#6b4226" stroke-width="3"/><circle cx="400" cy="516" r="3" fill="#6b4226"/><line x1="409" y1="516" x2="413" y2="516" stroke="#6b4226" stroke-width="2"/><line x1="404.5" y1="523.79" x2="406.5" y2="527.26" stroke="#6b4226" stroke-width="2"/><line x1="395.5" y1="523.79" x2="393.5" y2="527.26" stroke="#6b4226" stroke-width="2"/><line x1="391" y1="516" x2="387" y2="516" stroke="#6b4226" stroke-width="2"/><line x1="395.5" y1="508.21" x2="393.5" y2="504.74" stroke="#6b4226" stroke-width="2"/><line x1="404.5" y1="508.21" x2="406.5" y2="504.74" stroke="#6b4226" stroke-width="2"/><circle cx="400" cy="516" r="8" fill="none" stroke="#6b4226" stroke-width="3"/><circle cx="400" cy="516" r="3" fill="#6b4226"/><line x1="409" y1="516" x2="413" y2="516" stroke="#6b4226" stroke-width="2"/><line x1="404.5" y1="523.79" x2="406.5" y2="527.26" stroke="#6b4226" stroke-width="2"/><line x1="395.5" y1="523.79" x2="393.5" y2="527.26" stroke="#6b4226" stroke-width="2"/><line x1="391" y1="516" x2="387" y2="516" stroke="#6b4226" stroke-width="2"/><line x1="395.5" y1="508.21" x2="393.5" y2="504.74" stroke="#6b4226" stroke-width="2"/><line x1="404.5" y1="508.21" x2="406.5" y2="504.74" stroke="#6b4226" stroke-width="2"/><circle cx="400" cy="516" r="8" fill="none" stroke="#6b4226" stroke-width="3"/><circle cx="400" cy="516" r="3" fill="#6b4226"/><line x1="409" y1="516" x2="413" y2="516" stroke="#6b4226" stroke-width="2"/><line x1="404.5" y1="523.79" x2="406.5" y2="527.26" stroke="#6b4226" stroke-width="2"/><line x1="395.5" y1="523.79" x2="393.5" y2="527.26" stroke="#6b4226" stroke-width="2"/><line x1="391" y1="516" x2="387" y2="516" stroke="#6b4226" stroke-width="2"/><line x1="395.5" y1="508.21" x2="393.5" y2="504.74" stroke="#6b4226" stroke-width="2"/><line x1="404.5" y1="508.21" x2="406.5" y2="504.74" stroke="#6b4226" stroke-width="2"/><circle cx="400" cy="516" r="8" fill="none" stroke="#6b4226" stroke-width="3"/><circle cx="400" cy="516" r="3" fill="#6b4226"/><line x1="409" y1="516" x2="413" y2="516" stroke="#6b4226" stroke-width="2"/><line x1="404.5" y1="523.79" x2="406.5" y2="527.26" stroke="#6b4226" stroke-width="2"/><line x1="395.5" y1="523.79" x2="393.5" y2="527.26" stroke="#6b4226" stroke-width="2"/><line x1="391" y1="516" x2="387" y2="516" stroke="#6b4226" stroke-width="2"/><line x1="395.5" y1="508.21" x2="393.5" y2="504.74" stroke="#6b4226" stroke-width="2"/><line x1="404.5" y1="508.21" x2="406.5" y2="504.74" stroke="#6b4226" stroke-width="2"/><circle cx="400" cy="516" r="8" fill="none" stroke="#6b4226" stroke-width="3"/><circle cx="400" cy="516" r="3" fill="#6b4226"/>
  </svg>