<svg xmlns="http://www.w3.org/2000/svg" width="800" height="600" viewBox="0 0 800 600">
    <defs>
      <linearGradient id="sky" x1="0" y1="0" x2="0" y2="1">
        <stop offset="0" stop-color="#fdf6e3"/>
        <stop offset="1" stop-color="#f6e2b3"/>
      </linearGradient>
    </defs>
    <rect x="0" y="0" width="800" height="600" fill="url(#sky)"/>
    <ellipse cx="400" cy="534" rx="105" ry="14" fill="#c9a267" opacity="0.6"/>
    <path d="M 330,526 L 342,560 L 458,560 L 470,526 Z" fill="#a85f3c"/>
    <rect x="326" y="520" width="148" height="10" rx="3" fill="#8a4a2e"/>
    <path d="M 409.56,513.08 L 404.59,498.06 L 386.16,503.69 L 390.44,518.92 Z" fill="#5b3a24"/><path d="M 404.85,499.12 L 401.62,483.63 L 383.38,487 L 385.9,502.62 Z" fill="#5b3a24"/><path d="M 401.76,484.78 L 400.48,469.01 L 382.69,470.04 L 383.25,485.86 Z" fill="#5b3a24"/><path d="M 400.44,470.51 L 401.82,454.75 L 384.84,452.86 L 382.73,468.54 Z" fill="#5b3a24"/><path d="M 401.3,456.88 L 406.65,441.98 L 391.38,436.1 L 385.35,450.73 Z" fill="#5b3a24"/><path d="M 406.32,442.73 L 413.12,428.44 L 399.16,421.4 L 391.71,435.36 Z" fill="#5b3a24"/><path d="M 413.93,425.64 L 415.01,409.85 L 400.17,408.49 L 398.36,424.21 Z" fill="#5b3a24"/><path d="M 414.92,410.5 L 417.39,394.87 L 403.43,392.34 L 400.25,407.84 Z" fill="#5b3a24"/><path d="M 417.42,392.56 L 414.74,376.97 L 401.43,378.95 L 403.4,394.65 Z" fill="#5b3a24"/><path d="M 414.47,375.86 L 409.18,360.94 L 397.09,364.92 L 401.69,380.06 Z" fill="#5b3a24"/><path d="M 408.9,360.24 L 401.88,346.06 L 391.01,351.14 L 397.37,365.63 Z" fill="#5b3a24"/><path d="M 401.92,346.16 L 395.14,331.86 L 384.85,336.45 L 390.96,351.05 Z" fill="#5b3a24"/><path d="M 395.54,333.13 L 392.29,317.64 L 381.92,319.57 L 384.46,335.19 Z" fill="#5b3a24"/><path d="M 392.32,317.79 L 389.52,302.22 L 379.82,303.73 L 381.9,319.42 Z" fill="#5b3a24"/><path d="M 389.46,301.94 L 385.77,286.56 L 376.89,288.47 L 379.87,304.01 Z" fill="#5b3a24"/><path d="M 385.87,287.28 L 384.69,271.5 L 376.33,271.93 L 376.79,287.75 Z" fill="#5b3a24"/><path d="M 384.69,271.77 L 384.51,255.94 L 376.87,255.86 L 376.33,271.67 Z" fill="#5b3a24"/><path d="M 384.51,255.9 L 384.15,240.08 L 377.24,240.08 L 376.87,255.9 Z" fill="#5b3a24"/><path d="M 384.13,239.73 L 382.16,224.03 L 376.01,224.66 L 377.26,240.43 Z" fill="#5b3a24"/><path d="M 382.13,223.83 L 379.14,208.3 L 373.76,209.2 L 376.04,224.86 Z" fill="#5b3a24"/><path d="M 379.15,208.32 L 376.31,192.76 L 371.64,193.5 L 373.76,209.18 Z" fill="#5b3a24"/><path d="M 376.34,193.11 L 375.89,177.3 L 371.89,177.32 L 371.61,193.14 Z" fill="#5b3a24"/>
    <path d="M 396.51,458.1 L 449.97,416.48 L 445.61,410.57 L 390.15,449.51 Z" fill="#5b3a24"/><path d="M 449.34,416.86 L 510.05,386.77 L 508.36,383.14 L 446.24,410.2 Z" fill="#5b3a24"/><path d="M 411.41,406.45 L 376.48,359.61 L 371.02,363.49 L 403.77,411.89 Z" fill="#8a5a34"/><path d="M 376.75,360.07 L 349.68,308.29 L 346.1,310.06 L 370.75,363.03 Z" fill="#8a5a34"/><path d="M 405.27,366.36 L 455.87,333.62 L 452.68,328.5 L 401,359.51 Z" fill="#8a5a34"/><path d="M 456.6,332.99 L 494.34,286 L 491.26,283.45 L 451.96,329.13 Z" fill="#8a5a34"/><path d="M 389.87,316.65 L 365.31,283.16 L 360.92,286.27 L 384.35,320.56 Z" fill="#8a5a34"/><path d="M 365.38,283.26 L 342.43,248.65 L 339.06,250.8 L 360.85,286.16 Z" fill="#8a5a34"/><path d="M 382.8,273.2 L 398.85,247.74 L 394.88,245.17 L 378.22,270.24 Z" fill="#8a5a34"/><path d="M 398.93,247.6 L 413.14,221.06 L 409.63,219.13 L 394.79,245.31 Z" fill="#8a5a34"/><path d="M 380.75,223.11 L 366,203.38 L 362.74,205.82 L 377.43,225.59 Z" fill="#8a5a34"/><path d="M 366.31,203.99 L 358.9,180.51 L 355.08,181.71 L 362.43,205.21 Z" fill="#8a5a34"/>
    <ellipse cx="515.62" cy="394.57" rx="50.73" ry="41.65" fill="#4a7c3a"/><ellipse cx="530.33" cy="388.24" rx="30.01" ry="24.61" fill="#4a7c3a"/><ellipse cx="517.26" cy="403.7" rx="32.45" ry="26.61" fill="#4a7c3a"/><ellipse cx="501.95" cy="392.73" rx="30.17" ry="24.74" fill="#8fc76b"/><ellipse cx="490.1" cy="382.85" rx="29.94" ry="24.55" fill="#4a7c3a"/><ellipse cx="493.57" cy="369.92" rx="27.72" ry="22.73" fill="#4a7c3a"/><ellipse cx="519.8" cy="370.92" rx="35.96" ry="29.49" fill="#8fc76b"/><ellipse cx="509.21" cy="384.96" rx="33.11" ry="27.77" fill="#8fc76b"/><ellipse cx="508.09" cy="376.01" rx="14.74" ry="12.53" fill="#dff2c2" opacity="0.85"/><ellipse cx="500.84" cy="370.34" rx="12.58" ry="10.69" fill="#dff2c2" opacity="0.85"/><ellipse cx="494.16" cy="373.48" rx="13.27" ry="11.28" fill="#dff2c2" opacity="0.85"/><ellipse cx="353.73" cy="317.93" rx="46.25" ry="37.97" fill="#4a7c3a"/><ellipse cx="365.39" cy="309.66" rx="33.58" ry="27.54" fill="#4a7c3a"/><ellipse cx="355.54" cy="316.29" rx="26.02" ry="21.34" fill="#4a7c3a"/><ellipse cx="333.7" cy="322.31" rx="31.17" ry="25.56" fill="#8fc76b"/><ellipse cx="332.16" cy="311.28" rx="32.21" ry="26.41" fill="#4a7c3a"/><ellipse cx="340.67" cy="298.6" rx="32.88" ry="26.96" fill="#8fc76b"/><ellipse cx="354.01" cy="300.43" rx="25.9" ry="21.23" fill="#8fc76b"/><ellipse cx="347.89" cy="309.17" rx="30.18" ry="25.32" fill="#8fc76b"/><ellipse cx="338.55" cy="308.15" rx="12.5" ry="10.62" fill="#dff2c2" opacity="0.85"/><ellipse cx="340.18" cy="302.38" rx="12.64" ry="10.74" fill="#dff2c2" opacity="0.85"/><ellipse cx="330.91" cy="304.94" rx="11.12" ry="9.45" fill="#dff2c2" opacity="0.85"/><ellipse cx="499.14" cy="294.24" rx="50.19" ry="41.21" fill="#4a7c3a"/><ellipse cx="506.53" cy="283.18" rx="33.74" ry="27.67" fill="#4a7c3a"/><ellipse cx="499.01" cy="291.75" rx="36.69" ry="30.09" fill="#4a7c3a"/><ellipse cx="479.45" cy="300.85" rx="34.96" ry="28.67" fill="#8fc76b"/><ellipse cx="481.28" cy="285.29" rx="31.67" ry="25.97" fill="#4a7c3a"/><ellipse cx="485.33" cy="272.68" rx="32.84" ry="26.93" fill="#8fc76b"/><ellipse cx="498.51" cy="270.31" rx="27.82" ry="22.82" fill="#8fc76b"/><ellipse cx="492.8" cy="284.73" rx="32.76" ry="27.47" fill="#8fc76b"/><ellipse cx="479.95" cy="284.49" rx="16.56" ry="14.07" fill="#dff2c2" opacity="0.85"/><ellipse cx="473.49" cy="281.07" rx="12.2" ry="10.37" fill="#dff2c2" opacity="0.85"/><ellipse cx="487.71" cy="267.58" rx="16.99" ry="14.44" fill="#dff2c2" opacity="0.85"/><ellipse cx="346.42" cy="258.23" rx="44.93" ry="36.89" fill="#4a7c3a"/><ellipse cx="353.47" cy="247.37" rx="28.48" ry="23.35" fill="#8fc76b"/><ellipse cx="344.53" cy="256.97" rx="27.28" ry="22.37" fill="#8fc76b"/><ellipse cx="334.19" cy="257.09" rx="33.56" ry="27.52" fill="#8fc76b"/><ellipse cx="324.77" cy="247.87" rx="31.5" ry="25.83" fill="#4a7c3a"/><ellipse cx="334.26" cy="232.86" rx="30.86" ry="25.3" fill="#8fc76b"/><ellipse cx="347.81" cy="243.4" rx="30.78" ry="25.24" fill="#8fc76b"/><ellipse cx="340.75" cy="249.72" rx="29.32" ry="24.59" fill="#8fc76b"/><ellipse cx="334" cy="247.44" rx="10.97" ry="9.32" fill="#dff2c2" opacity="0.85"/><ellipse cx="336.89" cy="242.63" rx="15.68" ry="13.33" fill="#dff2c2" opacity="0.85"/><ellipse cx="339.75" cy="244.08" rx="10.55" ry="8.97" fill="#dff2c2" opacity="0.85"/><ellipse cx="417.73" cy="229.61" rx="50.22" ry="41.23" fill="#4a7c3a"/><ellipse cx="428.91" cy="222.8" rx="28.26" ry="23.17" fill="#4a7c3a"/><ellipse cx="420.94" cy="236.44" rx="32.86" ry="26.94" fill="#8fc76b"/><ellipse cx="405.84" cy="228.21" rx="32.29" ry="26.48" fill="#8fc76b"/><ellipse cx="389.18" cy="221.02" rx="29.71" ry="24.36" fill="#8fc76b"/><ellipse cx="396.77" cy="205.76" rx="32.33" ry="26.51" fill="#4a7c3a"/><ellipse cx="423.39" cy="205.83" rx="37.75" ry="30.95" fill="#8fc76b"/><ellipse cx="411.38" cy="220.1" rx="32.77" ry="27.49" fill="#8fc76b"/><ellipse cx="407.41" cy="214.86" rx="16.84" ry="14.32" fill="#dff2c2" opacity="0.85"/><ellipse cx="403.69" cy="206.07" rx="13.9" ry="11.82" fill="#dff2c2" opacity="0.85"/><ellipse cx="390.91" cy="211.2" rx="12.77" ry="10.85" fill="#dff2c2" opacity="0.85"/><ellipse cx="363.75" cy="191.25" rx="53.51" ry="43.94" fill="#4a7c3a"/><ellipse cx="374.13" cy="179.15" rx="37.73" ry="30.94" fill="#4a7c3a"/><ellipse cx="366.68" cy="192.92" rx="33.8" ry="27.72" fill="#4a7c3a"/><ellipse cx="339.61" cy="196.74" rx="38.12" ry="31.25" fill="#8fc76b"/><ellipse cx="330.5" cy="181.56" rx="38.94" ry="31.93" fill="#4a7c3a"/><ellipse cx="348.57" cy="169.86" rx="37.26" ry="30.55" fill="#8fc76b"/><ellipse cx="370.2" cy="163.52" rx="29.51" ry="24.2" fill="#4a7c3a"/><ellipse cx="356.99" cy="181.11" rx="34.92" ry="29.29" fill="#8fc76b"/><ellipse cx="345.12" cy="177.05" rx="18.13" ry="15.41" fill="#dff2c2" opacity="0.85"/><ellipse cx="352.91" cy="167.73" rx="12.74" ry="10.83" fill="#dff2c2" opacity="0.85"/><ellipse cx="339.8" cy="174.08" rx="16.01" ry="13.61" fill="#dff2c2" opacity="0.85"/><ellipse cx="381.35" cy="188.5" rx="59.07" ry="48.5" fill="#4a7c3a"/><ellipse cx="396.21" cy="181.19" rx="39.6" ry="32.47" fill="#4a7c3a"/><ellipse cx="387.1" cy="198.23" rx="43.08" ry="35.33" fill="#8fc76b"/><ellipse cx="366.97" cy="195.38" rx="36.39" ry="29.84" fill="#8fc76b"/><ellipse cx="347.88" cy="178.45" rx="36.38" ry="29.83" fill="#8fc76b"/><ellipse cx="356.84" cy="159.05" rx="33.84" ry="27.75" fill="#4a7c3a"/><ellipse cx="383.75" cy="168.13" rx="36.54" ry="29.97" fill="#8fc76b"/><ellipse cx="373.89" cy="177.31" rx="38.55" ry="32.33" fill="#8fc76b"/><ellipse cx="353.33" cy="164.67" rx="14.97" ry="12.72" fill="#dff2c2" opacity="0.85"/><ellipse cx="362.22" cy="175.31" rx="17.37" ry="14.76" fill="#dff2c2" opacity="0.85"/><ellipse cx="368.05" cy="170.6" rx="17.42" ry="14.8" fill="#dff2c2" opacity="0.85"/>
    <g><circle cx="476.06" cy="356.53" r="7.6" fill="#ff9ecf" opacity="0.9"/><circle cx="469.5" cy="365.56" r="7.6" fill="#ff9ecf" opacity="0.9"/><circle cx="458.88" cy="362.11" r="7.6" fill="#ff9ecf" opacity="0.9"/><circle cx="458.88" cy="350.94" r="7.6" fill="#ff9ecf" opacity="0.9"/><circle cx="469.5" cy="347.49" r="7.6" fill="#ff9ecf" opacity="0.9"/><circle cx="466.56" cy="356.53" r="6.65" fill="#ffe9a8"/></g><g><circle cx="343.56" cy="152.88" r="5.04" fill="#ff9ecf" opacity="0.9"/><circle cx="339.2" cy="158.88" r="5.04" fill="#ff9ecf" opacity="0.9"/><circle cx="332.15" cy="156.59" r="5.04" fill="#ff9ecf" opacity="0.9"/><circle cx="332.15" cy="149.18" r="5.04" fill="#ff9ecf" opacity="0.9"/><circle cx="339.2" cy="146.89" r="5.04" fill="#ff9ecf" opacity="0.9"/><circle cx="337.25" cy="152.88" r="4.41" fill="#ffe9a8"/></g>
    
    
    <line x1="404.38" y1="500.87" x2="408.38" y2="500.87" stroke="#6b4226" stroke-width="2"/><line x1="399.88" y1="508.67" x2="401.88" y2="512.13" stroke="#6b4226" stroke-width="2"/><line x1="390.88" y1="508.67" x2="388.88" y2="512.13" stroke="#6b4226" stroke-width="2"/><line x1="386.38" y1="500.87" x2="382.38" y2="500.87" stroke="#6b4226" stroke-width="2"/><line x1="390.88" y1="493.08" x2="388.88" y2="489.61" stroke="#6b4226" stroke-width="2"/><line x1="399.88" y1="493.08" x2="401.88" y2="489.61" stroke="#6b4226" stroke-width="2"/><circle cx="395.38" cy="500.87" r="8" fill="none" stroke="#6b4226" stroke-width="3"/><circle cx="395.38" cy="500.87" r="3" fill="#6b4226"/><line x1="404.38" y1="500.87" x2="408.38" y2="500.87" stroke="#6b4226" stroke-width="2"/><line x1="399.88" y1="508.67" x2="401.88" y2="512.13" stroke="#6b4226" stroke-width="2"/><line x1="390.88" y1="508.67" x2="388.88" y2="512.13" stroke="#6b4226" stroke-width="2"/><line x1="386.38" y1="500.87" x2="382.38" y2="500.87" stroke="#6b4226" stroke-width="2"/><line x1="390.88" y1="493.08" x2="388.88" y2="489.61" stroke="#6b4226" stroke-width="2"/><line x1="399.88" y1="493.08" x2="401.88" y2="489.61" stroke="#6b4226" stroke-width="2"/><circle cx="395.38" cy="500.87" r="8" fill="none" stroke="#6b4226" stroke-width="3"/><circle cx="395.38" cy="500.87" r="3" fill="#6b4226"/><line x1="404.38" y1="500.87" x2="408.38" y2="500.87" stroke="#6b4226" stroke-width="2"/><line x1="399.88" y1="508.67" x2="401.88" y2="512.13" stroke="#6b4226" stroke-width="2"/><line x1="390.88" y1="508.67" x2="388.88" y2="512.13" stroke="#6b4226" stroke-width="2"/><line x1="386.38" y1="500.87" x2="382.38" y2="500.87" stroke="#6b4226" stroke-width="2"/><line x1="390.88" y1="493.08" x2="388.88" y2="489.61" stroke="#6b4226" stroke-width="2"/><line x1="399.88" y1="493.08" x2="401.88" y2="489.61" stroke="#6b4226" stroke-width="2"/><circle cx="395.38" cy="500.87" r="8" fill="none" stroke="#6b4226" stroke-width="3"/><circle cx="395.38" cy="500.87" r="3" fill="#6b4226"/><line x1="401.5" y1="485.32" x2="405.5" y2="485.32" stroke="#6b4226" stroke-width="2"/><line x1="397" y1="493.11" x2="399" y2="496.58" stroke="#6b4226" stroke-width="2"/><line x1="388" y1="493.11" x2="386" y2="496.58" stroke="#6b4226" stroke-width="2"/><line x1="383.5" y1="485.32" x2="379.5" y2="485.32" stroke="#6b4226" stroke-width="2"/><line x1="388" y1="477.52" x2="386" y2="474.06" stroke="#6b4226" stroke-width="2"/><line x1="397" y1="477.52" x2="399" y2="474.06" stroke="#6b4226" stroke-width="2"/><circle cx="392.5" cy="485.32" r="8" fill="none" stroke="#6b4226" stroke-width="3"/><circle cx="392.5" cy="485.32" r="3" fill="#6b4226"/><line x1="385.45" y1="208.75" x2="389.45" y2="208.75" stroke="#6b4226" stroke-width="2"/><line x1="380.95" y1="216.54" x2="382.95" y2="220.01" stroke="#6b4226" stroke-width="2"/><line x1="371.95" y1="216.54" x2="369.95" y2="220.01" stroke="#6b4226" stroke-width="2"/><line x1="367.45" y1="208.75" x2="363.45" y2="208.75" stroke="#6b4226" stroke-width="2"/><line x1="371.95" y1="200.96" x2="369.95" y2="197.49" stroke="#6b4226" stroke-width="2"/><line x1="380.95" y1="200.96" x2="382.95" y2="197.49" stroke="#6b4226" stroke-width="2"/><circle cx="376.45" cy="208.75" r="8" fill="none" stroke="#6b4226" stroke-width="3"/><circle cx="376.45" cy="208.75" r="3" fill="#6b4226"/><line x1="385.45" y1="208.75" x2="389.45" y2="208.75" stroke="#6b4226" stroke-width="2"/><line x1="380.95" y1="216.54" x2="382.95" y2="220.01" stroke="#6b4226" stroke-width="2"/><line x1="371.95" y1="216.54" x2="369.95" y2="220.01" stroke="#6b4226" stroke-width="2"/><line x1="367.45" y1="208.75" x2="363.45" y2="208.75" stroke="#6b4226" stroke-width="2"/><line x1="371.95" y1="200.96" x2="369.95" y2="197.49" stroke="#6b4226" stroke-width="2"/><line x1="380.95" y1="200.96" x2="382.95" y2="197.49" stroke="#6b4226" stroke-width="2"/><circle cx="376.45" cy="208.75" r="8" fill="none" stroke="#6b4226" stroke-width="3"/><circle cx="376.45" cy="208.75" r="3" fill="#6b4226"/><line x1="385.45" y1="208.75" x2="389.45" y2="208.75" stroke="#6b4226" stroke-width="2"/><line x1="380.95" y1="216.54" x2="382.95" y2="220.01" stroke="#6b4226" stroke-width="2"/><line x1="371.95" y1="216.54" x2="369.95" y2="220.01" stroke="#6b4226" stroke-width="2"/><line x1="367.45" y1="208.75" x2="363.45" y2="208.75" stroke="#6b4226" stroke-width="2"/><line x1="371.95" y1="200.96" x2="369.95" y2="197.49" stroke="#6b4226" stroke-width="2"/><line x1="380.95" y1="200.96" x2="382.95" y2="197.49" stroke="#6b4226" stroke-width="2"/><circle cx="376.45" cy="208.75" r="8" fill="none" stroke="#6b4226" stroke-width="3"/><circle cx="376.45" cy="208.75" r="3" fill="#6b4226"/><line x1="385.45" y1="208.75" x2="389.45" y2="208.75" stroke="#6b4226" stroke-width="2"/><line x1="380.95" y1="216.54" x2="382.95" y2="220.01" stroke="#6b4226" stroke-width="2"/><line x1="371.95" y1="216.54" x2="369.95" y2="220.01" stroke="#6b4226" stroke-width="2"/><line x1="367.45" y1="208.75" x2="363.45" y2="208.75" stroke="#6b4226" stroke-width="2"/><line x1="371.95" y1="200.96" x2="369.95" y2="197.49" stroke="#6b4226" stroke-width="2"/><line x1="380.95" y1="200.96" x2="382.95" y2="197.49" stroke="#6b4226" stroke-width="2"/><circle cx="376.45" cy="208.75" r="8" fill="none" stroke="#6b4226" stroke-width="3"/><circle cx="376.45" cy="208.75" r="3" fill="#6b4226"/><line x1="385.45" y1="208.75" x2="389.45" y2="208.75" stroke="#6b4226" stroke-width="2"/><line x1="380.95" y1="216.54" x2="382.95" y2="220.01" stroke="#6b4226" stroke-width="2"/><line x1="371.95" y1="216.54" x2="369.95" y2="220.01" stroke="#6b4226" stroke-width="2"/><line x1="367.45" y1="208.75" x2="363.45" y2="208.75" stroke="#6b4226" stroke-width="2"/><line x1="371.95" y1="200.96" x2="369.95" y2="197.49" stroke="#6b4226" stroke-width="2"/><line x1="380.95" y1="200.96" x2="382.95" y2="197.49" stroke="#6b4226" stroke-width="2"/><circle cx="376.45" cy="208.75" r="8" fill="none" stroke="#6b4226" stroke-width="3"/><circle cx="376.45" cy="208.75" r="3" fill="#6b4226"/><line x1="382.89" y1="177.31" x2="386.89" y2="177.31" stroke="#6b4226" stroke-width="2"/><line x1="378.39" y1="185.1" x2="380.39" y2="188.57" stroke="#6b4226" stroke-width="2"/><line x1="369.39" y1="185.1" x2="367.39" y2="188.57" stroke="#6b4226" stroke-width="2"/><line x1="364.89" y1="177.31" x2="360.89" y2="177.31" stroke="#6b4226" stroke-width="2"/><line x1="369.39" y1="169.51" x2="367.39" y2="166.05" stroke="#6b4226" stroke-width="2"/><line x1="378.39" y1="169.51" x2="380.39" y2="166.05" stroke="#6b4226" stroke-width="2"/><circle cx="373.89" cy="177.31" r="8" fill="none" stroke="#6b4226" stroke-width="3"/><circle cx="373.89" cy="177.31" r="3" fill="#6b4226"/>
  </svg>