<svg xmlns="http://www.w3.org/2000/svg" width="800" height="600" viewBox="0 0 800 600">
    <defs>
      <linearGradient id="sky" x1="0" y1="0" x2="0" y2="1">
        <stop offset="0" stop-color="#fdf6e3"/>
        <stop offset="1" stop-color="#f6e2b3"/>
      </linearGradient>
    </defs>
    <rect x="0" y="0" width="800" height="600" fill="url(#sky)"/>
    <ellipse cx="400" cy="534" rx="105" ry="14" fill="#c9a267" opacity="0.6"/>
    <path d="M 330,526 L 342,560 L 458,560 L 470,526 Z" fill="#a85f3c"/>
    <rect x="326" y="520" width="148" height="10" rx="3" fill="#8a4a2e"/>
    <path d="M 410,516.21 L 409.96,500.38 L 390.69,499.99 L 390,515.79 Z" fill="#5b3a24"/><path d="M 409.9,501.24 L 411.28,485.48 L 392.84,483.44 L 390.75,499.13 Z" fill="#5b3a24"/><path d="M 411.33,484.25 L 410.61,468.45 L 392.8,468.85 L 392.79,484.67 Z" fill="#5b3a24"/><path d="M 410.49,467.2 L 407.56,451.65 L 390.69,454.43 L 392.91,470.1 Z" fill="#5b3a24"/><path d="M 407.42,450.97 L 403.23,435.71 L 387.36,439.67 L 390.83,455.11 Z" fill="#5b3a24"/><path d="M 403.28,435.9 L 399.45,420.55 L 384.2,423.98 L 387.31,439.49 Z" fill="#5b3a24"/><path d="M 399.6,423.02 L 400.78,407.24 L 385.94,405.79 L 384.04,421.5 Z" fill="#5b3a24"/><path d="M 400.69,407.91 L 403.28,392.3 L 389.34,389.66 L 386.04,405.13 Z" fill="#5b3a24"/><path d="M 403.34,390.01 L 400.83,374.39 L 387.5,376.22 L 389.29,391.94 Z" fill="#5b3a24"/><path d="M 400.8,376.42 L 403.07,360.77 L 390.52,358.65 L 387.53,374.19 Z" fill="#5b3a24"/><path d="M 403.12,360.34 L 404.34,344.57 L 392.4,343.37 L 390.46,359.07 Z" fill="#5b3a24"/><path d="M 404.36,344.39 L 405.1,328.59 L 393.86,327.79 L 392.39,343.55 Z" fill="#5b3a24"/><path d="M 405.12,328.3 L 405.06,312.48 L 394.52,312.27 L 393.85,328.08 Z" fill="#5b3a24"/><path d="M 404.82,313.95 L 409.19,298.74 L 399.82,295.81 L 394.76,310.8 Z" fill="#5b3a24"/><path d="M 409.42,297.25 L 408.96,281.43 L 399.87,281.48 L 399.6,297.3 Z" fill="#5b3a24"/><path d="M 408.88,280.59 L 405.5,265.13 L 397.29,266.73 L 399.96,282.33 Z" fill="#5b3a24"/><path d="M 405.58,265.79 L 404.69,249.99 L 397.05,250.25 L 397.22,266.07 Z" fill="#5b3a24"/><path d="M 404.69,250.02 L 403.9,234.22 L 397,234.4 L 397.05,250.22 Z" fill="#5b3a24"/><path d="M 403.8,233.48 L 399.67,218.21 L 393.67,219.69 L 397.09,235.13 Z" fill="#5b3a24"/><path d="M 399.66,218.16 L 395.26,202.96 L 389.99,204.35 L 393.68,219.74 Z" fill="#5b3a24"/><path d="M 395.29,203.07 L 391.51,187.7 L 386.89,188.73 L 389.97,204.25 Z" fill="#5b3a24"/><path d="M 391.51,187.7 L 387.75,172.34 L 383.84,173.2 L 386.89,188.72 Z" fill="#5b3a24"/>
    <path d="M 402.77,456.95 L 451.4,409.39 L 446.39,404.01 L 395.48,449.13 Z" fill="#8a5a34"/><path d="M 452.1,408.5 L 483.89,348.36 L 480.4,346.4 L 445.69,404.9 Z" fill="#8a5a34"/><path d="M 396.38,402.92 L 349.45,365.37 L 345.15,370.5 L 390.35,410.11 Z" fill="#8a5a34"/><path d="M 349.74,365.65 L 307.7,322.7 L 304.78,325.43 L 344.85,370.22 Z" fill="#8a5a34"/><path d="M 399.71,362.49 L 440.93,317.81 L 436.56,313.65 L 393.87,356.92 Z" fill="#5b3a24"/><path d="M 440.45,318.22 L 490.04,283.07 L 487.78,279.77 L 437.04,313.24 Z" fill="#5b3a24"/><path d="M 402.23,310.04 L 356.12,262.87 L 352.23,266.59 L 397.34,314.71 Z" fill="#5b3a24"/><path d="M 355.65,262.48 L 300.15,226.83 L 297.96,230.18 L 352.7,266.98 Z" fill="#5b3a24"/><path d="M 403.72,267.36 L 437.42,211.75 L 433.39,209.28 L 399.07,264.5 Z" fill="#8a5a34"/><path d="M 437.5,211.62 L 467.51,153.93 L 463.97,152.07 L 433.32,209.41 Z" fill="#8a5a34"/><path d="M 397.92,217.3 L 349.8,180.84 L 347.34,184.08 L 395.42,220.6 Z" fill="#8a5a34"/><path d="M 350.18,181.21 L 313.25,133.45 L 310.08,135.89 L 346.95,183.7 Z" fill="#8a5a34"/>
    <ellipse cx="489.42" cy="358.29" rx="57.6" ry="47.3" fill="#4a7c3a"/><ellipse cx="506.69" cy="346.73" rx="39.86" ry="32.68" fill="#4a7c3a"/><ellipse cx="488.1" cy="357.27" rx="38.69" ry="31.73" fill="#4a7c3a"/><ellipse cx="475.79" cy="355.18" rx="43.6" ry="35.75" fill="#8fc76b"/><ellipse cx="457.46" cy="342.67" rx="31.3" ry="25.66" fill="#8fc76b"/><ellipse cx="464.95" cy="333.76" rx="41.1" ry="33.7" fill="#8fc76b"/><ellipse cx="497.15" cy="333.58" rx="34.96" ry="28.66" fill="#8fc76b"/><ellipse cx="482.15" cy="347.38" rx="37.59" ry="31.53" fill="#8fc76b"/><ellipse cx="478.56" cy="332.3" rx="16.98" ry="14.43" fill="#dff2c2" opacity="0.85"/><ellipse cx="478.16" cy="332.2" rx="18.84" ry="16.01" fill="#dff2c2" opacity="0.85"/><ellipse cx="471.62" cy="341.7" rx="21.5" ry="18.28" fill="#dff2c2" opacity="0.85"/><ellipse cx="313.19" cy="334.5" rx="55.09" ry="45.24" fill="#4a7c3a"/><ellipse cx="323.63" cy="325.59" rx="38.36" ry="31.46" fill="#8fc76b"/><ellipse cx="315.77" cy="340.15" rx="30.84" ry="25.29" fill="#4a7c3a"/><ellipse cx="292.81" cy="338.69" rx="34.16" ry="28.01" fill="#4a7c3a"/><ellipse cx="285.19" cy="322.57" rx="29.73" ry="24.38" fill="#8fc76b"/><ellipse cx="295.99" cy="311.81" rx="36.29" ry="29.76" fill="#4a7c3a"/><ellipse cx="322.59" cy="310.28" rx="34.83" ry="28.56" fill="#4a7c3a"/><ellipse cx="306.24" cy="324.07" rx="35.96" ry="30.16" fill="#8fc76b"/><ellipse cx="293.59" cy="316.46" rx="14.81" ry="12.59" fill="#dff2c2" opacity="0.85"/><ellipse cx="290.42" cy="317.48" rx="14.54" ry="12.36" fill="#dff2c2" opacity="0.85"/><ellipse cx="281.31" cy="318.47" rx="15.58" ry="13.25" fill="#dff2c2" opacity="0.85"/><ellipse cx="494.92" cy="290.44" rx="47.58" ry="39.07" fill="#4a7c3a"/><ellipse cx="500.32" cy="283.05" rx="29.66" ry="24.32" fill="#8fc76b"/><ellipse cx="500.58" cy="293.65" rx="30.99" ry="25.41" fill="#4a7c3a"/><ellipse cx="480.43" cy="295.51" rx="34.25" ry="28.09" fill="#8fc76b"/><ellipse cx="472.54" cy="283.47" rx="32.5" ry="26.65" fill="#8fc76b"/><ellipse cx="474.14" cy="267.8" rx="33.01" ry="27.07" fill="#8fc76b"/><ellipse cx="499.87" cy="268.95" rx="33.3" ry="27.3" fill="#8fc76b"/><ellipse cx="488.91" cy="281.42" rx="31.06" ry="26.05" fill="#8fc76b"/><ellipse cx="488.29" cy="274.74" rx="14.95" ry="12.71" fill="#dff2c2" opacity="0.85"/><ellipse cx="481.54" cy="272.25" rx="13.72" ry="11.66" fill="#dff2c2" opacity="0.85"/><ellipse cx="474.3" cy="278.97" rx="16.86" ry="14.33" fill="#dff2c2" opacity="0.85"/><ellipse cx="304.77" cy="237.07" rx="45.21" ry="37.12" fill="#4a7c3a"/><ellipse cx="309.36" cy="229.56" rx="33.7" ry="27.63" fill="#4a7c3a"/><ellipse cx="309.98" cy="239.81" rx="28.98" ry="23.76" fill="#4a7c3a"/><ellipse cx="286.13" cy="241.18" rx="25.17" ry="20.64" fill="#4a7c3a"/><ellipse cx="278.71" cy="230.91" rx="31.8" ry="26.07" fill="#8fc76b"/><ellipse cx="287.1" cy="213.53" rx="29.9" ry="24.51" fill="#8fc76b"/><ellipse cx="313.26" cy="217.01" rx="27.18" ry="22.29" fill="#4a7c3a"/><ellipse cx="299.06" cy="228.5" rx="29.51" ry="24.75" fill="#8fc76b"/><ellipse cx="288.01" cy="227.53" rx="16" ry="13.6" fill="#dff2c2" opacity="0.85"/><ellipse cx="286.51" cy="222.67" rx="14.88" ry="12.65" fill="#dff2c2" opacity="0.85"/><ellipse cx="288.32" cy="215.94" rx="11.19" ry="9.51" fill="#dff2c2" opacity="0.85"/><ellipse cx="472.21" cy="162.7" rx="51.2" ry="42.04" fill="#4a7c3a"/><ellipse cx="490.71" cy="153.29" rx="37.05" ry="30.38" fill="#8fc76b"/><ellipse cx="475.03" cy="169.14" rx="34.66" ry="28.42" fill="#8fc76b"/><ellipse cx="460.05" cy="165.3" rx="27.14" ry="22.26" fill="#8fc76b"/><ellipse cx="445.23" cy="155.34" rx="30.34" ry="24.88" fill="#8fc76b"/><ellipse cx="453.94" cy="138.65" rx="28" ry="22.96" fill="#8fc76b"/><ellipse cx="478.71" cy="135.73" rx="36.95" ry="30.3" fill="#8fc76b"/><ellipse cx="465.74" cy="153" rx="33.42" ry="28.03" fill="#8fc76b"/><ellipse cx="453.04" cy="148.02" rx="15.83" ry="13.46" fill="#dff2c2" opacity="0.85"/><ellipse cx="457.97" cy="147.76" rx="18.98" ry="16.14" fill="#dff2c2" opacity="0.85"/><ellipse cx="453.87" cy="147.6" rx="12.51" ry="10.64" fill="#dff2c2" opacity="0.85"/><ellipse cx="319.14" cy="145.88" rx="59.18" ry="48.59" fill="#4a7c3a"/><ellipse cx="331.43" cy="137.46" rx="37.8" ry="31" fill="#8fc76b"/><ellipse cx="319.72" cy="154.92" rx="39.57" ry="32.45" fill="#8fc76b"/><ellipse cx="303.03" cy="146.13" rx="37.72" ry="30.93" fill="#8fc76b"/><ellipse cx="292.25" cy="133.22" rx="37.18" ry="30.49" fill="#4a7c3a"/><ellipse cx="299.06" cy="124.99" rx="35.4" ry="29.03" fill="#4a7c3a"/><ellipse cx="320.33" cy="121.57" rx="39.74" ry="32.59" fill="#4a7c3a"/><ellipse cx="311.67" cy="134.67" rx="38.62" ry="32.39" fill="#8fc76b"/><ellipse cx="309.54" cy="125.93" rx="15.32" ry="13.03" fill="#dff2c2" opacity="0.85"/><ellipse cx="305.91" cy="126.65" rx="14.05" ry="11.94" fill="#dff2c2" opacity="0.85"/><ellipse cx="304.12" cy="124.16" rx="14.75" ry="12.54" fill="#dff2c2" opacity="0.85"/><ellipse cx="392.38" cy="182.64" rx="52.12" ry="42.79" fill="#4a7c3a"/><ellipse cx="401.17" cy="170.6" rx="31.41" ry="25.76" fill="#4a7c3a"/><ellipse cx="392.82" cy="181.44" rx="27.5" ry="22.55" fill="#8fc76b"/><ellipse cx="381.29" cy="180.48" rx="32.27" ry="26.46" fill="#4a7c3a"/><ellipse cx="358.64" cy="171.88" rx="33.01" ry="27.07" fill="#8fc76b"/><ellipse cx="378.58" cy="165.22" rx="31.12" ry="25.52" fill="#8fc76b"/><ellipse cx="398.3" cy="157.86" rx="34.77" ry="28.51" fill="#8fc76b"/><ellipse cx="385.8" cy="172.77" rx="34.02" ry="28.53" fill="#8fc76b"/><ellipse cx="371.04" cy="163.43" rx="13.11" ry="11.14" fill="#dff2c2" opacity="0.85"/><ellipse cx="382.93" cy="163.04" rx="15.04" ry="12.79" fill="#dff2c2" opacity="0.85"/><ellipse cx="366.05" cy="171.89" rx="12.75" ry="10.84" fill="#dff2c2" opacity="0.85"/>
    <g><circle cx="449" cy="318.95" r="7.6" fill="#ffc94d" opacity="0.9"/><circle cx="442.44" cy="327.98" r="7.6" fill="#ffc94d" opacity="0.9"/><circle cx="431.82" cy="324.53" r="7.6" fill="#ffc94d" opacity="0.9"/><circle cx="431.82" cy="313.36" r="7.6" fill="#ffc94d" opacity="0.9"/><circle cx="442.44" cy="309.91" r="7.6" fill="#ffc94d" opacity="0.9"/><circle cx="439.5" cy="318.95" r="6.65" fill="#ffe9a8"/></g><g><circle cx="453.79" cy="322.95" r="6.63" fill="#ffc94d" opacity="0.9"/><circle cx="448.07" cy="330.83" r="6.63" fill="#ffc94d" opacity="0.9"/><circle cx="438.81" cy="327.82" r="6.63" fill="#ffc94d" opacity="0.9"/><circle cx="438.81" cy="318.08" r="6.63" fill="#ffc94d" opacity="0.9"/><circle cx="448.07" cy="315.08" r="6.63" fill="#ffc94d" opacity="0.9"/><circle cx="445.51" cy="322.95" r="5.8" fill="#ffe9a8"/></g>
    
    
    <line x1="409" y1="516" x2="413" y2="516" stroke="#6b4226" stroke-width="2"/><line x1="404.5" y1="523.79" x2="406.5" y2="527.26" stroke="#6b4226" stroke-width="2"/><line x1="395.5" y1="523.79" x2="393.5" y2="527.26" stroke="#6b4226" stroke-width="2"/><line x1="391" y1="516" x2="387" y2="516" stroke="#6b4226" stroke-width="2"/><line x1="395.5" y1="508.21" x2="393.5" y2="504.74" stroke="#6b4226" stroke-width="2"/><line x1="404.5" y1="508.21" x2="406.5" y2="504.74" stroke="#6b4226" stroke-width="2"/><circle cx="400" cy="516" r="8" fill="none" stroke="#6b4226" stroke-width="3"/><circle cx="400" cy="516" r="3" fill="#6b4226"/><line x1="409" y1="516" x2="413" y2="516" stroke="#6b4226" stroke-width="2"/><line x1="404.5" y1="523.79" x2="406.5" y2="527.26" stroke="#6b4226" stroke-width="2"/><line x1="395.5" y1="523.79" x2="393.5" y2="527.26" stroke="#6b4226" stroke-width="2"/><line x1="391" y1="516" x2="387" y2="516" stroke="#6b4226" stroke-width="2"/><line x1="395.5" y1="508.21" x2="393.5" y2="504.74" stroke="#6b4226" stroke-width="2"/><line x1="404.5" y1="508.21" x2="406.5" y2="504.74" stroke="#6b4226" stroke-width="2"/><circle cx="400" cy="516" r="8" fill="none" stroke="#6b4226" stroke-width="3"/><circle cx="400" cy="516" r="3" fill="#6b4226"/><line x1="409" y1="516" x2="413" y2="516" stroke="#6b4226" stroke-width="2"/><line x1="404.5" y1="523.79" x2="406.5" y2="527.26" stroke="#6b4226" stroke-width="2"/><line x1="395.5" y1="523.79" x2="393.5" y2="527.26" stroke="#6b4226" stroke-width="2"/><line x1="391" y1="516" x2="387" y2="516" stroke="#6b4226" stroke-width="2"/><line x1="395.5" y1="508.21" x2="393.5" y2="504.74" stroke="#6b4226" stroke-width="2"/><line x1="404.5" y1="508.21" x2="406.5" y2="504.74" stroke="#6b4226" stroke-width="2"/><circle cx="400" cy="516" r="8" fill="none" stroke="#6b4226" stroke-width="3"/><circle cx="400" cy="516" r="3" fill="#6b4226"/><line x1="409" y1="516" x2="413" y2="516" stroke="#6b4226" stroke-width="2"/><line x1="404.5" y1="523.79" x2="406.5" y2="527.26" stroke="#6b4226" stroke-width="2"/><line x1="395.5" y1="523.79" x2="393.5" y2="527.26" stroke="#6b4226" stroke-width="2"/><line x1="391" y1="516" x2="387" y2="516" stroke="#6b4226" stroke-width="2"/><line x1="395.5" y1="508.21" x2="393.5" y2="504.74" stroke="#6b4226" stroke-width="2"/><line x1="404.5" y1="508.21" x2="406.5" y2="504.74" stroke="#6b4226" stroke-width="2"/><circle cx="400" cy="516" r="8" fill="none" stroke="#6b4226" stroke-width="3"/><circle cx="400" cy="516" r="3" fill="#6b4226"/><line x1="409.32" y1="500.19" x2="413.32" y2="500.19" stroke="#6b4226" stroke-width="2"/><line x1="404.82" y1="507.98" x2="406.82" y2="511.44" stroke="#6b4226" stroke-width="2"/><line x1="395.82" y1="507.98" x2="393.82" y2="511.44" stroke="#6b4226" stroke-width="2"/><line x1="391.32" y1="500.19" x2="387.32" y2="500.19" stroke="#6b4226" stroke-width="2"/><line x1="395.82" y1="492.39" x2="393.82" y2="488.93" stroke="#6b4226" stroke-width="2"/><line x1="404.82" y1="492.39" x2="406.82" y2="488.93" stroke="#6b4226" stroke-width="2"/><circle cx="400.32" cy="500.19" r="8" fill="none" stroke="#6b4226" stroke-width="3"/><circle cx="400.32" cy="500.19" r="3" fill="#6b4226"/><line x1="409.32" y1="500.19" x2="413.32" y2="500.19" stroke="#6b4226" stroke-width="2"/><line x1="404.82" y1="507.98" x2="406.82" y2="511.44" stroke="#6b4226" stroke-width="2"/><line x1="395.82" y1="507.98" x2="393.82" y2="511.44" stroke="#6b4226" stroke-width="2"/><line x1="391.32" y1="500.19" x2="387.32" y2="500.19" stroke="#6b4226" stroke-width="2"/><line x1="395.82" y1="492.39" x2="393.82" y2="488.93" stroke="#6b4226" stroke-width="2"/><line x1="404.82" y1="492.39" x2="406.82" y2="488.93" stroke="#6b4226" stroke-width="2"/><circle cx="400.32" cy="500.19" r="8" fill="none" stroke="#6b4226" stroke-width="3"/><circle cx="400.32" cy="500.19" r="3" fill="#6b4226"/><line x1="409.32" y1="500.19" x2="413.32" y2="500.19" stroke="#6b4226" stroke-width="2"/><line x1="404.82" y1="507.98" x2="406.82" y2="511.44" stroke="#6b4226" stroke-width="2"/><line x1="395.82" y1="507.98" x2="393.82" y2="511.44" stroke="#6b4226" stroke-width="2"/><line x1="391.32" y1="500.19" x2="387.32" y2="500.19" stroke="#6b4226" stroke-width="2"/><line x1="395.82" y1="492.39" x2="393.82" y2="488.93" stroke="#6b4226" stroke-width="2"/><line x1="404.82" y1="492.39" x2="406.82" y2="488.93" stroke="#6b4226" stroke-width="2"/><circle cx="400.32" cy="500.19" r="8" fill="none" stroke="#6b4226" stroke-width="3"/><circle cx="400.32" cy="500.19" r="3" fill="#6b4226"/><line x1="409.32" y1="500.19" x2="413.32" y2="500.19" stroke="#6b4226" stroke-width="2"/><line x1="404.82" y1="507.98" x2="406.82" y2="511.44" stroke="#6b4226" stroke-width="2"/><line x1="395.82" y1="507.98" x2="393.82" y2="511.44" stroke="#6b4226" stroke-width="2"/><line x1="391.32" y1="500.19" x2="387.32" y2="500.19" stroke="#6b4226" stroke-width="2"/><line x1="395.82" y1="492.39" x2="393.82" y2="488.93" stroke="#6b4226" stroke-width="2"/><line x1="404.82" y1="492.39" x2="406.82" y2="488.93" stroke="#6b4226" stroke-width="2"/><circle cx="400.32" cy="500.19" r="8" fill="none" stroke="#6b4226" stroke-width="3"/><circle cx="400.32" cy="500.19" r="3" fill="#6b4226"/><line x1="409.32" y1="500.19" x2="413.32" y2="500.19" stroke="#6b4226" stroke-width="2"/><line x1="404.82" y1="507.98" x2="406.82" y2="511.44" stroke="#6b4226" stroke-width="2"/><line x1="395.82" y1="507.98" x2="393.82" y2="511.44" stroke="#6b4226" stroke-width="2"/><line x1="391.32" y1="500.19" x2="387.32" y2="500.19" stroke="#6b4226" stroke-width="2"/><line x1="395.82" y1="492.39" x2="393.82" y2="488.93" stroke="#6b4226" stroke-width="2"/><line x1="404.82" y1="492.39" x2="406.82" y2="488.93" stroke="#6b4226" stroke-width="2"/><circle cx="400.32" cy="500.19" r="8" fill="none" stroke="#6b4226" stroke-width="3"/><circle cx="400.32" cy="500.19" r="3" fill="#6b4226"/><line x1="409.32" y1="500.19" x2="413.32" y2="500.19" stroke="#6b4226" stroke-width="2"/><line x1="404.82" y1="507.98" x2="406.82" y2="511.44" stroke="#6b4226" stroke-width="2"/><line x1="395.82" y1="507.98" x2="393.82" y2="511.44" stroke="#6b4226" stroke-width="2"/><line x1="391.32" y1="500.19" x2="387.32" y2="500.19" stroke="#6b4226" stroke-width="2"/><line x1="395.82" y1="492.39" x2="393.82" y2="488.93" stroke="#6b4226" stroke-width="2"/><line x1="404.82" y1="492.39" x2="406.82" y2="488.93" stroke="#6b4226" stroke-width="2"/><circle cx="400.32" cy="500.19" r="8" fill="none" stroke="#6b4226" stroke-width="3"/><circle cx="400.32" cy="500.19" r="3" fill="#6b4226"/>
  </svg>