<svg xmlns="http://www.w3.org/2000/svg" width="800" height="600" viewBox="0 0 800 600">
    <defs>
      <linearGradient id="sky" x1="0" y1="0" x2="0" y2="1">
        <stop offset="0" stop-color="#fdf6e3"/>
        <stop offset="1" stop-color="#f6e2b3"/>
      </linearGradient>
    </defs>
    <rect x="0" y="0" width="800" height="600" fill="url(#sky)"/>
    <ellipse cx="400" cy="534" rx="105" ry="14" fill="#c9a267" opacity="0.6"/>
    <path d="M 330,526 L 342,560 L 458,560 L 470,526 Z" fill="#a85f3c"/>
    <rect x="326" y="520" width="148" height="10" rx="3" fill="#8a4a2e"/>
    <path d="M 409.95,514.99 L 407.98,499.29 L 388.81,501.24 L 390.05,517.01 Z" fill="#5b3a24"/><path d="M 407.88,498.58 L 404.77,483.07 L 386.51,486.3 L 388.91,501.94 Z" fill="#5b3a24"/><path d="M 404.75,482.97 L 401.46,467.49 L 383.95,470.8 L 386.52,486.41 Z" fill="#5b3a24"/><path d="M 401.6,469.62 L 402.07,453.8 L 385,452.9 L 383.81,468.67 Z" fill="#5b3a24"/><path d="M 401.98,452.01 L 399.15,436.45 L 382.99,439 L 385.1,454.68 Z" fill="#5b3a24"/><path d="M 399.23,438.38 L 400.12,422.58 L 384.54,421.33 L 382.91,437.07 Z" fill="#5b3a24"/><path d="M 400.06,420.81 L 397.38,405.21 L 382.63,407.4 L 384.6,423.1 Z" fill="#5b3a24"/><path d="M 397.28,404.65 L 393.41,389.31 L 379.58,392.46 L 382.74,407.96 Z" fill="#5b3a24"/><path d="M 393.16,388.46 L 387.42,373.72 L 374.77,378.31 L 379.83,393.31 Z" fill="#5b3a24"/><path d="M 387.29,373.39 L 380.77,358.97 L 369.06,363.94 L 374.9,378.65 Z" fill="#5b3a24"/><path d="M 381.2,360.47 L 378.39,344.9 L 366.54,346.76 L 368.63,362.44 Z" fill="#5b3a24"/><path d="M 378.39,344.88 L 375.54,329.32 L 364.4,331.1 L 366.54,346.78 Z" fill="#5b3a24"/><path d="M 375.43,328.81 L 371.14,313.58 L 360.92,316.2 L 364.51,331.61 Z" fill="#5b3a24"/><path d="M 371.29,314.53 L 369.84,298.77 L 360.05,299.45 L 360.77,315.25 Z" fill="#5b3a24"/><path d="M 369.75,300.12 L 372.64,284.56 L 363.74,282.69 L 360.14,298.1 Z" fill="#5b3a24"/><path d="M 372.44,285.24 L 377.72,270.33 L 369.9,267.36 L 363.94,282.01 Z" fill="#5b3a24"/><path d="M 377.89,269.76 L 381,254.24 L 373.55,252.57 L 369.73,267.93 Z" fill="#5b3a24"/><path d="M 381,254.23 L 384.07,238.71 L 377.33,237.22 L 373.55,252.58 Z" fill="#5b3a24"/><path d="M 384.01,238.97 L 388.26,223.73 L 382.35,221.93 L 377.4,236.96 Z" fill="#5b3a24"/><path d="M 388.37,223.26 L 390.19,207.54 L 384.78,206.79 L 382.24,222.4 Z" fill="#5b3a24"/><path d="M 390.21,207.24 L 390.32,191.42 L 385.59,191.28 L 384.76,207.08 Z" fill="#5b3a24"/><path d="M 390.32,191.26 L 389.34,175.47 L 385.34,175.62 L 385.59,191.44 Z" fill="#5b3a24"/>
    <path d="M 396.94,457.47 L 442.9,417.31 L 438.22,411.65 L 390.13,449.23 Z" fill="#5b3a24"/><path d="M 441.79,417.94 L 498.7,395.89 L 497.36,392.13 L 439.33,411.02 Z" fill="#5b3a24"/><path d="M 393.96,403.79 L 359.14,351.65 L 353.49,355.25 L 386.05,408.83 Z" fill="#8a5a34"/><path d="M 359.05,351.52 L 321.85,301.06 L 318.58,303.36 L 353.58,355.38 Z" fill="#8a5a34"/><path d="M 378.29,363.67 L 414.04,307.47 L 409,304.15 L 371.54,359.24 Z" fill="#8a5a34"/><path d="M 414.04,307.47 L 449.74,251.23 L 446.4,249.03 L 409,304.15 Z" fill="#8a5a34"/><path d="M 368.44,312.51 L 323.61,268.1 L 319.78,271.89 L 363.62,317.27 Z" fill="#8a5a34"/><path d="M 323.09,267.69 L 268.7,235.7 L 266.63,239.13 L 320.31,272.3 Z" fill="#8a5a34"/><path d="M 375.71,270.8 L 416.85,230.5 L 413.56,227.1 L 371.91,266.88 Z" fill="#8a5a34"/><path d="M 416.93,230.42 L 456.08,188.17 L 453.16,185.44 L 413.48,227.18 Z" fill="#8a5a34"/><path d="M 386.91,221.52 L 368.65,199.24 L 365.5,201.82 L 383.7,224.14 Z" fill="#5b3a24"/><path d="M 368.23,198.85 L 344.49,182.53 L 342.22,185.83 L 365.92,202.21 Z" fill="#5b3a24"/>
    <ellipse cx="504.45" cy="403.64" rx="50.85" ry="41.75" fill="#4a7c3a"/><ellipse cx="518.82" cy="395.49" rx="32.03" ry="26.26" fill="#4a7c3a"/><ellipse cx="502.54" cy="403.9" rx="28.34" ry="23.24" fill="#8fc76b"/><ellipse cx="486.69" cy="404.27" rx="37" ry="30.34" fill="#8fc76b"/><ellipse cx="472.76" cy="389.86" rx="31.58" ry="25.9" fill="#4a7c3a"/><ellipse cx="486.44" cy="376.5" rx="29.96" ry="24.57" fill="#8fc76b"/><ellipse cx="511.3" cy="383.31" rx="35.13" ry="28.8" fill="#4a7c3a"/><ellipse cx="498.03" cy="394.01" rx="33.19" ry="27.83" fill="#8fc76b"/><ellipse cx="486.01" cy="380.03" rx="16.45" ry="13.99" fill="#dff2c2" opacity="0.85"/><ellipse cx="478.85" cy="383.59" rx="17.88" ry="15.2" fill="#dff2c2" opacity="0.85"/><ellipse cx="480.5" cy="389.08" rx="12.85" ry="10.92" fill="#dff2c2" opacity="0.85"/><ellipse cx="327.43" cy="313.03" rx="57.12" ry="46.9" fill="#4a7c3a"/><ellipse cx="349.02" cy="298.45" rx="30.46" ry="24.98" fill="#8fc76b"/><ellipse cx="331.97" cy="313.53" rx="30.13" ry="24.71" fill="#8fc76b"/><ellipse cx="313.11" cy="319.99" rx="39.62" ry="32.49" fill="#8fc76b"/><ellipse cx="298.33" cy="303.65" rx="38.87" ry="31.87" fill="#8fc76b"/><ellipse cx="306.59" cy="283.8" rx="34.24" ry="28.08" fill="#8fc76b"/><ellipse cx="324.28" cy="293.06" rx="38.79" ry="31.81" fill="#8fc76b"/><ellipse cx="320.21" cy="302.21" rx="37.28" ry="31.27" fill="#8fc76b"/><ellipse cx="300.61" cy="291.46" rx="16.85" ry="14.32" fill="#dff2c2" opacity="0.85"/><ellipse cx="298.04" cy="298.75" rx="20.94" ry="17.8" fill="#dff2c2" opacity="0.85"/><ellipse cx="316.74" cy="291.8" rx="13.95" ry="11.86" fill="#dff2c2" opacity="0.85"/><ellipse cx="455.55" cy="261.35" rx="59.21" ry="48.62" fill="#4a7c3a"/><ellipse cx="475.57" cy="254.98" rx="31.43" ry="25.78" fill="#4a7c3a"/><ellipse cx="456.83" cy="271.52" rx="37.5" ry="30.75" fill="#4a7c3a"/><ellipse cx="439.19" cy="264.3" rx="33.91" ry="27.81" fill="#8fc76b"/><ellipse cx="426.34" cy="246.72" rx="39.85" ry="32.68" fill="#8fc76b"/><ellipse cx="441.35" cy="234.14" rx="39.77" ry="32.61" fill="#8fc76b"/><ellipse cx="459.78" cy="234.77" rx="32.94" ry="27.01" fill="#4a7c3a"/><ellipse cx="448.07" cy="250.13" rx="38.64" ry="32.41" fill="#8fc76b"/><ellipse cx="437.82" cy="235.48" rx="17.82" ry="15.15" fill="#dff2c2" opacity="0.85"/><ellipse cx="434.23" cy="241.81" rx="19.44" ry="16.52" fill="#dff2c2" opacity="0.85"/><ellipse cx="441.94" cy="244.49" rx="14.63" ry="12.44" fill="#dff2c2" opacity="0.85"/><ellipse cx="274.72" cy="248" rx="55.87" ry="45.87" fill="#4a7c3a"/><ellipse cx="280.17" cy="237.63" rx="37.02" ry="30.35" fill="#4a7c3a"/><ellipse cx="275.6" cy="253.09" rx="38.59" ry="31.65" fill="#8fc76b"/><ellipse cx="258.51" cy="248.08" rx="30" ry="24.6" fill="#8fc76b"/><ellipse cx="254.23" cy="237.35" rx="31.87" ry="26.13" fill="#4a7c3a"/><ellipse cx="260.4" cy="226.98" rx="39.32" ry="32.24" fill="#4a7c3a"/><ellipse cx="282.73" cy="220.74" rx="41.34" ry="33.9" fill="#8fc76b"/><ellipse cx="267.67" cy="237.42" rx="36.46" ry="30.58" fill="#8fc76b"/><ellipse cx="266.13" cy="230.11" rx="16.17" ry="13.75" fill="#dff2c2" opacity="0.85"/><ellipse cx="260.34" cy="233.07" rx="20.56" ry="17.48" fill="#dff2c2" opacity="0.85"/><ellipse cx="265.15" cy="226.72" rx="14.46" ry="12.29" fill="#dff2c2" opacity="0.85"/><ellipse cx="461.34" cy="196.88" rx="53.16" ry="43.65" fill="#4a7c3a"/><ellipse cx="481.31" cy="187.56" rx="33.16" ry="27.19" fill="#8fc76b"/><ellipse cx="464.61" cy="203.9" rx="33.2" ry="27.22" fill="#8fc76b"/><ellipse cx="444.85" cy="195.06" rx="30.89" ry="25.33" fill="#4a7c3a"/><ellipse cx="442.75" cy="188.1" rx="32.95" ry="27.02" fill="#8fc76b"/><ellipse cx="448.39" cy="179.1" rx="35.86" ry="29.41" fill="#8fc76b"/><ellipse cx="464.15" cy="173.81" rx="34.11" ry="27.97" fill="#4a7c3a"/><ellipse cx="454.62" cy="186.81" rx="34.7" ry="29.1" fill="#8fc76b"/><ellipse cx="442.13" cy="183.36" rx="14.47" ry="12.3" fill="#dff2c2" opacity="0.85"/><ellipse cx="446.35" cy="175.32" rx="12.66" ry="10.76" fill="#dff2c2" opacity="0.85"/><ellipse cx="435.13" cy="185.4" rx="13.23" ry="11.24" fill="#dff2c2" opacity="0.85"/><ellipse cx="350.33" cy="194.63" rx="55.14" ry="45.28" fill="#4a7c3a"/><ellipse cx="361.3" cy="184.99" rx="36.95" ry="30.3" fill="#4a7c3a"/><ellipse cx="353.15" cy="193.33" rx="34.3" ry="28.13" fill="#4a7c3a"/><ellipse cx="330.62" cy="195.84" rx="40.53" ry="33.24" fill="#4a7c3a"/><ellipse cx="315.36" cy="186.49" rx="30.52" ry="25.02" fill="#8fc76b"/><ellipse cx="335.86" cy="177.14" rx="39.46" ry="32.36" fill="#8fc76b"/><ellipse cx="348.87" cy="175.52" rx="38.7" ry="31.74" fill="#8fc76b"/><ellipse cx="343.36" cy="184.18" rx="35.99" ry="30.18" fill="#8fc76b"/><ellipse cx="320.69" cy="176.13" rx="14.07" ry="11.96" fill="#dff2c2" opacity="0.85"/><ellipse cx="334.6" cy="170.01" rx="20.62" ry="17.53" fill="#dff2c2" opacity="0.85"/><ellipse cx="341.82" cy="173.66" rx="17.84" ry="15.17" fill="#dff2c2" opacity="0.85"/><ellipse cx="394.48" cy="186.25" rx="56.49" ry="46.38" fill="#4a7c3a"/><ellipse cx="408.43" cy="174.66" rx="35.26" ry="28.92" fill="#8fc76b"/><ellipse cx="397.21" cy="186.12" rx="32.36" ry="26.54" fill="#8fc76b"/><ellipse cx="380.37" cy="183.28" rx="31.02" ry="25.43" fill="#8fc76b"/><ellipse cx="371.12" cy="176.39" rx="31.09" ry="25.5" fill="#4a7c3a"/><ellipse cx="371.24" cy="162.61" rx="38.63" ry="31.68" fill="#8fc76b"/><ellipse cx="393.6" cy="161.05" rx="40.06" ry="32.85" fill="#4a7c3a"/><ellipse cx="387.34" cy="175.55" rx="36.86" ry="30.92" fill="#8fc76b"/><ellipse cx="370.05" cy="162.96" rx="13.72" ry="11.66" fill="#dff2c2" opacity="0.85"/><ellipse cx="381.39" cy="169.09" rx="16.07" ry="13.66" fill="#dff2c2" opacity="0.85"/><ellipse cx="380.89" cy="166.09" rx="15.25" ry="12.96" fill="#dff2c2" opacity="0.85"/>
    <g><circle cx="464.89" cy="365.58" r="7.6" fill="#ff9ecf" opacity="0.9"/><circle cx="458.32" cy="374.61" r="7.6" fill="#ff9ecf" opacity="0.9"/><circle cx="447.7" cy="371.16" r="7.6" fill="#ff9ecf" opacity="0.9"/><circle cx="447.7" cy="360" r="7.6" fill="#ff9ecf" opacity="0.9"/><circle cx="458.32" cy="356.54" r="7.6" fill="#ff9ecf" opacity="0.9"/><circle cx="455.39" cy="365.58" r="6.65" fill="#ffe9a8"/></g><g><circle cx="468.76" cy="369.58" r="5.9" fill="#ff9ecf" opacity="0.9"/><circle cx="463.67" cy="376.59" r="5.9" fill="#ff9ecf" opacity="0.9"/><circle cx="455.43" cy="373.92" r="5.9" fill="#ff9ecf" opacity="0.9"/><circle cx="455.43" cy="365.25" r="5.9" fill="#ff9ecf" opacity="0.9"/><circle cx="463.67" cy="362.58" r="5.9" fill="#ff9ecf" opacity="0.9"/><circle cx="461.39" cy="369.58" r="5.16" fill="#ffe9a8"/></g>
    
    
    <line x1="409" y1="516" x2="413" y2="516" stroke="#6b4226" stroke-width="2"/><line x1="404.5" y1="523.79" x2="406.5" y2="527.26" stroke="#6b4226" stroke-width="2"/><line x1="395.5" y1="523.79" x2="393.5" y2="527.26" stroke="#6b4226" stroke-width="2"/><line x1="391" y1="516" x2="387" y2="516" stroke="#6b4226" stroke-width="2"/><line x1="395.5" y1="508.21" x2="393.5" y2="504.74" stroke="#6b4226" stroke-width="2"/><line x1="404.5" y1="508.21" x2="406.5" y2="504.74" stroke="#6b4226" stroke-width="2"/><circle cx="400" cy="516" r="8" fill="none" stroke="#6b4226" stroke-width="3"/><circle cx="400" cy="516" r="3" fill="#6b4226"/><line x1="409" y1="516" x2="413" y2="516" stroke="#6b4226" stroke-width="2"/><line x1="404.5" y1="523.79" x2="406.5" y2="527.26" stroke="#6b4226" stroke-width="2"/><line x1="395.5" y1="523.79" x2="393.5" y2="527.26" stroke="#6b4226" stroke-width="2"/><line x1="391" y1="516" x2="387" y2="516" stroke="#6b4226" stroke-width="2"/><line x1="395.5" y1="508.21" x2="393.5" y2="504.74" stroke="#6b4226" stroke-width="2"/><line x1="404.5" y1="508.21" x2="406.5" y2="504.74" stroke="#6b4226" stroke-width="2"/><circle cx="400" cy="516" r="8" fill="none" stroke="#6b4226" stroke-width="3"/><circle cx="400" cy="516" r="3" fill="#6b4226"/><line x1="409" y1="516" x2="413" y2="516" stroke="#6b4226" stroke-width="2"/><line x1="404.5" y1="523.79" x2="406.5" y2="527.26" stroke="#6b4226" stroke-width="2"/><line x1="395.5" y1="523.79" x2="393.5" y2="527.26" stroke="#6b4226" stroke-width="2"/><line x1="391" y1="516" x2="387" y2="516" stroke="#6b4226" stroke-width="2"/><line x1="395.5" y1="508.21" x2="393.5" y2="504.74" stroke="#6b4226" stroke-width="2"/><line x1="404.5" y1="508.21" x2="406.5" y2="504.74" stroke="#6b4226" stroke-width="2"/><circle cx="400" cy="516" r="8" fill="none" stroke="#6b4226" stroke-width="3"/><circle cx="400" cy="516" r="3" fill="#6b4226"/><line x1="409" y1="516" x2="413" y2="516" stroke="#6b4226" stroke-width="2"/><line x1="404.5" y1="523.79" x2="406.5" y2="527.26" stroke="#6b4226" stroke-width="2"/><line x1="395.5" y1="523.79" x2="393.5" y2="527.26" stroke="#6b4226" stroke-width="2"/><line x1="391" y1="516" x2="387" y2="516" stroke="#6b4226" stroke-width="2"/><line x1="395.5" y1="508.21" x2="393.5" y2="504.74" stroke="#6b4226" stroke-width="2"/><line x1="404.5" y1="508.21" x2="406.5" y2="504.74" stroke="#6b4226" stroke-width="2"/><circle cx="400" cy="516" r="8" fill="none" stroke="#6b4226" stroke-width="3"/><circle cx="400" cy="516" r="3" fill="#6b4226"/><line x1="407.39" y1="500.26" x2="411.39" y2="500.26" stroke="#6b4226" stroke-width="2"/><line x1="402.89" y1="508.06" x2="404.89" y2="511.52" stroke="#6b4226" stroke-width="2"/><line x1="393.89" y1="508.06" x2="391.89" y2="511.52" stroke="#6b4226" stroke-width="2"/><line x1="389.39" y1="500.26" x2="385.39" y2="500.26" stroke="#6b4226" stroke-width="2"/><line x1="393.89" y1="492.47" x2="391.89" y2="489.01" stroke="#6b4226" stroke-width="2"/><line x1="402.89" y1="492.47" x2="404.89" y2="489.01" stroke="#6b4226" stroke-width="2"/><circle cx="398.39" cy="500.26" r="8" fill="none" stroke="#6b4226" stroke-width="3"/><circle cx="398.39" cy="500.26" r="3" fill="#6b4226"/><line x1="407.39" y1="500.26" x2="411.39" y2="500.26" stroke="#6b4226" stroke-width="2"/><line x1="402.89" y1="508.06" x2="404.89" y2="511.52" stroke="#6b4226" stroke-width="2"/><line x1="393.89" y1="508.06" x2="391.89" y2="511.52" stroke="#6b4226" stroke-width="2"/><line x1="389.39" y1="500.26" x2="385.39" y2="500.26" stroke="#6b4226" stroke-width="2"/><line x1="393.89" y1="492.47" x2="391.89" y2="489.01" stroke="#6b4226" stroke-width="2"/><line x1="402.89" y1="492.47" x2="404.89" y2="489.01" stroke="#6b4226" stroke-width="2"/><circle cx="398.39" cy="500.26" r="8" fill="none" stroke="#6b4226" stroke-width="3"/><circle cx="398.39" cy="500.26" r="3" fill="#6b4226"/><line x1="407.39" y1="500.26" x2="411.39" y2="500.26" stroke="#6b4226" stroke-width="2"/><line x1="402.89" y1="508.06" x2="404.89" y2="511.52" stroke="#6b4226" stroke-width="2"/><line x1="393.89" y1="508.06" x2="391.89" y2="511.52" stroke="#6b4226" stroke-width="2"/><line x1="389.39" y1="500.26" x2="385.39" y2="500.26" stroke="#6b4226" stroke-width="2"/><line x1="393.89" y1="492.47" x2="391.89" y2="489.01" stroke="#6b4226" stroke-width="2"/><line x1="402.89" y1="492.47" x2="404.89" y2="489.01" stroke="#6b4226" stroke-width="2"/><circle cx="398.39" cy="500.26" r="8" fill="none" stroke="#6b4226" stroke-width="3"/><circle cx="398.39" cy="500.26" r="3" fill="#6b4226"/><line x1="407.39" y1="500.26" x2="411.39" y2="500.26" stroke="#6b4226" stroke-width="2"/><line x1="402.89" y1="508.06" x2="404.89" y2="511.52" stroke="#6b4226" stroke-width="2"/><line x1="393.89" y1="508.06" x2="391.89" y2="511.52" stroke="#6b4226" stroke-width="2"/><line x1="389.39" y1="500.26" x2="385.39" y2="500.26" stroke="#6b4226" stroke-width="2"/><line x1="393.89" y1="492.47" x2="391.89" y2="489.01" stroke="#6b4226" stroke-width="2"/><line x1="402.89" y1="492.47" x2="404.89" y2="489.01" stroke="#6b4226" stroke-width="2"/><circle cx="398.39" cy="500.26" r="8" fill="none" stroke="#6b4226" stroke-width="3"/><circle cx="398.39" cy="500.26" r="3" fill="#6b4226"/><line x1="407.39" y1="500.26" x2="411.39" y2="500.26" stroke="#6b4226" stroke-width="2"/><line x1="402.89" y1="508.06" x2="404.89" y2="511.52" stroke="#6b4226" stroke-width="2"/><line x1="393.89" y1="508.06" x2="391.89" y2="511.52" stroke="#6b4226" stroke-width="2"/><line x1="389.39" y1="500.26" x2="385.39" y2="500.26" stroke="#6b4226" stroke-width="2"/><line x1="393.89" y1="492.47" x2="391.89" y2="489.01" stroke="#6b4226" stroke-width="2"/><line x1="402.89" y1="492.47" x2="404.89" y2="489.01" stroke="#6b4226" stroke-width="2"/><circle cx="398.39" cy="500.26" r="8" fill="none" stroke="#6b4226" stroke-width="3"/><circle cx="398.39" cy="500.26" r="3" fill="#6b4226"/><line x1="404.64" y1="484.69" x2="408.64" y2="484.69" stroke="#6b4226" stroke-width="2"/><line x1="400.14" y1="492.48" x2="402.14" y2="495.95" stroke="#6b4226" stroke-width="2"/><line x1="391.14" y1="492.48" x2="389.14" y2="495.95" stroke="#6b4226" stroke-width="2"/><line x1="386.64" y1="484.69" x2="382.64" y2="484.69" stroke="#6b4226" stroke-width="2"/><line x1="391.14" y1="476.89" x2="389.14" y2="473.43" stroke="#6b4226" stroke-width="2"/><line x1="400.14" y1="476.89" x2="402.14" y2="473.43" stroke="#6b4226" stroke-width="2"/><circle cx="395.64" cy="484.69" r="8" fill="none" stroke="#6b4226" stroke-width="3"/><circle cx="395.64" cy="484.69" r="3" fill="#6b4226"/>
  </svg>