<svg xmlns="http://www.w3.org/2000/svg" width="800" height="600" viewBox="0 0 800 600">
    <defs>
      <linearGradient id="sky" x1="0" y1="0" x2="0" y2="1">
        <stop offset="0" stop-color="#fdf6e3"/>
        <stop offset="1" stop-color="#f6e2b3"/>
      </linearGradient>
    </defs>
    <rect x="0" y="0" width="800" height="600" fill="url(#sky)"/>
    <ellipse cx="400" cy="534" rx="105" ry="14" fill="#c9a267" opacity="0.6"/>
    <path d="M 330,526 L 342,560 L 458,560 L 470,526 Z" fill="#a85f3c"/>
    <rect x="326" y="520" width="148" height="10" rx="3" fill="#8a4a2e"/>
    <path d="M 410,515.89 L 409.47,500.08 L 390.19,500.29 L 390,516.11 Z" fill="#5b3a24"/><path d="M 409.44,499.47 L 407.91,483.72 L 389.42,485.09 L 390.22,500.89 Z" fill="#5b3a24"/><path d="M 407.92,485.02 L 408.59,469.21 L 390.81,468.04 L 389.41,483.8 Z" fill="#5b3a24"/><path d="M 408.54,469.74 L 410.17,454.01 L 393.22,451.86 L 390.86,467.5 Z" fill="#5b3a24"/><path d="M 410.22,452.29 L 408.67,436.55 L 392.36,437.77 L 393.17,453.57 Z" fill="#5b3a24"/><path d="M 408.61,435.98 L 405.98,420.38 L 390.51,422.62 L 392.42,438.33 Z" fill="#5b3a24"/><path d="M 405.79,419.46 L 401.3,404.28 L 386.91,408.19 L 390.7,423.55 Z" fill="#5b3a24"/><path d="M 401.55,406.44 L 401.63,390.62 L 387.46,390.23 L 386.65,406.03 Z" fill="#5b3a24"/><path d="M 401.58,389.55 L 399.27,373.9 L 385.92,375.55 L 387.51,391.3 Z" fill="#5b3a24"/><path d="M 399.27,373.91 L 396.98,358.25 L 384.35,359.8 L 385.92,375.55 Z" fill="#5b3a24"/><path d="M 397.02,359.48 L 397.78,343.67 L 385.81,342.82 L 384.32,358.57 Z" fill="#5b3a24"/><path d="M 397.56,344.91 L 401.58,329.61 L 390.75,326.49 L 386.02,341.59 Z" fill="#5b3a24"/><path d="M 401.77,328.62 L 403.02,312.85 L 392.53,311.77 L 390.56,327.47 Z" fill="#5b3a24"/><path d="M 403.05,312.12 L 402.12,296.33 L 392.31,296.68 L 392.51,312.5 Z" fill="#5b3a24"/><path d="M 402.12,296.54 L 401.88,280.72 L 392.79,280.65 L 392.3,296.46 Z" fill="#5b3a24"/><path d="M 401.89,280.69 L 401.54,264.87 L 393.17,264.86 L 392.79,280.68 Z" fill="#5b3a24"/><path d="M 401.51,265.33 L 402.91,249.57 L 395.32,248.72 L 393.2,264.4 Z" fill="#5b3a24"/><path d="M 402.88,249.8 L 405.21,234.15 L 398.4,232.97 L 395.36,248.5 Z" fill="#5b3a24"/><path d="M 405.23,234.04 L 407.05,218.32 L 400.93,217.47 L 398.39,233.08 Z" fill="#5b3a24"/><path d="M 407.08,218.07 L 407.62,202.26 L 402.17,201.94 L 400.9,217.72 Z" fill="#5b3a24"/><path d="M 407.61,201.9 L 406.06,186.15 L 401.35,186.5 L 402.17,202.3 Z" fill="#5b3a24"/><path d="M 406.07,186.19 L 404.77,170.42 L 400.78,170.65 L 401.35,186.47 Z" fill="#5b3a24"/>
    <path d="M 406.02,456.07 L 442.15,403.38 L 436.2,399.07 L 397.37,449.79 Z" fill="#8a5a34"/><path d="M 442.25,403.24 L 475.91,348.95 L 472.57,346.75 L 436.11,399.21 Z" fill="#8a5a34"/><path d="M 397.19,402.71 L 351.63,364.62 L 347.22,369.65 L 391.01,409.77 Z" fill="#5b3a24"/><path d="M 352.22,365.3 L 318.51,316.41 L 315.17,318.61 L 346.63,368.97 Z" fill="#5b3a24"/><path d="M 393.68,361.71 L 432.33,316.78 L 427.82,312.76 L 387.65,356.34 Z" fill="#5b3a24"/><path d="M 431.63,317.35 L 481.85,285.87 L 479.78,282.45 L 428.51,312.19 Z" fill="#5b3a24"/><path d="M 400.22,309.97 L 354.08,262.83 L 350.2,266.56 L 395.34,314.65 Z" fill="#8a5a34"/><path d="M 353.43,262.33 L 295.24,231.27 L 293.32,234.78 L 350.85,267.05 Z" fill="#8a5a34"/><path d="M 399.66,266.33 L 435.49,209.16 L 431.5,206.63 L 395.05,263.41 Z" fill="#5b3a24"/><path d="M 435.37,209.33 L 476.17,155.6 L 473,153.16 L 431.62,206.45 Z" fill="#5b3a24"/><path d="M 405.12,216.16 L 352.8,182.06 L 350.57,185.47 L 402.86,219.63 Z" fill="#5b3a24"/><path d="M 352.23,181.8 L 292.07,165.03 L 291,168.88 L 351.14,185.72 Z" fill="#5b3a24"/>
    <ellipse cx="480.37" cy="357.04" rx="48.51" ry="39.83" fill="#4a7c3a"/><ellipse cx="490.66" cy="347.75" rx="28.87" ry="23.67" fill="#4a7c3a"/><ellipse cx="480.76" cy="354.36" rx="27.5" ry="22.55" fill="#4a7c3a"/><ellipse cx="469.31" cy="355.57" rx="31.72" ry="26.01" fill="#4a7c3a"/><ellipse cx="456.26" cy="349.72" rx="34.37" ry="28.19" fill="#8fc76b"/><ellipse cx="467.46" cy="337.73" rx="32.82" ry="26.91" fill="#8fc76b"/><ellipse cx="478.71" cy="338.91" rx="36.18" ry="29.67" fill="#4a7c3a"/><ellipse cx="474.24" cy="347.85" rx="31.66" ry="26.55" fill="#8fc76b"/><ellipse cx="463.97" cy="342.61" rx="15.25" ry="12.97" fill="#dff2c2" opacity="0.85"/><ellipse cx="458.23" cy="343.35" rx="13.72" ry="11.66" fill="#dff2c2" opacity="0.85"/><ellipse cx="467.24" cy="334.82" rx="14.36" ry="12.2" fill="#dff2c2" opacity="0.85"/><ellipse cx="324.03" cy="328.3" rx="56.96" ry="46.76" fill="#4a7c3a"/><ellipse cx="333.93" cy="315.08" rx="40.89" ry="33.53" fill="#4a7c3a"/><ellipse cx="327.29" cy="326.42" rx="41.54" ry="34.07" fill="#8fc76b"/><ellipse cx="306.88" cy="334.23" rx="39.63" ry="32.5" fill="#8fc76b"/><ellipse cx="288.02" cy="314.86" rx="41.08" ry="33.69" fill="#4a7c3a"/><ellipse cx="309.82" cy="308.31" rx="34.79" ry="28.52" fill="#8fc76b"/><ellipse cx="325.56" cy="297.63" rx="38.02" ry="31.17" fill="#4a7c3a"/><ellipse cx="316.84" cy="317.51" rx="37.17" ry="31.18" fill="#8fc76b"/><ellipse cx="306.77" cy="307.9" rx="21.27" ry="18.08" fill="#dff2c2" opacity="0.85"/><ellipse cx="298.5" cy="307.97" rx="13.53" ry="11.5" fill="#dff2c2" opacity="0.85"/><ellipse cx="293.39" cy="312.17" rx="16.38" ry="13.92" fill="#dff2c2" opacity="0.85"/><ellipse cx="488.32" cy="295.43" rx="59.48" ry="48.83" fill="#4a7c3a"/><ellipse cx="508.75" cy="285.61" rx="37.91" ry="31.08" fill="#4a7c3a"/><ellipse cx="496.67" cy="299.29" rx="42.5" ry="34.85" fill="#8fc76b"/><ellipse cx="463.36" cy="300.94" rx="40.28" ry="33.03" fill="#8fc76b"/><ellipse cx="458.89" cy="283.13" rx="43.45" ry="35.63" fill="#4a7c3a"/><ellipse cx="475.39" cy="271.05" rx="35.61" ry="29.2" fill="#4a7c3a"/><ellipse cx="494.6" cy="270.17" rx="32.66" ry="26.78" fill="#8fc76b"/><ellipse cx="480.81" cy="284.16" rx="38.82" ry="32.56" fill="#8fc76b"/><ellipse cx="469.15" cy="277.53" rx="13.84" ry="11.76" fill="#dff2c2" opacity="0.85"/><ellipse cx="465.47" cy="276.11" rx="20.67" ry="17.57" fill="#dff2c2" opacity="0.85"/><ellipse cx="473.38" cy="277.11" rx="13.99" ry="11.89" fill="#dff2c2" opacity="0.85"/><ellipse cx="300.99" cy="243.1" rx="53.18" ry="43.66" fill="#4a7c3a"/><ellipse cx="313.06" cy="233.5" rx="38.3" ry="31.41" fill="#4a7c3a"/><ellipse cx="302.02" cy="249.41" rx="28.62" ry="23.47" fill="#8fc76b"/><ellipse cx="285.05" cy="246.32" rx="33.27" ry="27.28" fill="#4a7c3a"/><ellipse cx="282.48" cy="231.34" rx="31.81" ry="26.08" fill="#8fc76b"/><ellipse cx="284.37" cy="214.71" rx="33.38" ry="27.37" fill="#8fc76b"/><ellipse cx="300.14" cy="225.68" rx="30.44" ry="24.96" fill="#8fc76b"/><ellipse cx="294.28" cy="233.03" rx="34.7" ry="29.11" fill="#8fc76b"/><ellipse cx="293.34" cy="225.19" rx="14.55" ry="12.37" fill="#dff2c2" opacity="0.85"/><ellipse cx="285.63" cy="229.27" rx="18.89" ry="16.05" fill="#dff2c2" opacity="0.85"/><ellipse cx="289.18" cy="215.41" rx="14.17" ry="12.04" fill="#dff2c2" opacity="0.85"/><ellipse cx="482.08" cy="165.62" rx="59.33" ry="48.71" fill="#4a7c3a"/><ellipse cx="491.95" cy="153.19" rx="39.52" ry="32.41" fill="#4a7c3a"/><ellipse cx="481.09" cy="168.54" rx="43.05" ry="35.3" fill="#8fc76b"/><ellipse cx="464.68" cy="170.17" rx="43.75" ry="35.87" fill="#4a7c3a"/><ellipse cx="456.96" cy="157.75" rx="31.68" ry="25.97" fill="#8fc76b"/><ellipse cx="457.09" cy="137.78" rx="34.89" ry="28.61" fill="#4a7c3a"/><ellipse cx="484.64" cy="144.12" rx="43.01" ry="35.26" fill="#4a7c3a"/><ellipse cx="474.59" cy="154.38" rx="38.72" ry="32.47" fill="#8fc76b"/><ellipse cx="473.29" cy="146.18" rx="18.04" ry="15.33" fill="#dff2c2" opacity="0.85"/><ellipse cx="460.55" cy="145.83" rx="14.61" ry="12.42" fill="#dff2c2" opacity="0.85"/><ellipse cx="463.29" cy="144.93" rx="21.72" ry="18.46" fill="#dff2c2" opacity="0.85"/><ellipse cx="298.03" cy="176.7" rx="51.41" ry="42.21" fill="#4a7c3a"/><ellipse cx="313.11" cy="166.17" rx="37.93" ry="31.1" fill="#8fc76b"/><ellipse cx="302.65" cy="183.98" rx="33.03" ry="27.09" fill="#8fc76b"/><ellipse cx="284.91" cy="182.33" rx="32.03" ry="26.26" fill="#8fc76b"/><ellipse cx="279.36" cy="166.96" rx="28.41" ry="23.29" fill="#8fc76b"/><ellipse cx="279.73" cy="150.39" rx="36.84" ry="30.21" fill="#8fc76b"/><ellipse cx="300.2" cy="148.17" rx="31.28" ry="25.65" fill="#4a7c3a"/><ellipse cx="291.54" cy="166.96" rx="33.55" ry="28.14" fill="#8fc76b"/><ellipse cx="283.34" cy="154.75" rx="13.75" ry="11.69" fill="#dff2c2" opacity="0.85"/><ellipse cx="282.37" cy="159.6" rx="15.59" ry="13.25" fill="#dff2c2" opacity="0.85"/><ellipse cx="278.56" cy="161.27" rx="15.66" ry="13.31" fill="#dff2c2" opacity="0.85"/><ellipse cx="410.18" cy="181.65" rx="58.67" ry="48.17" fill="#4a7c3a"/><ellipse cx="420.48" cy="170.97" rx="42.99" ry="35.25" fill="#8fc76b"/><ellipse cx="412.14" cy="181.3" rx="38.52" ry="31.59" fill="#4a7c3a"/><ellipse cx="391.16" cy="186.41" rx="31.47" ry="25.81" fill="#4a7c3a"/><ellipse cx="379.34" cy="168.51" rx="32.36" ry="26.53" fill="#8fc76b"/><ellipse cx="394.96" cy="159.42" rx="37.78" ry="30.98" fill="#4a7c3a"/><ellipse cx="413.9" cy="156.75" rx="38.97" ry="31.96" fill="#8fc76b"/><ellipse cx="402.77" cy="170.54" rx="38.29" ry="32.11" fill="#8fc76b"/><ellipse cx="391.33" cy="165.57" rx="16" ry="13.6" fill="#dff2c2" opacity="0.85"/><ellipse cx="382.68" cy="167.1" rx="14.45" ry="12.29" fill="#dff2c2" opacity="0.85"/><ellipse cx="389.88" cy="164.61" rx="16.24" ry="13.8" fill="#dff2c2" opacity="0.85"/>
    <g><circle cx="439.03" cy="319.42" r="5.95" fill="#ff9ecf" opacity="0.9"/><circle cx="433.89" cy="326.49" r="5.95" fill="#ff9ecf" opacity="0.9"/><circle cx="425.58" cy="323.79" r="5.95" fill="#ff9ecf" opacity="0.9"/><circle cx="425.58" cy="315.05" r="5.95" fill="#ff9ecf" opacity="0.9"/><circle cx="433.89" cy="312.34" r="5.95" fill="#ff9ecf" opacity="0.9"/><circle cx="431.59" cy="319.42" r="5.21" fill="#ffe9a8"/></g><g><circle cx="447.1" cy="323.42" r="7.6" fill="#ffc94d" opacity="0.9"/><circle cx="440.54" cy="332.46" r="7.6" fill="#ffc94d" opacity="0.9"/><circle cx="429.92" cy="329.01" r="7.6" fill="#ffc94d" opacity="0.9"/><circle cx="429.92" cy="317.84" r="7.6" fill="#ffc94d" opacity="0.9"/><circle cx="440.54" cy="314.39" r="7.6" fill="#ffc94d" opacity="0.9"/><circle cx="437.6" cy="323.42" r="6.65" fill="#ffe9a8"/></g>
    
    
    <line x1="409" y1="516" x2="413" y2="516" stroke="#6b4226" stroke-width="2"/><line x1="404.5" y1="523.79" x2="406.5" y2="527.26" stroke="#6b4226" stroke-width="2"/><line x1="395.5" y1="523.79" x2="393.5" y2="527.26" stroke="#6b4226" stroke-width="2"/><line x1="391" y1="516" x2="387" y2="516" stroke="#6b4226" stroke-width="2"/><line x1="395.5" y1="508.21" x2="393.5" y2="504.74" stroke="#6b4226" stroke-width="2"/><line x1="404.5" y1="508.21" x2="406.5" y2="504.74" stroke="#6b4226" stroke-width="2"/><circle cx="400" cy="516" r="8" fill="none" stroke="#6b4226" stroke-width="3"/><circle cx="400" cy="516" r="3" fill="#6b4226"/><line x1="409" y1="516" x2="413" y2="516" stroke="#6b4226" stroke-width="2"/><line x1="404.5" y1="523.79" x2="406.5" y2="527.26" stroke="#6b4226" stroke-width="2"/><line x1="395.5" y1="523.79" x2="393.5" y2="527.26" stroke="#6b4226" stroke-width="2"/><line x1="391" y1="516" x2="387" y2="516" stroke="#6b4226" stroke-width="2"/><line x1="395.5" y1="508.21" x2="393.5" y2="504.74" stroke="#6b4226" stroke-width="2"/><line x1="404.5" y1="508.21" x2="406.5" y2="504.74" stroke="#6b4226" stroke-width="2"/><circle cx="400" cy="516" r="8" fill="none" stroke="#6b4226" stroke-width="3"/><circle cx="400" cy="516" r="3" fill="#6b4226"/><line x1="409" y1="516" x2="413" y2="516" stroke="#6b4226" stroke-width="2"/><line x1="404.5" y1="523.79" x2="406.5" y2="527.26" stroke="#6b4226" stroke-width="2"/><line x1="395.5" y1="523.79" x2="393.5" y2="527.26" stroke="#6b4226" stroke-width="2"/><line x1="391" y1="516" x2="387" y2="516" stroke="#6b4226" stroke-width="2"/><line x1="395.5" y1="508.21" x2="393.5" y2="504.74" stroke="#6b4226" stroke-width="2"/><line x1="404.5" y1="508.21" x2="406.5" y2="504.74" stroke="#6b4226" stroke-width="2"/><circle cx="400" cy="516" r="8" fill="none" stroke="#6b4226" stroke-width="3"/><circle cx="400" cy="516" r="3" fill="#6b4226"/><line x1="409" y1="516" x2="413" y2="516" stroke="#6b4226" stroke-width="2"/><line x1="404.5" y1="523.79" x2="406.5" y2="527.26" stroke="#6b4226" stroke-width="2"/><line x1="395.5" y1="523.79" x2="393.5" y2="527.26" stroke="#6b4226" stroke-width="2"/><line x1="391" y1="516" x2="387" y2="516" stroke="#6b4226" stroke-width="2"/><line x1="395.5" y1="508.21" x2="393.5" y2="504.74" stroke="#6b4226" stroke-width="2"/><line x1="404.5" y1="508.21" x2="406.5" y2="504.74" stroke="#6b4226" stroke-width="2"/><circle cx="400" cy="516" r="8" fill="none" stroke="#6b4226" stroke-width="3"/><circle cx="400" cy="516" r="3" fill="#6b4226"/><line x1="409" y1="516" x2="413" y2="516" stroke="#6b4226" stroke-width="2"/><line x1="404.5" y1="523.79" x2="406.5" y2="527.26" stroke="#6b4226" stroke-width="2"/><line x1="395.5" y1="523.79" x2="393.5" y2="527.26" stroke="#6b4226" stroke-width="2"/><line x1="391" y1="516" x2="387" y2="516" stroke="#6b4226" stroke-width="2"/><line x1="395.5" y1="508.21" x2="393.5" y2="504.74" stroke="#6b4226" stroke-width="2"/><line x1="404.5" y1="508.21" x2="406.5" y2="504.74" stroke="#6b4226" stroke-width="2"/><circle cx="400" cy="516" r="8" fill="none" stroke="#6b4226" stroke-width="3"/><circle cx="400" cy="516" r="3" fill="#6b4226"/><line x1="409" y1="516" x2="413" y2="516" stroke="#6b4226" stroke-width="2"/><line x1="404.5" y1="523.79" x2="406.5" y2="527.26" stroke="#6b4226" stroke-width="2"/><line x1="395.5" y1="523.79" x2="393.5" y2="527.26" stroke="#6b4226" stroke-width="2"/><line x1="391" y1="516" x2="387" y2="516" stroke="#6b4226" stroke-width="2"/><line x1="395.5" y1="508.21" x2="393.5" y2="504.74" stroke="#6b4226" stroke-width="2"/><line x1="404.5" y1="508.21" x2="406.5" y2="504.74" stroke="#6b4226" stroke-width="2"/><circle cx="400" cy="516" r="8" fill="none" stroke="#6b4226" stroke-width="3"/><circle cx="400" cy="516" r="3" fill="#6b4226"/><line x1="409" y1="516" x2="413" y2="516" stroke="#6b4226" stroke-width="2"/><line x1="404.5" y1="523.79" x2="406.5" y2="527.26" stroke="#6b4226" stroke-width="2"/><line x1="395.5" y1="523.79" x2="393.5" y2="527.26" stroke="#6b4226" stroke-width="2"/><line x1="391" y1="516" x2="387" y2="516" stroke="#6b4226" stroke-width="2"/><line x1="395.5" y1="508.21" x2="393.5" y2="504.74" stroke="#6b4226" stroke-width="2"/><line x1="404.5" y1="508.21" x2="406.5" y2="504.74" stroke="#6b4226" stroke-width="2"/><circle cx="400" cy="516" r="8" fill="none" stroke="#6b4226" stroke-width="3"/><circle cx="400" cy="516" r="3" fill="#6b4226"/><line x1="409" y1="516" x2="413" y2="516" stroke="#6b4226" stroke-width="2"/><line x1="404.5" y1="523.79" x2="406.5" y2="527.26" stroke="#6b4226" stroke-width="2"/><line x1="395.5" y1="523.79" x2="393.5" y2="527.26" stroke="#6b4226" stroke-width="2"/><line x1="391" y1="516" x2="387" y2="516" stroke="#6b4226" stroke-width="2"/><line x1="395.5" y1="508.21" x2="393.5" y2="504.74" stroke="#6b4226" stroke-width="2"/><line x1="404.5" y1="508.21" x2="406.5" y2="504.74" stroke="#6b4226" stroke-width="2"/><circle cx="400" cy="516" r="8" fill="none" stroke="#6b4226" stroke-width="3"/><circle cx="400" cy="516" r="3" fill="#6b4226"/><line x1="409" y1="516" x2="413" y2="516" stroke="#6b4226" stroke-width="2"/><line x1="404.5" y1="523.79" x2="406.5" y2="527.26" stroke="#6b4226" stroke-width="2"/><line x1="395.5" y1="523.79" x2="393.5" y2="527.26" stroke="#6b4226" stroke-width="2"/><line x1="391" y1="516" x2="387" y2="516" stroke="#6b4226" stroke-width="2"/><line x1="395.5" y1="508.21" x2="393.5" y2="504.74" stroke="#6b4226" stroke-width="2"/><line x1="404.5" y1="508.21" x2="406.5" y2="504.74" stroke="#6b4226" stroke-width="2"/><circle cx="400" cy="516" r="8" fill="none" stroke="#6b4226" stroke-width="3"/><circle cx="400" cy="516" r="3" fill="#6b4226"/><line x1="409" y1="516" x2="413" y2="516" stroke="#6b4226" stroke-width="2"/><line x1="404.5" y1="523.79" x2="406.5" y2="527.26" stroke="#6b4226" stroke-width="2"/><line x1="395.5" y1="523.79" x2="393.5" y2="527.26" stroke="#6b4226" stroke-width="2"/><line x1="391" y1="516" x2="387" y2="516" stroke="#6b4226" stroke-width="2"/><line x1="395.5" y1="508.21" x2="393.5" y2="504.74" stroke="#6b4226" stroke-width="2"/><line x1="404.5" y1="508.21" x2="406.5" y2="504.74" stroke="#6b4226" stroke-width="2"/><circle cx="400" cy="516" r="8" fill="none" stroke="#6b4226" stroke-width="3"/><circle cx="400" cy="516" r="3" fill="#6b4226"/>
  </svg>