<svg xmlns="http://www.w3.org/2000/svg" width="800" height="600" viewBox="0 0 800 600">
    <defs>
      <linearGradient id="sky" x1="0" y1="0" x2="0" y2="1">
        <stop offset="0" stop-color="#fdf6e3"/>
        <stop offset="1" stop-color="#f6e2b3"/>
      </linearGradient>
    </defs>
    <rect x="0" y="0" width="800" height="600" fill="url(#sky)"/>
    <ellipse cx="400" cy="534" rx="105" ry="14" fill="#c9a267" opacity="0.6"/>
    <path d="M 330,526 L 342,560 L 458,560 L 470,526 Z" fill="#a85f3c"/>
    <rect x="326" y="520" width="148" height="10" rx="3" fill="#8a4a2e"/>
    <path d="M 409.58,518.87 L 413.77,503.62 L 395.31,498.08 L 390.42,513.13 Z" fill="#5b3a24"/><path d="M 413.7,503.84 L 418.27,488.7 L 400.65,482.93 L 395.39,497.85 Z" fill="#5b3a24"/><path d="M 418.73,486.16 L 418.96,470.34 L 401.15,469.67 L 400.19,485.47 Z" fill="#5b3a24"/><path d="M 418.69,467.81 L 414.43,452.57 L 397.87,456.79 L 401.42,472.2 Z" fill="#5b3a24"/><path d="M 414.69,454.23 L 413.49,438.45 L 397.15,439.31 L 397.62,455.12 Z" fill="#5b3a24"/><path d="M 413.29,437.03 L 409.35,421.7 L 394.12,425.25 L 397.36,440.73 Z" fill="#5b3a24"/><path d="M 408.72,419.95 L 401.27,405.99 L 387.96,412.71 L 394.76,427 Z" fill="#5b3a24"/><path d="M 402.03,408.59 L 400.04,392.89 L 385.94,394.35 L 387.2,410.12 Z" fill="#5b3a24"/><path d="M 400.01,392.62 L 397.43,377.01 L 384.1,378.9 L 385.97,394.61 Z" fill="#5b3a24"/><path d="M 397.46,377.31 L 395.58,361.6 L 382.91,362.82 L 384.07,378.6 Z" fill="#5b3a24"/><path d="M 395.61,362.09 L 394.95,346.28 L 382.95,346.51 L 382.88,362.33 Z" fill="#5b3a24"/><path d="M 394.68,344.61 L 389.62,329.62 L 378.86,332.97 L 383.22,348.18 Z" fill="#5b3a24"/><path d="M 389.88,331.07 L 388.88,315.28 L 378.35,315.7 L 378.61,331.52 Z" fill="#5b3a24"/><path d="M 388.69,314.05 L 384.02,298.93 L 374.57,301.61 L 378.54,316.93 Z" fill="#5b3a24"/><path d="M 384.09,299.24 L 380.4,283.85 L 371.51,285.77 L 374.5,301.31 Z" fill="#5b3a24"/><path d="M 380.42,283.92 L 376.96,268.48 L 368.76,270.12 L 371.5,285.7 Z" fill="#5b3a24"/><path d="M 377,268.73 L 374.49,253.11 L 366.93,254.14 L 368.72,269.87 Z" fill="#5b3a24"/><path d="M 374.48,253.01 L 371.56,237.46 L 364.74,238.57 L 366.94,254.24 Z" fill="#5b3a24"/><path d="M 371.54,237.34 L 368.1,221.9 L 362.03,223.11 L 364.77,238.69 Z" fill="#5b3a24"/><path d="M 368.13,222.12 L 365.8,206.47 L 360.39,207.15 L 362,222.89 Z" fill="#5b3a24"/><path d="M 365.81,206.52 L 363.77,190.83 L 359.07,191.33 L 360.38,207.1 Z" fill="#5b3a24"/><path d="M 363.78,191.02 L 363.01,175.21 L 359.01,175.32 L 359.05,191.14 Z" fill="#5b3a24"/>
    <path d="M 409.72,458.66 L 452.56,418.01 L 447.66,412.54 L 402.58,450.7 Z" fill="#8a5a34"/><path d="M 451.59,418.64 L 504.95,393.33 L 503.34,389.67 L 448.63,411.91 Z" fill="#8a5a34"/><path d="M 397.24,405.47 L 345.66,372.13 L 341.91,377.67 L 391.98,413.24 Z" fill="#5b3a24"/><path d="M 346.06,372.45 L 300.2,331.6 L 297.48,334.53 L 341.51,377.35 Z" fill="#5b3a24"/><path d="M 391.95,365.21 L 439.77,320.66 L 435.72,316.18 L 386.54,359.22 Z" fill="#5b3a24"/><path d="M 439.93,320.51 L 484.31,272.53 L 481.41,269.77 L 435.56,316.34 Z" fill="#5b3a24"/><path d="M 385.51,312.69 L 335.2,279.43 L 332.18,283.88 L 381.72,318.29 Z" fill="#8a5a34"/><path d="M 335.07,279.35 L 283.02,248.89 L 280.96,252.31 L 332.3,283.96 Z" fill="#8a5a34"/><path d="M 374.99,271.01 L 393.75,247.08 L 390.06,244.12 L 370.73,267.59 Z" fill="#8a5a34"/><path d="M 394.01,246.67 L 407.47,219.4 L 403.9,217.59 L 389.8,244.53 Z" fill="#8a5a34"/><path d="M 366.61,221.12 L 345.05,197.19 L 342.02,199.91 L 363.52,223.89 Z" fill="#8a5a34"/><path d="M 345.16,197.32 L 325.68,171.67 L 322.49,174.09 L 341.91,199.78 Z" fill="#8a5a34"/>
    <ellipse cx="510.2" cy="400.58" rx="47.94" ry="39.36" fill="#4a7c3a"/><ellipse cx="519.67" cy="392.75" rx="35.24" ry="28.9" fill="#4a7c3a"/><ellipse cx="508.03" cy="398.92" rx="35.21" ry="28.87" fill="#8fc76b"/><ellipse cx="497.95" cy="402.71" rx="27.35" ry="22.43" fill="#8fc76b"/><ellipse cx="489.44" cy="393.39" rx="26.92" ry="22.07" fill="#4a7c3a"/><ellipse cx="498.47" cy="378.77" rx="25.54" ry="20.94" fill="#4a7c3a"/><ellipse cx="511.94" cy="380.97" rx="33.55" ry="27.51" fill="#4a7c3a"/><ellipse cx="504.15" cy="391.5" rx="31.29" ry="26.24" fill="#8fc76b"/><ellipse cx="494.45" cy="390.02" rx="13.67" ry="11.62" fill="#dff2c2" opacity="0.85"/><ellipse cx="489.78" cy="385.88" rx="15.34" ry="13.04" fill="#dff2c2" opacity="0.85"/><ellipse cx="497.32" cy="388.63" rx="17.49" ry="14.87" fill="#dff2c2" opacity="0.85"/><ellipse cx="305.61" cy="343.23" rx="53.64" ry="44.04" fill="#4a7c3a"/><ellipse cx="314.97" cy="330.07" rx="40.27" ry="33.02" fill="#8fc76b"/><ellipse cx="309.8" cy="345.56" rx="29.74" ry="24.39" fill="#8fc76b"/><ellipse cx="291.63" cy="343.92" rx="38.28" ry="31.39" fill="#4a7c3a"/><ellipse cx="285.09" cy="333.28" rx="28.52" ry="23.38" fill="#4a7c3a"/><ellipse cx="292.58" cy="325.68" rx="35.01" ry="28.7" fill="#4a7c3a"/><ellipse cx="306.69" cy="326.3" rx="39.02" ry="32" fill="#4a7c3a"/><ellipse cx="298.84" cy="333.07" rx="35" ry="29.36" fill="#8fc76b"/><ellipse cx="296.35" cy="324.62" rx="19.96" ry="16.96" fill="#dff2c2" opacity="0.85"/><ellipse cx="283.98" cy="328.89" rx="13.71" ry="11.66" fill="#dff2c2" opacity="0.85"/><ellipse cx="295.02" cy="319.12" rx="18.29" ry="15.55" fill="#dff2c2" opacity="0.85"/><ellipse cx="488.59" cy="279.75" rx="45.36" ry="37.24" fill="#4a7c3a"/><ellipse cx="495.8" cy="269.25" rx="29.46" ry="24.16" fill="#8fc76b"/><ellipse cx="490.52" cy="280.29" rx="29.04" ry="23.82" fill="#8fc76b"/><ellipse cx="477.1" cy="278.02" rx="25.02" ry="20.52" fill="#8fc76b"/><ellipse cx="471.96" cy="272.81" rx="32.06" ry="26.29" fill="#8fc76b"/><ellipse cx="475.75" cy="256.14" rx="23.89" ry="19.59" fill="#4a7c3a"/><ellipse cx="485.71" cy="263.7" rx="32.16" ry="26.37" fill="#8fc76b"/><ellipse cx="482.86" cy="271.15" rx="29.6" ry="24.83" fill="#8fc76b"/><ellipse cx="481.41" cy="263.45" rx="11.93" ry="10.14" fill="#dff2c2" opacity="0.85"/><ellipse cx="474.31" cy="258.53" rx="13.51" ry="11.48" fill="#dff2c2" opacity="0.85"/><ellipse cx="469.42" cy="263.77" rx="16.22" ry="13.79" fill="#dff2c2" opacity="0.85"/><ellipse cx="287.89" cy="259.45" rx="46.7" ry="38.34" fill="#4a7c3a"/><ellipse cx="300.98" cy="252.68" rx="34.05" ry="27.92" fill="#8fc76b"/><ellipse cx="288.5" cy="258.92" rx="27.25" ry="22.34" fill="#8fc76b"/><ellipse cx="276.96" cy="258.58" rx="24.73" ry="20.28" fill="#8fc76b"/><ellipse cx="266.62" cy="251.23" rx="33.24" ry="27.26" fill="#4a7c3a"/><ellipse cx="270.1" cy="239.64" rx="27.41" ry="22.47" fill="#4a7c3a"/><ellipse cx="284.84" cy="243.54" rx="32" ry="26.24" fill="#8fc76b"/><ellipse cx="281.99" cy="250.6" rx="30.48" ry="25.56" fill="#8fc76b"/><ellipse cx="269.82" cy="241.64" rx="13.77" ry="11.7" fill="#dff2c2" opacity="0.85"/><ellipse cx="274.6" cy="237.39" rx="11.74" ry="9.98" fill="#dff2c2" opacity="0.85"/><ellipse cx="270.41" cy="249.75" rx="15.42" ry="13.11" fill="#dff2c2" opacity="0.85"/><ellipse cx="411.88" cy="227.8" rx="49.07" ry="40.29" fill="#4a7c3a"/><ellipse cx="421.36" cy="217.09" rx="32.86" ry="26.94" fill="#8fc76b"/><ellipse cx="420.55" cy="233.39" rx="31.46" ry="25.8" fill="#8fc76b"/><ellipse cx="397.17" cy="231.19" rx="34.38" ry="28.19" fill="#4a7c3a"/><ellipse cx="382.31" cy="216.37" rx="35.32" ry="28.96" fill="#4a7c3a"/><ellipse cx="397.09" cy="208.63" rx="26.32" ry="21.58" fill="#4a7c3a"/><ellipse cx="413.18" cy="212.61" rx="26.63" ry="21.83" fill="#8fc76b"/><ellipse cx="405.68" cy="218.5" rx="32.02" ry="26.86" fill="#8fc76b"/><ellipse cx="385.28" cy="211.73" rx="13.55" ry="11.52" fill="#dff2c2" opacity="0.85"/><ellipse cx="400.88" cy="209.29" rx="17.46" ry="14.84" fill="#dff2c2" opacity="0.85"/><ellipse cx="395.43" cy="203.06" rx="16.97" ry="14.42" fill="#dff2c2" opacity="0.85"/><ellipse cx="331.32" cy="183.73" rx="57.26" ry="47.01" fill="#4a7c3a"/><ellipse cx="350.18" cy="173.45" rx="38.41" ry="31.5" fill="#4a7c3a"/><ellipse cx="339.62" cy="190.78" rx="32.65" ry="26.78" fill="#4a7c3a"/><ellipse cx="311.19" cy="192.57" rx="39.79" ry="32.63" fill="#4a7c3a"/><ellipse cx="307.25" cy="173.57" rx="39.5" ry="32.39" fill="#8fc76b"/><ellipse cx="314.48" cy="160.38" rx="38.04" ry="31.19" fill="#8fc76b"/><ellipse cx="331.88" cy="160.45" rx="30.23" ry="24.79" fill="#8fc76b"/><ellipse cx="324.09" cy="172.88" rx="37.37" ry="31.34" fill="#8fc76b"/><ellipse cx="314.01" cy="168.37" rx="13.91" ry="11.82" fill="#dff2c2" opacity="0.85"/><ellipse cx="310.05" cy="172.73" rx="18.8" ry="15.98" fill="#dff2c2" opacity="0.85"/><ellipse cx="309.77" cy="165.75" rx="13.85" ry="11.77" fill="#dff2c2" opacity="0.85"/><ellipse cx="367.99" cy="185.74" rx="55.27" ry="45.38" fill="#4a7c3a"/><ellipse cx="381.82" cy="177.29" rx="39.54" ry="32.42" fill="#4a7c3a"/><ellipse cx="372.16" cy="187.49" rx="33.48" ry="27.45" fill="#8fc76b"/><ellipse cx="351.6" cy="182.64" rx="34.24" ry="28.07" fill="#4a7c3a"/><ellipse cx="344.12" cy="174.7" rx="39.86" ry="32.68" fill="#8fc76b"/><ellipse cx="355.25" cy="166.29" rx="32.42" ry="26.58" fill="#4a7c3a"/><ellipse cx="370.84" cy="156.78" rx="30.82" ry="25.28" fill="#4a7c3a"/><ellipse cx="361.01" cy="175.27" rx="36.07" ry="30.25" fill="#8fc76b"/><ellipse cx="358.48" cy="163.79" rx="16.26" ry="13.82" fill="#dff2c2" opacity="0.85"/><ellipse cx="357.31" cy="167.11" rx="12.83" ry="10.9" fill="#dff2c2" opacity="0.85"/><ellipse cx="347.22" cy="172.48" rx="20.5" ry="17.43" fill="#dff2c2" opacity="0.85"/>
    <g><circle cx="471" cy="363.07" r="7.6" fill="#ff9ecf" opacity="0.9"/><circle cx="464.44" cy="372.11" r="7.6" fill="#ff9ecf" opacity="0.9"/><circle cx="453.81" cy="368.66" r="7.6" fill="#ff9ecf" opacity="0.9"/><circle cx="453.81" cy="357.49" r="7.6" fill="#ff9ecf" opacity="0.9"/><circle cx="464.44" cy="354.04" r="7.6" fill="#ff9ecf" opacity="0.9"/><circle cx="461.5" cy="363.07" r="6.65" fill="#ffe9a8"/></g><g><circle cx="269.11" cy="308.64" r="5.53" fill="#ff9ecf" opacity="0.9"/><circle cx="264.34" cy="315.22" r="5.53" fill="#ff9ecf" opacity="0.9"/><circle cx="256.61" cy="312.7" r="5.53" fill="#ff9ecf" opacity="0.9"/><circle cx="256.61" cy="304.58" r="5.53" fill="#ff9ecf" opacity="0.9"/><circle cx="264.34" cy="302.07" r="5.53" fill="#ff9ecf" opacity="0.9"/><circle cx="262.2" cy="308.64" r="4.84" fill="#ffe9a8"/></g>
    
    
    <line x1="409" y1="516" x2="413" y2="516" stroke="#6b4226" stroke-width="2"/><line x1="404.5" y1="523.79" x2="406.5" y2="527.26" stroke="#6b4226" stroke-width="2"/><line x1="395.5" y1="523.79" x2="393.5" y2="527.26" stroke="#6b4226" stroke-width="2"/><line x1="391" y1="516" x2="387" y2="516" stroke="#6b4226" stroke-width="2"/><line x1="395.5" y1="508.21" x2="393.5" y2="504.74" stroke="#6b4226" stroke-width="2"/><line x1="404.5" y1="508.21" x2="406.5" y2="504.74" stroke="#6b4226" stroke-width="2"/><circle cx="400" cy="516" r="8" fill="none" stroke="#6b4226" stroke-width="3"/><circle cx="400" cy="516" r="3" fill="#6b4226"/><line x1="409" y1="516" x2="413" y2="516" stroke="#6b4226" stroke-width="2"/><line x1="404.5" y1="523.79" x2="406.5" y2="527.26" stroke="#6b4226" stroke-width="2"/><line x1="395.5" y1="523.79" x2="393.5" y2="527.26" stroke="#6b4226" stroke-width="2"/><line x1="391" y1="516" x2="387" y2="516" stroke="#6b4226" stroke-width="2"/><line x1="395.5" y1="508.21" x2="393.5" y2="504.74" stroke="#6b4226" stroke-width="2"/><line x1="404.5" y1="508.21" x2="406.5" y2="504.74" stroke="#6b4226" stroke-width="2"/><circle cx="400" cy="516" r="8" fill="none" stroke="#6b4226" stroke-width="3"/><circle cx="400" cy="516" r="3" fill="#6b4226"/><line x1="409" y1="516" x2="413" y2="516" stroke="#6b4226" stroke-width="2"/><line x1="404.5" y1="523.79" x2="406.5" y2="527.26" stroke="#6b4226" stroke-width="2"/><line x1="395.5" y1="523.79" x2="393.5" y2="527.26" stroke="#6b4226" stroke-width="2"/><line x1="391" y1="516" x2="387" y2="516" stroke="#6b4226" stroke-width="2"/><line x1="395.5" y1="508.21" x2="393.5" y2="504.74" stroke="#6b4226" stroke-width="2"/><line x1="404.5" y1="508.21" x2="406.5" y2="504.74" stroke="#6b4226" stroke-width="2"/><circle cx="400" cy="516" r="8" fill="none" stroke="#6b4226" stroke-width="3"/><circle cx="400" cy="516" r="3" fill="#6b4226"/><line x1="409" y1="516" x2="413" y2="516" stroke="#6b4226" stroke-width="2"/><line x1="404.5" y1="523.79" x2="406.5" y2="527.26" stroke="#6b4226" stroke-width="2"/><line x1="395.5" y1="523.79" x2="393.5" y2="527.26" stroke="#6b4226" stroke-width="2"/><line x1="391" y1="516" x2="387" y2="516" stroke="#6b4226" stroke-width="2"/><line x1="395.5" y1="508.21" x2="393.5" y2="504.74" stroke="#6b4226" stroke-width="2"/><line x1="404.5" y1="508.21" x2="406.5" y2="504.74" stroke="#6b4226" stroke-width="2"/><circle cx="400" cy="516" r="8" fill="none" stroke="#6b4226" stroke-width="3"/><circle cx="400" cy="516" r="3" fill="#6b4226"/><line x1="418.46" y1="485.81" x2="422.46" y2="485.81" stroke="#6b4226" stroke-width="2"/><line x1="413.96" y1="493.61" x2="415.96" y2="497.07" stroke="#6b4226" stroke-width="2"/><line x1="404.96" y1="493.61" x2="402.96" y2="497.07" stroke="#6b4226" stroke-width="2"/><line x1="400.46" y1="485.81" x2="396.46" y2="485.81" stroke="#6b4226" stroke-width="2"/><line x1="404.96" y1="478.02" x2="402.96" y2="474.56" stroke="#6b4226" stroke-width="2"/><line x1="413.96" y1="478.02" x2="415.96" y2="474.56" stroke="#6b4226" stroke-width="2"/><circle cx="409.46" cy="485.81" r="8" fill="none" stroke="#6b4226" stroke-width="3"/><circle cx="409.46" cy="485.81" r="3" fill="#6b4226"/><line x1="418.46" y1="485.81" x2="422.46" y2="485.81" stroke="#6b4226" stroke-width="2"/><line x1="413.96" y1="493.61" x2="415.96" y2="497.07" stroke="#6b4226" stroke-width="2"/><line x1="404.96" y1="493.61" x2="402.96" y2="497.07" stroke="#6b4226" stroke-width="2"/><line x1="400.46" y1="485.81" x2="396.46" y2="485.81" stroke="#6b4226" stroke-width="2"/><line x1="404.96" y1="478.02" x2="402.96" y2="474.56" stroke="#6b4226" stroke-width="2"/><line x1="413.96" y1="478.02" x2="415.96" y2="474.56" stroke="#6b4226" stroke-width="2"/><circle cx="409.46" cy="485.81" r="8" fill="none" stroke="#6b4226" stroke-width="3"/><circle cx="409.46" cy="485.81" r="3" fill="#6b4226"/><line x1="418.46" y1="485.81" x2="422.46" y2="485.81" stroke="#6b4226" stroke-width="2"/><line x1="413.96" y1="493.61" x2="415.96" y2="497.07" stroke="#6b4226" stroke-width="2"/><line x1="404.96" y1="493.61" x2="402.96" y2="497.07" stroke="#6b4226" stroke-width="2"/><line x1="400.46" y1="485.81" x2="396.46" y2="485.81" stroke="#6b4226" stroke-width="2"/><line x1="404.96" y1="478.02" x2="402.96" y2="474.56" stroke="#6b4226" stroke-width="2"/><line x1="413.96" y1="478.02" x2="415.96" y2="474.56" stroke="#6b4226" stroke-width="2"/><circle cx="409.46" cy="485.81" r="8" fill="none" stroke="#6b4226" stroke-width="3"/><circle cx="409.46" cy="485.81" r="3" fill="#6b4226"/><line x1="418.46" y1="485.81" x2="422.46" y2="485.81" stroke="#6b4226" stroke-width="2"/><line x1="413.96" y1="493.61" x2="415.96" y2="497.07" stroke="#6b4226" stroke-width="2"/><line x1="404.96" y1="493.61" x2="402.96" y2="497.07" stroke="#6b4226" stroke-width="2"/><line x1="400.46" y1="485.81" x2="396.46" y2="485.81" stroke="#6b4226" stroke-width="2"/><line x1="404.96" y1="478.02" x2="402.96" y2="474.56" stroke="#6b4226" stroke-width="2"/><line x1="413.96" y1="478.02" x2="415.96" y2="474.56" stroke="#6b4226" stroke-width="2"/><circle cx="409.46" cy="485.81" r="8" fill="none" stroke="#6b4226" stroke-width="3"/><circle cx="409.46" cy="485.81" r="3" fill="#6b4226"/><line x1="418.46" y1="485.81" x2="422.46" y2="485.81" stroke="#6b4226" stroke-width="2"/><line x1="413.96" y1="493.61" x2="415.96" y2="497.07" stroke="#6b4226" stroke-width="2"/><line x1="404.96" y1="493.61" x2="402.96" y2="497.07" stroke="#6b4226" stroke-width="2"/><line x1="400.46" y1="485.81" x2="396.46" y2="485.81" stroke="#6b4226" stroke-width="2"/><line x1="404.96" y1="478.02" x2="402.96" y2="474.56" stroke="#6b4226" stroke-width="2"/><line x1="413.96" y1="478.02" x2="415.96" y2="474.56" stroke="#6b4226" stroke-width="2"/><circle cx="409.46" cy="485.81" r="8" fill="none" stroke="#6b4226" stroke-width="3"/><circle cx="409.46" cy="485.81" r="3" fill="#6b4226"/><line x1="419.05" y1="470.01" x2="423.05" y2="470.01" stroke="#6b4226" stroke-width="2"/><line x1="414.55" y1="477.8" x2="416.55" y2="481.26" stroke="#6b4226" stroke-width="2"/><line x1="405.55" y1="477.8" x2="403.55" y2="481.26" stroke="#6b4226" stroke-width="2"/><line x1="401.05" y1="470.01" x2="397.05" y2="470.01" stroke="#6b4226" stroke-width="2"/><line x1="405.55" y1="462.21" x2="403.55" y2="458.75" stroke="#6b4226" stroke-width="2"/><line x1="414.55" y1="462.21" x2="416.55" y2="458.75" stroke="#6b4226" stroke-width="2"/><circle cx="410.05" cy="470.01" r="8" fill="none" stroke="#6b4226" stroke-width="3"/><circle cx="410.05" cy="470.01" r="3" fill="#6b4226"/>
  </svg>