<svg xmlns="http://www.w3.org/2000/svg" width="800" height="600" viewBox="0 0 800 600">
    <defs>
      <linearGradient id="sky" x1="0" y1="0" x2="0" y2="1">
        <stop offset="0" stop-color="#fdf6e3"/>
        <stop offset="1" stop-color="#f6e2b3"/>
      </linearGradient>
    </defs>
    <rect x="0" y="0" width="800" height="600" fill="url(#sky)"/>
    <ellipse cx="400" cy="534" rx="105" ry="14" fill="#c9a267" opacity="0.6"/>
    <path d="M 330,526 L 342,560 L 458,560 L 470,526 Z" fill="#a85f3c"/>
    <rect x="326" y="520" width="148" height="10" rx="3" fill="#8a4a2e"/>
    <path d="M 409.98,515.31 L 408.45,498.8 L 389.26,500.13 L 390.02,516.69 Z" fill="#5b3a24"/><path d="M 408.47,499.56 L 408.26,482.99 L 389.78,482.81 L 389.24,499.37 Z" fill="#5b3a24"/><path d="M 408.11,481.28 L 404.83,465.03 L 387.39,468.14 L 389.93,484.52 Z" fill="#5b3a24"/><path d="M 404.76,464.67 L 400.81,448.57 L 384.26,452.23 L 387.46,468.5 Z" fill="#5b3a24"/><path d="M 400.95,451.42 L 402.55,434.92 L 386.47,432.98 L 384.12,449.39 Z" fill="#5b3a24"/><path d="M 402.57,434.76 L 403.84,418.23 L 388.49,416.69 L 386.46,433.14 Z" fill="#5b3a24"/><path d="M 403.69,419.16 L 406.98,402.92 L 392.67,399.68 L 388.64,415.76 Z" fill="#5b3a24"/><path d="M 406.39,404.56 L 413.41,389.54 L 400.96,383.36 L 393.25,398.04 Z" fill="#5b3a24"/><path d="M 413.93,388.12 L 417.55,371.95 L 404.79,368.79 L 400.44,384.78 Z" fill="#5b3a24"/><path d="M 417.73,370.78 L 418.39,354.22 L 406.03,353.44 L 404.61,369.96 Z" fill="#5b3a24"/><path d="M 418.33,354.75 L 420.42,338.31 L 408.93,336.58 L 406.09,352.91 Z" fill="#5b3a24"/><path d="M 420.4,336.48 L 417.28,320.2 L 406.57,322 L 408.94,338.4 Z" fill="#5b3a24"/><path d="M 417.34,321.42 L 417.94,304.85 L 407.86,304.26 L 406.51,320.78 Z" fill="#5b3a24"/><path d="M 417.95,304.61 L 417.74,288.03 L 408.4,287.94 L 407.85,304.5 Z" fill="#5b3a24"/><path d="M 417.59,289.16 L 421.38,273.02 L 413.08,270.87 L 408.55,286.81 Z" fill="#5b3a24"/><path d="M 421.52,271.8 L 420.57,255.25 L 412.76,255.52 L 412.95,272.09 Z" fill="#5b3a24"/><path d="M 420.56,255.11 L 419.04,238.61 L 412,239.1 L 412.77,255.65 Z" fill="#5b3a24"/><path d="M 419.02,238.44 L 416.69,222.03 L 410.45,222.77 L 412.02,239.27 Z" fill="#5b3a24"/><path d="M 416.71,222.47 L 416.71,205.89 L 411.19,205.77 L 410.43,222.32 Z" fill="#5b3a24"/><path d="M 416.7,205.52 L 414.48,189.1 L 409.75,189.62 L 411.21,206.13 Z" fill="#5b3a24"/><path d="M 414.49,189.59 L 415.69,173.05 L 411.71,172.67 L 409.75,189.13 Z" fill="#5b3a24"/>
    <path d="M 395.85,454.55 L 442.18,415.41 L 437.62,409.7 L 389.22,446.25 Z" fill="#5b3a24"/><path d="M 442.77,414.82 L 478.96,366.14 L 475.82,363.67 L 437.02,410.29 Z" fill="#5b3a24"/><path d="M 402.17,397.31 L 349.98,368.06 L 346.61,373.77 L 397.47,405.29 Z" fill="#8a5a34"/><path d="M 350.52,368.46 L 305.27,329.31 L 302.58,332.28 L 346.07,373.38 Z" fill="#8a5a34"/><path d="M 414.28,357.18 L 466.87,323.58 L 463.75,318.53 L 410.14,350.47 Z" fill="#8a5a34"/><path d="M 466.55,323.76 L 522.88,296.88 L 521.21,293.25 L 464.08,318.35 Z" fill="#8a5a34"/><path d="M 415.01,302.07 L 364.84,260.28 L 361.43,264.29 L 410.79,307.04 Z" fill="#5b3a24"/><path d="M 364.36,259.96 L 306.38,229.94 L 304.51,233.47 L 361.9,264.61 Z" fill="#5b3a24"/><path d="M 418.1,257.52 L 468.56,223.19 L 466.01,219.4 L 415.23,253.25 Z" fill="#8a5a34"/><path d="M 468.99,222.82 L 509.46,177.14 L 506.48,174.47 L 465.58,219.77 Z" fill="#8a5a34"/><path d="M 414.96,204.23 L 359.82,169.32 L 357.74,172.61 L 412.94,207.42 Z" fill="#5b3a24"/><path d="M 359.37,169.11 L 297.22,149.19 L 296,153 L 358.19,172.81 Z" fill="#5b3a24"/>
    <ellipse cx="484.83" cy="376.06" rx="58.88" ry="48.35" fill="#4a7c3a"/><ellipse cx="492.65" cy="366.03" rx="39.69" ry="32.54" fill="#4a7c3a"/><ellipse cx="488.22" cy="381.45" rx="33.89" ry="27.79" fill="#4a7c3a"/><ellipse cx="458.77" cy="382.68" rx="37.36" ry="30.63" fill="#4a7c3a"/><ellipse cx="449.09" cy="368.32" rx="41.98" ry="34.42" fill="#8fc76b"/><ellipse cx="465.75" cy="354.31" rx="37.32" ry="30.6" fill="#8fc76b"/><ellipse cx="481.77" cy="354.95" rx="33.57" ry="27.53" fill="#4a7c3a"/><ellipse cx="477.39" cy="364.91" rx="38.43" ry="32.23" fill="#8fc76b"/><ellipse cx="461.99" cy="361.02" rx="17.56" ry="14.93" fill="#dff2c2" opacity="0.85"/><ellipse cx="464.95" cy="352.09" rx="17.78" ry="15.12" fill="#dff2c2" opacity="0.85"/><ellipse cx="463.38" cy="363.87" rx="21.37" ry="18.17" fill="#dff2c2" opacity="0.85"/><ellipse cx="310.35" cy="340.44" rx="50.9" ry="41.79" fill="#4a7c3a"/><ellipse cx="325.24" cy="332.44" rx="28.68" ry="23.52" fill="#8fc76b"/><ellipse cx="308.51" cy="342.25" rx="36.22" ry="29.7" fill="#8fc76b"/><ellipse cx="289.47" cy="344.31" rx="27.97" ry="22.93" fill="#8fc76b"/><ellipse cx="283.87" cy="333.32" rx="30.24" ry="24.8" fill="#4a7c3a"/><ellipse cx="291.06" cy="319.66" rx="31.92" ry="26.17" fill="#8fc76b"/><ellipse cx="315.36" cy="317.29" rx="29.97" ry="24.58" fill="#8fc76b"/><ellipse cx="303.92" cy="330.8" rx="33.22" ry="27.86" fill="#8fc76b"/><ellipse cx="296.74" cy="315.89" rx="16.55" ry="14.07" fill="#dff2c2" opacity="0.85"/><ellipse cx="283.07" cy="329.78" rx="18.73" ry="15.92" fill="#dff2c2" opacity="0.85"/><ellipse cx="296.96" cy="320.79" rx="14.87" ry="12.64" fill="#dff2c2" opacity="0.85"/><ellipse cx="528.38" cy="304.57" rx="50.16" ry="41.18" fill="#4a7c3a"/><ellipse cx="542.97" cy="291.22" rx="30.41" ry="24.94" fill="#8fc76b"/><ellipse cx="528.12" cy="309.44" rx="28.11" ry="23.05" fill="#4a7c3a"/><ellipse cx="509.34" cy="307.25" rx="32.77" ry="26.87" fill="#4a7c3a"/><ellipse cx="503.05" cy="296.42" rx="34.38" ry="28.19" fill="#8fc76b"/><ellipse cx="514.96" cy="287.23" rx="33.16" ry="27.19" fill="#8fc76b"/><ellipse cx="527.79" cy="283.44" rx="35.5" ry="29.11" fill="#4a7c3a"/><ellipse cx="522.05" cy="295.07" rx="32.73" ry="27.45" fill="#8fc76b"/><ellipse cx="513.82" cy="286.01" rx="16.62" ry="14.13" fill="#dff2c2" opacity="0.85"/><ellipse cx="517.54" cy="288.49" rx="16.96" ry="14.42" fill="#dff2c2" opacity="0.85"/><ellipse cx="520.17" cy="288.31" rx="17.43" ry="14.82" fill="#dff2c2" opacity="0.85"/><ellipse cx="311.16" cy="240.28" rx="45.24" ry="37.14" fill="#4a7c3a"/><ellipse cx="328.69" cy="233.11" rx="33.74" ry="27.66" fill="#8fc76b"/><ellipse cx="312.03" cy="238.07" rx="26.43" ry="21.68" fill="#4a7c3a"/><ellipse cx="289.56" cy="244.84" rx="30.62" ry="25.11" fill="#4a7c3a"/><ellipse cx="284.97" cy="235.04" rx="33.21" ry="27.23" fill="#4a7c3a"/><ellipse cx="299.4" cy="224.75" rx="23.96" ry="19.65" fill="#4a7c3a"/><ellipse cx="318.11" cy="219.83" rx="28.52" ry="23.39" fill="#8fc76b"/><ellipse cx="305.44" cy="231.71" rx="29.52" ry="24.76" fill="#8fc76b"/><ellipse cx="301.35" cy="222.85" rx="12.3" ry="10.46" fill="#dff2c2" opacity="0.85"/><ellipse cx="297.74" cy="223" rx="17.03" ry="14.47" fill="#dff2c2" opacity="0.85"/><ellipse cx="296.29" cy="218.37" rx="15.06" ry="12.8" fill="#dff2c2" opacity="0.85"/><ellipse cx="514.98" cy="186.32" rx="55.47" ry="45.55" fill="#4a7c3a"/><ellipse cx="532.34" cy="174.93" rx="39.26" ry="32.19" fill="#8fc76b"/><ellipse cx="524.74" cy="189.42" rx="38.01" ry="31.17" fill="#8fc76b"/><ellipse cx="497.03" cy="184.97" rx="35.05" ry="28.74" fill="#4a7c3a"/><ellipse cx="496.26" cy="177.41" rx="36.11" ry="29.61" fill="#8fc76b"/><ellipse cx="495.42" cy="157.86" rx="31.49" ry="25.82" fill="#8fc76b"/><ellipse cx="516.57" cy="166.61" rx="35.24" ry="28.9" fill="#8fc76b"/><ellipse cx="507.97" cy="175.81" rx="36.2" ry="30.36" fill="#8fc76b"/><ellipse cx="498.8" cy="169.63" rx="16.93" ry="14.39" fill="#dff2c2" opacity="0.85"/><ellipse cx="499.6" cy="161.06" rx="13.85" ry="11.78" fill="#dff2c2" opacity="0.85"/><ellipse cx="503.01" cy="167.17" rx="15.09" ry="12.83" fill="#dff2c2" opacity="0.85"/><ellipse cx="302.48" cy="159.89" rx="46.46" ry="38.14" fill="#4a7c3a"/><ellipse cx="320.78" cy="152.28" rx="28.65" ry="23.49" fill="#8fc76b"/><ellipse cx="307.02" cy="162.4" rx="25.94" ry="21.27" fill="#4a7c3a"/><ellipse cx="292.15" cy="159.6" rx="25.52" ry="20.92" fill="#4a7c3a"/><ellipse cx="281.45" cy="152.71" rx="28.38" ry="23.27" fill="#4a7c3a"/><ellipse cx="289.09" cy="136.28" rx="26.25" ry="21.52" fill="#4a7c3a"/><ellipse cx="301.46" cy="141.27" rx="30.67" ry="25.15" fill="#4a7c3a"/><ellipse cx="296.61" cy="151.09" rx="30.32" ry="25.43" fill="#8fc76b"/><ellipse cx="295.17" cy="134.7" rx="12.61" ry="10.71" fill="#dff2c2" opacity="0.85"/><ellipse cx="290" cy="143.75" rx="17.02" ry="14.47" fill="#dff2c2" opacity="0.85"/><ellipse cx="289.87" cy="148.06" rx="12.52" ry="10.64" fill="#dff2c2" opacity="0.85"/><ellipse cx="419.93" cy="182.21" rx="49.35" ry="40.52" fill="#4a7c3a"/><ellipse cx="433.6" cy="173" rx="37.39" ry="30.66" fill="#8fc76b"/><ellipse cx="421.19" cy="185.88" rx="27.91" ry="22.89" fill="#8fc76b"/><ellipse cx="404.9" cy="182.02" rx="33.63" ry="27.58" fill="#4a7c3a"/><ellipse cx="394.69" cy="173.52" rx="35.96" ry="29.49" fill="#8fc76b"/><ellipse cx="403.06" cy="159.59" rx="29.49" ry="24.18" fill="#4a7c3a"/><ellipse cx="426.19" cy="163.24" rx="34.47" ry="28.26" fill="#4a7c3a"/><ellipse cx="413.7" cy="172.86" rx="32.21" ry="27.01" fill="#8fc76b"/><ellipse cx="406.63" cy="160.09" rx="16.28" ry="13.84" fill="#dff2c2" opacity="0.85"/><ellipse cx="396.3" cy="165.05" rx="13.25" ry="11.26" fill="#dff2c2" opacity="0.85"/><ellipse cx="408.07" cy="156.67" rx="15.98" ry="13.58" fill="#dff2c2" opacity="0.85"/>
    <g><circle cx="444.24" cy="336.48" r="7.6" fill="#ff9ecf" opacity="0.9"/><circle cx="437.68" cy="345.51" r="7.6" fill="#ff9ecf" opacity="0.9"/><circle cx="427.06" cy="342.06" r="7.6" fill="#ff9ecf" opacity="0.9"/><circle cx="427.06" cy="330.89" r="7.6" fill="#ff9ecf" opacity="0.9"/><circle cx="437.68" cy="327.44" r="7.6" fill="#ff9ecf" opacity="0.9"/><circle cx="434.74" cy="336.48" r="6.65" fill="#ffe9a8"/></g>
    
    
    <line x1="407.86" y1="499.47" x2="411.86" y2="499.47" stroke="#6b4226" stroke-width="2"/><line x1="403.36" y1="507.26" x2="405.36" y2="510.73" stroke="#6b4226" stroke-width="2"/><line x1="394.36" y1="507.26" x2="392.36" y2="510.73" stroke="#6b4226" stroke-width="2"/><line x1="389.86" y1="499.47" x2="385.86" y2="499.47" stroke="#6b4226" stroke-width="2"/><line x1="394.36" y1="491.67" x2="392.36" y2="488.21" stroke="#6b4226" stroke-width="2"/><line x1="403.36" y1="491.67" x2="405.36" y2="488.21" stroke="#6b4226" stroke-width="2"/><circle cx="398.86" cy="499.47" r="8" fill="none" stroke="#6b4226" stroke-width="3"/><circle cx="398.86" cy="499.47" r="3" fill="#6b4226"/><line x1="407.86" y1="499.47" x2="411.86" y2="499.47" stroke="#6b4226" stroke-width="2"/><line x1="403.36" y1="507.26" x2="405.36" y2="510.73" stroke="#6b4226" stroke-width="2"/><line x1="394.36" y1="507.26" x2="392.36" y2="510.73" stroke="#6b4226" stroke-width="2"/><line x1="389.86" y1="499.47" x2="385.86" y2="499.47" stroke="#6b4226" stroke-width="2"/><line x1="394.36" y1="491.67" x2="392.36" y2="488.21" stroke="#6b4226" stroke-width="2"/><line x1="403.36" y1="491.67" x2="405.36" y2="488.21" stroke="#6b4226" stroke-width="2"/><circle cx="398.86" cy="499.47" r="8" fill="none" stroke="#6b4226" stroke-width="3"/><circle cx="398.86" cy="499.47" r="3" fill="#6b4226"/><line x1="407.86" y1="499.47" x2="411.86" y2="499.47" stroke="#6b4226" stroke-width="2"/><line x1="403.36" y1="507.26" x2="405.36" y2="510.73" stroke="#6b4226" stroke-width="2"/><line x1="394.36" y1="507.26" x2="392.36" y2="510.73" stroke="#6b4226" stroke-width="2"/><line x1="389.86" y1="499.47" x2="385.86" y2="499.47" stroke="#6b4226" stroke-width="2"/><line x1="394.36" y1="491.67" x2="392.36" y2="488.21" stroke="#6b4226" stroke-width="2"/><line x1="403.36" y1="491.67" x2="405.36" y2="488.21" stroke="#6b4226" stroke-width="2"/><circle cx="398.86" cy="499.47" r="8" fill="none" stroke="#6b4226" stroke-width="3"/><circle cx="398.86" cy="499.47" r="3" fill="#6b4226"/><line x1="408.02" y1="482.9" x2="412.02" y2="482.9" stroke="#6b4226" stroke-width="2"/><line x1="403.52" y1="490.69" x2="405.52" y2="494.16" stroke="#6b4226" stroke-width="2"/><line x1="394.52" y1="490.69" x2="392.52" y2="494.16" stroke="#6b4226" stroke-width="2"/><line x1="390.02" y1="482.9" x2="386.02" y2="482.9" stroke="#6b4226" stroke-width="2"/><line x1="394.52" y1="475.1" x2="392.52" y2="471.64" stroke="#6b4226" stroke-width="2"/><line x1="403.52" y1="475.1" x2="405.52" y2="471.64" stroke="#6b4226" stroke-width="2"/><circle cx="399.02" cy="482.9" r="8" fill="none" stroke="#6b4226" stroke-width="3"/><circle cx="399.02" cy="482.9" r="3" fill="#6b4226"/><line x1="421.12" y1="189.36" x2="425.12" y2="189.36" stroke="#6b4226" stroke-width="2"/><line x1="416.62" y1="197.15" x2="418.62" y2="200.62" stroke="#6b4226" stroke-width="2"/><line x1="407.62" y1="197.15" x2="405.62" y2="200.62" stroke="#6b4226" stroke-width="2"/><line x1="403.12" y1="189.36" x2="399.12" y2="189.36" stroke="#6b4226" stroke-width="2"/><line x1="407.62" y1="181.56" x2="405.62" y2="178.1" stroke="#6b4226" stroke-width="2"/><line x1="416.62" y1="181.56" x2="418.62" y2="178.1" stroke="#6b4226" stroke-width="2"/><circle cx="412.12" cy="189.36" r="8" fill="none" stroke="#6b4226" stroke-width="3"/><circle cx="412.12" cy="189.36" r="3" fill="#6b4226"/><line x1="421.12" y1="189.36" x2="425.12" y2="189.36" stroke="#6b4226" stroke-width="2"/><line x1="416.62" y1="197.15" x2="418.62" y2="200.62" stroke="#6b4226" stroke-width="2"/><line x1="407.62" y1="197.15" x2="405.62" y2="200.62" stroke="#6b4226" stroke-width="2"/><line x1="403.12" y1="189.36" x2="399.12" y2="189.36" stroke="#6b4226" stroke-width="2"/><line x1="407.62" y1="181.56" x2="405.62" y2="178.1" stroke="#6b4226" stroke-width="2"/><line x1="416.62" y1="181.56" x2="418.62" y2="178.1" stroke="#6b4226" stroke-width="2"/><circle cx="412.12" cy="189.36" r="8" fill="none" stroke="#6b4226" stroke-width="3"/><circle cx="412.12" cy="189.36" r="3" fill="#6b4226"/><line x1="422.7" y1="172.86" x2="426.7" y2="172.86" stroke="#6b4226" stroke-width="2"/><line x1="418.2" y1="180.66" x2="420.2" y2="184.12" stroke="#6b4226" stroke-width="2"/><line x1="409.2" y1="180.66" x2="407.2" y2="184.12" stroke="#6b4226" stroke-width="2"/><line x1="404.7" y1="172.86" x2="400.7" y2="172.86" stroke="#6b4226" stroke-width="2"/><line x1="409.2" y1="165.07" x2="407.2" y2="161.61" stroke="#6b4226" stroke-width="2"/><line x1="418.2" y1="165.07" x2="420.2" y2="161.61" stroke="#6b4226" stroke-width="2"/><circle cx="413.7" cy="172.86" r="8" fill="none" stroke="#6b4226" stroke-width="3"/><circle cx="413.7" cy="172.86" r="3" fill="#6b4226"/><line x1="422.7" y1="172.86" x2="426.7" y2="172.86" stroke="#6b4226" stroke-width="2"/><line x1="418.2" y1="180.66" x2="420.2" y2="184.12" stroke="#6b4226" stroke-width="2"/><line x1="409.2" y1="180.66" x2="407.2" y2="184.12" stroke="#6b4226" stroke-width="2"/><line x1="404.7" y1="172.86" x2="400.7" y2="172.86" stroke="#6b4226" stroke-width="2"/><line x1="409.2" y1="165.07" x2="407.2" y2="161.61" stroke="#6b4226" stroke-width="2"/><line x1="418.2" y1="165.07" x2="420.2" y2="161.61" stroke="#6b4226" stroke-width="2"/><circle cx="413.7" cy="172.86" r="8" fill="none" stroke="#6b4226" stroke-width="3"/><circle cx="413.7" cy="172.86" r="3" fill="#6b4226"/><line x1="422.7" y1="172.86" x2="426.7" y2="172.86" stroke="#6b4226" stroke-width="2"/><line x1="418.2" y1="180.66" x2="420.2" y2="184.12" stroke="#6b4226" stroke-width="2"/><line x1="409.2" y1="180.66" x2="407.2" y2="184.12" stroke="#6b4226" stroke-width="2"/><line x1="404.7" y1="172.86" x2="400.7" y2="172.86" stroke="#6b4226" stroke-width="2"/><line x1="409.2" y1="165.07" x2="407.2" y2="161.61" stroke="#6b4226" stroke-width="2"/><line x1="418.2" y1="165.07" x2="420.2" y2="161.61" stroke="#6b4226" stroke-width="2"/><circle cx="413.7" cy="172.86" r="8" fill="none" stroke="#6b4226" stroke-width="3"/><circle cx="413.7" cy="172.86" r="3" fill="#6b4226"/>
  </svg>