<svg xmlns="http://www.w3.org/2000/svg" width="800" height="600" viewBox="0 0 800 600">
    <defs>
      <linearGradient id="sky" x1="0" y1="0" x2="0" y2="1">
        <stop offset="0" stop-color="#fdf6e3"/>
        <stop offset="1" stop-color="#f6e2b3"/>
      </linearGradient>
    </defs>
    <rect x="0" y="0" width="800" height="600" fill="url(#sky)"/>
    <ellipse cx="400" cy="534" rx="105" ry="14" fill="#c9a267" opacity="0.6"/>
    <path d="M 330,526 L 342,560 L 458,560 L 470,526 Z" fill="#a85f3c"/>
    <rect x="326" y="520" width="148" height="10" rx="3" fill="#8a4a2e"/>
    <path d="M 409.89,514.52 L 407.2,498.93 L 388.14,501.78 L 390.11,517.48 Z" fill="#5b3a24"/><path d="M 407.23,499.2 L 404.98,483.54 L 386.56,485.76 L 388.1,501.51 Z" fill="#5b3a24"/><path d="M 404.98,485.69 L 406.4,469.93 L 388.69,467.93 L 386.56,483.61 Z" fill="#5b3a24"/><path d="M 406.15,471.24 L 409.9,455.87 L 393.4,451.44 L 388.94,466.62 Z" fill="#5b3a24"/><path d="M 409.45,457.13 L 415.56,442.54 L 400.61,435.88 L 393.84,450.18 Z" fill="#5b3a24"/><path d="M 415.26,443.13 L 422.53,429.07 L 408.81,421.58 L 400.9,435.28 Z" fill="#5b3a24"/><path d="M 423.42,426.37 L 425.17,410.64 L 410.39,408.65 L 407.92,424.28 Z" fill="#5b3a24"/><path d="M 424.75,412.29 L 430.02,397.37 L 416.76,392.34 L 410.81,407 Z" fill="#5b3a24"/><path d="M 429.61,398.26 L 436.88,384.2 L 425.07,377.75 L 417.17,391.46 Z" fill="#5b3a24"/><path d="M 437.53,382.47 L 440.69,366.96 L 428.28,364.14 L 424.41,379.49 Z" fill="#5b3a24"/><path d="M 440.84,365.79 L 441.07,349.97 L 429.08,349.52 L 428.12,365.31 Z" fill="#5b3a24"/><path d="M 441.07,349.55 L 440.2,333.75 L 428.93,334.12 L 429.08,349.94 Z" fill="#5b3a24"/><path d="M 440.15,333.15 L 437.59,317.54 L 427.15,319 L 428.98,334.72 Z" fill="#5b3a24"/><path d="M 437.25,316.26 L 430.87,301.78 L 421.79,305.53 L 427.5,320.28 Z" fill="#5b3a24"/><path d="M 430.64,301.3 L 422.74,287.59 L 414.76,291.95 L 422.02,306.01 Z" fill="#5b3a24"/><path d="M 423.25,289.15 L 420.74,273.53 L 412.45,274.67 L 414.24,290.39 Z" fill="#5b3a24"/><path d="M 420.77,273.84 L 419.44,258.08 L 411.81,258.54 L 412.42,274.36 Z" fill="#5b3a24"/><path d="M 419.4,257.76 L 416.76,242.16 L 409.92,243.16 L 411.85,258.86 Z" fill="#5b3a24"/><path d="M 416.75,242.14 L 414,226.55 L 407.89,227.49 L 409.92,243.18 Z" fill="#5b3a24"/><path d="M 414.03,226.8 L 412.5,211.05 L 407.06,211.45 L 407.86,227.25 Z" fill="#5b3a24"/><path d="M 412.48,210.85 L 409.79,195.25 L 405.12,195.95 L 407.08,211.65 Z" fill="#5b3a24"/><path d="M 409.78,195.18 L 406.59,179.68 L 402.65,180.4 L 405.13,196.02 Z" fill="#5b3a24"/>
    <path d="M 405.29,457.57 L 450.83,413 L 445.83,407.61 L 398.01,449.74 Z" fill="#5b3a24"/><path d="M 450.28,413.42 L 503.42,378.26 L 501.3,374.86 L 446.38,407.19 Z" fill="#5b3a24"/><path d="M 421.15,406.39 L 377.95,363.57 L 373.14,368.22 L 414.4,412.91 Z" fill="#5b3a24"/><path d="M 378.26,363.94 L 341.52,315.46 L 338.28,317.8 L 372.83,367.86 Z" fill="#5b3a24"/><path d="M 437.7,367.98 L 477.03,314.09 L 472.21,310.46 L 431.26,363.12 Z" fill="#8a5a34"/><path d="M 476.93,314.21 L 518.98,262.42 L 515.91,259.86 L 472.3,310.34 Z" fill="#8a5a34"/><path d="M 435.08,316.24 L 398.78,269.09 L 394.47,272.33 L 429.67,320.3 Z" fill="#5b3a24"/><path d="M 398.61,268.9 L 357.99,225.42 L 355.04,228.11 L 394.64,272.52 Z" fill="#5b3a24"/><path d="M 418.49,276.06 L 464.47,231.24 L 461.18,227.84 L 414.7,272.14 Z" fill="#5b3a24"/><path d="M 464.38,231.32 L 512.57,188.9 L 509.95,185.88 L 461.27,227.76 Z" fill="#5b3a24"/><path d="M 412.3,225.45 L 392.07,208.03 L 389.41,211.11 L 409.59,228.59 Z" fill="#8a5a34"/><path d="M 392.42,208.42 L 377.33,186.39 L 374.03,188.65 L 389.06,210.72 Z" fill="#8a5a34"/>
    <ellipse cx="508.15" cy="385.25" rx="45.85" ry="37.65" fill="#4a7c3a"/><ellipse cx="513.45" cy="377.29" rx="33.18" ry="27.2" fill="#8fc76b"/><ellipse cx="509.64" cy="385.85" rx="27.33" ry="22.41" fill="#8fc76b"/><ellipse cx="495.02" cy="382.63" rx="33.09" ry="27.13" fill="#4a7c3a"/><ellipse cx="486.85" cy="375.62" rx="25.69" ry="21.06" fill="#8fc76b"/><ellipse cx="494.81" cy="361.11" rx="32.41" ry="26.57" fill="#4a7c3a"/><ellipse cx="506.49" cy="366.81" rx="30.54" ry="25.04" fill="#8fc76b"/><ellipse cx="502.36" cy="376.56" rx="29.92" ry="25.1" fill="#8fc76b"/><ellipse cx="498.87" cy="367.55" rx="11.33" ry="9.63" fill="#dff2c2" opacity="0.85"/><ellipse cx="496.64" cy="362.08" rx="14.69" ry="12.49" fill="#dff2c2" opacity="0.85"/><ellipse cx="488.92" cy="372.66" rx="14.22" ry="12.08" fill="#dff2c2" opacity="0.85"/><ellipse cx="346.56" cy="326.61" rx="52.69" ry="43.27" fill="#4a7c3a"/><ellipse cx="358.74" cy="317.13" rx="31.95" ry="26.2" fill="#4a7c3a"/><ellipse cx="349.9" cy="332.75" rx="30.16" ry="24.73" fill="#4a7c3a"/><ellipse cx="333.86" cy="329.96" rx="37.01" ry="30.35" fill="#8fc76b"/><ellipse cx="322.28" cy="315.78" rx="38" ry="31.16" fill="#8fc76b"/><ellipse cx="331.17" cy="301.49" rx="38.97" ry="31.96" fill="#8fc76b"/><ellipse cx="347.99" cy="308.71" rx="32.43" ry="26.59" fill="#8fc76b"/><ellipse cx="339.9" cy="316.63" rx="34.39" ry="28.84" fill="#8fc76b"/><ellipse cx="317.64" cy="311.7" rx="14.12" ry="12" fill="#dff2c2" opacity="0.85"/><ellipse cx="334.73" cy="310.01" rx="12.42" ry="10.55" fill="#dff2c2" opacity="0.85"/><ellipse cx="317.81" cy="315.83" rx="13.06" ry="11.1" fill="#dff2c2" opacity="0.85"/><ellipse cx="524.41" cy="271.58" rx="55.12" ry="45.25" fill="#4a7c3a"/><ellipse cx="533.88" cy="261.42" rx="40.28" ry="33.03" fill="#8fc76b"/><ellipse cx="530.99" cy="277.44" rx="31.4" ry="25.75" fill="#8fc76b"/><ellipse cx="508.55" cy="281.13" rx="31.55" ry="25.87" fill="#4a7c3a"/><ellipse cx="502.8" cy="258.4" rx="29.96" ry="24.57" fill="#8fc76b"/><ellipse cx="509.42" cy="250.43" rx="38.91" ry="31.91" fill="#8fc76b"/><ellipse cx="527.42" cy="243.42" rx="36.67" ry="30.07" fill="#8fc76b"/><ellipse cx="517.44" cy="261.14" rx="35.97" ry="30.17" fill="#8fc76b"/><ellipse cx="496.65" cy="252.66" rx="15.26" ry="12.97" fill="#dff2c2" opacity="0.85"/><ellipse cx="500.48" cy="256.82" rx="13.7" ry="11.64" fill="#dff2c2" opacity="0.85"/><ellipse cx="503.34" cy="257.42" rx="13.92" ry="11.84" fill="#dff2c2" opacity="0.85"/><ellipse cx="363.2" cy="236.79" rx="52.93" ry="43.46" fill="#4a7c3a"/><ellipse cx="372.99" cy="229.76" rx="39.37" ry="32.28" fill="#4a7c3a"/><ellipse cx="373.76" cy="241.84" rx="39.78" ry="32.62" fill="#8fc76b"/><ellipse cx="349.86" cy="234.35" rx="31.77" ry="26.05" fill="#8fc76b"/><ellipse cx="335.87" cy="228.22" rx="36.89" ry="30.25" fill="#8fc76b"/><ellipse cx="342.28" cy="209.08" rx="39.17" ry="32.12" fill="#8fc76b"/><ellipse cx="374.07" cy="211.85" rx="39.41" ry="32.31" fill="#4a7c3a"/><ellipse cx="356.52" cy="226.76" rx="34.54" ry="28.97" fill="#8fc76b"/><ellipse cx="349.23" cy="223.15" rx="16.99" ry="14.44" fill="#dff2c2" opacity="0.85"/><ellipse cx="347.74" cy="223.04" rx="13.55" ry="11.52" fill="#dff2c2" opacity="0.85"/><ellipse cx="349.56" cy="208.87" rx="16.83" ry="14.31" fill="#dff2c2" opacity="0.85"/><ellipse cx="517.21" cy="196.31" rx="47.11" ry="38.68" fill="#4a7c3a"/><ellipse cx="530.1" cy="188.22" rx="26.31" ry="21.58" fill="#4a7c3a"/><ellipse cx="524.18" cy="199.02" rx="29.31" ry="24.03" fill="#4a7c3a"/><ellipse cx="498.32" cy="202.46" rx="25.08" ry="20.57" fill="#4a7c3a"/><ellipse cx="487.32" cy="190.66" rx="35.7" ry="29.27" fill="#8fc76b"/><ellipse cx="505.11" cy="176.31" rx="27.75" ry="22.75" fill="#4a7c3a"/><ellipse cx="516.59" cy="180.58" rx="29.37" ry="24.09" fill="#8fc76b"/><ellipse cx="511.26" cy="187.39" rx="30.74" ry="25.78" fill="#8fc76b"/><ellipse cx="502.48" cy="182.29" rx="11.68" ry="9.93" fill="#dff2c2" opacity="0.85"/><ellipse cx="509.76" cy="173.64" rx="13.04" ry="11.08" fill="#dff2c2" opacity="0.85"/><ellipse cx="490.52" cy="184.16" rx="13.65" ry="11.6" fill="#dff2c2" opacity="0.85"/><ellipse cx="381.64" cy="196.47" rx="47.22" ry="38.77" fill="#4a7c3a"/><ellipse cx="390.99" cy="188.27" rx="28.13" ry="23.06" fill="#8fc76b"/><ellipse cx="380.96" cy="196.66" rx="29.3" ry="24.02" fill="#4a7c3a"/><ellipse cx="366.25" cy="195.2" rx="28.13" ry="23.07" fill="#8fc76b"/><ellipse cx="358.39" cy="186.78" rx="26.16" ry="21.45" fill="#8fc76b"/><ellipse cx="367.77" cy="180.02" rx="29.38" ry="24.09" fill="#8fc76b"/><ellipse cx="382.01" cy="175.03" rx="35.42" ry="29.04" fill="#8fc76b"/><ellipse cx="375.68" cy="187.52" rx="30.82" ry="25.85" fill="#8fc76b"/><ellipse cx="369.62" cy="184.16" rx="15.49" ry="13.16" fill="#dff2c2" opacity="0.85"/><ellipse cx="357.18" cy="184.45" rx="16.57" ry="14.08" fill="#dff2c2" opacity="0.85"/><ellipse cx="373.42" cy="179.62" rx="15.69" ry="13.34" fill="#dff2c2" opacity="0.85"/><ellipse cx="411.47" cy="190.32" rx="54.25" ry="44.54" fill="#4a7c3a"/><ellipse cx="423.66" cy="177.45" rx="39.26" ry="32.19" fill="#8fc76b"/><ellipse cx="413.46" cy="186.84" rx="39.51" ry="32.39" fill="#4a7c3a"/><ellipse cx="391.79" cy="194.83" rx="38.43" ry="31.51" fill="#4a7c3a"/><ellipse cx="382.05" cy="178.74" rx="35.7" ry="29.27" fill="#4a7c3a"/><ellipse cx="395.72" cy="170.1" rx="31.71" ry="26" fill="#8fc76b"/><ellipse cx="411.58" cy="169.99" rx="39.96" ry="32.77" fill="#4a7c3a"/><ellipse cx="404.62" cy="180.04" rx="35.41" ry="29.7" fill="#8fc76b"/><ellipse cx="396.35" cy="170.49" rx="13.61" ry="11.57" fill="#dff2c2" opacity="0.85"/><ellipse cx="388.53" cy="169.59" rx="12.62" ry="10.72" fill="#dff2c2" opacity="0.85"/><ellipse cx="397.68" cy="171.3" rx="13.51" ry="11.48" fill="#dff2c2" opacity="0.85"/>
    <g><circle cx="467.43" cy="348.13" r="6.17" fill="#ff9ecf" opacity="0.9"/><circle cx="462.1" cy="355.46" r="6.17" fill="#ff9ecf" opacity="0.9"/><circle cx="453.48" cy="352.66" r="6.17" fill="#ff9ecf" opacity="0.9"/><circle cx="453.48" cy="343.6" r="6.17" fill="#ff9ecf" opacity="0.9"/><circle cx="462.1" cy="340.79" r="6.17" fill="#ff9ecf" opacity="0.9"/><circle cx="459.72" cy="348.13" r="5.4" fill="#ffe9a8"/></g><g><circle cx="475.23" cy="352.13" r="7.6" fill="#ffc94d" opacity="0.9"/><circle cx="468.66" cy="361.17" r="7.6" fill="#ffc94d" opacity="0.9"/><circle cx="458.04" cy="357.72" r="7.6" fill="#ffc94d" opacity="0.9"/><circle cx="458.04" cy="346.55" r="7.6" fill="#ffc94d" opacity="0.9"/><circle cx="468.66" cy="343.1" r="7.6" fill="#ffc94d" opacity="0.9"/><circle cx="465.73" cy="352.13" r="6.65" fill="#ffe9a8"/></g>
    
    
    <line x1="409" y1="516" x2="413" y2="516" stroke="#6b4226" stroke-width="2"/><line x1="404.5" y1="523.79" x2="406.5" y2="527.26" stroke="#6b4226" stroke-width="2"/><line x1="395.5" y1="523.79" x2="393.5" y2="527.26" stroke="#6b4226" stroke-width="2"/><line x1="391" y1="516" x2="387" y2="516" stroke="#6b4226" stroke-width="2"/><line x1="395.5" y1="508.21" x2="393.5" y2="504.74" stroke="#6b4226" stroke-width="2"/><line x1="404.5" y1="508.21" x2="406.5" y2="504.74" stroke="#6b4226" stroke-width="2"/><circle cx="400" cy="516" r="8" fill="none" stroke="#6b4226" stroke-width="3"/><circle cx="400" cy="516" r="3" fill="#6b4226"/><line x1="409" y1="516" x2="413" y2="516" stroke="#6b4226" stroke-width="2"/><line x1="404.5" y1="523.79" x2="406.5" y2="527.26" stroke="#6b4226" stroke-width="2"/><line x1="395.5" y1="523.79" x2="393.5" y2="527.26" stroke="#6b4226" stroke-width="2"/><line x1="391" y1="516" x2="387" y2="516" stroke="#6b4226" stroke-width="2"/><line x1="395.5" y1="508.21" x2="393.5" y2="504.74" stroke="#6b4226" stroke-width="2"/><line x1="404.5" y1="508.21" x2="406.5" y2="504.74" stroke="#6b4226" stroke-width="2"/><circle cx="400" cy="516" r="8" fill="none" stroke="#6b4226" stroke-width="3"/><circle cx="400" cy="516" r="3" fill="#6b4226"/><line x1="409" y1="516" x2="413" y2="516" stroke="#6b4226" stroke-width="2"/><line x1="404.5" y1="523.79" x2="406.5" y2="527.26" stroke="#6b4226" stroke-width="2"/><line x1="395.5" y1="523.79" x2="393.5" y2="527.26" stroke="#6b4226" stroke-width="2"/><line x1="391" y1="516" x2="387" y2="516" stroke="#6b4226" stroke-width="2"/><line x1="395.5" y1="508.21" x2="393.5" y2="504.74" stroke="#6b4226" stroke-width="2"/><line x1="404.5" y1="508.21" x2="406.5" y2="504.74" stroke="#6b4226" stroke-width="2"/><circle cx="400" cy="516" r="8" fill="none" stroke="#6b4226" stroke-width="3"/><circle cx="400" cy="516" r="3" fill="#6b4226"/><line x1="409" y1="516" x2="413" y2="516" stroke="#6b4226" stroke-width="2"/><line x1="404.5" y1="523.79" x2="406.5" y2="527.26" stroke="#6b4226" stroke-width="2"/><line x1="395.5" y1="523.79" x2="393.5" y2="527.26" stroke="#6b4226" stroke-width="2"/><line x1="391" y1="516" x2="387" y2="516" stroke="#6b4226" stroke-width="2"/><line x1="395.5" y1="508.21" x2="393.5" y2="504.74" stroke="#6b4226" stroke-width="2"/><line x1="404.5" y1="508.21" x2="406.5" y2="504.74" stroke="#6b4226" stroke-width="2"/><circle cx="400" cy="516" r="8" fill="none" stroke="#6b4226" stroke-width="3"/><circle cx="400" cy="516" r="3" fill="#6b4226"/><line x1="409" y1="516" x2="413" y2="516" stroke="#6b4226" stroke-width="2"/><line x1="404.5" y1="523.79" x2="406.5" y2="527.26" stroke="#6b4226" stroke-width="2"/><line x1="395.5" y1="523.79" x2="393.5" y2="527.26" stroke="#6b4226" stroke-width="2"/><line x1="391" y1="516" x2="387" y2="516" stroke="#6b4226" stroke-width="2"/><line x1="395.5" y1="508.21" x2="393.5" y2="504.74" stroke="#6b4226" stroke-width="2"/><line x1="404.5" y1="508.21" x2="406.5" y2="504.74" stroke="#6b4226" stroke-width="2"/><circle cx="400" cy="516" r="8" fill="none" stroke="#6b4226" stroke-width="3"/><circle cx="400" cy="516" r="3" fill="#6b4226"/><line x1="409" y1="516" x2="413" y2="516" stroke="#6b4226" stroke-width="2"/><line x1="404.5" y1="523.79" x2="406.5" y2="527.26" stroke="#6b4226" stroke-width="2"/><line x1="395.5" y1="523.79" x2="393.5" y2="527.26" stroke="#6b4226" stroke-width="2"/><line x1="391" y1="516" x2="387" y2="516" stroke="#6b4226" stroke-width="2"/><line x1="395.5" y1="508.21" x2="393.5" y2="504.74" stroke="#6b4226" stroke-width="2"/><line x1="404.5" y1="508.21" x2="406.5" y2="504.74" stroke="#6b4226" stroke-width="2"/><circle cx="400" cy="516" r="8" fill="none" stroke="#6b4226" stroke-width="3"/><circle cx="400" cy="516" r="3" fill="#6b4226"/><line x1="409" y1="516" x2="413" y2="516" stroke="#6b4226" stroke-width="2"/><line x1="404.5" y1="523.79" x2="406.5" y2="527.26" stroke="#6b4226" stroke-width="2"/><line x1="395.5" y1="523.79" x2="393.5" y2="527.26" stroke="#6b4226" stroke-width="2"/><line x1="391" y1="516" x2="387" y2="516" stroke="#6b4226" stroke-width="2"/><line x1="395.5" y1="508.21" x2="393.5" y2="504.74" stroke="#6b4226" stroke-width="2"/><line x1="404.5" y1="508.21" x2="406.5" y2="504.74" stroke="#6b4226" stroke-width="2"/><circle cx="400" cy="516" r="8" fill="none" stroke="#6b4226" stroke-width="3"/><circle cx="400" cy="516" r="3" fill="#6b4226"/><line x1="409" y1="516" x2="413" y2="516" stroke="#6b4226" stroke-width="2"/><line x1="404.5" y1="523.79" x2="406.5" y2="527.26" stroke="#6b4226" stroke-width="2"/><line x1="395.5" y1="523.79" x2="393.5" y2="527.26" stroke="#6b4226" stroke-width="2"/><line x1="391" y1="516" x2="387" y2="516" stroke="#6b4226" stroke-width="2"/><line x1="395.5" y1="508.21" x2="393.5" y2="504.74" stroke="#6b4226" stroke-width="2"/><line x1="404.5" y1="508.21" x2="406.5" y2="504.74" stroke="#6b4226" stroke-width="2"/><circle cx="400" cy="516" r="8" fill="none" stroke="#6b4226" stroke-width="3"/><circle cx="400" cy="516" r="3" fill="#6b4226"/><line x1="409" y1="516" x2="413" y2="516" stroke="#6b4226" stroke-width="2"/><line x1="404.5" y1="523.79" x2="406.5" y2="527.26" stroke="#6b4226" stroke-width="2"/><line x1="395.5" y1="523.79" x2="393.5" y2="527.26" stroke="#6b4226" stroke-width="2"/><line x1="391" y1="516" x2="387" y2="516" stroke="#6b4226" stroke-width="2"/><line x1="395.5" y1="508.21" x2="393.5" y2="504.74" stroke="#6b4226" stroke-width="2"/><line x1="404.5" y1="508.21" x2="406.5" y2="504.74" stroke="#6b4226" stroke-width="2"/><circle cx="400" cy="516" r="8" fill="none" stroke="#6b4226" stroke-width="3"/><circle cx="400" cy="516" r="3" fill="#6b4226"/><line x1="409" y1="516" x2="413" y2="516" stroke="#6b4226" stroke-width="2"/><line x1="404.5" y1="523.79" x2="406.5" y2="527.26" stroke="#6b4226" stroke-width="2"/><line x1="395.5" y1="523.79" x2="393.5" y2="527.26" stroke="#6b4226" stroke-width="2"/><line x1="391" y1="516" x2="387" y2="516" stroke="#6b4226" stroke-width="2"/><line x1="395.5" y1="508.21" x2="393.5" y2="504.74" stroke="#6b4226" stroke-width="2"/><line x1="404.5" y1="508.21" x2="406.5" y2="504.74" stroke="#6b4226" stroke-width="2"/><circle cx="400" cy="516" r="8" fill="none" stroke="#6b4226" stroke-width="3"/><circle cx="400" cy="516" r="3" fill="#6b4226"/>
  </svg>