<svg xmlns="http://www.w3.org/2000/svg" width="800" height="600" viewBox="0 0 800 600">
    <defs>
      <linearGradient id="sky" x1="0" y1="0" x2="0" y2="1">
        <stop offset="0" stop-color="#fdf6e3"/>
        <stop offset="1" stop-color="#f6e2b3"/>
      </linearGradient>
    </defs>
    <rect x="0" y="0" width="800" height="600" fill="url(#sky)"/>
    <ellipse cx="400" cy="534" rx="105" ry="14" fill="#c9a267" opacity="0.6"/>
    <path d="M 330,526 L 342,560 L 458,560 L 470,526 Z" fill="#a85f3c"/>
    <rect x="326" y="520" width="148" height="10" rx="3" fill="#8a4a2e"/>
    <path d="M 409.63,513.32 L 405.05,498.18 L 386.48,503.34 L 390.37,518.68 Z" fill="#5b3a24"/><path d="M 405.11,498.42 L 400.92,483.16 L 382.93,487.67 L 386.41,503.1 Z" fill="#5b3a24"/><path d="M 400.54,482 L 394.38,467.43 L 377.81,473.99 L 383.3,488.83 Z" fill="#5b3a24"/><path d="M 394.68,468.31 L 390.06,453.17 L 373.61,457.78 L 377.52,473.11 Z" fill="#5b3a24"/><path d="M 390.33,454.59 L 388.33,438.89 L 372.06,440.59 L 373.34,456.36 Z" fill="#5b3a24"/><path d="M 388.06,437.5 L 383.38,422.39 L 368.34,426.67 L 372.32,441.98 Z" fill="#5b3a24"/><path d="M 383.67,424.2 L 382.64,408.41 L 367.75,409.04 L 368.05,424.86 Z" fill="#5b3a24"/><path d="M 382.4,410.62 L 386.07,395.23 L 372.35,391.62 L 367.98,406.83 Z" fill="#5b3a24"/><path d="M 385.73,396.21 L 391.62,381.53 L 379.24,376.24 L 372.69,390.64 Z" fill="#5b3a24"/><path d="M 392.13,379.45 L 393.12,363.66 L 380.44,362.58 L 378.73,378.31 Z" fill="#5b3a24"/><path d="M 393.01,361.84 L 389.48,346.42 L 377.72,348.83 L 380.54,364.4 Z" fill="#5b3a24"/><path d="M 389.6,347.76 L 389.59,331.94 L 378.32,331.69 L 377.6,347.49 Z" fill="#5b3a24"/><path d="M 389.56,331.22 L 387.55,315.53 L 377.06,316.63 L 378.35,332.4 Z" fill="#5b3a24"/><path d="M 387.48,315.06 L 384.07,299.61 L 374.44,301.5 L 377.13,317.09 Z" fill="#5b3a24"/><path d="M 384,299.3 L 379.59,284.1 L 370.8,286.44 L 374.51,301.82 Z" fill="#5b3a24"/><path d="M 379.72,284.83 L 377.85,269.12 L 369.53,269.92 L 370.67,285.7 Z" fill="#5b3a24"/><path d="M 377.79,268.7 L 374.32,253.26 L 366.84,254.76 L 369.59,270.34 Z" fill="#5b3a24"/><path d="M 374.34,253.35 L 371.24,237.84 L 364.44,239.03 L 366.82,254.67 Z" fill="#5b3a24"/><path d="M 371.27,238.02 L 369.03,222.36 L 362.9,223.09 L 364.41,238.84 Z" fill="#5b3a24"/><path d="M 369.05,222.62 L 368.12,206.82 L 362.67,207.02 L 362.88,222.84 Z" fill="#5b3a24"/><path d="M 368.09,206.52 L 365.4,190.93 L 360.72,191.62 L 362.7,207.32 Z" fill="#5b3a24"/><path d="M 365.4,191 L 363.2,175.33 L 359.23,175.8 L 360.71,191.55 Z" fill="#5b3a24"/>
    <path d="M 385.81,459.05 L 429.9,407.53 L 424.44,402.62 L 377.86,451.9 Z" fill="#5b3a24"/><path d="M 430.57,406.48 L 454.98,343.22 L 451.28,341.69 L 423.78,403.67 Z" fill="#5b3a24"/><path d="M 378.12,405.06 L 325.06,364.49 L 320.89,369.72 L 372.27,412.39 Z" fill="#8a5a34"/><path d="M 325.8,365.3 L 288.8,309.7 L 285.42,311.85 L 320.15,368.9 Z" fill="#8a5a34"/><path d="M 389.26,366.31 L 440.05,325.46 L 436.35,320.7 L 384.3,359.94 Z" fill="#5b3a24"/><path d="M 439.17,325.94 L 500.57,304.06 L 499.28,300.27 L 437.23,320.22 Z" fill="#5b3a24"/><path d="M 384.88,313.89 L 343.74,266.64 L 339.64,270.13 L 379.73,318.27 Z" fill="#5b3a24"/><path d="M 344.19,267.38 L 320.21,209.52 L 316.49,211.01 L 339.2,269.39 Z" fill="#5b3a24"/><path d="M 375.23,271.77 L 397.04,256.34 L 394.37,252.45 L 372.14,267.27 Z" fill="#5b3a24"/><path d="M 397.02,256.36 L 419,241.17 L 416.77,237.85 L 394.39,252.43 Z" fill="#5b3a24"/><path d="M 367.47,221.31 L 349.3,202.06 L 346.34,204.85 L 364.46,224.15 Z" fill="#8a5a34"/><path d="M 349.65,202.55 L 337.93,178.82 L 334.34,180.58 L 345.99,204.35 Z" fill="#8a5a34"/>
    <ellipse cx="460.67" cy="353.76" rx="59.66" ry="48.98" fill="#4a7c3a"/><ellipse cx="473.51" cy="339.11" rx="34.28" ry="28.11" fill="#8fc76b"/><ellipse cx="458.25" cy="352.7" rx="37.17" ry="30.48" fill="#8fc76b"/><ellipse cx="443.34" cy="352.65" rx="45.01" ry="36.91" fill="#8fc76b"/><ellipse cx="432.33" cy="344.97" rx="35.54" ry="29.14" fill="#8fc76b"/><ellipse cx="436.53" cy="329.65" rx="37.51" ry="30.76" fill="#8fc76b"/><ellipse cx="467.4" cy="328.8" rx="35.42" ry="29.04" fill="#8fc76b"/><ellipse cx="453.13" cy="342.45" rx="38.93" ry="32.65" fill="#8fc76b"/><ellipse cx="448.8" cy="328.08" rx="21.92" ry="18.63" fill="#dff2c2" opacity="0.85"/><ellipse cx="435.23" cy="339.51" rx="14.1" ry="11.99" fill="#dff2c2" opacity="0.85"/><ellipse cx="440.81" cy="328.08" rx="18.86" ry="16.03" fill="#dff2c2" opacity="0.85"/><ellipse cx="292.76" cy="319.25" rx="44.72" ry="36.72" fill="#4a7c3a"/><ellipse cx="308.98" cy="311.48" rx="26.72" ry="21.91" fill="#8fc76b"/><ellipse cx="293.6" cy="322.29" rx="27.8" ry="22.8" fill="#8fc76b"/><ellipse cx="280.98" cy="319.4" rx="28.36" ry="23.26" fill="#8fc76b"/><ellipse cx="270.25" cy="312.51" rx="33.51" ry="27.47" fill="#4a7c3a"/><ellipse cx="273.47" cy="297.42" rx="25.8" ry="21.15" fill="#4a7c3a"/><ellipse cx="302.43" cy="298.3" rx="24.95" ry="20.46" fill="#8fc76b"/><ellipse cx="287.11" cy="310.77" rx="29.19" ry="24.48" fill="#8fc76b"/><ellipse cx="286.58" cy="301.13" rx="13.76" ry="11.69" fill="#dff2c2" opacity="0.85"/><ellipse cx="277.16" cy="301.82" rx="12.99" ry="11.04" fill="#dff2c2" opacity="0.85"/><ellipse cx="278.57" cy="298.84" rx="14.03" ry="11.93" fill="#dff2c2" opacity="0.85"/><ellipse cx="506.87" cy="312.58" rx="54.99" ry="45.15" fill="#4a7c3a"/><ellipse cx="525.96" cy="304.76" rx="31.24" ry="25.62" fill="#8fc76b"/><ellipse cx="508.89" cy="317.05" rx="30.33" ry="24.87" fill="#4a7c3a"/><ellipse cx="483.54" cy="316.73" rx="38.21" ry="31.33" fill="#8fc76b"/><ellipse cx="482.52" cy="302.01" rx="31.69" ry="25.98" fill="#8fc76b"/><ellipse cx="490.79" cy="292.22" rx="34.64" ry="28.41" fill="#8fc76b"/><ellipse cx="505.87" cy="292.74" rx="37.51" ry="30.75" fill="#4a7c3a"/><ellipse cx="499.92" cy="302.16" rx="35.89" ry="30.1" fill="#8fc76b"/><ellipse cx="495.17" cy="296.17" rx="17.12" ry="14.55" fill="#dff2c2" opacity="0.85"/><ellipse cx="494.07" cy="295.46" rx="17.18" ry="14.6" fill="#dff2c2" opacity="0.85"/><ellipse cx="491.56" cy="287.33" rx="12.77" ry="10.85" fill="#dff2c2" opacity="0.85"/><ellipse cx="325.2" cy="220.54" rx="54.25" ry="44.55" fill="#4a7c3a"/><ellipse cx="343.18" cy="207.09" rx="34.99" ry="28.69" fill="#4a7c3a"/><ellipse cx="325.93" cy="222.85" rx="38.71" ry="31.74" fill="#8fc76b"/><ellipse cx="309.14" cy="224.27" rx="38.87" ry="31.88" fill="#8fc76b"/><ellipse cx="303.31" cy="210.67" rx="33.32" ry="27.32" fill="#4a7c3a"/><ellipse cx="303.84" cy="196.15" rx="36.31" ry="29.77" fill="#8fc76b"/><ellipse cx="324.67" cy="200.6" rx="37.75" ry="30.96" fill="#4a7c3a"/><ellipse cx="318.35" cy="210.26" rx="35.41" ry="29.7" fill="#8fc76b"/><ellipse cx="305.88" cy="205.54" rx="13.39" ry="11.38" fill="#dff2c2" opacity="0.85"/><ellipse cx="317.5" cy="195.32" rx="18.21" ry="15.48" fill="#dff2c2" opacity="0.85"/><ellipse cx="299.78" cy="206.3" rx="16.52" ry="14.04" fill="#dff2c2" opacity="0.85"/><ellipse cx="423.78" cy="248.36" rx="46.68" ry="38.32" fill="#4a7c3a"/><ellipse cx="436.85" cy="240.23" rx="31.19" ry="25.57" fill="#4a7c3a"/><ellipse cx="425.4" cy="255.13" rx="29.45" ry="24.15" fill="#8fc76b"/><ellipse cx="403.72" cy="251.12" rx="26.73" ry="21.92" fill="#8fc76b"/><ellipse cx="396.56" cy="242.5" rx="27.37" ry="22.44" fill="#4a7c3a"/><ellipse cx="411.68" cy="233.46" rx="30.47" ry="24.99" fill="#4a7c3a"/><ellipse cx="431.46" cy="228.84" rx="25.49" ry="20.9" fill="#8fc76b"/><ellipse cx="417.89" cy="239.51" rx="30.46" ry="25.55" fill="#8fc76b"/><ellipse cx="415.33" cy="229.21" rx="12.55" ry="10.67" fill="#dff2c2" opacity="0.85"/><ellipse cx="417.41" cy="232.41" rx="13.76" ry="11.7" fill="#dff2c2" opacity="0.85"/><ellipse cx="415.59" cy="230.68" rx="15.45" ry="13.13" fill="#dff2c2" opacity="0.85"/><ellipse cx="343.63" cy="190.95" rx="59.37" ry="48.74" fill="#4a7c3a"/><ellipse cx="353.24" cy="179.62" rx="43.55" ry="35.71" fill="#8fc76b"/><ellipse cx="347.62" cy="195.77" rx="43.82" ry="35.93" fill="#4a7c3a"/><ellipse cx="329.26" cy="192.38" rx="39.84" ry="32.67" fill="#4a7c3a"/><ellipse cx="306.6" cy="179.65" rx="35.16" ry="28.83" fill="#4a7c3a"/><ellipse cx="323.13" cy="164.8" rx="42.19" ry="34.59" fill="#4a7c3a"/><ellipse cx="343.51" cy="167.18" rx="39.02" ry="31.99" fill="#8fc76b"/><ellipse cx="336.13" cy="179.7" rx="38.75" ry="32.5" fill="#8fc76b"/><ellipse cx="314.23" cy="168.7" rx="20.4" ry="17.34" fill="#dff2c2" opacity="0.85"/><ellipse cx="330.95" cy="168.28" rx="15.91" ry="13.53" fill="#dff2c2" opacity="0.85"/><ellipse cx="330.08" cy="173.26" rx="14.1" ry="11.98" fill="#dff2c2" opacity="0.85"/><ellipse cx="368.33" cy="186.23" rx="56.3" ry="46.22" fill="#4a7c3a"/><ellipse cx="381.98" cy="177.28" rx="30.08" ry="24.67" fill="#4a7c3a"/><ellipse cx="374.84" cy="188.76" rx="36.09" ry="29.6" fill="#4a7c3a"/><ellipse cx="350.55" cy="184" rx="35.08" ry="28.77" fill="#8fc76b"/><ellipse cx="340.12" cy="179.1" rx="30.64" ry="25.13" fill="#8fc76b"/><ellipse cx="348.87" cy="160.58" rx="29.96" ry="24.57" fill="#8fc76b"/><ellipse cx="371.6" cy="159.5" rx="30.66" ry="25.15" fill="#4a7c3a"/><ellipse cx="361.22" cy="175.56" rx="36.74" ry="30.82" fill="#8fc76b"/><ellipse cx="339.6" cy="164.09" rx="20.65" ry="17.56" fill="#dff2c2" opacity="0.85"/><ellipse cx="358.43" cy="161.74" rx="15.2" ry="12.92" fill="#dff2c2" opacity="0.85"/><ellipse cx="346.22" cy="173.65" rx="18.26" ry="15.52" fill="#dff2c2" opacity="0.85"/>
    <g><circle cx="419.99" cy="314.02" r="7.6" fill="#ff9ecf" opacity="0.9"/><circle cx="413.42" cy="323.06" r="7.6" fill="#ff9ecf" opacity="0.9"/><circle cx="402.8" cy="319.61" r="7.6" fill="#ff9ecf" opacity="0.9"/><circle cx="402.8" cy="308.44" r="7.6" fill="#ff9ecf" opacity="0.9"/><circle cx="413.42" cy="304.99" r="7.6" fill="#ff9ecf" opacity="0.9"/><circle cx="410.49" cy="314.02" r="6.65" fill="#ffe9a8"/></g><g><circle cx="469.74" cy="277.74" r="5.17" fill="#ff9ecf" opacity="0.9"/><circle cx="465.28" cy="283.88" r="5.17" fill="#ff9ecf" opacity="0.9"/><circle cx="458.06" cy="281.53" r="5.17" fill="#ff9ecf" opacity="0.9"/><circle cx="458.06" cy="273.94" r="5.17" fill="#ff9ecf" opacity="0.9"/><circle cx="465.28" cy="271.6" r="5.17" fill="#ff9ecf" opacity="0.9"/><circle cx="463.29" cy="277.74" r="4.52" fill="#ffe9a8"/></g>
    
    
    <line x1="409" y1="516" x2="413" y2="516" stroke="#6b4226" stroke-width="2"/><line x1="404.5" y1="523.79" x2="406.5" y2="527.26" stroke="#6b4226" stroke-width="2"/><line x1="395.5" y1="523.79" x2="393.5" y2="527.26" stroke="#6b4226" stroke-width="2"/><line x1="391" y1="516" x2="387" y2="516" stroke="#6b4226" stroke-width="2"/><line x1="395.5" y1="508.21" x2="393.5" y2="504.74" stroke="#6b4226" stroke-width="2"/><line x1="404.5" y1="508.21" x2="406.5" y2="504.74" stroke="#6b4226" stroke-width="2"/><circle cx="400" cy="516" r="8" fill="none" stroke="#6b4226" stroke-width="3"/><circle cx="400" cy="516" r="3" fill="#6b4226"/><line x1="409" y1="516" x2="413" y2="516" stroke="#6b4226" stroke-width="2"/><line x1="404.5" y1="523.79" x2="406.5" y2="527.26" stroke="#6b4226" stroke-width="2"/><line x1="395.5" y1="523.79" x2="393.5" y2="527.26" stroke="#6b4226" stroke-width="2"/><line x1="391" y1="516" x2="387" y2="516" stroke="#6b4226" stroke-width="2"/><line x1="395.5" y1="508.21" x2="393.5" y2="504.74" stroke="#6b4226" stroke-width="2"/><line x1="404.5" y1="508.21" x2="406.5" y2="504.74" stroke="#6b4226" stroke-width="2"/><circle cx="400" cy="516" r="8" fill="none" stroke="#6b4226" stroke-width="3"/><circle cx="400" cy="516" r="3" fill="#6b4226"/><line x1="409" y1="516" x2="413" y2="516" stroke="#6b4226" stroke-width="2"/><line x1="404.5" y1="523.79" x2="406.5" y2="527.26" stroke="#6b4226" stroke-width="2"/><line x1="395.5" y1="523.79" x2="393.5" y2="527.26" stroke="#6b4226" stroke-width="2"/><line x1="391" y1="516" x2="387" y2="516" stroke="#6b4226" stroke-width="2"/><line x1="395.5" y1="508.21" x2="393.5" y2="504.74" stroke="#6b4226" stroke-width="2"/><line x1="404.5" y1="508.21" x2="406.5" y2="504.74" stroke="#6b4226" stroke-width="2"/><circle cx="400" cy="516" r="8" fill="none" stroke="#6b4226" stroke-width="3"/><circle cx="400" cy="516" r="3" fill="#6b4226"/><line x1="404.76" y1="500.76" x2="408.76" y2="500.76" stroke="#6b4226" stroke-width="2"/><line x1="400.26" y1="508.55" x2="402.26" y2="512.02" stroke="#6b4226" stroke-width="2"/><line x1="391.26" y1="508.55" x2="389.26" y2="512.02" stroke="#6b4226" stroke-width="2"/><line x1="386.76" y1="500.76" x2="382.76" y2="500.76" stroke="#6b4226" stroke-width="2"/><line x1="391.26" y1="492.97" x2="389.26" y2="489.5" stroke="#6b4226" stroke-width="2"/><line x1="400.26" y1="492.97" x2="402.26" y2="489.5" stroke="#6b4226" stroke-width="2"/><circle cx="395.76" cy="500.76" r="8" fill="none" stroke="#6b4226" stroke-width="3"/><circle cx="395.76" cy="500.76" r="3" fill="#6b4226"/><line x1="388.21" y1="393.43" x2="392.21" y2="393.43" stroke="#6b4226" stroke-width="2"/><line x1="383.71" y1="401.22" x2="385.71" y2="404.68" stroke="#6b4226" stroke-width="2"/><line x1="374.71" y1="401.22" x2="372.71" y2="404.68" stroke="#6b4226" stroke-width="2"/><line x1="370.21" y1="393.43" x2="366.21" y2="393.43" stroke="#6b4226" stroke-width="2"/><line x1="374.71" y1="385.63" x2="372.71" y2="382.17" stroke="#6b4226" stroke-width="2"/><line x1="383.71" y1="385.63" x2="385.71" y2="382.17" stroke="#6b4226" stroke-width="2"/><circle cx="379.21" cy="393.43" r="8" fill="none" stroke="#6b4226" stroke-width="3"/><circle cx="379.21" cy="393.43" r="3" fill="#6b4226"/><line x1="388.21" y1="393.43" x2="392.21" y2="393.43" stroke="#6b4226" stroke-width="2"/><line x1="383.71" y1="401.22" x2="385.71" y2="404.68" stroke="#6b4226" stroke-width="2"/><line x1="374.71" y1="401.22" x2="372.71" y2="404.68" stroke="#6b4226" stroke-width="2"/><line x1="370.21" y1="393.43" x2="366.21" y2="393.43" stroke="#6b4226" stroke-width="2"/><line x1="374.71" y1="385.63" x2="372.71" y2="382.17" stroke="#6b4226" stroke-width="2"/><line x1="383.71" y1="385.63" x2="385.71" y2="382.17" stroke="#6b4226" stroke-width="2"/><circle cx="379.21" cy="393.43" r="8" fill="none" stroke="#6b4226" stroke-width="3"/><circle cx="379.21" cy="393.43" r="3" fill="#6b4226"/><line x1="394.43" y1="378.88" x2="398.43" y2="378.88" stroke="#6b4226" stroke-width="2"/><line x1="389.93" y1="386.68" x2="391.93" y2="390.14" stroke="#6b4226" stroke-width="2"/><line x1="380.93" y1="386.68" x2="378.93" y2="390.14" stroke="#6b4226" stroke-width="2"/><line x1="376.43" y1="378.88" x2="372.43" y2="378.88" stroke="#6b4226" stroke-width="2"/><line x1="380.93" y1="371.09" x2="378.93" y2="367.62" stroke="#6b4226" stroke-width="2"/><line x1="389.93" y1="371.09" x2="391.93" y2="367.62" stroke="#6b4226" stroke-width="2"/><circle cx="385.43" cy="378.88" r="8" fill="none" stroke="#6b4226" stroke-width="3"/><circle cx="385.43" cy="378.88" r="3" fill="#6b4226"/><line x1="394.43" y1="378.88" x2="398.43" y2="378.88" stroke="#6b4226" stroke-width="2"/><line x1="389.93" y1="386.68" x2="391.93" y2="390.14" stroke="#6b4226" stroke-width="2"/><line x1="380.93" y1="386.68" x2="378.93" y2="390.14" stroke="#6b4226" stroke-width="2"/><line x1="376.43" y1="378.88" x2="372.43" y2="378.88" stroke="#6b4226" stroke-width="2"/><line x1="380.93" y1="371.09" x2="378.93" y2="367.62" stroke="#6b4226" stroke-width="2"/><line x1="389.93" y1="371.09" x2="391.93" y2="367.62" stroke="#6b4226" stroke-width="2"/><circle cx="385.43" cy="378.88" r="8" fill="none" stroke="#6b4226" stroke-width="3"/><circle cx="385.43" cy="378.88" r="3" fill="#6b4226"/><line x1="394.43" y1="378.88" x2="398.43" y2="378.88" stroke="#6b4226" stroke-width="2"/><line x1="389.93" y1="386.68" x2="391.93" y2="390.14" stroke="#6b4226" stroke-width="2"/><line x1="380.93" y1="386.68" x2="378.93" y2="390.14" stroke="#6b4226" stroke-width="2"/><line x1="376.43" y1="378.88" x2="372.43" y2="378.88" stroke="#6b4226" stroke-width="2"/><line x1="380.93" y1="371.09" x2="378.93" y2="367.62" stroke="#6b4226" stroke-width="2"/><line x1="389.93" y1="371.09" x2="391.93" y2="367.62" stroke="#6b4226" stroke-width="2"/><circle cx="385.43" cy="378.88" r="8" fill="none" stroke="#6b4226" stroke-width="3"/><circle cx="385.43" cy="378.88" r="3" fill="#6b4226"/><line x1="395.78" y1="363.12" x2="399.78" y2="363.12" stroke="#6b4226" stroke-width="2"/><line x1="391.28" y1="370.91" x2="393.28" y2="374.38" stroke="#6b4226" stroke-width="2"/><line x1="382.28" y1="370.91" x2="380.28" y2="374.38" stroke="#6b4226" stroke-width="2"/><line x1="377.78" y1="363.12" x2="373.78" y2="363.12" stroke="#6b4226" stroke-width="2"/><line x1="382.28" y1="355.33" x2="380.28" y2="351.86" stroke="#6b4226" stroke-width="2"/><line x1="391.28" y1="355.33" x2="393.28" y2="351.86" stroke="#6b4226" stroke-width="2"/><circle cx="386.78" cy="363.12" r="8" fill="none" stroke="#6b4226" stroke-width="3"/><circle cx="386.78" cy="363.12" r="3" fill="#6b4226"/>
  </svg>