<svg xmlns="http://www.w3.org/2000/svg" width="800" height="600" viewBox="0 0 800 600">
    <defs>
      <linearGradient id="sky" x1="0" y1="0" x2="0" y2="1">
        <stop offset="0" stop-color="#fdf6e3"/>
        <stop offset="1" stop-color="#f6e2b3"/>
      </linearGradient>
    </defs>
    <rect x="0" y="0" width="800" height="600" fill="url(#sky)"/>
    <ellipse cx="400" cy="534" rx="105" ry="14" fill="#c9a267" opacity="0.6"/>
    <path d="M 330,526 L 342,560 L 458,560 L 470,526 Z" fill="#a85f3c"/>
    <rect x="326" y="520" width="148" height="10" rx="3" fill="#8a4a2e"/>
    <path d="M 409.61,518.75 L 413.62,503.44 L 395.09,498.14 L 390.39,513.25 Z" fill="#5b3a24"/><path d="M 413.93,501.88 L 415.34,486.12 L 396.92,484.03 L 394.78,499.71 Z" fill="#5b3a24"/><path d="M 415,487.78 L 419.27,472.54 L 402.23,467.34 L 397.26,482.37 Z" fill="#5b3a24"/><path d="M 419.62,470.79 L 420.76,455.01 L 403.75,453.38 L 401.88,469.09 Z" fill="#5b3a24"/><path d="M 420.63,455.9 L 423.42,440.32 L 407.38,437.07 L 403.88,452.5 Z" fill="#5b3a24"/><path d="M 423.53,437.84 L 421.53,422.15 L 405.98,423.78 L 407.26,439.55 Z" fill="#5b3a24"/><path d="M 421.56,423.26 L 421.81,407.44 L 406.91,406.87 L 405.94,422.66 Z" fill="#5b3a24"/><path d="M 421.55,405.18 L 417,390.02 L 403.33,393.78 L 407.17,409.13 Z" fill="#5b3a24"/><path d="M 417,390.03 L 412.47,374.87 L 399.49,378.43 L 403.33,393.78 Z" fill="#5b3a24"/><path d="M 412.25,374.22 L 406.21,359.6 L 394.34,364.2 L 399.7,379.08 Z" fill="#5b3a24"/><path d="M 406.28,359.8 L 400.72,344.99 L 389.39,348.94 L 394.26,364 Z" fill="#5b3a24"/><path d="M 400.98,346.01 L 398.11,330.45 L 386.98,332.24 L 389.13,347.92 Z" fill="#5b3a24"/><path d="M 398.09,330.35 L 394.92,314.84 L 384.54,316.72 L 386.99,332.35 Z" fill="#5b3a24"/><path d="M 394.83,314.46 L 390.5,299.24 L 381,301.71 L 384.62,317.11 Z" fill="#5b3a24"/><path d="M 390.48,299.17 L 385.94,284.01 L 377.18,286.42 L 381.02,301.77 Z" fill="#5b3a24"/><path d="M 385.87,283.79 L 380.56,268.89 L 372.62,271.51 L 377.24,286.65 Z" fill="#5b3a24"/><path d="M 380.67,269.28 L 376.82,253.93 L 369.38,255.61 L 372.51,271.12 Z" fill="#5b3a24"/><path d="M 376.76,253.67 L 371.83,238.63 L 365.22,240.63 L 369.45,255.88 Z" fill="#5b3a24"/><path d="M 371.79,238.51 L 366.29,223.67 L 360.45,225.68 L 365.26,240.76 Z" fill="#5b3a24"/><path d="M 366.32,223.76 L 361.29,208.76 L 356.08,210.38 L 360.42,225.59 Z" fill="#5b3a24"/><path d="M 361.35,208.99 L 357.62,193.61 L 353,194.62 L 356.02,210.15 Z" fill="#5b3a24"/><path d="M 357.66,193.88 L 355.74,178.17 L 351.76,178.57 L 352.96,194.35 Z" fill="#5b3a24"/>
    <path d="M 416.47,457.49 L 454.34,406.37 L 448.56,401.84 L 408.05,450.9 Z" fill="#5b3a24"/><path d="M 453.68,407.02 L 503.17,367.02 L 500.73,363.85 L 449.22,401.19 Z" fill="#5b3a24"/><path d="M 418.15,404.4 L 380.47,354.93 L 375.06,358.87 L 410.57,409.92 Z" fill="#5b3a24"/><path d="M 380.74,355.38 L 351.21,300.66 L 347.65,302.48 L 374.79,358.43 Z" fill="#5b3a24"/><path d="M 403.27,364.59 L 442.95,318.85 L 438.45,314.82 L 397.27,359.2 Z" fill="#8a5a34"/><path d="M 442.25,319.42 L 493.7,287.5 L 491.65,284.06 L 439.15,314.24 Z" fill="#8a5a34"/><path d="M 391.41,312.85 L 332.79,279.99 L 330.11,284.66 L 388.04,318.71 Z" fill="#5b3a24"/><path d="M 333.14,280.23 L 280.35,238.66 L 277.84,241.77 L 329.77,284.43 Z" fill="#5b3a24"/><path d="M 378.7,271.93 L 396.4,249.72 L 392.74,246.73 L 374.48,268.47 Z" fill="#5b3a24"/><path d="M 396.21,249.92 L 416.37,229.92 L 413.59,227.04 L 392.92,246.52 Z" fill="#5b3a24"/><path d="M 365.12,223.57 L 350.68,200.64 L 347.23,202.8 L 361.61,225.78 Z" fill="#5b3a24"/><path d="M 350.57,200.48 L 333.95,179.07 L 330.78,181.52 L 347.35,202.97 Z" fill="#5b3a24"/>
    <ellipse cx="508.05" cy="374.59" rx="48.32" ry="39.67" fill="#4a7c3a"/><ellipse cx="524.57" cy="362.68" rx="29.46" ry="24.16" fill="#4a7c3a"/><ellipse cx="511.3" cy="378.94" rx="28.1" ry="23.04" fill="#8fc76b"/><ellipse cx="496.78" cy="372.15" rx="27.42" ry="22.49" fill="#8fc76b"/><ellipse cx="486.68" cy="367.17" rx="29.31" ry="24.03" fill="#8fc76b"/><ellipse cx="487.46" cy="353.88" rx="36.53" ry="29.95" fill="#8fc76b"/><ellipse cx="512.83" cy="350.91" rx="29.36" ry="24.08" fill="#4a7c3a"/><ellipse cx="501.95" cy="365.44" rx="31.54" ry="26.45" fill="#8fc76b"/><ellipse cx="486.79" cy="353.98" rx="15.01" ry="12.76" fill="#dff2c2" opacity="0.85"/><ellipse cx="499.45" cy="352.06" rx="12.42" ry="10.55" fill="#dff2c2" opacity="0.85"/><ellipse cx="501.28" cy="356.01" rx="12.49" ry="10.62" fill="#dff2c2" opacity="0.85"/><ellipse cx="356.25" cy="311.8" rx="54" ry="44.34" fill="#4a7c3a"/><ellipse cx="361.24" cy="299.74" rx="39.49" ry="32.39" fill="#4a7c3a"/><ellipse cx="358.31" cy="309.07" rx="37.38" ry="30.65" fill="#4a7c3a"/><ellipse cx="344.88" cy="312.84" rx="28.81" ry="23.62" fill="#4a7c3a"/><ellipse cx="337.84" cy="299.66" rx="34.95" ry="28.66" fill="#8fc76b"/><ellipse cx="337.4" cy="291.88" rx="35.78" ry="29.34" fill="#8fc76b"/><ellipse cx="353.48" cy="291.44" rx="38.04" ry="31.19" fill="#8fc76b"/><ellipse cx="349.43" cy="301.57" rx="35.24" ry="29.56" fill="#8fc76b"/><ellipse cx="338.85" cy="300.54" rx="18.43" ry="15.67" fill="#dff2c2" opacity="0.85"/><ellipse cx="335.88" cy="293.62" rx="16.27" ry="13.83" fill="#dff2c2" opacity="0.85"/><ellipse cx="332.67" cy="294.25" rx="17.56" ry="14.93" fill="#dff2c2" opacity="0.85"/><ellipse cx="498.55" cy="294.59" rx="46.5" ry="38.18" fill="#4a7c3a"/><ellipse cx="513.19" cy="286.54" rx="26.73" ry="21.92" fill="#8fc76b"/><ellipse cx="499.53" cy="295.79" rx="29.72" ry="24.37" fill="#4a7c3a"/><ellipse cx="485.45" cy="294.75" rx="33.66" ry="27.6" fill="#4a7c3a"/><ellipse cx="473.3" cy="287.45" rx="26.11" ry="21.41" fill="#8fc76b"/><ellipse cx="486.51" cy="274.53" rx="25.66" ry="21.04" fill="#8fc76b"/><ellipse cx="503.82" cy="275.82" rx="28.89" ry="23.69" fill="#4a7c3a"/><ellipse cx="492.68" cy="285.78" rx="30.35" ry="25.45" fill="#8fc76b"/><ellipse cx="488.9" cy="272.91" rx="14.38" ry="12.22" fill="#dff2c2" opacity="0.85"/><ellipse cx="487.21" cy="280.85" rx="12.85" ry="10.93" fill="#dff2c2" opacity="0.85"/><ellipse cx="472.52" cy="285.24" rx="12.17" ry="10.34" fill="#dff2c2" opacity="0.85"/><ellipse cx="285.69" cy="250.1" rx="52.2" ry="42.86" fill="#4a7c3a"/><ellipse cx="297.56" cy="237.34" rx="33.96" ry="27.85" fill="#8fc76b"/><ellipse cx="283.45" cy="247.86" rx="27.88" ry="22.86" fill="#8fc76b"/><ellipse cx="267.91" cy="249.69" rx="30.38" ry="24.91" fill="#8fc76b"/><ellipse cx="252.84" cy="241.56" rx="33.23" ry="27.25" fill="#8fc76b"/><ellipse cx="270.33" cy="229.48" rx="28.93" ry="23.72" fill="#8fc76b"/><ellipse cx="286.17" cy="228.58" rx="34.58" ry="28.35" fill="#8fc76b"/><ellipse cx="279.09" cy="240.21" rx="34.07" ry="28.57" fill="#8fc76b"/><ellipse cx="266.72" cy="232.18" rx="15.69" ry="13.33" fill="#dff2c2" opacity="0.85"/><ellipse cx="274.73" cy="231.66" rx="17.48" ry="14.86" fill="#dff2c2" opacity="0.85"/><ellipse cx="273.92" cy="223.04" rx="18.62" ry="15.83" fill="#dff2c2" opacity="0.85"/><ellipse cx="420.95" cy="237.44" rx="47.26" ry="38.8" fill="#4a7c3a"/><ellipse cx="428.8" cy="229.5" rx="29.24" ry="23.98" fill="#4a7c3a"/><ellipse cx="421.86" cy="240.1" rx="29.9" ry="24.51" fill="#8fc76b"/><ellipse cx="403.92" cy="243.44" rx="30.03" ry="24.62" fill="#8fc76b"/><ellipse cx="395.3" cy="226.29" rx="34" ry="27.88" fill="#4a7c3a"/><ellipse cx="408.03" cy="222.15" rx="29.35" ry="24.07" fill="#8fc76b"/><ellipse cx="431" cy="215.44" rx="31.71" ry="26" fill="#4a7c3a"/><ellipse cx="414.98" cy="228.48" rx="30.84" ry="25.87" fill="#8fc76b"/><ellipse cx="410.87" cy="221.35" rx="13.77" ry="11.7" fill="#dff2c2" opacity="0.85"/><ellipse cx="412.97" cy="212.67" rx="11.12" ry="9.45" fill="#dff2c2" opacity="0.85"/><ellipse cx="394.97" cy="223.67" rx="16.29" ry="13.85" fill="#dff2c2" opacity="0.85"/><ellipse cx="338.88" cy="190.06" rx="51.54" ry="42.32" fill="#4a7c3a"/><ellipse cx="351.95" cy="181.25" rx="27.5" ry="22.55" fill="#4a7c3a"/><ellipse cx="348.18" cy="196.16" rx="38.44" ry="31.52" fill="#4a7c3a"/><ellipse cx="326.57" cy="190.89" rx="38.15" ry="31.28" fill="#8fc76b"/><ellipse cx="308.4" cy="177.66" rx="30.32" ry="24.86" fill="#4a7c3a"/><ellipse cx="324.48" cy="173.97" rx="33.67" ry="27.61" fill="#8fc76b"/><ellipse cx="346.2" cy="163.78" rx="31.69" ry="25.98" fill="#8fc76b"/><ellipse cx="332.37" cy="180.29" rx="33.64" ry="28.21" fill="#8fc76b"/><ellipse cx="324.59" cy="171.45" rx="18.24" ry="15.5" fill="#dff2c2" opacity="0.85"/><ellipse cx="310.52" cy="178.29" rx="15.31" ry="13.01" fill="#dff2c2" opacity="0.85"/><ellipse cx="320.31" cy="173.29" rx="13.25" ry="11.26" fill="#dff2c2" opacity="0.85"/><ellipse cx="359.63" cy="187.2" rx="46.58" ry="38.25" fill="#4a7c3a"/><ellipse cx="366.67" cy="177.73" rx="31.5" ry="25.83" fill="#8fc76b"/><ellipse cx="359.27" cy="186.08" rx="33.22" ry="27.24" fill="#4a7c3a"/><ellipse cx="350.17" cy="186.71" rx="35.26" ry="28.92" fill="#4a7c3a"/><ellipse cx="332.18" cy="174.35" rx="29.75" ry="24.39" fill="#8fc76b"/><ellipse cx="346.86" cy="161.91" rx="32.75" ry="26.86" fill="#8fc76b"/><ellipse cx="362.4" cy="167.75" rx="25.51" ry="20.92" fill="#4a7c3a"/><ellipse cx="353.75" cy="178.37" rx="30.4" ry="25.5" fill="#8fc76b"/><ellipse cx="342.56" cy="176.69" rx="13.8" ry="11.73" fill="#dff2c2" opacity="0.85"/><ellipse cx="340.34" cy="176.83" rx="11.01" ry="9.36" fill="#dff2c2" opacity="0.85"/><ellipse cx="343.11" cy="165.46" rx="12.68" ry="10.78" fill="#dff2c2" opacity="0.85"/>
    <g><circle cx="468.81" cy="337.01" r="7.6" fill="#ff9ecf" opacity="0.9"/><circle cx="462.24" cy="346.04" r="7.6" fill="#ff9ecf" opacity="0.9"/><circle cx="451.62" cy="342.59" r="7.6" fill="#ff9ecf" opacity="0.9"/><circle cx="451.62" cy="331.42" r="7.6" fill="#ff9ecf" opacity="0.9"/><circle cx="462.24" cy="327.97" r="7.6" fill="#ff9ecf" opacity="0.9"/><circle cx="459.31" cy="337.01" r="6.65" fill="#ffe9a8"/></g><g><circle cx="319.55" cy="277.15" r="5.41" fill="#ffc94d" opacity="0.9"/><circle cx="314.88" cy="283.58" r="5.41" fill="#ffc94d" opacity="0.9"/><circle cx="307.32" cy="281.12" r="5.41" fill="#ffc94d" opacity="0.9"/><circle cx="307.32" cy="273.17" r="5.41" fill="#ffc94d" opacity="0.9"/><circle cx="314.88" cy="270.72" r="5.41" fill="#ffc94d" opacity="0.9"/><circle cx="312.79" cy="277.15" r="4.73" fill="#ffe9a8"/></g>
    
    
    <line x1="409" y1="516" x2="413" y2="516" stroke="#6b4226" stroke-width="2"/><line x1="404.5" y1="523.79" x2="406.5" y2="527.26" stroke="#6b4226" stroke-width="2"/><line x1="395.5" y1="523.79" x2="393.5" y2="527.26" stroke="#6b4226" stroke-width="2"/><line x1="391" y1="516" x2="387" y2="516" stroke="#6b4226" stroke-width="2"/><line x1="395.5" y1="508.21" x2="393.5" y2="504.74" stroke="#6b4226" stroke-width="2"/><line x1="404.5" y1="508.21" x2="406.5" y2="504.74" stroke="#6b4226" stroke-width="2"/><circle cx="400" cy="516" r="8" fill="none" stroke="#6b4226" stroke-width="3"/><circle cx="400" cy="516" r="3" fill="#6b4226"/><line x1="409" y1="516" x2="413" y2="516" stroke="#6b4226" stroke-width="2"/><line x1="404.5" y1="523.79" x2="406.5" y2="527.26" stroke="#6b4226" stroke-width="2"/><line x1="395.5" y1="523.79" x2="393.5" y2="527.26" stroke="#6b4226" stroke-width="2"/><line x1="391" y1="516" x2="387" y2="516" stroke="#6b4226" stroke-width="2"/><line x1="395.5" y1="508.21" x2="393.5" y2="504.74" stroke="#6b4226" stroke-width="2"/><line x1="404.5" y1="508.21" x2="406.5" y2="504.74" stroke="#6b4226" stroke-width="2"/><circle cx="400" cy="516" r="8" fill="none" stroke="#6b4226" stroke-width="3"/><circle cx="400" cy="516" r="3" fill="#6b4226"/><line x1="409" y1="516" x2="413" y2="516" stroke="#6b4226" stroke-width="2"/><line x1="404.5" y1="523.79" x2="406.5" y2="527.26" stroke="#6b4226" stroke-width="2"/><line x1="395.5" y1="523.79" x2="393.5" y2="527.26" stroke="#6b4226" stroke-width="2"/><line x1="391" y1="516" x2="387" y2="516" stroke="#6b4226" stroke-width="2"/><line x1="395.5" y1="508.21" x2="393.5" y2="504.74" stroke="#6b4226" stroke-width="2"/><line x1="404.5" y1="508.21" x2="406.5" y2="504.74" stroke="#6b4226" stroke-width="2"/><circle cx="400" cy="516" r="8" fill="none" stroke="#6b4226" stroke-width="3"/><circle cx="400" cy="516" r="3" fill="#6b4226"/><line x1="409" y1="516" x2="413" y2="516" stroke="#6b4226" stroke-width="2"/><line x1="404.5" y1="523.79" x2="406.5" y2="527.26" stroke="#6b4226" stroke-width="2"/><line x1="395.5" y1="523.79" x2="393.5" y2="527.26" stroke="#6b4226" stroke-width="2"/><line x1="391" y1="516" x2="387" y2="516" stroke="#6b4226" stroke-width="2"/><line x1="395.5" y1="508.21" x2="393.5" y2="504.74" stroke="#6b4226" stroke-width="2"/><line x1="404.5" y1="508.21" x2="406.5" y2="504.74" stroke="#6b4226" stroke-width="2"/><circle cx="400" cy="516" r="8" fill="none" stroke="#6b4226" stroke-width="3"/><circle cx="400" cy="516" r="3" fill="#6b4226"/><line x1="419.75" y1="469.94" x2="423.75" y2="469.94" stroke="#6b4226" stroke-width="2"/><line x1="415.25" y1="477.74" x2="417.25" y2="481.2" stroke="#6b4226" stroke-width="2"/><line x1="406.25" y1="477.74" x2="404.25" y2="481.2" stroke="#6b4226" stroke-width="2"/><line x1="401.75" y1="469.94" x2="397.75" y2="469.94" stroke="#6b4226" stroke-width="2"/><line x1="406.25" y1="462.15" x2="404.25" y2="458.69" stroke="#6b4226" stroke-width="2"/><line x1="415.25" y1="462.15" x2="417.25" y2="458.69" stroke="#6b4226" stroke-width="2"/><circle cx="410.75" cy="469.94" r="8" fill="none" stroke="#6b4226" stroke-width="3"/><circle cx="410.75" cy="469.94" r="3" fill="#6b4226"/><line x1="419.75" y1="469.94" x2="423.75" y2="469.94" stroke="#6b4226" stroke-width="2"/><line x1="415.25" y1="477.74" x2="417.25" y2="481.2" stroke="#6b4226" stroke-width="2"/><line x1="406.25" y1="477.74" x2="404.25" y2="481.2" stroke="#6b4226" stroke-width="2"/><line x1="401.75" y1="469.94" x2="397.75" y2="469.94" stroke="#6b4226" stroke-width="2"/><line x1="406.25" y1="462.15" x2="404.25" y2="458.69" stroke="#6b4226" stroke-width="2"/><line x1="415.25" y1="462.15" x2="417.25" y2="458.69" stroke="#6b4226" stroke-width="2"/><circle cx="410.75" cy="469.94" r="8" fill="none" stroke="#6b4226" stroke-width="3"/><circle cx="410.75" cy="469.94" r="3" fill="#6b4226"/><line x1="419.75" y1="469.94" x2="423.75" y2="469.94" stroke="#6b4226" stroke-width="2"/><line x1="415.25" y1="477.74" x2="417.25" y2="481.2" stroke="#6b4226" stroke-width="2"/><line x1="406.25" y1="477.74" x2="404.25" y2="481.2" stroke="#6b4226" stroke-width="2"/><line x1="401.75" y1="469.94" x2="397.75" y2="469.94" stroke="#6b4226" stroke-width="2"/><line x1="406.25" y1="462.15" x2="404.25" y2="458.69" stroke="#6b4226" stroke-width="2"/><line x1="415.25" y1="462.15" x2="417.25" y2="458.69" stroke="#6b4226" stroke-width="2"/><circle cx="410.75" cy="469.94" r="8" fill="none" stroke="#6b4226" stroke-width="3"/><circle cx="410.75" cy="469.94" r="3" fill="#6b4226"/><line x1="419.75" y1="469.94" x2="423.75" y2="469.94" stroke="#6b4226" stroke-width="2"/><line x1="415.25" y1="477.74" x2="417.25" y2="481.2" stroke="#6b4226" stroke-width="2"/><line x1="406.25" y1="477.74" x2="404.25" y2="481.2" stroke="#6b4226" stroke-width="2"/><line x1="401.75" y1="469.94" x2="397.75" y2="469.94" stroke="#6b4226" stroke-width="2"/><line x1="406.25" y1="462.15" x2="404.25" y2="458.69" stroke="#6b4226" stroke-width="2"/><line x1="415.25" y1="462.15" x2="417.25" y2="458.69" stroke="#6b4226" stroke-width="2"/><circle cx="410.75" cy="469.94" r="8" fill="none" stroke="#6b4226" stroke-width="3"/><circle cx="410.75" cy="469.94" r="3" fill="#6b4226"/><line x1="419.75" y1="469.94" x2="423.75" y2="469.94" stroke="#6b4226" stroke-width="2"/><line x1="415.25" y1="477.74" x2="417.25" y2="481.2" stroke="#6b4226" stroke-width="2"/><line x1="406.25" y1="477.74" x2="404.25" y2="481.2" stroke="#6b4226" stroke-width="2"/><line x1="401.75" y1="469.94" x2="397.75" y2="469.94" stroke="#6b4226" stroke-width="2"/><line x1="406.25" y1="462.15" x2="404.25" y2="458.69" stroke="#6b4226" stroke-width="2"/><line x1="415.25" y1="462.15" x2="417.25" y2="458.69" stroke="#6b4226" stroke-width="2"/><circle cx="410.75" cy="469.94" r="8" fill="none" stroke="#6b4226" stroke-width="3"/><circle cx="410.75" cy="469.94" r="3" fill="#6b4226"/><line x1="419.75" y1="469.94" x2="423.75" y2="469.94" stroke="#6b4226" stroke-width="2"/><line x1="415.25" y1="477.74" x2="417.25" y2="481.2" stroke="#6b4226" stroke-width="2"/><line x1="406.25" y1="477.74" x2="404.25" y2="481.2" stroke="#6b4226" stroke-width="2"/><line x1="401.75" y1="469.94" x2="397.75" y2="469.94" stroke="#6b4226" stroke-width="2"/><line x1="406.25" y1="462.15" x2="404.25" y2="458.69" stroke="#6b4226" stroke-width="2"/><line x1="415.25" y1="462.15" x2="417.25" y2="458.69" stroke="#6b4226" stroke-width="2"/><circle cx="410.75" cy="469.94" r="8" fill="none" stroke="#6b4226" stroke-width="3"/><circle cx="410.75" cy="469.94" r="3" fill="#6b4226"/>
  </svg>