<svg xmlns="http://www.w3.org/2000/svg" width="800" height="600" viewBox="0 0 800 600">
    <defs>
      <linearGradient id="sky" x1="0" y1="0" x2="0" y2="1">
        <stop offset="0" stop-color="#fdf6e3"/>
        <stop offset="1" stop-color="#f6e2b3"/>
      </linearGradient>
    </defs>
    <rect x="0" y="0" width="800" height="600" fill="url(#sky)"/>
    <ellipse cx="400" cy="534" rx="105" ry="14" fill="#c9a267" opacity="0.6"/>
    <path d="M 330,526 L 342,560 L 458,560 L 470,526 Z" fill="#a85f3c"/>
    <rect x="326" y="520" width="148" height="10" rx="3" fill="#8a4a2e"/>
    <path d="M 409.7,513.58 L 405.53,498.32 L 386.83,502.98 L 390.3,518.42 Z" fill="#5b3a24"/><path d="M 404.67,496.09 L 396.86,482.33 L 380.53,491.1 L 387.69,505.21 Z" fill="#5b3a24"/><path d="M 397.91,485.66 L 395.74,469.98 L 378.03,472.02 L 379.48,487.78 Z" fill="#5b3a24"/><path d="M 395.74,470.04 L 393.68,454.36 L 376.69,456.19 L 378.03,471.96 Z" fill="#5b3a24"/><path d="M 393.59,453.77 L 390.45,438.26 L 374.34,441.14 L 376.77,456.78 Z" fill="#5b3a24"/><path d="M 390.57,440.07 L 390.91,424.25 L 375.29,423.55 L 374.22,439.34 Z" fill="#5b3a24"/><path d="M 390.83,422.71 L 388.06,407.13 L 373.32,409.41 L 375.38,425.09 Z" fill="#5b3a24"/><path d="M 387.85,406.21 L 383.14,391.11 L 369.51,395.02 L 373.52,410.32 Z" fill="#5b3a24"/><path d="M 383.37,392.28 L 381.26,376.6 L 367.89,378.09 L 369.28,393.85 Z" fill="#5b3a24"/><path d="M 381.29,377.07 L 380.3,361.28 L 367.58,361.79 L 367.85,377.61 Z" fill="#5b3a24"/><path d="M 380.25,362.4 L 382.03,346.68 L 370.14,345.05 L 367.64,360.68 Z" fill="#5b3a24"/><path d="M 382.08,345.93 L 381.89,330.11 L 370.61,329.99 L 370.08,345.8 Z" fill="#5b3a24"/><path d="M 381.85,329.4 L 379.66,313.73 L 369.19,314.94 L 370.65,330.7 Z" fill="#5b3a24"/><path d="M 379.7,314.39 L 379.49,298.57 L 369.67,298.47 L 369.15,314.28 Z" fill="#5b3a24"/><path d="M 379.47,298.96 L 380.52,283.17 L 371.47,282.36 L 369.69,298.08 Z" fill="#5b3a24"/><path d="M 380.54,282.91 L 380.69,267.09 L 372.33,266.82 L 371.45,282.62 Z" fill="#5b3a24"/><path d="M 380.61,266.11 L 377.08,250.69 L 369.6,252.22 L 372.41,267.79 Z" fill="#5b3a24"/><path d="M 377.05,250.55 L 372.93,235.27 L 366.22,236.91 L 369.63,252.36 Z" fill="#5b3a24"/><path d="M 373.03,235.9 L 371.79,220.13 L 365.62,220.47 L 366.13,236.28 Z" fill="#5b3a24"/><path d="M 371.78,220.57 L 372.83,204.78 L 367.39,204.3 L 365.63,220.02 Z" fill="#5b3a24"/><path d="M 372.8,204.09 L 369.85,188.55 L 365.18,189.33 L 367.42,204.99 Z" fill="#5b3a24"/><path d="M 369.7,188.04 L 363.36,173.54 L 359.66,175.06 L 365.33,189.83 Z" fill="#5b3a24"/>
    <path d="M 387.95,459.85 L 450.25,420.22 L 446.45,413.94 L 382.42,450.7 Z" fill="#8a5a34"/><path d="M 450.2,420.26 L 513.13,381.63 L 511.11,378.18 L 446.5,413.91 Z" fill="#8a5a34"/><path d="M 384.44,405.46 L 342.7,352.01 L 337.35,356.02 L 376.93,411.08 Z" fill="#5b3a24"/><path d="M 342.94,352.37 L 308.36,294.03 L 304.88,296 L 337.11,355.66 Z" fill="#5b3a24"/><path d="M 376.29,364.82 L 434.27,322.03 L 430.75,317.12 L 371.59,358.26 Z" fill="#5b3a24"/><path d="M 433.88,322.26 L 497.59,288.59 L 495.77,285.02 L 431.14,316.89 Z" fill="#5b3a24"/><path d="M 376.99,312.13 L 328.73,257.16 L 324.65,260.67 L 371.86,316.54 Z" fill="#5b3a24"/><path d="M 328.18,256.68 L 266.91,216.72 L 264.69,220.05 L 325.2,261.16 Z" fill="#5b3a24"/><path d="M 377.96,269.26 L 435.54,232.74 L 433.03,228.74 L 375.06,264.64 Z" fill="#8a5a34"/><path d="M 435.77,232.58 L 488.56,189.42 L 486.04,186.31 L 432.79,228.9 Z" fill="#8a5a34"/><path d="M 370.08,218.74 L 313.69,169.03 L 310.99,172.09 L 367.33,221.85 Z" fill="#8a5a34"/><path d="M 313.21,168.72 L 245.19,136.72 L 243.48,140.34 L 311.47,172.4 Z" fill="#8a5a34"/>
    <ellipse cx="518.39" cy="389.31" rx="49.64" ry="40.76" fill="#4a7c3a"/><ellipse cx="524.32" cy="378.03" rx="27.72" ry="22.73" fill="#8fc76b"/><ellipse cx="515.85" cy="387.44" rx="28.29" ry="23.19" fill="#8fc76b"/><ellipse cx="499.69" cy="392.8" rx="31.14" ry="25.54" fill="#4a7c3a"/><ellipse cx="489.75" cy="378.87" rx="31.34" ry="25.7" fill="#8fc76b"/><ellipse cx="501.35" cy="371.07" rx="34.43" ry="28.23" fill="#8fc76b"/><ellipse cx="521.24" cy="370.1" rx="35.62" ry="29.21" fill="#8fc76b"/><ellipse cx="512.12" cy="379.91" rx="32.4" ry="27.17" fill="#8fc76b"/><ellipse cx="509.32" cy="369.28" rx="16.84" ry="14.31" fill="#dff2c2" opacity="0.85"/><ellipse cx="510.8" cy="373.69" rx="17.79" ry="15.13" fill="#dff2c2" opacity="0.85"/><ellipse cx="498.83" cy="378.41" rx="18.32" ry="15.57" fill="#dff2c2" opacity="0.85"/><ellipse cx="312.37" cy="303.64" rx="45.52" ry="37.37" fill="#4a7c3a"/><ellipse cx="317.44" cy="297.07" rx="25.71" ry="21.08" fill="#8fc76b"/><ellipse cx="317.99" cy="310.16" rx="33.2" ry="27.22" fill="#4a7c3a"/><ellipse cx="298.34" cy="305.09" rx="27.74" ry="22.75" fill="#8fc76b"/><ellipse cx="286.1" cy="295.15" rx="33.19" ry="27.21" fill="#4a7c3a"/><ellipse cx="294.26" cy="280.4" rx="32.04" ry="26.27" fill="#8fc76b"/><ellipse cx="313.67" cy="286.63" rx="26.31" ry="21.58" fill="#8fc76b"/><ellipse cx="306.62" cy="295.01" rx="29.7" ry="24.91" fill="#8fc76b"/><ellipse cx="299.01" cy="292.62" rx="13.2" ry="11.22" fill="#dff2c2" opacity="0.85"/><ellipse cx="299.91" cy="289.52" rx="12.92" ry="10.99" fill="#dff2c2" opacity="0.85"/><ellipse cx="298.64" cy="291.73" rx="12.95" ry="11" fill="#dff2c2" opacity="0.85"/><ellipse cx="503.23" cy="296.63" rx="51.88" ry="42.6" fill="#4a7c3a"/><ellipse cx="514.54" cy="284.31" rx="30.62" ry="25.11" fill="#4a7c3a"/><ellipse cx="503.48" cy="297.64" rx="36.01" ry="29.53" fill="#8fc76b"/><ellipse cx="482.05" cy="298.08" rx="39" ry="31.98" fill="#4a7c3a"/><ellipse cx="475.23" cy="288.17" rx="31.91" ry="26.17" fill="#4a7c3a"/><ellipse cx="484.28" cy="270.77" rx="36.19" ry="29.67" fill="#8fc76b"/><ellipse cx="507.09" cy="272.44" rx="29.87" ry="24.49" fill="#8fc76b"/><ellipse cx="496.68" cy="286.8" rx="33.86" ry="28.4" fill="#8fc76b"/><ellipse cx="485.11" cy="284.95" rx="18.17" ry="15.45" fill="#dff2c2" opacity="0.85"/><ellipse cx="487.47" cy="283.59" rx="14.16" ry="12.03" fill="#dff2c2" opacity="0.85"/><ellipse cx="478.14" cy="278.23" rx="18.21" ry="15.48" fill="#dff2c2" opacity="0.85"/><ellipse cx="272.01" cy="227.71" rx="49.17" ry="40.37" fill="#4a7c3a"/><ellipse cx="283.18" cy="215.51" rx="27.37" ry="22.44" fill="#4a7c3a"/><ellipse cx="270.68" cy="230.19" rx="32.68" ry="26.8" fill="#8fc76b"/><ellipse cx="262.2" cy="226.93" rx="32.82" ry="26.91" fill="#8fc76b"/><ellipse cx="248.95" cy="215.67" rx="28.06" ry="23.01" fill="#4a7c3a"/><ellipse cx="251.09" cy="203.93" rx="33.03" ry="27.09" fill="#8fc76b"/><ellipse cx="272.13" cy="207.28" rx="30.14" ry="24.72" fill="#4a7c3a"/><ellipse cx="265.8" cy="218.39" rx="32.09" ry="26.92" fill="#8fc76b"/><ellipse cx="255.47" cy="206.84" rx="14.92" ry="12.68" fill="#dff2c2" opacity="0.85"/><ellipse cx="248.06" cy="208.97" rx="16.7" ry="14.19" fill="#dff2c2" opacity="0.85"/><ellipse cx="250.55" cy="214.21" rx="18.09" ry="15.38" fill="#dff2c2" opacity="0.85"/><ellipse cx="493.65" cy="197.39" rx="50.27" ry="41.28" fill="#4a7c3a"/><ellipse cx="499.02" cy="188.67" rx="28.12" ry="23.06" fill="#4a7c3a"/><ellipse cx="497.66" cy="198.29" rx="28.08" ry="23.03" fill="#4a7c3a"/><ellipse cx="477.92" cy="201.46" rx="35.58" ry="29.17" fill="#8fc76b"/><ellipse cx="473.34" cy="189.03" rx="34.05" ry="27.92" fill="#4a7c3a"/><ellipse cx="473.56" cy="172.84" rx="29.44" ry="24.14" fill="#4a7c3a"/><ellipse cx="503.35" cy="174.56" rx="26.86" ry="22.02" fill="#8fc76b"/><ellipse cx="487.3" cy="187.87" rx="32.81" ry="27.52" fill="#8fc76b"/><ellipse cx="481.31" cy="174.1" rx="17.64" ry="14.99" fill="#dff2c2" opacity="0.85"/><ellipse cx="479.79" cy="182.85" rx="17.54" ry="14.91" fill="#dff2c2" opacity="0.85"/><ellipse cx="479.47" cy="174.45" rx="11.81" ry="10.04" fill="#dff2c2" opacity="0.85"/><ellipse cx="251.12" cy="148.71" rx="53.7" ry="44.09" fill="#4a7c3a"/><ellipse cx="261.7" cy="137.02" rx="39.46" ry="32.35" fill="#8fc76b"/><ellipse cx="254.36" cy="153.33" rx="30.89" ry="25.33" fill="#8fc76b"/><ellipse cx="234.75" cy="152.37" rx="32.17" ry="26.38" fill="#8fc76b"/><ellipse cx="223.48" cy="135.9" rx="30.29" ry="24.84" fill="#8fc76b"/><ellipse cx="240.86" cy="129.54" rx="34.33" ry="28.15" fill="#4a7c3a"/><ellipse cx="256.64" cy="125.49" rx="34.93" ry="28.64" fill="#4a7c3a"/><ellipse cx="244.34" cy="138.53" rx="35.05" ry="29.4" fill="#8fc76b"/><ellipse cx="241.93" cy="124.73" rx="19.1" ry="16.24" fill="#dff2c2" opacity="0.85"/><ellipse cx="231.22" cy="133.66" rx="14.83" ry="12.61" fill="#dff2c2" opacity="0.85"/><ellipse cx="238.55" cy="128.46" rx="20.25" ry="17.21" fill="#dff2c2" opacity="0.85"/><ellipse cx="369" cy="185.54" rx="59.31" ry="48.69" fill="#4a7c3a"/><ellipse cx="373.89" cy="172.52" rx="42.46" ry="34.82" fill="#8fc76b"/><ellipse cx="375.82" cy="189.18" rx="35.6" ry="29.19" fill="#8fc76b"/><ellipse cx="357.45" cy="185.13" rx="31.54" ry="25.87" fill="#8fc76b"/><ellipse cx="340.13" cy="173.57" rx="36.5" ry="29.93" fill="#8fc76b"/><ellipse cx="349.62" cy="164.43" rx="32.24" ry="26.44" fill="#4a7c3a"/><ellipse cx="372.91" cy="158.89" rx="36.39" ry="29.84" fill="#8fc76b"/><ellipse cx="361.51" cy="174.3" rx="38.71" ry="32.46" fill="#8fc76b"/><ellipse cx="335.15" cy="169.77" rx="20.17" ry="17.14" fill="#dff2c2" opacity="0.85"/><ellipse cx="347.35" cy="171.48" rx="13.87" ry="11.79" fill="#dff2c2" opacity="0.85"/><ellipse cx="348.63" cy="171.27" rx="22.11" ry="18.79" fill="#dff2c2" opacity="0.85"/>
    <g><circle cx="528.88" cy="384.74" r="7.6" fill="#ff9ecf" opacity="0.9"/><circle cx="522.31" cy="393.78" r="7.6" fill="#ff9ecf" opacity="0.9"/><circle cx="511.69" cy="390.33" r="7.6" fill="#ff9ecf" opacity="0.9"/><circle cx="511.69" cy="379.16" r="7.6" fill="#ff9ecf" opacity="0.9"/><circle cx="522.31" cy="375.71" r="7.6" fill="#ff9ecf" opacity="0.9"/><circle cx="519.38" cy="384.74" r="6.65" fill="#ffe9a8"/></g><g><circle cx="540.65" cy="392.59" r="7.6" fill="#ffc94d" opacity="0.9"/><circle cx="534.08" cy="401.63" r="7.6" fill="#ffc94d" opacity="0.9"/><circle cx="523.46" cy="398.18" r="7.6" fill="#ffc94d" opacity="0.9"/><circle cx="523.46" cy="387.01" r="7.6" fill="#ffc94d" opacity="0.9"/><circle cx="534.08" cy="383.56" r="7.6" fill="#ffc94d" opacity="0.9"/><circle cx="531.15" cy="392.59" r="6.65" fill="#ffe9a8"/></g><g><circle cx="487.82" cy="357.38" r="7.6" fill="#ffc94d" opacity="0.9"/><circle cx="481.26" cy="366.41" r="7.6" fill="#ffc94d" opacity="0.9"/><circle cx="470.64" cy="362.96" r="7.6" fill="#ffc94d" opacity="0.9"/><circle cx="470.64" cy="351.79" r="7.6" fill="#ffc94d" opacity="0.9"/><circle cx="481.26" cy="348.34" r="7.6" fill="#ffc94d" opacity="0.9"/><circle cx="478.32" cy="357.38" r="6.65" fill="#ffe9a8"/></g><g><circle cx="487.11" cy="356.9" r="7.6" fill="#ff9ecf" opacity="0.9"/><circle cx="480.55" cy="365.94" r="7.6" fill="#ff9ecf" opacity="0.9"/><circle cx="469.93" cy="362.48" r="7.6" fill="#ff9ecf" opacity="0.9"/><circle cx="469.93" cy="351.32" r="7.6" fill="#ff9ecf" opacity="0.9"/><circle cx="480.55" cy="347.87" r="7.6" fill="#ff9ecf" opacity="0.9"/><circle cx="477.61" cy="356.9" r="6.65" fill="#ffe9a8"/></g>
    <path d="M 329.83,339.16 Q 342.33,348.89 329.83,366.94 Q 317.33,348.89 329.83,339.16 Z" fill="#e0a940" opacity="0.88" transform="rotate(335.42 329.83 353.05)"/><path d="M 281.21,312.76 Q 293.71,322.48 281.21,340.54 Q 268.71,322.48 281.21,312.76 Z" fill="#8a5a2c" opacity="0.88" transform="rotate(340.76 281.21 326.65)"/><path d="M 327.25,299.24 Q 339.75,308.96 327.25,327.01 Q 314.75,308.96 327.25,299.24 Z" fill="#e0a940" opacity="0.88" transform="rotate(153.52 327.25 313.13)"/><path d="M 315.74,350.63 Q 328.24,360.36 315.74,378.41 Q 303.24,360.36 315.74,350.63 Z" fill="#c1440e" opacity="0.88" transform="rotate(134.73 315.74 364.52)"/><path d="M 336.72,323.58 Q 349.22,333.3 336.72,351.35 Q 324.22,333.3 336.72,323.58 Z" fill="#8a5a2c" opacity="0.88" transform="rotate(105.03 336.72 337.46)"/><path d="M 271.22,321.59 Q 283.72,331.31 271.22,349.37 Q 258.72,331.31 271.22,321.59 Z" fill="#e0a940" opacity="0.88" transform="rotate(242.24 271.22 335.48)"/>
    <path d="M 377.91,387.27 L 355.25,383.69 L 353.41,390.44 L 374.75,398.85 Z" fill="#5b3a24"/><path d="M 354.33,380.06 L 347.33,386.06 L 356.33,391.06 L 348.33,396.06" stroke="#b23b3b" stroke-width="3" fill="none" stroke-linecap="round" stroke-linejoin="round"/><circle cx="344.33" cy="377.06" r="2.5" fill="#8a5a34"/><circle cx="350.33" cy="399.06" r="2" fill="#8a5a34"/>
    <line x1="395.88" y1="471" x2="399.88" y2="471" stroke="#6b4226" stroke-width="2"/><line x1="391.38" y1="478.8" x2="393.38" y2="482.26" stroke="#6b4226" stroke-width="2"/><line x1="382.38" y1="478.8" x2="380.38" y2="482.26" stroke="#6b4226" stroke-width="2"/><line x1="377.88" y1="471" x2="373.88" y2="471" stroke="#6b4226" stroke-width="2"/><line x1="382.38" y1="463.21" x2="380.38" y2="459.74" stroke="#6b4226" stroke-width="2"/><line x1="391.38" y1="463.21" x2="393.38" y2="459.74" stroke="#6b4226" stroke-width="2"/><circle cx="386.88" cy="471" r="8" fill="none" stroke="#6b4226" stroke-width="3"/><circle cx="386.88" cy="471" r="3" fill="#6b4226"/><line x1="391.4" y1="439.7" x2="395.4" y2="439.7" stroke="#6b4226" stroke-width="2"/><line x1="386.9" y1="447.5" x2="388.9" y2="450.96" stroke="#6b4226" stroke-width="2"/><line x1="377.9" y1="447.5" x2="375.9" y2="450.96" stroke="#6b4226" stroke-width="2"/><line x1="373.4" y1="439.7" x2="369.4" y2="439.7" stroke="#6b4226" stroke-width="2"/><line x1="377.9" y1="431.91" x2="375.9" y2="428.45" stroke="#6b4226" stroke-width="2"/><line x1="386.9" y1="431.91" x2="388.9" y2="428.45" stroke="#6b4226" stroke-width="2"/><circle cx="382.4" cy="439.7" r="8" fill="none" stroke="#6b4226" stroke-width="3"/><circle cx="382.4" cy="439.7" r="3" fill="#6b4226"/><line x1="389.69" y1="408.27" x2="393.69" y2="408.27" stroke="#6b4226" stroke-width="2"/><line x1="385.19" y1="416.06" x2="387.19" y2="419.53" stroke="#6b4226" stroke-width="2"/><line x1="376.19" y1="416.06" x2="374.19" y2="419.53" stroke="#6b4226" stroke-width="2"/><line x1="371.69" y1="408.27" x2="367.69" y2="408.27" stroke="#6b4226" stroke-width="2"/><line x1="376.19" y1="400.47" x2="374.19" y2="397.01" stroke="#6b4226" stroke-width="2"/><line x1="385.19" y1="400.47" x2="387.19" y2="397.01" stroke="#6b4226" stroke-width="2"/><circle cx="380.69" cy="408.27" r="8" fill="none" stroke="#6b4226" stroke-width="3"/><circle cx="380.69" cy="408.27" r="3" fill="#6b4226"/><line x1="382.94" y1="361.54" x2="386.94" y2="361.54" stroke="#6b4226" stroke-width="2"/><line x1="378.44" y1="369.33" x2="380.44" y2="372.8" stroke="#6b4226" stroke-width="2"/><line x1="369.44" y1="369.33" x2="367.44" y2="372.8" stroke="#6b4226" stroke-width="2"/><line x1="364.94" y1="361.54" x2="360.94" y2="361.54" stroke="#6b4226" stroke-width="2"/><line x1="369.44" y1="353.74" x2="367.44" y2="350.28" stroke="#6b4226" stroke-width="2"/><line x1="378.44" y1="353.74" x2="380.44" y2="350.28" stroke="#6b4226" stroke-width="2"/><circle cx="373.94" cy="361.54" r="8" fill="none" stroke="#6b4226" stroke-width="3"/><circle cx="373.94" cy="361.54" r="3" fill="#6b4226"/><line x1="383.42" y1="314.33" x2="387.42" y2="314.33" stroke="#6b4226" stroke-width="2"/><line x1="378.92" y1="322.13" x2="380.92" y2="325.59" stroke="#6b4226" stroke-width="2"/><line x1="369.92" y1="322.13" x2="367.92" y2="325.59" stroke="#6b4226" stroke-width="2"/><line x1="365.42" y1="314.33" x2="361.42" y2="314.33" stroke="#6b4226" stroke-width="2"/><line x1="369.92" y1="306.54" x2="367.92" y2="303.08" stroke="#6b4226" stroke-width="2"/><line x1="378.92" y1="306.54" x2="380.92" y2="303.08" stroke="#6b4226" stroke-width="2"/><circle cx="374.42" cy="314.33" r="8" fill="none" stroke="#6b4226" stroke-width="3"/><circle cx="374.42" cy="314.33" r="3" fill="#6b4226"/><line x1="385" y1="282.76" x2="389" y2="282.76" stroke="#6b4226" stroke-width="2"/><line x1="380.5" y1="290.56" x2="382.5" y2="294.02" stroke="#6b4226" stroke-width="2"/><line x1="371.5" y1="290.56" x2="369.5" y2="294.02" stroke="#6b4226" stroke-width="2"/><line x1="367" y1="282.76" x2="363" y2="282.76" stroke="#6b4226" stroke-width="2"/><line x1="371.5" y1="274.97" x2="369.5" y2="271.5" stroke="#6b4226" stroke-width="2"/><line x1="380.5" y1="274.97" x2="382.5" y2="271.5" stroke="#6b4226" stroke-width="2"/><circle cx="376" cy="282.76" r="8" fill="none" stroke="#6b4226" stroke-width="3"/><circle cx="376" cy="282.76" r="3" fill="#6b4226"/><line x1="378.58" y1="236.09" x2="382.58" y2="236.09" stroke="#6b4226" stroke-width="2"/><line x1="374.08" y1="243.88" x2="376.08" y2="247.35" stroke="#6b4226" stroke-width="2"/><line x1="365.08" y1="243.88" x2="363.08" y2="247.35" stroke="#6b4226" stroke-width="2"/><line x1="360.58" y1="236.09" x2="356.58" y2="236.09" stroke="#6b4226" stroke-width="2"/><line x1="365.08" y1="228.3" x2="363.08" y2="224.83" stroke="#6b4226" stroke-width="2"/><line x1="374.08" y1="228.3" x2="376.08" y2="224.83" stroke="#6b4226" stroke-width="2"/><circle cx="369.58" cy="236.09" r="8" fill="none" stroke="#6b4226" stroke-width="3"/><circle cx="369.58" cy="236.09" r="3" fill="#6b4226"/><line x1="379.11" y1="204.54" x2="383.11" y2="204.54" stroke="#6b4226" stroke-width="2"/><line x1="374.61" y1="212.34" x2="376.61" y2="215.8" stroke="#6b4226" stroke-width="2"/><line x1="365.61" y1="212.34" x2="363.61" y2="215.8" stroke="#6b4226" stroke-width="2"/><line x1="361.11" y1="204.54" x2="357.11" y2="204.54" stroke="#6b4226" stroke-width="2"/><line x1="365.61" y1="196.75" x2="363.61" y2="193.28" stroke="#6b4226" stroke-width="2"/><line x1="374.61" y1="196.75" x2="376.61" y2="193.28" stroke="#6b4226" stroke-width="2"/><circle cx="370.11" cy="204.54" r="8" fill="none" stroke="#6b4226" stroke-width="3"/><circle cx="370.11" cy="204.54" r="3" fill="#6b4226"/>
  </svg>